<svg width="30" height="24" viewBox="0 0 30 24" fill="none" xmlns="http://www.w3.org/2000/svg">
<path d="M4.73438 11.8906C4.73438 14.4948 4.94792 16.4896 5.375 17.875C5.80208 19.25 6.67708 19.9375 8 19.9375C9.32292 19.9375 10.1875 19.25 10.5938 17.875C11.0104 16.4896 11.2188 14.4948 11.2188 11.8906C11.2188 9.16146 11.0104 7.14062 10.5938 5.82812C10.1875 4.51562 9.32292 3.85938 8 3.85938C6.67708 3.85938 5.80208 4.51562 5.375 5.82812C4.94792 7.14062 4.73438 9.16146 4.73438 11.8906ZM8 0.1875C10.8854 0.1875 12.9062 1.20312 14.0625 3.23438C15.2292 5.26562 15.8125 8.15104 15.8125 11.8906C15.8125 15.6302 15.2292 18.5104 14.0625 20.5312C12.9062 22.5521 10.8854 23.5625 8 23.5625C5.11458 23.5625 3.08854 22.5521 1.92188 20.5312C0.765625 18.5104 0.1875 15.6302 0.1875 11.8906C0.1875 8.15104 0.765625 5.26562 1.92188 3.23438C3.08854 1.20312 5.11458 0.1875 8 0.1875ZM19.2188 7.375V4.34375C20.625 4.28125 21.6094 4.1875 22.1719 4.0625C23.0677 3.86458 23.7969 3.46875 24.3594 2.875C24.7448 2.46875 25.0365 1.92708 25.2344 1.25C25.349 0.84375 25.4062 0.541667 25.4062 0.34375H29.1094V23H24.5469V7.375H19.2188Z" fill="#967110"/>
</svg>
