<svg width="180" height="23" viewBox="0 0 180 23" fill="none" xmlns="http://www.w3.org/2000/svg">
<path fill-rule="evenodd" clip-rule="evenodd" d="M11.5 1C17.8408 1 23 5.04182 23 10.0108C23 11.9998 22.2022 13.7903 20.5347 15.5544C18.1226 18.236 12.7276 21.502 11.5 22.0016C10.3069 22.4874 10.4449 21.7282 10.4995 21.4284L10.5038 21.4034L10.6677 20.4526C10.7065 20.1695 10.7467 19.7295 10.6303 19.4491C10.5009 19.1396 9.99206 18.9786 9.61831 18.9009C4.09113 18.1972 0 14.4649 0 10.0108C0 5.04182 5.16063 1 11.5 1ZM7.21912 11.6681H5.02694V7.82612C5.02694 7.76894 5.00351 7.71407 4.96177 7.6735C4.92002 7.63294 4.86335 7.60996 4.80412 7.6096H3.99625C3.9668 7.6096 3.93764 7.6152 3.91043 7.62608C3.88323 7.63696 3.8585 7.65291 3.83768 7.67302C3.81686 7.69312 3.80034 7.71699 3.78907 7.74326C3.7778 7.76953 3.772 7.79769 3.772 7.82612V12.6646C3.772 12.7216 3.79644 12.7757 3.83525 12.8132V12.8146L3.83813 12.8173L3.841 12.8201C3.88269 12.8588 3.93841 12.8802 3.99625 12.8798H7.21912C7.34275 12.8798 7.44194 12.7826 7.44194 12.6633V11.886C7.44213 11.8576 7.43651 11.8294 7.42542 11.803C7.41432 11.7767 7.39796 11.7527 7.37727 11.7325C7.35658 11.7122 7.33197 11.6961 7.30483 11.6851C7.2777 11.674 7.24857 11.6683 7.21912 11.6681ZM8.35619 7.6096H9.16406C9.28769 7.6096 9.38688 7.70676 9.38688 7.82612V12.6646C9.38688 12.784 9.28625 12.8798 9.16406 12.8798H8.35619C8.29696 12.8798 8.24014 12.8572 8.19812 12.8169C8.15611 12.7766 8.13232 12.7218 8.13194 12.6646V7.82612C8.13194 7.70676 8.23256 7.6096 8.35619 7.6096ZM13.9092 7.6096H14.7143C14.8393 7.6096 14.9399 7.70676 14.9399 7.82612V12.6646C14.9399 12.784 14.8393 12.8798 14.7157 12.8798H13.9092C13.8899 12.8799 13.8705 12.8776 13.8517 12.8728H13.8489C13.8435 12.8712 13.8383 12.8693 13.8331 12.8673L13.8259 12.8645L13.8158 12.8604C13.8119 12.8588 13.808 12.8569 13.8043 12.8548L13.8 12.8534L13.7856 12.8451L13.7842 12.8437C13.7618 12.8292 13.7423 12.8108 13.7267 12.7896L11.4267 9.79151V12.6646C11.4269 12.693 11.4213 12.7211 11.4101 12.7474C11.399 12.7737 11.3826 12.7975 11.3619 12.8177C11.3412 12.8378 11.3166 12.8538 11.2895 12.8647C11.2623 12.8756 11.2333 12.8812 11.2039 12.8812H10.3974C10.3382 12.8812 10.2814 12.8586 10.2394 12.8182C10.1974 12.7779 10.1736 12.7232 10.1732 12.666V7.82612C10.1732 7.70676 10.2738 7.6096 10.3974 7.6096H11.2125L11.2197 7.61098H11.2283L11.2326 7.61237H11.2413L11.2556 7.61654H11.2585L11.2614 7.61793L11.2758 7.62209L11.2829 7.62486C11.2874 7.62649 11.2917 7.62834 11.2959 7.63042L11.3002 7.6318L11.3031 7.63319C11.3095 7.63648 11.3158 7.64019 11.3217 7.6443L11.3261 7.64707L11.3333 7.65124V7.65263C11.3361 7.65263 11.3376 7.6554 11.339 7.65679C11.343 7.65936 11.3468 7.66214 11.3505 7.66512L11.3548 7.66928C11.3671 7.68019 11.3782 7.69228 11.3879 7.70537L13.685 10.702V7.82612C13.685 7.70676 13.7856 7.6096 13.9092 7.6096ZM19.3933 8.60478C19.3933 8.72415 19.2927 8.82131 19.1705 8.82131H16.9769V9.64022H19.1691C19.2927 9.64022 19.3919 9.73738 19.3919 9.85536V10.634C19.3919 10.7534 19.2913 10.8505 19.1691 10.8505H16.9769V11.6695H19.1691C19.2927 11.6695 19.3919 11.7666 19.3919 11.8846V12.6633C19.3919 12.7826 19.2913 12.8798 19.1691 12.8798H15.9462C15.9169 12.8799 15.8878 12.8745 15.8607 12.8638C15.8335 12.8531 15.8089 12.8373 15.7881 12.8173L15.7852 12.8132C15.745 12.7734 15.7224 12.7202 15.7219 12.6646V7.82612C15.7219 7.76783 15.7464 7.71508 15.7837 7.67761L15.7881 7.67344L15.7895 7.67206C15.8312 7.63212 15.8875 7.60967 15.9462 7.6096H19.1691C19.2927 7.6096 19.3919 7.70676 19.3919 7.82612V8.60478H19.3933Z" fill="white"/>
<path d="M32.7763 18H39.9603V16.016H35.1443V6.144H32.7763V18ZM42.0263 18H44.3943V6.144H42.0263V18ZM47.3076 18H49.5476V13.248C49.5476 11.888 49.3716 10.4 49.2596 9.12H49.3396L50.5396 11.664L53.9636 18H56.3636V6.144H54.1236V10.88C54.1236 12.224 54.3156 13.792 54.4276 15.024H54.3476L53.1636 12.464L49.7236 6.144H47.3076V18ZM59.2919 18H66.7319V16.016H61.6599V12.848H65.8199V10.864H61.6599V8.128H66.5559V6.144H59.2919V18ZM68.7837 7.024L68.9917 9.216C70.8477 8.816 74.1117 8.464 75.6157 8.304C74.5277 9.12 73.2317 10.944 73.2317 13.248C73.2317 16.72 76.3997 18.512 79.7597 18.736L80.5117 16.544C77.7917 16.4 75.3277 15.456 75.3277 12.816C75.3277 10.912 76.7837 8.848 78.7197 8.336C79.5677 8.128 80.9437 8.128 81.8077 8.112L81.7917 6.064C80.6557 6.112 78.9117 6.208 77.2637 6.352C74.3357 6.592 71.6957 6.832 70.3517 6.944C70.0477 6.976 69.4237 7.008 68.7837 7.024ZM79.5197 9.68L78.3357 10.176C78.8477 10.896 79.1837 11.52 79.5837 12.4L80.7997 11.856C80.4957 11.232 79.9197 10.256 79.5197 9.68ZM81.3117 8.944L80.1437 9.488C80.6557 10.192 81.0237 10.784 81.4557 11.648L82.6557 11.072C82.3197 10.448 81.7117 9.504 81.3117 8.944ZM95.0557 9.84H93.8397V7.792H95.0557V9.84ZM95.0557 13.568H93.8397V11.536H95.0557V13.568ZM88.3357 11.536H89.4877V13.568H88.3357V11.536ZM92.2557 11.536V13.568H91.0717V11.536H92.2557ZM91.0717 9.84V7.792H92.2557V9.84H91.0717ZM88.3357 7.792H89.4877V9.84H88.3357V7.792ZM86.6557 9.84H84.5117V11.536H86.6557V13.568H84.7517V15.264H98.6557V13.568H96.7997V11.536H98.8797V9.84H96.7997V7.792H98.3037V6.112H88.7037C88.9437 5.744 89.1517 5.376 89.3277 4.992L87.4717 4.448C86.7677 5.936 85.5037 7.392 84.1597 8.272C84.5917 8.576 85.3597 9.184 85.7117 9.52C86.0317 9.28 86.3357 8.992 86.6557 8.688V9.84ZM86.1597 19.408C86.9437 18.576 87.6317 17.264 87.9837 16.048L86.1437 15.6C85.7757 16.768 85.0557 18 84.3517 18.672L86.1597 19.408ZM89.0077 16.16C89.1837 17.136 89.3117 18.448 89.3117 19.216L91.1677 18.944C91.1517 18.192 90.9597 16.928 90.7677 15.952L89.0077 16.16ZM92.1757 16.192C92.5277 17.168 92.8957 18.464 92.9917 19.232L94.8957 18.864C94.7517 18.08 94.3517 16.832 93.9677 15.888L92.1757 16.192ZM95.3437 16.112C96.0477 17.136 96.8957 18.544 97.2317 19.392L99.1837 18.736C98.7837 17.856 97.8877 16.512 97.1677 15.536L95.3437 16.112ZM111.184 7.248C110.672 6.656 109.536 5.84 108.64 5.312L107.728 6.592C108.608 7.184 109.712 8.048 110.208 8.672L111.184 7.248ZM106.992 10.608C107.92 11.168 109.088 12.016 109.616 12.608L110.576 11.088C110 10.512 108.816 9.744 107.888 9.248L106.992 10.608ZM105.552 5.328C105.376 6.448 104.992 8.064 104.672 9.072L105.872 9.408C106.272 8.48 106.736 6.96 107.152 5.68L105.552 5.328ZM102.448 9.072C102.368 8.08 102.048 6.56 101.632 5.408L100.304 5.76C100.672 6.912 100.992 8.464 101.024 9.456L102.448 9.072ZM106.816 14.336C106.48 13.888 104.96 12.096 104.496 11.632V11.52H106.864V9.744H104.496V4.512H102.736V9.744H100.32V11.52H102.144C101.648 12.976 100.832 14.688 100.032 15.664C100.32 16.192 100.736 17.056 100.896 17.632C101.584 16.672 102.224 15.184 102.736 13.696V19.344H104.496V13.728C104.96 14.464 105.408 15.296 105.648 15.808L106.816 14.336ZM115.28 14.704L114.992 12.928L113.36 13.232V4.432H111.568V13.552L106.816 14.4L107.104 16.176L111.568 15.376V19.376H113.36V15.056L115.28 14.704ZM119.248 4.512C118.528 6.768 117.28 9.04 115.936 10.496C116.288 10.976 116.816 12.016 116.992 12.48C117.312 12.096 117.648 11.664 117.968 11.232V19.36H119.776V8.144C120.272 7.12 120.704 6.08 121.056 5.056L119.248 4.512ZM126.592 15.008V10.832C127.136 12.336 127.808 13.776 128.56 15.008H126.592ZM122.784 15.008C123.536 13.824 124.208 12.416 124.736 10.944V15.008H122.784ZM131.008 9.104V7.296H126.592V4.528H124.736V7.296H120.688V9.104H123.84C122.96 11.632 121.472 14.16 119.856 15.6C120.288 15.92 120.896 16.592 121.216 17.04C121.728 16.528 122.192 15.92 122.64 15.232V16.704H124.736V19.28H126.592V16.704H128.736V15.296C129.152 15.936 129.568 16.496 130.016 16.992C130.352 16.496 131.008 15.856 131.44 15.52C129.888 14.064 128.416 11.568 127.536 9.104H131.008ZM132.992 18.496C133.648 17.6 133.808 16.112 133.888 14.656L132.832 14.448C132.768 15.808 132.576 17.152 132.032 17.968L132.992 18.496ZM134.032 14.784C134.144 15.728 134.192 16.944 134.144 17.744L135.008 17.632C135.056 16.864 134.992 15.632 134.848 14.704L134.032 14.784ZM135.12 14.704C135.376 15.536 135.584 16.608 135.616 17.296L136.448 17.12C136.4 16.432 136.176 15.376 135.92 14.544L135.12 14.704ZM137.136 12.288V11.296H138.528V9.856H137.136V8.896H138.528V8.528C138.8 8.928 139.104 9.472 139.28 9.888C139.712 9.632 140.112 9.312 140.512 8.976V9.84H142.144V10.704H139.424V14.928H141.696C141.264 16.048 140.4 17.104 138.752 17.936C138.928 17.088 139.024 15.552 139.136 12.912C139.152 12.704 139.152 12.288 139.152 12.288H137.136ZM134.528 11.296H135.616V12.288H134.528V11.296ZM135.616 8.896V9.856H134.528V8.896H135.616ZM135.616 6.576V7.456H134.528V6.576H135.616ZM141.136 8.384C141.856 7.648 142.48 6.832 142.896 6.112C143.344 6.848 144.016 7.68 144.768 8.384H141.136ZM145.072 12.08V13.552H143.76C143.808 13.072 143.824 12.608 143.824 12.144V12.08H145.072ZM140.976 13.552V12.08H142.144V12.128C142.144 12.592 142.128 13.072 142.048 13.552H140.976ZM146.688 14.928V10.704H143.824V9.84H145.424V8.96C145.76 9.248 146.112 9.488 146.464 9.696C146.704 9.2 147.072 8.512 147.408 8.064C146 7.392 144.608 5.936 143.648 4.464H142.016C141.36 5.792 139.968 7.44 138.528 8.304V7.456H137.136V6.576H138.848V5.04H132.96V13.76H137.536C137.504 14.448 137.472 15.04 137.44 15.52C137.296 15.088 137.104 14.624 136.896 14.224L136.144 14.48C136.448 15.12 136.768 15.984 136.864 16.544L137.376 16.352C137.296 17.184 137.216 17.584 137.104 17.744C136.976 17.904 136.864 17.952 136.672 17.952C136.464 17.952 136.112 17.936 135.696 17.888C135.92 18.288 136.064 18.912 136.08 19.36C136.656 19.392 137.168 19.376 137.488 19.312C137.888 19.264 138.176 19.12 138.448 18.752C138.528 18.656 138.592 18.512 138.656 18.304C138.992 18.624 139.392 19.104 139.584 19.424C141.488 18.496 142.56 17.296 143.136 16.016C143.824 17.488 144.8 18.688 146.128 19.376C146.4 18.896 146.944 18.224 147.328 17.872C145.984 17.296 144.976 16.224 144.336 14.928H146.688ZM161.536 10.4L161.184 10.528H158.656L159.04 9.904C158.672 9.728 158.192 9.552 157.664 9.344C159.008 8.432 160.336 7.328 161.36 6.304L160 5.232L159.568 5.344H150V7.088H157.728C157.104 7.632 156.384 8.16 155.696 8.592C154.8 8.256 153.904 7.952 153.184 7.696L152.24 9.136C153.264 9.52 154.56 10.032 155.744 10.528H148.464V12.336H154.784V17.248C154.784 17.488 154.688 17.552 154.384 17.568C154.064 17.568 152.88 17.568 151.936 17.536C152.224 18.032 152.528 18.816 152.624 19.36C154 19.36 155.04 19.344 155.776 19.072C156.544 18.8 156.768 18.32 156.768 17.312V12.336H160.144C159.744 13.056 159.28 13.776 158.896 14.304L160.528 15.248C161.424 14.176 162.368 12.576 163.088 11.072L161.536 10.4ZM164.816 13.808C164.688 15.152 164.432 16.576 163.968 17.52C164.384 17.664 165.088 18 165.424 18.208C165.888 17.184 166.224 15.584 166.384 14.08L164.816 13.808ZM168.384 14.16C168.784 15.136 169.2 16.432 169.328 17.248L170.832 16.72C170.64 15.904 170.224 14.656 169.792 13.712L168.384 14.16ZM173.376 7.152C173.68 6.416 173.952 5.648 174.16 4.864L172.208 4.448C171.696 6.464 170.752 8.512 169.568 9.776L169.456 9.584L168.112 10.176C168.304 10.512 168.496 10.896 168.672 11.28L167.056 11.344C168.096 10.048 169.216 8.416 170.112 7.008L168.496 6.336C168.112 7.136 167.6 8.064 167.024 8.96C166.864 8.752 166.672 8.512 166.464 8.288C167.04 7.392 167.696 6.16 168.272 5.056L166.592 4.464C166.32 5.296 165.872 6.368 165.424 7.248C165.296 7.136 165.168 7.024 165.04 6.912L164.144 8.224C164.816 8.864 165.6 9.728 166.064 10.416C165.824 10.768 165.568 11.104 165.328 11.408L164.144 11.456L164.304 13.12L166.672 12.96V19.408H168.352V12.832L169.264 12.768C169.36 13.088 169.44 13.376 169.488 13.632L170.928 12.96C170.752 12.16 170.24 10.976 169.68 9.968C170.16 10.256 170.864 10.736 171.184 11.024C171.664 10.448 172.112 9.744 172.544 8.96H176.96C176.784 14.416 176.544 16.752 176.064 17.248C175.872 17.456 175.696 17.52 175.392 17.52C174.96 17.52 174.048 17.52 173.04 17.424C173.392 17.968 173.648 18.8 173.68 19.344C174.608 19.376 175.6 19.392 176.176 19.296C176.848 19.2 177.264 19.024 177.712 18.416C178.384 17.568 178.608 15.04 178.816 8.032C178.832 7.792 178.832 7.152 178.832 7.152H173.376ZM175.184 14.464C174.848 13.456 173.936 11.984 173.104 10.88L171.584 11.648C172.4 12.8 173.232 14.336 173.536 15.344L175.184 14.464Z" fill="white"/>
</svg>
