<svg width="128" height="128" viewBox="0 0 128 128" fill="none" xmlns="http://www.w3.org/2000/svg">
<path d="M88.8759 82.9046H39.1947C38.7242 82.9046 38.2728 82.7183 37.9401 82.3866C37.6073 82.055 37.4204 81.6052 37.4204 81.1363V45.7701C37.424 45.5783 37.4538 45.3879 37.5091 45.2042C37.5799 44.9923 37.688 44.7947 37.8285 44.6207C37.9803 44.438 38.1673 44.2877 38.3785 44.1786C38.5938 44.0527 38.8387 43.9856 39.0883 43.9841H88.9824C89.2294 43.9881 89.4722 44.0486 89.6921 44.1609C89.9131 44.2783 90.1066 44.441 90.2599 44.6383C90.4034 44.8037 90.512 44.9961 90.5793 45.2042C90.6053 45.3919 90.6053 45.5823 90.5793 45.7701V81.1363C90.5796 81.5932 90.4025 82.0326 90.0849 82.3623C89.7674 82.6919 89.3341 82.8863 88.8759 82.9046ZM40.9691 79.368H87.1016V49.3067L65.0644 64.9032C64.7639 65.1164 64.4042 65.231 64.0353 65.231C63.6664 65.231 63.3067 65.1164 63.0062 64.9032L40.9691 49.2183V79.368ZM44.7306 47.5384L64.0353 61.2958L83.3932 47.5384H44.7306Z" fill="white"/>
<path d="M65.1709 4.93978C65.2215 4.20882 65.4235 3.49624 65.7642 2.84693C66.1048 2.19763 66.5767 1.6257 67.1501 1.16717C67.7236 0.708651 68.3861 0.373485 69.096 0.182801C69.8058 -0.00788338 70.5476 -0.0499513 71.2746 0.0592488C71.9977 0.0969871 72.7043 0.288515 73.347 0.620966C73.9897 0.953417 74.5535 1.41909 75.0007 1.98671L74.22 2.6233C73.8536 2.1675 73.3964 1.79233 72.8772 1.52146C72.3581 1.25059 71.7882 1.08989 71.2036 1.0495C70.6166 0.973334 70.0202 1.01648 69.4503 1.17634C68.8805 1.3362 68.349 1.60946 67.8881 1.97962C67.4271 2.34979 67.0462 2.80919 66.7682 3.33011C66.4903 3.85103 66.3212 4.42266 66.271 5.01052C66.2049 5.59605 66.2589 6.18886 66.4297 6.75297C66.6005 7.31709 66.8844 7.84075 67.2644 8.29218C67.6444 8.74361 68.1124 9.11341 68.6401 9.37914C69.1678 9.64486 69.7441 9.80097 70.3342 9.838C70.914 9.92234 71.5051 9.88236 72.0681 9.72073C72.6311 9.55911 73.1531 9.27957 73.599 8.9008L74.2555 9.69654C73.6986 10.1649 73.0489 10.5109 72.3488 10.712C71.6486 10.9131 70.9138 10.9648 70.1923 10.8636C69.4635 10.8275 68.7499 10.6424 68.0959 10.3199C67.4419 9.99731 66.8614 9.5442 66.3905 8.98867C65.9196 8.43314 65.5684 7.78705 65.3586 7.09053C65.1488 6.39401 65.0849 5.66194 65.1709 4.93978Z" fill="white"/>
<path d="M76.7929 6.23061C77.0016 5.51995 77.3573 4.8607 77.8371 4.2953C78.3169 3.72989 78.9101 3.27085 79.5787 2.94772C80.2472 2.62458 80.9762 2.44451 81.7188 2.41908C82.4613 2.39366 83.201 2.52344 83.8902 2.80009C84.5893 2.99971 85.24 3.33998 85.802 3.79989C86.364 4.25981 86.8255 4.82963 87.1581 5.47418C87.4906 6.11874 87.6871 6.82436 87.7353 7.54752C87.7836 8.27068 87.6827 8.99603 87.4389 9.67882C87.2284 10.3766 86.8759 11.0236 86.4034 11.5797C85.9309 12.1357 85.3486 12.5887 84.6927 12.9106C84.0368 13.2325 83.3214 13.4162 82.5911 13.4504C81.8608 13.4846 81.1313 13.3685 80.448 13.1093C79.7394 12.9214 79.0774 12.5895 78.5035 12.1346C77.9296 11.6796 77.4562 11.1114 77.113 10.4655C76.7698 9.8197 76.5643 9.11015 76.5092 8.3814C76.4541 7.65265 76.5507 6.92041 76.7929 6.23061ZM86.392 9.32515C86.7101 8.21104 86.5822 7.01738 86.0353 5.99532C85.4883 4.97326 84.5649 4.20247 83.4593 3.84512C82.3537 3.48776 81.1521 3.5717 80.1073 4.07927C79.0626 4.58684 78.2561 5.47848 77.8575 6.56659C77.6633 7.12321 77.5851 7.71346 77.6277 8.30123C77.6703 8.889 77.8327 9.46194 78.1051 9.985C78.3775 10.5081 78.7541 10.9702 79.2118 11.3433C79.6696 11.7163 80.1989 11.9923 80.7674 12.1545C81.3222 12.3547 81.9122 12.4398 82.5011 12.4045C83.0901 12.3693 83.6656 12.2144 84.1923 11.9495C84.7191 11.6845 85.1859 11.315 85.5642 10.8637C85.9424 10.4125 86.2242 9.88888 86.392 9.32515Z" fill="white"/>
<path d="M100.8 11.1818L95.2816 20.3063L94.4832 19.8289L93.0815 8.90071L88.6102 16.2922L87.6343 15.7087L93.1524 6.58423L94.0396 7.1324L95.4591 18.0782L99.8417 10.669L100.8 11.1818Z" fill="white"/>
<path d="M105.643 16.4337L102.911 13.9404L103.567 13.2154L110.008 18.9624L109.352 19.6874L106.459 17.1941L99.9654 24.3734L99.1138 23.6307L105.643 16.4337Z" fill="white"/>
<path d="M110.115 31.4999L106.46 26.8138L103.426 27.5565L102.698 26.5839L114.143 23.8961L114.817 24.7626L109.387 35.1426L108.66 34.2054L110.115 31.4999ZM110.594 30.6157L113.557 25.0986L107.436 26.5839L110.594 30.6157Z" fill="white"/>
<path d="M114.32 33.1974C114.967 32.8566 115.678 32.6524 116.408 32.5978C117.138 32.5431 117.872 32.6391 118.563 32.8798C119.254 33.1204 119.888 33.5005 120.424 33.9964C120.961 34.4922 121.39 35.0931 121.684 35.7614C122.03 36.3945 122.24 37.0924 122.301 37.8109C122.362 38.5293 122.273 39.2526 122.038 39.9347L121.08 39.6164C121.268 39.0642 121.34 38.4793 121.291 37.8982C121.242 37.3171 121.074 36.7522 120.796 36.2389C120.537 35.721 120.177 35.2593 119.738 34.8799C119.299 34.5006 118.79 34.2111 118.239 34.028C117.687 33.8449 117.105 33.7718 116.526 33.8129C115.947 33.8539 115.381 34.0083 114.861 34.2672C114.342 34.5261 113.878 34.8845 113.498 35.3219C113.117 35.7593 112.827 36.2671 112.643 36.8164C112.459 37.3656 112.386 37.9456 112.427 38.5231C112.468 39.1006 112.623 39.6644 112.883 40.1822C113.119 40.7272 113.469 41.2158 113.91 41.6152C114.35 42.0147 114.871 42.3159 115.438 42.4987L115.118 43.4536C114.425 43.234 113.786 42.8719 113.242 42.3906C112.698 41.9094 112.261 41.3197 111.96 40.6597C111.591 40.0225 111.358 39.3158 111.278 38.5843C111.197 37.8529 111.27 37.1128 111.492 36.4109C111.714 35.7091 112.08 35.061 112.567 34.5078C113.054 33.9546 113.651 33.5083 114.32 33.1974Z" fill="white"/>
<path d="M124.203 45.2042L123.156 41.6675L124.096 41.4023L126.563 49.5719L125.622 49.8371L124.558 46.3005L115.331 49.0237L115.012 47.9273L124.203 45.2042Z" fill="white"/>
<path d="M121.666 57.6001L127.752 57.4409V58.5726L121.684 58.7318C119.146 58.7318 118.011 60.005 118.135 62.0739C118.259 64.1428 119.377 65.3099 121.914 65.2392L127.982 65.0977V66.1764L121.879 66.3355C121.273 66.4405 120.651 66.4076 120.059 66.2392C119.468 66.0709 118.922 65.7714 118.463 65.3633C118.004 64.9552 117.643 64.4489 117.408 63.8823C117.173 63.3158 117.07 62.7036 117.106 62.0916C117.037 61.4804 117.107 60.8615 117.313 60.2815C117.519 59.7016 117.853 59.1756 118.292 58.7432C118.731 58.3109 119.263 57.9834 119.847 57.7853C120.432 57.5873 121.053 57.524 121.666 57.6001Z" fill="white"/>
<path d="M118.454 68.6166L119.235 69.2001C118.27 70.0371 117.64 71.192 117.46 72.4538C117.123 74.4166 117.815 75.4069 118.844 75.5837C121.736 76.0612 121.045 69.3062 124.948 69.9605C126.509 70.2081 127.645 71.6404 127.184 74.3105C127.007 75.4634 126.495 76.5394 125.711 77.4051L124.895 76.8923C125.586 76.118 126.052 75.1703 126.243 74.1514C126.563 72.2239 125.853 71.2337 124.788 71.0568C121.914 70.5794 122.57 77.3343 118.738 76.6978C117.176 76.4325 116.059 74.9294 116.52 72.2947C116.675 70.8692 117.366 69.5552 118.454 68.6166Z" fill="white"/>
<path d="M114.231 93.8858C114.832 94.3019 115.34 94.837 115.724 95.4577C116.108 96.0783 116.359 96.7712 116.462 97.493C116.566 98.2148 116.518 98.9501 116.324 99.6529C116.129 100.356 115.791 101.011 115.331 101.578C114.928 102.177 114.405 102.686 113.794 103.073C113.183 103.459 112.498 103.715 111.782 103.824L111.623 102.816C112.199 102.737 112.753 102.539 113.248 102.235C113.743 101.93 114.168 101.526 114.497 101.047C114.932 100.592 115.265 100.05 115.473 99.4566C115.682 98.8632 115.761 98.2324 115.705 97.6062C115.649 96.98 115.46 96.3729 115.15 95.8253C114.84 95.2778 114.416 94.8024 113.908 94.4309C113.399 94.0594 112.816 93.8004 112.199 93.6711C111.582 93.5417 110.944 93.5451 110.328 93.681C109.712 93.8168 109.132 94.082 108.627 94.4588C108.122 94.8357 107.704 95.3155 107.4 95.8663C107.032 96.311 106.759 96.8257 106.597 97.379C106.436 97.9323 106.389 98.5126 106.459 99.0846L105.466 99.2437C105.341 98.529 105.368 97.7961 105.545 97.0924C105.722 96.3888 106.046 95.73 106.495 95.1589C106.898 94.5442 107.426 94.0196 108.043 93.6185C108.661 93.2174 109.355 92.9485 110.082 92.8288C110.81 92.7091 111.554 92.7412 112.268 92.9232C112.982 93.1051 113.651 93.4329 114.231 93.8858Z" fill="white"/>
<path d="M107.258 103.222C108.028 104.027 108.539 105.043 108.726 106.14C108.914 107.236 108.769 108.363 108.309 109.377C107.85 110.39 107.098 111.244 106.149 111.829C105.2 112.415 104.098 112.704 102.983 112.661C101.868 112.618 100.791 112.245 99.89 111.588C98.9891 110.932 98.3053 110.023 97.9261 108.977C97.5468 107.931 97.4893 106.796 97.761 105.717C98.0326 104.639 98.621 103.665 99.4509 102.922C99.9697 102.405 100.59 102 101.273 101.734C101.956 101.467 102.687 101.344 103.42 101.372C104.153 101.4 104.873 101.579 105.533 101.898C106.194 102.216 106.781 102.667 107.258 103.222ZM99.7348 109.924C100.319 110.595 101.09 111.078 101.95 111.31C102.81 111.543 103.72 111.515 104.564 111.23C105.409 110.945 106.149 110.417 106.69 109.712C107.232 109.006 107.551 108.156 107.606 107.27C107.661 106.383 107.45 105.501 107.001 104.734C106.551 103.967 105.882 103.351 105.08 102.965C104.278 102.578 103.378 102.438 102.496 102.563C101.613 102.687 100.788 103.071 100.125 103.665C99.6749 104.042 99.3062 104.507 99.0414 105.03C98.7767 105.554 98.6213 106.126 98.5848 106.711C98.5483 107.296 98.6314 107.883 98.8291 108.435C99.0268 108.988 99.3349 109.494 99.7348 109.924Z" fill="white"/>
<path d="M90.9165 121.418L85.771 112.082L86.5872 111.64L96.7896 115.901L92.6022 108.333L93.5958 107.785L98.7413 117.121L97.9251 117.563L87.7228 113.231L91.8924 120.799L90.9165 121.418Z" fill="white"/>
<path d="M83.9258 122.957L87.4744 121.807L87.7761 122.727L79.5609 125.379L79.2593 124.442L82.8079 123.293L79.8448 114.098L80.9094 113.762L83.9258 122.957Z" fill="white"/>
<path d="M68.6132 119.226L74.5217 118.43L75.4088 115.441L76.5799 115.282L73.1554 126.493L72.0554 126.635L65.792 116.768L66.963 116.609L68.6132 119.226ZM69.1455 120.074L72.4635 125.379L74.2378 119.367L69.1455 120.074Z" fill="white"/>
<path d="M65.0648 122.073C65.038 122.805 64.8592 123.524 64.5397 124.184C64.2202 124.844 63.767 125.431 63.2085 125.908C62.65 126.385 61.9985 126.741 61.2949 126.955C60.5914 127.168 59.8511 127.234 59.1208 127.148C58.3992 127.133 57.6887 126.968 57.0348 126.663C56.381 126.359 55.7981 125.921 55.3237 125.379L56.0867 124.707C56.4702 125.148 56.9406 125.506 57.4686 125.759C57.9966 126.011 58.5711 126.153 59.1563 126.175C59.7388 126.211 60.3227 126.132 60.8747 125.943C61.4267 125.755 61.936 125.459 62.3734 125.074C62.8109 124.689 63.1679 124.222 63.4242 123.699C63.6805 123.177 63.831 122.609 63.8671 122.028C63.9032 121.448 63.8243 120.866 63.6347 120.316C63.4451 119.766 63.1487 119.258 62.7624 118.822C62.376 118.386 61.9073 118.03 61.3829 117.775C60.8585 117.52 60.2888 117.37 59.7063 117.334C59.1219 117.272 58.5311 117.337 57.9739 117.523C57.4168 117.709 56.9063 118.012 56.477 118.412L55.8028 117.652C56.3402 117.162 56.975 116.791 57.666 116.563C58.3569 116.334 59.0884 116.254 59.8128 116.326C60.5448 116.333 61.2674 116.49 61.9355 116.788C62.6036 117.087 63.2028 117.519 63.6957 118.058C64.1886 118.598 64.5646 119.232 64.8002 119.923C65.0357 120.614 65.1258 121.346 65.0648 122.073Z" fill="white"/>
<path d="M49.681 124.513L53.3361 125.397L53.1055 126.352L44.7129 124.301L44.9436 123.363L48.5987 124.248L50.9053 114.84L52.0054 115.105L49.681 124.513Z" fill="white"/>
<path d="M40.1709 116.078L37.2255 121.383L36.2319 120.852L39.1418 115.548C40.366 113.337 39.887 111.746 38.0594 110.755C36.2319 109.765 34.635 110.19 33.4107 112.4L30.5008 117.705L29.5249 117.192L32.4703 111.887C32.6881 111.315 33.0322 110.799 33.4771 110.377C33.9219 109.955 34.4562 109.638 35.0405 109.45C35.6247 109.261 36.244 109.206 36.8525 109.288C37.4611 109.37 38.0433 109.588 38.5562 109.924C39.1122 110.177 39.6048 110.55 39.9981 111.016C40.3915 111.482 40.6757 112.03 40.8303 112.619C40.9849 113.208 41.006 113.824 40.8919 114.423C40.7778 115.021 40.5315 115.586 40.1709 116.078Z" fill="white"/>
<path d="M15.4014 96.273C14.773 96.6471 14.074 96.8881 13.348 96.9808C12.622 97.0735 11.8846 97.016 11.1819 96.8119C10.4792 96.6078 9.82627 96.2614 9.26394 95.7945C8.70162 95.3275 8.24197 94.75 7.91371 94.098C7.52969 93.4848 7.27913 92.798 7.17827 92.0822C7.07741 91.3663 7.12848 90.6374 7.32819 89.9425L8.32181 90.2077C8.15475 90.7674 8.10791 91.3558 8.18434 91.9347C8.26077 92.5136 8.45876 93.07 8.76539 93.5675C9.03639 94.0935 9.41215 94.5589 9.8697 94.9353C10.3273 95.3117 10.857 95.5912 11.4266 95.7567C11.9962 95.9222 12.5936 95.9702 13.1825 95.8978C13.7713 95.8255 14.3392 95.6342 14.8513 95.3358C15.3701 95.0538 15.8256 94.6693 16.1903 94.2059C16.5549 93.7425 16.8209 93.2099 16.972 92.6406C17.1231 92.0712 17.1562 91.4772 17.0692 90.8947C16.9822 90.3123 16.7769 89.7536 16.466 89.2528C16.1926 88.7343 15.8127 88.279 15.3511 87.9165C14.8895 87.5539 14.3565 87.2923 13.7867 87.1485L14.0706 86.176C14.7746 86.3561 15.4324 86.6824 16.0011 87.1334C16.5698 87.5844 17.0366 88.1499 17.3709 88.7931C17.7571 89.4069 18.013 90.0932 18.1229 90.8094C18.2328 91.5257 18.1943 92.2568 18.0097 92.9576C17.8252 93.6585 17.4986 94.3142 17.05 94.8844C16.6013 95.4546 16.0403 95.9272 15.4014 96.273Z" fill="white"/>
<path d="M9.77662 86.1052C9.08175 86.3368 8.34637 86.4229 7.61655 86.3581C6.88673 86.2934 6.17818 86.0792 5.53526 85.729C4.89234 85.3787 4.3289 84.9 3.88021 84.3227C3.43153 83.7454 3.10726 83.082 2.92772 82.374C2.67524 81.6881 2.56764 80.9577 2.61166 80.2284C2.65567 79.4991 2.85036 78.7868 3.18352 78.136C3.51668 77.4852 3.98113 76.91 4.54776 76.4465C5.11438 75.983 5.77097 75.6411 6.47637 75.4423C7.16899 75.2133 7.90145 75.1287 8.62825 75.1937C9.35506 75.2587 10.0607 75.4719 10.7013 75.8202C11.3419 76.1684 11.9039 76.6442 12.3522 77.218C12.8006 77.7918 13.1257 78.4514 13.3075 79.1557C13.5632 79.8414 13.6738 80.5725 13.6323 81.3029C13.5909 82.0332 13.3983 82.7472 13.0667 83.3998C12.7351 84.0525 12.2717 84.6297 11.7055 85.0953C11.1393 85.5608 10.4826 85.9047 9.77662 86.1052ZM6.79575 76.5032C6.22792 76.6634 5.69894 76.9375 5.24129 77.3088C4.78364 77.6801 4.40699 78.1407 4.13447 78.6624C3.86195 79.1841 3.69932 79.7557 3.65657 80.3423C3.61382 80.9289 3.69184 81.518 3.88586 82.0734C4.03926 82.6415 4.30763 83.1724 4.67447 83.6334C5.04132 84.0943 5.49888 84.4757 6.01903 84.7539C6.53919 85.0321 7.11095 85.2014 7.69917 85.2513C8.28738 85.3013 8.87963 85.2308 9.4395 85.0442C10.526 84.6545 11.42 83.8626 11.9358 82.8331C12.4516 81.8035 12.5495 80.6154 12.2091 79.5158C11.8687 78.4162 11.1163 77.4896 10.1081 76.9285C9.09998 76.3675 7.91367 76.2152 6.79575 76.5032Z" fill="white"/>
<path d="M0 63.7184L10.646 62.9404V63.8599L2.57278 71.3222L11.2138 70.6856V71.7996L0.656501 72.56V71.6404L8.80067 64.1782L0.15969 64.7971L0 63.7184Z" fill="white"/>
<path d="M1.49044 56.7336L1.04685 60.447L0 60.3409L1.01137 51.7823L1.9695 51.8884L1.61464 55.6195L11.2492 56.7336L11.125 57.8476L1.49044 56.7336Z" fill="white"/>
<path d="M11.2316 44.4438L9.4573 50.1024L11.8172 52.1537L11.48 53.2677L2.6084 45.5402L2.92778 44.4792L14.5496 42.9054L14.2125 44.0371L11.2316 44.4438ZM10.238 44.5676L4.01012 45.3633L8.74757 49.4481L10.238 44.5676Z" fill="white"/>
<path d="M10.2201 40.0054C9.56789 39.6736 8.99138 39.2114 8.52661 38.6474C8.06184 38.0835 7.71881 37.4301 7.51897 36.7281C7.31913 36.026 7.26678 35.2904 7.36519 34.5673C7.4636 33.8442 7.71065 33.1491 8.0909 32.5254C8.4106 31.8772 8.8632 31.3031 9.41945 30.8401C9.9757 30.3771 10.6232 30.0356 11.3202 29.8376L11.6041 30.7925C11.0427 30.957 10.5214 31.235 10.0726 31.6092C9.62385 31.9834 9.2573 32.4458 8.99581 32.9675C8.69669 33.4766 8.50504 34.0412 8.43263 34.6267C8.36022 35.2122 8.40855 35.8063 8.57468 36.3725C8.74081 36.9388 9.02123 37.4652 9.39875 37.9196C9.77627 38.374 10.2429 38.7468 10.7701 39.0151C11.2826 39.3001 11.8475 39.4792 12.431 39.5417C13.0145 39.6042 13.6046 39.5487 14.1661 39.3787C14.7276 39.2087 15.249 38.9276 15.699 38.5521C16.149 38.1767 16.5184 37.7147 16.7851 37.1938C17.0769 36.6898 17.2606 36.1311 17.3247 35.5528C17.3889 34.9745 17.332 34.3892 17.1577 33.834L18.1159 33.5334C18.3363 34.2126 18.4169 34.9291 18.3529 35.6401C18.2889 36.3511 18.0815 37.042 17.7432 37.6712C17.4301 38.3415 16.9798 38.9392 16.4213 39.4258C15.8627 39.9125 15.2083 40.2775 14.4999 40.4972C13.7915 40.717 13.0449 40.7868 12.3078 40.7021C11.5708 40.6174 10.8597 40.3801 10.2201 40.0054Z" fill="white"/>
<path d="M14.3722 24.9747L12.0301 27.8924L11.2671 27.2912L16.5901 20.554L17.3708 21.1552L15.0642 24.0906L22.676 30.1205L21.984 31.0047L14.3722 24.9747Z" fill="white"/>
<path d="M25.9408 19.9527L22.2856 15.0721L23.1728 14.4002L26.8279 19.2454C28.3361 21.2612 29.9862 21.4734 31.6541 20.2356C33.322 18.9978 33.5881 17.3533 32.0622 15.3374L28.3893 10.4922L29.2588 9.83795L32.9316 14.7008C33.3674 15.1326 33.6998 15.6568 33.9038 16.2345C34.1079 16.8121 34.1785 17.4282 34.1102 18.0368C34.042 18.6455 33.8368 19.2309 33.5098 19.7494C33.1828 20.2679 32.7425 20.7061 32.2219 21.0314C31.7626 21.4329 31.219 21.727 30.6309 21.8922C30.0428 22.0574 29.4251 22.0895 28.823 21.9861C28.2209 21.8827 27.6496 21.6464 27.1509 21.2946C26.6522 20.9428 26.2387 20.4843 25.9408 19.9527Z" fill="white"/>
<path d="M36.8707 16.2038V15.2312C38.1203 15.5712 39.4514 15.4455 40.6146 14.8776C42.3889 14.0111 42.8325 12.8794 42.3889 11.9422C41.1291 9.3074 35.9836 13.7105 34.2625 10.1739C33.5882 8.75923 34.1028 7.0086 36.5513 5.84152C37.6127 5.36541 38.7881 5.19983 39.9403 5.36407V6.33664C38.904 6.20541 37.8516 6.37102 36.9062 6.81409C35.1319 7.64519 34.7415 8.81228 35.1319 9.76716C36.3917 12.4019 41.555 7.99885 43.2406 11.5355C43.9326 12.9501 43.3825 14.7007 40.9162 15.8678C39.6536 16.4664 38.2153 16.5858 36.8707 16.2038Z" fill="white"/>
</svg>
