<svg width="30" height="30" viewBox="0 0 30 30" fill="none" xmlns="http://www.w3.org/2000/svg">
<circle cx="14.999" cy="15.0005" r="12.5" fill="#EDEAE2"/>
<path d="M14.167 14.167V28.3337C18.167 28.3337 22.2225 26.9448 22.917 26.2503L14.167 14.167Z" fill="white"/>
<path d="M15 3C21.63 3 27 8.37 27 15C27 21.63 21.63 27 15 27C8.37 27 3 21.63 3 15C3 8.37 8.37 3 15 3ZM15 30C23.25 30 30 23.25 30 15C30 6.75 23.25 -2.03258e-06 15 -1.31134e-06C6.705 -5.8617e-07 -2.03258e-06 6.75 -1.31134e-06 15C-5.90104e-07 23.25 6.75 30 15 30ZM19.95 21.3L15.45 13.5L13.5 13.5L13.5 22.5L15.75 22.5L15.75 18.525L18 22.425L19.95 21.3Z" fill="#555555"/>
</svg>
