<svg width="30" height="30" viewBox="0 0 30 30" fill="none" xmlns="http://www.w3.org/2000/svg">
<circle cx="15" cy="15" r="15" fill="#CEC6B0"/>
<path d="M15.2139 21.196C17.1879 21.196 18.8539 20.09 18.8539 18.186C18.8539 16.828 17.9579 15.96 16.7959 15.638V15.568C17.8879 15.134 18.5179 14.322 18.5179 13.202C18.5179 11.438 17.1599 10.444 15.1579 10.444C13.9399 10.444 12.9459 10.934 12.0499 11.718L13.0999 12.978C13.7159 12.404 14.3179 12.068 15.0599 12.068C15.9419 12.068 16.4459 12.544 16.4459 13.356C16.4459 14.28 15.8299 14.938 13.9259 14.938V16.408C16.1799 16.408 16.7819 17.052 16.7819 18.06C16.7819 18.998 16.0679 19.516 15.0179 19.516C14.0799 19.516 13.3239 19.054 12.7079 18.452L11.7419 19.754C12.4699 20.58 13.5759 21.196 15.2139 21.196Z" fill="#483B19"/>
</svg>
