<svg width="349" height="46" viewBox="0 0 349 46" fill="none" xmlns="http://www.w3.org/2000/svg">
<path d="M41.856 21.4L41.504 21.528H38.976L39.36 20.904C38.992 20.728 38.512 20.552 37.984 20.344C39.328 19.432 40.656 18.328 41.68 17.304L40.32 16.232L39.888 16.344H30.32V18.088H38.048C37.424 18.632 36.704 19.16 36.016 19.592C35.12 19.256 34.224 18.952 33.504 18.696L32.56 20.136C33.584 20.52 34.88 21.032 36.064 21.528H28.784V23.336H35.104V28.248C35.104 28.488 35.008 28.552 34.704 28.568C34.384 28.568 33.2 28.568 32.256 28.536C32.544 29.032 32.848 29.816 32.944 30.36C34.32 30.36 35.36 30.344 36.096 30.072C36.864 29.8 37.088 29.32 37.088 28.312V23.336H40.464C40.064 24.056 39.6 24.776 39.216 25.304L40.848 26.248C41.744 25.176 42.688 23.576 43.408 22.072L41.856 21.4ZM46.736 24.808C46.608 26.152 46.352 27.576 45.888 28.52C46.304 28.664 47.008 29 47.344 29.208C47.808 28.184 48.144 26.584 48.304 25.08L46.736 24.808ZM50.304 25.16C50.704 26.136 51.12 27.432 51.248 28.248L52.752 27.72C52.56 26.904 52.144 25.656 51.712 24.712L50.304 25.16ZM55.296 18.152C55.6 17.416 55.872 16.648 56.08 15.864L54.128 15.448C53.616 17.464 52.672 19.512 51.488 20.776L51.376 20.584L50.032 21.176C50.224 21.512 50.416 21.896 50.592 22.28L48.976 22.344C50.016 21.048 51.136 19.416 52.032 18.008L50.416 17.336C50.032 18.136 49.52 19.064 48.944 19.96C48.784 19.752 48.592 19.512 48.384 19.288C48.96 18.392 49.616 17.16 50.192 16.056L48.512 15.464C48.24 16.296 47.792 17.368 47.344 18.248C47.216 18.136 47.088 18.024 46.96 17.912L46.064 19.224C46.736 19.864 47.52 20.728 47.984 21.416C47.744 21.768 47.488 22.104 47.248 22.408L46.064 22.456L46.224 24.12L48.592 23.96V30.408H50.272V23.832L51.184 23.768C51.28 24.088 51.36 24.376 51.408 24.632L52.848 23.96C52.672 23.16 52.16 21.976 51.6 20.968C52.08 21.256 52.784 21.736 53.104 22.024C53.584 21.448 54.032 20.744 54.464 19.96H58.88C58.704 25.416 58.464 27.752 57.984 28.248C57.792 28.456 57.616 28.52 57.312 28.52C56.88 28.52 55.968 28.52 54.96 28.424C55.312 28.968 55.568 29.8 55.6 30.344C56.528 30.376 57.52 30.392 58.096 30.296C58.768 30.2 59.184 30.024 59.632 29.416C60.304 28.568 60.528 26.04 60.736 19.032C60.752 18.792 60.752 18.152 60.752 18.152H55.296ZM57.104 25.464C56.768 24.456 55.856 22.984 55.024 21.88L53.504 22.648C54.32 23.8 55.152 25.336 55.456 26.344L57.104 25.464ZM75.168 21.928V21.4H76.352C77.2 21.4 77.76 21.416 78.112 21.448V19.32C77.68 19.4 77.2 19.432 76.352 19.432H75.168V17.752C75.168 17.112 75.232 16.584 75.28 16.264H72.992C73.04 16.584 73.088 17.112 73.088 17.752V19.432H69.296V17.848C69.296 17.224 69.344 16.712 69.392 16.408H67.12C67.168 16.888 67.216 17.384 67.216 17.848V19.432H65.856C65.056 19.432 64.4 19.336 64.128 19.288V21.464C64.48 21.432 65.056 21.4 65.856 21.4H67.216V23.576C67.216 24.296 67.168 24.936 67.12 25.256H69.36C69.344 24.936 69.296 24.28 69.296 23.576V21.4H73.088V22.008C73.088 25.944 71.728 27.32 68.64 28.392L70.352 30.008C74.208 28.312 75.168 25.896 75.168 21.928ZM81.792 22.776L82.8 24.792C84.768 24.216 86.8 23.352 88.448 22.488V27.608C88.448 28.312 88.4 29.32 88.336 29.704H90.864C90.752 29.304 90.72 28.312 90.72 27.608V21.144C92.272 20.12 93.808 18.872 95.024 17.672L93.296 16.024C92.256 17.288 90.432 18.888 88.784 19.912C87.008 21 84.656 22.04 81.792 22.776ZM103.424 27.464C103.424 28.104 103.36 29.064 103.264 29.704H105.76C105.696 29.048 105.616 27.928 105.616 27.464V22.936C107.344 23.528 109.744 24.456 111.392 25.32L112.304 23.112C110.832 22.392 107.76 21.256 105.616 20.632V18.264C105.616 17.608 105.696 16.904 105.76 16.344H103.264C103.376 16.904 103.424 17.704 103.424 18.264V27.464ZM123.584 26.92C123.584 26.312 124.192 25.928 125.104 25.928C125.536 25.928 125.968 25.992 126.384 26.104C126.384 26.216 126.384 26.312 126.384 26.392C126.384 27.336 126.048 27.848 125.072 27.848C124.224 27.848 123.584 27.576 123.584 26.92ZM128.336 16.472H126.048C126.112 16.792 126.16 17.288 126.16 17.528C126.16 17.864 126.176 18.52 126.176 19.304C125.808 19.32 125.424 19.32 125.056 19.32C124.096 19.32 123.168 19.272 122.256 19.176V21.08C123.2 21.144 124.112 21.176 125.056 21.176C125.424 21.176 125.808 21.176 126.192 21.16C126.208 22.296 126.272 23.464 126.304 24.456C125.984 24.408 125.632 24.392 125.264 24.392C123.088 24.392 121.712 25.512 121.712 27.128C121.712 28.808 123.088 29.736 125.296 29.736C127.456 29.736 128.32 28.648 128.416 27.112C129.056 27.544 129.696 28.104 130.368 28.728L131.472 27.048C130.704 26.344 129.696 25.528 128.368 24.984C128.304 23.896 128.224 22.616 128.192 21.064C129.072 21 129.904 20.904 130.672 20.792V18.792C129.904 18.952 129.072 19.08 128.192 19.16C128.208 18.456 128.224 17.864 128.24 17.512C128.256 17.16 128.288 16.776 128.336 16.472ZM120.528 16.648L118.32 16.456C118.304 16.968 118.224 17.576 118.16 18.024C117.984 19.256 117.504 22.28 117.504 24.696C117.504 26.872 117.808 28.696 118.144 29.816L119.952 29.672C119.936 29.448 119.92 29.176 119.92 29.016C119.92 28.84 119.952 28.488 120 28.264C120.192 27.4 120.704 25.768 121.152 24.456L120.176 23.656C119.936 24.2 119.664 24.744 119.456 25.304C119.408 24.984 119.392 24.584 119.392 24.264C119.392 22.664 119.92 19.144 120.16 18.072C120.208 17.784 120.4 16.968 120.528 16.648ZM137.088 17.368V19.48C138.384 19.592 139.776 19.656 141.456 19.656C142.976 19.656 144.96 19.56 146.08 19.464V17.336C144.848 17.464 143.024 17.56 141.44 17.56C139.76 17.56 138.272 17.496 137.088 17.368ZM138.432 24.152L136.336 23.96C136.208 24.552 136.016 25.336 136.016 26.264C136.016 28.456 137.856 29.688 141.52 29.688C143.76 29.688 145.68 29.48 147.072 29.144L147.056 26.888C145.648 27.288 143.6 27.528 141.44 27.528C139.136 27.528 138.16 26.792 138.16 25.768C138.16 25.224 138.272 24.728 138.432 24.152ZM158.448 16.248L156.176 16.152C156.208 16.68 156.192 17.08 156.096 17.768C156.064 17.96 156.032 18.184 156 18.424C155.024 18.408 153.824 18.28 152.864 18.12V20.104C153.68 20.184 154.624 20.232 155.632 20.248C155.216 22.008 154.576 24.136 153.808 25.624L155.696 26.296C155.856 26.024 155.968 25.816 156.144 25.592C157.104 24.376 158.736 23.72 160.576 23.72C162.144 23.72 162.96 24.52 162.96 25.48C162.96 27.832 159.424 28.264 155.92 27.688L156.48 29.752C161.648 30.312 165.12 29.016 165.12 25.416C165.12 23.368 163.408 21.992 160.816 21.992C159.392 21.992 158.144 22.28 156.848 23C157.088 22.216 157.344 21.192 157.568 20.216C159.712 20.104 162.256 19.8 163.92 19.528L163.888 17.624C161.952 18.04 159.792 18.28 157.968 18.376C158 18.2 158.032 18.024 158.064 17.88C158.176 17.352 158.272 16.808 158.448 16.248ZM174.144 16.12L173.632 18.04C174.88 18.36 178.448 19.112 180.064 19.32L180.544 17.368C179.152 17.208 175.664 16.6 174.144 16.12ZM174.24 19.336L172.096 19.032C171.984 21.016 171.616 24.152 171.296 25.72L173.136 26.184C173.28 25.864 173.44 25.608 173.728 25.256C174.736 24.04 176.368 23.368 178.176 23.368C179.568 23.368 180.56 24.136 180.56 25.176C180.56 27.208 178.016 28.376 173.216 27.72L173.824 29.816C180.48 30.376 182.784 28.136 182.784 25.224C182.784 23.288 181.152 21.56 178.352 21.56C176.672 21.56 175.088 22.024 173.632 23.08C173.744 22.168 174.032 20.216 174.24 19.336ZM193.792 16.36L191.408 16.12C191.424 17.128 191.296 18.296 191.072 19.512C190.256 19.576 189.504 19.624 189.008 19.64C188.416 19.656 187.872 19.688 187.296 19.64L187.488 21.816C187.968 21.736 188.816 21.624 189.264 21.544C189.568 21.512 190.064 21.448 190.64 21.384C190.064 23.576 188.96 26.808 187.408 28.904L189.488 29.736C190.96 27.384 192.144 23.592 192.752 21.16C193.2 21.128 193.6 21.096 193.856 21.096C194.864 21.096 195.408 21.272 195.408 22.552C195.408 24.136 195.2 26.072 194.768 26.984C194.512 27.512 194.096 27.672 193.568 27.672C193.136 27.672 192.224 27.512 191.6 27.336L191.952 29.448C192.496 29.56 193.248 29.672 193.872 29.672C195.072 29.672 195.968 29.32 196.496 28.2C197.184 26.808 197.408 24.216 197.408 22.328C197.408 20.024 196.208 19.272 194.512 19.272C194.176 19.272 193.696 19.304 193.168 19.336C193.28 18.76 193.392 18.168 193.504 17.688C193.584 17.288 193.696 16.776 193.792 16.36ZM199.296 17.864L197.392 18.68C198.528 20.088 199.664 22.984 200.08 24.76L202.112 23.816C201.632 22.296 200.288 19.24 199.296 17.864ZM209.344 16.12L208.832 18.04C210.08 18.36 213.648 19.112 215.264 19.32L215.744 17.368C214.352 17.208 210.864 16.6 209.344 16.12ZM209.44 19.336L207.296 19.032C207.184 21.016 206.816 24.152 206.496 25.72L208.336 26.184C208.48 25.864 208.64 25.608 208.928 25.256C209.936 24.04 211.568 23.368 213.376 23.368C214.768 23.368 215.76 24.136 215.76 25.176C215.76 27.208 213.216 28.376 208.416 27.72L209.024 29.816C215.68 30.376 217.984 28.136 217.984 25.224C217.984 23.288 216.352 21.56 213.552 21.56C211.872 21.56 210.288 22.024 208.832 23.08C208.944 22.168 209.232 20.216 209.44 19.336Z" fill="white"/>
<path d="M5.71999 26.4631L7.48099 25.9551L18.084 15.2252C18.1676 15.1395 18.2142 15.0243 18.2136 14.9046C18.213 14.7848 18.1654 14.6701 18.081 14.5852L17.446 13.9432C17.4049 13.901 17.3559 13.8674 17.3018 13.8444C17.2476 13.8214 17.1894 13.8094 17.1306 13.8091C17.0718 13.8089 17.0135 13.8203 16.9591 13.8428C16.9047 13.8653 16.8554 13.8984 16.814 13.9402L6.23899 24.6422L5.71899 26.4621L5.71999 26.4631ZM18.703 12.6712L19.338 13.3142C20.214 14.2012 20.222 15.6322 19.354 16.5102L8.42799 27.5681L4.66399 28.6521C4.43419 28.7165 4.18825 28.687 3.98016 28.5702C3.77206 28.4534 3.61879 28.2588 3.55399 28.0291C3.50578 27.864 3.50508 27.6886 3.55199 27.5231L4.64699 23.6832L15.544 12.6542C15.7512 12.4455 15.9979 12.2802 16.2696 12.1679C16.5414 12.0556 16.8328 11.9985 17.1268 12C17.4209 12.0015 17.7117 12.0615 17.9823 12.1766C18.2529 12.2917 18.4979 12.4594 18.703 12.6702V12.6712ZM7.18399 13.8242C7.67999 13.8242 8.08199 14.2312 8.08199 14.7332C8.08278 14.8518 8.06017 14.9695 8.01546 15.0794C7.97074 15.1893 7.9048 15.2894 7.8214 15.3738C7.738 15.4582 7.63878 15.5254 7.52941 15.5714C7.42003 15.6175 7.30266 15.6415 7.18399 15.6422H3.59199C2.6 15.6422 1.796 16.4562 1.796 17.4592V28.3651C1.796 29.3691 2.6 30.1831 3.59199 30.1831H14.368C15.36 30.1831 16.165 29.3691 16.165 28.3651V24.7302C16.165 24.2282 16.567 23.8212 17.063 23.8212C17.559 23.8212 17.961 24.2282 17.961 24.7312V28.3651C17.961 30.3731 16.352 32.0011 14.368 32.0011H3.59199C1.608 32.0011 0 30.3731 0 28.3651V17.4592C0 15.4522 1.608 13.8242 3.59199 13.8242H7.18399Z" fill="white"/>
<rect x="242" width="107" height="46" rx="3" fill="white"/>
<path d="M227 23.5L255.5 10.0766L255.5 36.9234L227 23.5Z" fill="white"/>
<path d="M277.457 21H282.845V19.512H279.233V12.108H277.457V21ZM284.395 21H286.171V12.108H284.395V21ZM288.356 21H290.036V17.436C290.036 16.416 289.904 15.3 289.82 14.34H289.88L290.78 16.248L293.348 21H295.148V12.108H293.468V15.66C293.468 16.668 293.612 17.844 293.696 18.768H293.636L292.748 16.848L290.168 12.108H288.356V21ZM297.344 21H302.924V19.512H299.12V17.136H302.24V15.648H299.12V13.596H302.792V12.108H297.344V21ZM309.467 11.376L307.883 11.244C307.859 11.676 307.775 12.144 307.643 12.624C307.451 12.624 307.247 12.624 307.067 12.624C306.455 12.624 305.567 12.576 304.955 12.48V13.884C305.615 13.932 306.491 13.956 306.983 13.956C307.031 13.956 307.079 13.956 307.139 13.956C306.599 15.036 305.747 16.104 304.487 17.268L305.771 18.228C306.179 17.7 306.527 17.268 306.887 16.908C307.343 16.464 308.087 16.08 308.759 16.08C309.095 16.08 309.419 16.188 309.599 16.488C308.231 17.196 306.791 18.156 306.791 19.692C306.791 21.24 308.183 21.696 310.067 21.696C311.195 21.696 312.671 21.6 313.463 21.492L313.511 19.944C312.455 20.148 311.123 20.28 310.103 20.28C308.927 20.28 308.363 20.1 308.363 19.44C308.363 18.84 308.843 18.372 309.743 17.856C309.731 18.384 309.719 18.96 309.683 19.32H311.123C311.111 18.768 311.087 17.88 311.075 17.208C311.807 16.872 312.491 16.608 313.031 16.392C313.439 16.236 314.075 15.996 314.459 15.888L313.859 14.496C313.415 14.724 312.995 14.916 312.527 15.12C312.035 15.336 311.531 15.54 310.907 15.828C310.643 15.216 310.043 14.904 309.311 14.904C308.915 14.904 308.267 15 307.955 15.144C308.195 14.796 308.435 14.364 308.639 13.92C309.935 13.884 311.411 13.788 312.551 13.62L312.563 12.228C311.507 12.408 310.307 12.516 309.167 12.576C309.323 12.072 309.407 11.676 309.467 11.376ZM259.232 25.256H257.576C257.612 25.472 257.66 26.06 257.66 26.312C257.66 26.516 257.66 26.864 257.648 27.284C257.408 27.296 257.168 27.308 256.952 27.308C256.52 27.308 256.004 27.296 255.296 27.212L255.32 28.664C255.728 28.712 256.196 28.724 257 28.724C257.192 28.724 257.408 28.712 257.636 28.7C257.636 29.036 257.636 29.372 257.636 29.708C257.636 29.984 257.636 30.272 257.648 30.56C256.172 31.196 254.972 32.288 254.972 33.332C254.972 34.604 256.616 35.612 257.78 35.612C258.572 35.612 259.1 35.216 259.1 33.728C259.1 33.32 259.076 32.384 259.052 31.436C259.784 31.22 260.564 31.1 261.308 31.1C262.352 31.1 263.072 31.58 263.072 32.396C263.072 33.272 262.304 33.752 261.332 33.932C260.912 34.004 260.396 34.016 259.856 34.016L260.408 35.564C260.9 35.528 261.428 35.492 261.98 35.372C263.888 34.892 264.632 33.824 264.632 32.408C264.632 30.752 263.18 29.792 261.332 29.792C260.672 29.792 259.844 29.9 259.028 30.104C259.028 29.948 259.028 29.804 259.028 29.66C259.028 29.312 259.028 28.94 259.04 28.58C259.82 28.484 260.648 28.364 261.332 28.208L261.296 26.72C260.672 26.9 259.88 27.056 259.088 27.152C259.1 26.852 259.112 26.564 259.124 26.3C259.148 25.988 259.196 25.472 259.232 25.256ZM262.652 26.552L261.992 27.716C262.736 28.076 264.308 28.976 264.884 29.468L265.604 28.244C264.968 27.788 263.576 26.996 262.652 26.552ZM256.448 33.272C256.448 32.852 256.94 32.36 257.672 31.964C257.696 32.612 257.708 33.164 257.708 33.464C257.708 33.872 257.54 33.968 257.324 33.968C257.012 33.968 256.448 33.644 256.448 33.272ZM270.08 29.924L269.132 30.188V28.424H270.152V27.104H269.132V24.848H267.824V27.104H266.468V28.424H267.824V30.524C267.236 30.668 266.708 30.8 266.276 30.908L266.588 32.276L267.824 31.916V34.448C267.824 34.604 267.764 34.652 267.62 34.652C267.476 34.664 267.068 34.664 266.624 34.64C266.804 35.024 266.96 35.612 266.996 35.96C267.764 35.972 268.292 35.924 268.64 35.696C269.012 35.468 269.132 35.12 269.132 34.46V31.544C269.516 31.436 269.888 31.316 270.26 31.208L270.08 29.924ZM271.1 32.768C271.592 33.404 272.144 34.28 272.36 34.868L273.572 34.172C273.332 33.584 272.732 32.732 272.228 32.132L271.1 32.768ZM277.616 29.84V28.544H274.664V27.5H277.088V26.204H274.664V24.896H273.308V26.204H270.848V27.5H273.308V28.544H270.332V29.84H274.856V30.788H270.44V32.084H274.856V34.508C274.856 34.676 274.808 34.712 274.616 34.712C274.436 34.724 273.812 34.724 273.272 34.7C273.44 35.084 273.62 35.648 273.68 36.044C274.532 36.044 275.18 36.02 275.612 35.816C276.08 35.6 276.212 35.252 276.212 34.532V32.084H277.532V30.788H276.212V29.84H277.616ZM283.436 25.436L281.732 25.364C281.756 25.76 281.744 26.06 281.672 26.576C281.648 26.72 281.624 26.888 281.6 27.068C280.868 27.056 279.968 26.96 279.248 26.84V28.328C279.86 28.388 280.568 28.424 281.324 28.436C281.012 29.756 280.532 31.352 279.956 32.468L281.372 32.972C281.492 32.768 281.576 32.612 281.708 32.444C282.428 31.532 283.652 31.04 285.032 31.04C286.208 31.04 286.82 31.64 286.82 32.36C286.82 34.124 284.168 34.448 281.54 34.016L281.96 35.564C285.836 35.984 288.44 35.012 288.44 32.312C288.44 30.776 287.156 29.744 285.212 29.744C284.144 29.744 283.208 29.96 282.236 30.5C282.416 29.912 282.608 29.144 282.776 28.412C284.384 28.328 286.292 28.1 287.54 27.896L287.516 26.468C286.064 26.78 284.444 26.96 283.076 27.032C283.1 26.9 283.124 26.768 283.148 26.66C283.232 26.264 283.304 25.856 283.436 25.436ZM290.828 26.768L290.984 28.412C292.376 28.112 294.824 27.848 295.952 27.728C295.136 28.34 294.164 29.708 294.164 31.436C294.164 34.04 296.54 35.384 299.06 35.552L299.624 33.908C297.584 33.8 295.736 33.092 295.736 31.112C295.736 29.684 296.828 28.136 298.28 27.752C298.916 27.596 299.948 27.596 300.596 27.584L300.584 26.048C299.732 26.084 298.424 26.156 297.188 26.264C294.992 26.444 293.012 26.624 292.004 26.708C291.776 26.732 291.308 26.756 290.828 26.768ZM298.88 28.76L297.992 29.132C298.376 29.672 298.628 30.14 298.928 30.8L299.84 30.392C299.612 29.924 299.18 29.192 298.88 28.76ZM300.224 28.208L299.348 28.616C299.732 29.144 300.008 29.588 300.332 30.236L301.232 29.804C300.98 29.336 300.524 28.628 300.224 28.208ZM307.664 25.34L306.008 25.172C305.984 25.796 305.852 26.516 305.684 27.176C305.312 27.212 304.952 27.224 304.592 27.224C304.148 27.224 303.512 27.2 302.996 27.14L303.104 28.532C303.62 28.568 304.112 28.58 304.604 28.58C304.808 28.58 305.012 28.58 305.228 28.568C304.7 29.864 303.728 31.628 302.78 32.804L304.232 33.548C305.204 32.192 306.224 30.092 306.8 28.412C307.604 28.292 308.348 28.136 308.9 27.992L308.852 26.6C308.384 26.744 307.82 26.876 307.232 26.984C307.412 26.336 307.568 25.724 307.664 25.34ZM307.04 33.644C307.04 33.224 307.484 32.912 308.18 32.912C308.516 32.912 308.84 32.96 309.152 33.032C309.152 33.128 309.152 33.2 309.152 33.272C309.152 33.932 308.9 34.388 308.072 34.388C307.412 34.388 307.04 34.088 307.04 33.644ZM310.472 29.072H308.972C308.996 29.804 309.056 30.872 309.104 31.76C308.828 31.736 308.564 31.712 308.276 31.712C306.608 31.712 305.624 32.612 305.624 33.788C305.624 35.108 306.8 35.768 308.288 35.768C309.992 35.768 310.604 34.904 310.604 33.788C310.604 33.752 310.604 33.704 310.604 33.668C311.264 34.064 311.804 34.568 312.224 34.952L313.028 33.668C312.416 33.116 311.576 32.516 310.544 32.132C310.52 31.532 310.484 30.956 310.472 30.608C310.46 30.08 310.436 29.576 310.472 29.072ZM312.536 29.708L313.388 28.448C312.776 28.004 311.288 27.188 310.424 26.816L309.656 28.004C310.472 28.376 311.84 29.156 312.536 29.708ZM317.12 26.42L315.272 26.396C315.344 26.768 315.368 27.284 315.368 27.62C315.368 28.352 315.38 29.756 315.5 30.86C315.836 34.076 316.976 35.264 318.296 35.264C319.256 35.264 320.012 34.532 320.804 32.444L319.604 30.98C319.376 31.94 318.896 33.344 318.332 33.344C317.576 33.344 317.216 32.156 317.048 30.428C316.976 29.564 316.964 28.664 316.976 27.884C316.976 27.548 317.036 26.852 317.12 26.42ZM323.12 26.696L321.596 27.188C322.904 28.676 323.54 31.592 323.732 33.524L325.304 32.912C325.172 31.076 324.26 28.076 323.12 26.696ZM337.412 28.112V26.744H332.672V24.788H331.196V26.744H326.6V28.112H330.032C329.9 30.68 329.624 33.416 326.384 34.916C326.756 35.228 327.188 35.732 327.392 36.128C329.792 34.916 330.788 33.044 331.244 31.016H334.544C334.376 33.2 334.16 34.244 333.848 34.508C333.704 34.64 333.536 34.664 333.272 34.664C332.924 34.664 332.084 34.664 331.256 34.58C331.52 34.988 331.736 35.576 331.76 35.984C332.564 36.02 333.368 36.032 333.812 35.984C334.376 35.936 334.748 35.816 335.108 35.432C335.588 34.904 335.84 33.56 336.056 30.296C336.092 30.104 336.104 29.672 336.104 29.672H331.472C331.532 29.156 331.568 28.628 331.604 28.112H337.412Z" fill="#555555"/>
</svg>
