<svg width="217" height="25" viewBox="0 0 217 25" fill="none" xmlns="http://www.w3.org/2000/svg">
<path d="M44.2523 5.616C45.4203 7.808 47.2603 10.336 48.7643 11.952C49.1323 11.424 49.8683 10.688 50.3643 10.288C48.9083 8.944 47.0843 6.704 46.1563 4.832L44.2523 5.616ZM39.7563 4.8C38.9243 7.024 37.4203 9.216 35.7723 10.512C36.2683 10.816 37.2123 11.536 37.5963 11.936C39.2283 10.416 40.9083 7.936 41.9323 5.424L39.7563 4.8ZM44.5243 13.776C45.1163 14.56 45.7563 15.472 46.3323 16.368C44.4763 16.464 42.6043 16.56 40.8763 16.64C41.8523 14.912 42.8923 12.768 43.7243 10.8L41.4363 10.272C40.8283 12.272 39.7243 14.832 38.7003 16.736L36.4763 16.816L36.7323 18.816C39.5483 18.688 43.5803 18.448 47.4203 18.192C47.6923 18.656 47.9163 19.088 48.0763 19.472L50.0603 18.432C49.2763 16.896 47.7723 14.64 46.3803 12.912L44.5243 13.776ZM58.3963 12.688H60.9563V10.848H54.0923V12.688H56.5083V16.544C55.3563 16.736 54.3003 16.896 53.4843 17.024L54.0123 18.944C56.0763 18.496 58.8923 17.92 61.5163 17.344L61.3723 15.648C60.3963 15.84 59.3723 16.032 58.3963 16.208V12.688ZM67.7883 9.024V7.168H66.2843L67.3723 6.224C66.9403 5.696 65.9963 4.944 65.2763 4.448L64.0123 5.488C64.6523 5.968 65.4523 6.624 65.8843 7.168H63.3563C63.3243 6.304 63.3243 5.408 63.3403 4.528H61.2923C61.2923 5.408 61.3083 6.304 61.3403 7.168H53.4843V9.024H61.4363C61.8203 14.656 63.0203 19.392 65.7563 19.392C67.2763 19.392 67.9163 18.656 68.2043 15.632C67.6763 15.424 66.9723 14.96 66.5403 14.512C66.4603 16.544 66.2683 17.392 65.9323 17.392C64.7643 17.392 63.7883 13.696 63.4523 9.024H67.7883ZM71.6763 18H78.8603V16.016H74.0443V6.144H71.6763V18ZM82.5263 18H84.8943V6.144H82.5263V18ZM89.4076 18H91.6476V13.248C91.6476 11.888 91.4716 10.4 91.3596 9.12H91.4396L92.6396 11.664L96.0636 18H98.4636V6.144H96.2236V10.88C96.2236 12.224 96.4156 13.792 96.5276 15.024H96.4476L95.2636 12.464L91.8236 6.144H89.4076V18ZM102.992 18H110.432V16.016H105.36V12.848H109.52V10.864H105.36V8.128H110.256V6.144H102.992V18ZM120.564 15.92C120.564 15.312 121.172 14.928 122.084 14.928C122.516 14.928 122.948 14.992 123.364 15.104C123.364 15.216 123.364 15.312 123.364 15.392C123.364 16.336 123.028 16.848 122.052 16.848C121.204 16.848 120.564 16.576 120.564 15.92ZM125.316 5.472H123.028C123.092 5.792 123.14 6.288 123.14 6.528C123.14 6.864 123.156 7.52 123.156 8.304C122.788 8.32 122.404 8.32 122.036 8.32C121.076 8.32 120.148 8.272 119.236 8.176V10.08C120.18 10.144 121.092 10.176 122.036 10.176C122.404 10.176 122.788 10.176 123.172 10.16C123.188 11.296 123.252 12.464 123.284 13.456C122.964 13.408 122.612 13.392 122.244 13.392C120.068 13.392 118.692 14.512 118.692 16.128C118.692 17.808 120.068 18.736 122.276 18.736C124.436 18.736 125.3 17.648 125.396 16.112C126.036 16.544 126.676 17.104 127.348 17.728L128.452 16.048C127.684 15.344 126.676 14.528 125.348 13.984C125.284 12.896 125.204 11.616 125.172 10.064C126.052 10 126.884 9.904 127.652 9.792V7.792C126.884 7.952 126.052 8.08 125.172 8.16C125.188 7.456 125.204 6.864 125.22 6.512C125.236 6.16 125.268 5.776 125.316 5.472ZM117.508 5.648L115.3 5.456C115.284 5.968 115.204 6.576 115.14 7.024C114.964 8.256 114.484 11.28 114.484 13.696C114.484 15.872 114.788 17.696 115.124 18.816L116.932 18.672C116.916 18.448 116.9 18.176 116.9 18.016C116.9 17.84 116.932 17.488 116.98 17.264C117.172 16.4 117.684 14.768 118.132 13.456L117.156 12.656C116.916 13.2 116.644 13.744 116.436 14.304C116.388 13.984 116.372 13.584 116.372 13.264C116.372 11.664 116.9 8.144 117.14 7.072C117.188 6.784 117.38 5.968 117.508 5.648ZM134.068 6.368V8.48C135.364 8.592 136.756 8.656 138.436 8.656C139.956 8.656 141.94 8.56 143.06 8.464V6.336C141.828 6.464 140.004 6.56 138.42 6.56C136.74 6.56 135.252 6.496 134.068 6.368ZM135.412 13.152L133.316 12.96C133.188 13.552 132.996 14.336 132.996 15.264C132.996 17.456 134.836 18.688 138.5 18.688C140.74 18.688 142.66 18.48 144.052 18.144L144.036 15.888C142.628 16.288 140.58 16.528 138.42 16.528C136.116 16.528 135.14 15.792 135.14 14.768C135.14 14.224 135.252 13.728 135.412 13.152ZM155.428 5.248L153.156 5.152C153.188 5.68 153.172 6.08 153.076 6.768C153.044 6.96 153.012 7.184 152.98 7.424C152.004 7.408 150.804 7.28 149.844 7.12V9.104C150.66 9.184 151.604 9.232 152.612 9.248C152.196 11.008 151.556 13.136 150.788 14.624L152.676 15.296C152.836 15.024 152.948 14.816 153.124 14.592C154.084 13.376 155.716 12.72 157.556 12.72C159.124 12.72 159.94 13.52 159.94 14.48C159.94 16.832 156.404 17.264 152.9 16.688L153.46 18.752C158.628 19.312 162.1 18.016 162.1 14.416C162.1 12.368 160.388 10.992 157.796 10.992C156.372 10.992 155.124 11.28 153.828 12C154.068 11.216 154.324 10.192 154.548 9.216C156.692 9.104 159.236 8.8 160.9 8.528L160.868 6.624C158.932 7.04 156.772 7.28 154.948 7.376C154.98 7.2 155.012 7.024 155.044 6.88C155.156 6.352 155.252 5.808 155.428 5.248ZM171.124 5.12L170.612 7.04C171.86 7.36 175.428 8.112 177.044 8.32L177.524 6.368C176.132 6.208 172.644 5.6 171.124 5.12ZM171.22 8.336L169.076 8.032C168.964 10.016 168.596 13.152 168.276 14.72L170.116 15.184C170.26 14.864 170.42 14.608 170.708 14.256C171.716 13.04 173.348 12.368 175.156 12.368C176.548 12.368 177.54 13.136 177.54 14.176C177.54 16.208 174.996 17.376 170.196 16.72L170.804 18.816C177.46 19.376 179.764 17.136 179.764 14.224C179.764 12.288 178.132 10.56 175.332 10.56C173.652 10.56 172.068 11.024 170.612 12.08C170.724 11.168 171.012 9.216 171.22 8.336ZM190.772 5.36L188.388 5.12C188.404 6.128 188.276 7.296 188.052 8.512C187.236 8.576 186.484 8.624 185.988 8.64C185.396 8.656 184.852 8.688 184.276 8.64L184.468 10.816C184.948 10.736 185.796 10.624 186.244 10.544C186.548 10.512 187.044 10.448 187.62 10.384C187.044 12.576 185.94 15.808 184.388 17.904L186.468 18.736C187.94 16.384 189.124 12.592 189.732 10.16C190.18 10.128 190.58 10.096 190.836 10.096C191.844 10.096 192.388 10.272 192.388 11.552C192.388 13.136 192.18 15.072 191.748 15.984C191.492 16.512 191.076 16.672 190.548 16.672C190.116 16.672 189.204 16.512 188.58 16.336L188.932 18.448C189.476 18.56 190.228 18.672 190.852 18.672C192.052 18.672 192.948 18.32 193.476 17.2C194.164 15.808 194.388 13.216 194.388 11.328C194.388 9.024 193.188 8.272 191.492 8.272C191.156 8.272 190.676 8.304 190.148 8.336C190.26 7.76 190.372 7.168 190.484 6.688C190.564 6.288 190.676 5.776 190.772 5.36ZM196.276 6.864L194.372 7.68C195.508 9.088 196.644 11.984 197.06 13.76L199.092 12.816C198.612 11.296 197.268 8.24 196.276 6.864ZM206.324 5.12L205.812 7.04C207.06 7.36 210.628 8.112 212.244 8.32L212.724 6.368C211.332 6.208 207.844 5.6 206.324 5.12ZM206.42 8.336L204.276 8.032C204.164 10.016 203.796 13.152 203.476 14.72L205.316 15.184C205.46 14.864 205.62 14.608 205.908 14.256C206.916 13.04 208.548 12.368 210.356 12.368C211.748 12.368 212.74 13.136 212.74 14.176C212.74 16.208 210.196 17.376 205.396 16.72L206.004 18.816C212.66 19.376 214.964 17.136 214.964 14.224C214.964 12.288 213.332 10.56 210.532 10.56C208.852 10.56 207.268 11.024 205.812 12.08C205.924 11.168 206.212 9.216 206.42 8.336Z" fill="white"/>
<path fill-rule="evenodd" clip-rule="evenodd" d="M12.5 0C19.3922 0 25 4.55 25 10.1438C25 12.3828 24.1328 14.3984 22.3203 16.3844C19.6984 19.4031 13.8344 23.0797 12.5 23.6422C11.2031 24.1891 11.3531 23.3344 11.4125 22.9969L11.4172 22.9688L11.5953 21.8984C11.6375 21.5797 11.6812 21.0844 11.5547 20.7687C11.4141 20.4203 10.8609 20.2391 10.4547 20.1516C4.44688 19.3594 0 15.1578 0 10.1438C0 4.55 5.60938 0 12.5 0ZM7.84687 12.0094H5.46406V7.68438C5.46406 7.62 5.4386 7.55824 5.39322 7.51257C5.34785 7.4669 5.28625 7.44104 5.22188 7.44063H4.34375C4.31174 7.44063 4.28004 7.44693 4.25047 7.45918C4.2209 7.47143 4.19403 7.48938 4.17139 7.51202C4.14876 7.53465 4.1308 7.56152 4.11855 7.5911C4.1063 7.62067 4.1 7.65237 4.1 7.68438V13.1313C4.1 13.1953 4.12656 13.2562 4.16875 13.2984V13.3L4.17188 13.3031L4.175 13.3062C4.22031 13.3498 4.28088 13.3739 4.34375 13.3734H7.84687C7.98125 13.3734 8.08906 13.2641 8.08906 13.1297V12.2547C8.08927 12.2227 8.08317 12.1909 8.07111 12.1613C8.05905 12.1316 8.04127 12.1047 8.01878 12.0819C7.99629 12.0591 7.96953 12.041 7.94004 12.0285C7.91054 12.0161 7.87888 12.0096 7.84687 12.0094ZM9.08281 7.44063H9.96094C10.0953 7.44063 10.2031 7.55 10.2031 7.68438V13.1313C10.2031 13.2656 10.0938 13.3734 9.96094 13.3734H9.08281C9.01844 13.3734 8.95667 13.348 8.91101 13.3026C8.86534 13.2572 8.83948 13.1956 8.83906 13.1313V7.68438C8.83906 7.55 8.94844 7.44063 9.08281 7.44063ZM15.1187 7.44063H15.9937C16.1297 7.44063 16.2391 7.55 16.2391 7.68438V13.1313C16.2391 13.2656 16.1297 13.3734 15.9953 13.3734H15.1187C15.0977 13.3736 15.0767 13.3709 15.0562 13.3656H15.0531C15.0473 13.3637 15.0416 13.3617 15.0359 13.3594L15.0281 13.3563L15.0172 13.3516C15.0129 13.3498 15.0087 13.3477 15.0047 13.3453L15 13.3438L14.9844 13.3344L14.9828 13.3328C14.9584 13.3165 14.9373 13.2958 14.9203 13.2719L12.4203 9.89688V13.1313C12.4205 13.1632 12.4144 13.1948 12.4023 13.2244C12.3902 13.254 12.3724 13.2809 12.3499 13.3035C12.3274 13.3262 12.3007 13.3441 12.2712 13.3564C12.2417 13.3687 12.2101 13.375 12.1781 13.375H11.3016C11.2372 13.375 11.1754 13.3495 11.1298 13.3042C11.0841 13.2588 11.0582 13.1972 11.0578 13.1328V7.68438C11.0578 7.55 11.1672 7.44063 11.3016 7.44063H12.1875L12.1953 7.44219H12.2047L12.2094 7.44375H12.2188L12.2344 7.44844H12.2375L12.2406 7.45L12.2562 7.45469L12.2641 7.45781C12.2689 7.45964 12.2736 7.46172 12.2781 7.46406L12.2828 7.46562L12.2859 7.46719C12.293 7.47089 12.2998 7.47507 12.3062 7.47969L12.3109 7.48281L12.3187 7.4875V7.48906C12.3219 7.48906 12.3234 7.49219 12.325 7.49375C12.3293 7.49665 12.3335 7.49978 12.3375 7.50313L12.3422 7.50781C12.3555 7.52009 12.3676 7.5337 12.3781 7.54844L14.875 10.9219V7.68438C14.875 7.55 14.9844 7.44063 15.1187 7.44063ZM21.0797 8.56094C21.0797 8.69531 20.9703 8.80469 20.8375 8.80469H18.4531V9.72656H20.8359C20.9703 9.72656 21.0781 9.83594 21.0781 9.96875V10.8453C21.0781 10.9797 20.9688 11.0891 20.8359 11.0891H18.4531V12.0109H20.8359C20.9703 12.0109 21.0781 12.1203 21.0781 12.2531V13.1297C21.0781 13.2641 20.9688 13.3734 20.8359 13.3734H17.3328C17.3009 13.3736 17.2694 13.3675 17.2399 13.3554C17.2104 13.3433 17.1836 13.3256 17.1609 13.3031L17.1578 13.2984C17.1142 13.2537 17.0895 13.1938 17.0891 13.1313V7.68438C17.0891 7.61875 17.1156 7.55937 17.1562 7.51719L17.1609 7.5125L17.1625 7.51094C17.2078 7.46598 17.269 7.44071 17.3328 7.44063H20.8359C20.9703 7.44063 21.0781 7.55 21.0781 7.68438V8.56094H21.0797Z" fill="white"/>
</svg>
