<svg width="345" height="38" viewBox="0 0 345 38" fill="none" xmlns="http://www.w3.org/2000/svg">
<path d="M10.664 4.8L6.904 13.44L3.176 4.8H0.92L5.816 16H7.864L12.744 4.8H10.664ZM15.5259 16H17.6059V4.8H15.5259V16ZM24.3153 14.256V11.168H29.7233V9.456H24.3153V6.544H30.4113V4.8H22.2353V16H30.6353V14.256H24.3153ZM48.7817 4.8L45.9177 13.36L43.0857 4.8H41.1657L38.2697 13.312L35.4857 4.8H33.3257L37.0377 16H39.2617L42.0777 7.712L44.8457 16H47.0538L50.7658 4.8H48.7817ZM72.5725 16L72.5565 4.8H70.8445L66.4765 12.224L62.0285 4.8H60.3165V16H62.3005V8.672L65.9805 14.72H66.9085L70.5885 8.576L70.6045 16H72.5725ZM82.4297 16.16C85.9017 16.16 88.4617 13.728 88.4617 10.4C88.4617 7.072 85.9017 4.64 82.4297 4.64C78.9577 4.64 76.3977 7.088 76.3977 10.4C76.3977 13.712 78.9577 16.16 82.4297 16.16ZM82.4297 14.336C80.1737 14.336 78.4937 12.688 78.4937 10.4C78.4937 8.112 80.1737 6.464 82.4297 6.464C84.6857 6.464 86.3657 8.112 86.3657 10.4C86.3657 12.688 84.6857 14.336 82.4297 14.336ZM101.834 16L99.2585 12.32C100.778 11.728 101.642 10.48 101.642 8.784C101.642 6.304 99.8185 4.8 96.8745 4.8H92.2665V16H94.3465V12.736H96.8745C97.0185 12.736 97.1625 12.736 97.3065 12.72L99.5945 16H101.834ZM99.5465 8.784C99.5465 10.192 98.6025 11.024 96.7785 11.024H94.3465V6.56H96.7785C98.6025 6.56 99.5465 7.376 99.5465 8.784ZM107.65 14.256V11.168H113.058V9.456H107.65V6.544H113.746V4.8H105.57V16H113.97V14.256H107.65Z" fill="white"/>
<path d="M1 37H343L304.5 2" stroke="white"/>
</svg>
