<svg width="175" height="21" viewBox="0 0 175 21" fill="none" xmlns="http://www.w3.org/2000/svg">
<path d="M29.8885 16H32.7845L34.0805 10.144C34.2725 9.216 34.4325 8.304 34.5925 7.392H34.6565C34.8005 8.304 34.9765 9.216 35.1685 10.144L36.4965 16H39.4405L41.6325 4.144H39.3925L38.4485 9.936C38.2725 11.168 38.0965 12.432 37.9205 13.712H37.8405C37.5845 12.432 37.3445 11.152 37.0885 9.936L35.7285 4.144H33.6965L32.3205 9.936C32.0645 11.168 31.8085 12.432 31.5685 13.712H31.5045C31.3285 12.432 31.1365 11.184 30.9605 9.936L30.0165 4.144H27.6165L29.8885 16ZM43.4091 16H50.8491V14.016H45.7771V10.848H49.9371V8.864H45.7771V6.128H50.6731V4.144H43.4091V16ZM53.2529 16H57.4769C60.0849 16 62.0689 14.896 62.0689 12.512C62.0689 10.912 61.1249 10.016 59.8449 9.712V9.632C60.8529 9.28 61.4609 8.16 61.4609 7.072C61.4609 4.864 59.6049 4.144 57.1729 4.144H53.2529V16ZM55.6209 8.976V5.968H57.0289C58.4529 5.968 59.1569 6.384 59.1569 7.424C59.1569 8.368 58.5009 8.976 56.9969 8.976H55.6209ZM55.6209 14.176V10.72H57.2689C58.9009 10.72 59.7649 11.216 59.7649 12.368C59.7649 13.6 58.8849 14.176 57.2689 14.176H55.6209ZM63.7915 5.024L63.9995 7.216C65.8555 6.816 69.1195 6.464 70.6235 6.304C69.5355 7.12 68.2395 8.944 68.2395 11.248C68.2395 14.72 71.4075 16.512 74.7675 16.736L75.5195 14.544C72.7995 14.4 70.3355 13.456 70.3355 10.816C70.3355 8.912 71.7915 6.848 73.7275 6.336C74.5755 6.128 75.9515 6.128 76.8155 6.112L76.7995 4.064C75.6635 4.112 73.9195 4.208 72.2715 4.352C69.3435 4.592 66.7035 4.832 65.3595 4.944C65.0555 4.976 64.4315 5.008 63.7915 5.024ZM74.5275 7.68L73.3435 8.176C73.8555 8.896 74.1915 9.52 74.5915 10.4L75.8075 9.856C75.5035 9.232 74.9275 8.256 74.5275 7.68ZM76.3195 6.944L75.1515 7.488C75.6635 8.192 76.0315 8.784 76.4635 9.648L77.6635 9.072C77.3275 8.448 76.7195 7.504 76.3195 6.944ZM90.0635 7.84H88.8475V5.792H90.0635V7.84ZM90.0635 11.568H88.8475V9.536H90.0635V11.568ZM83.3435 9.536H84.4955V11.568H83.3435V9.536ZM87.2635 9.536V11.568H86.0795V9.536H87.2635ZM86.0795 7.84V5.792H87.2635V7.84H86.0795ZM83.3435 5.792H84.4955V7.84H83.3435V5.792ZM81.6635 7.84H79.5195V9.536H81.6635V11.568H79.7595V13.264H93.6635V11.568H91.8075V9.536H93.8875V7.84H91.8075V5.792H93.3115V4.112H83.7115C83.9515 3.744 84.1595 3.376 84.3355 2.992L82.4795 2.448C81.7755 3.936 80.5115 5.392 79.1675 6.272C79.5995 6.576 80.3675 7.184 80.7195 7.52C81.0395 7.28 81.3435 6.992 81.6635 6.688V7.84ZM81.1675 17.408C81.9515 16.576 82.6395 15.264 82.9915 14.048L81.1515 13.6C80.7835 14.768 80.0635 16 79.3595 16.672L81.1675 17.408ZM84.0155 14.16C84.1915 15.136 84.3195 16.448 84.3195 17.216L86.1755 16.944C86.1595 16.192 85.9675 14.928 85.7755 13.952L84.0155 14.16ZM87.1835 14.192C87.5355 15.168 87.9035 16.464 87.9995 17.232L89.9035 16.864C89.7595 16.08 89.3595 14.832 88.9755 13.888L87.1835 14.192ZM90.3515 14.112C91.0555 15.136 91.9035 16.544 92.2395 17.392L94.1915 16.736C93.7915 15.856 92.8955 14.512 92.1755 13.536L90.3515 14.112ZM106.192 5.248C105.68 4.656 104.544 3.84 103.648 3.312L102.736 4.592C103.616 5.184 104.72 6.048 105.216 6.672L106.192 5.248ZM102 8.608C102.928 9.168 104.095 10.016 104.624 10.608L105.584 9.088C105.008 8.512 103.824 7.744 102.896 7.248L102 8.608ZM100.56 3.328C100.384 4.448 99.9995 6.064 99.6795 7.072L100.88 7.408C101.28 6.48 101.744 4.96 102.16 3.68L100.56 3.328ZM97.4555 7.072C97.3755 6.08 97.0555 4.56 96.6395 3.408L95.3115 3.76C95.6795 4.912 95.9995 6.464 96.0315 7.456L97.4555 7.072ZM101.824 12.336C101.488 11.888 99.9675 10.096 99.5035 9.632V9.52H101.872V7.744H99.5035V2.512H97.7435V7.744H95.3275V9.52H97.1515C96.6555 10.976 95.8395 12.688 95.0395 13.664C95.3275 14.192 95.7435 15.056 95.9035 15.632C96.5915 14.672 97.2315 13.184 97.7435 11.696V17.344H99.5035V11.728C99.9675 12.464 100.416 13.296 100.656 13.808L101.824 12.336ZM110.288 12.704L110 10.928L108.368 11.232V2.432H106.576V11.552L101.824 12.4L102.112 14.176L106.576 13.376V17.376H108.368V13.056L110.288 12.704ZM114.256 2.512C113.536 4.768 112.288 7.04 110.944 8.496C111.296 8.976 111.824 10.016 112 10.48C112.32 10.096 112.656 9.664 112.976 9.232V17.36H114.784V6.144C115.28 5.12 115.712 4.08 116.064 3.056L114.256 2.512ZM121.6 13.008V8.832C122.144 10.336 122.816 11.776 123.568 13.008H121.6ZM117.792 13.008C118.544 11.824 119.216 10.416 119.744 8.944V13.008H117.792ZM126.016 7.104V5.296H121.6V2.528H119.744V5.296H115.696V7.104H118.848C117.968 9.632 116.48 12.16 114.864 13.6C115.296 13.92 115.904 14.592 116.224 15.04C116.736 14.528 117.2 13.92 117.648 13.232V14.704H119.744V17.28H121.6V14.704H123.744V13.296C124.16 13.936 124.576 14.496 125.024 14.992C125.36 14.496 126.016 13.856 126.448 13.52C124.896 12.064 123.424 9.568 122.544 7.104H126.016ZM128 16.496C128.656 15.6 128.816 14.112 128.896 12.656L127.84 12.448C127.776 13.808 127.584 15.152 127.04 15.968L128 16.496ZM129.039 12.784C129.152 13.728 129.2 14.944 129.152 15.744L130.016 15.632C130.064 14.864 130 13.632 129.856 12.704L129.039 12.784ZM130.128 12.704C130.384 13.536 130.592 14.608 130.624 15.296L131.456 15.12C131.408 14.432 131.184 13.376 130.928 12.544L130.128 12.704ZM132.144 10.288V9.296H133.536V7.856H132.144V6.896H133.536V6.528C133.808 6.928 134.112 7.472 134.288 7.888C134.72 7.632 135.12 7.312 135.52 6.976V7.84H137.152V8.704H134.432V12.928H136.704C136.272 14.048 135.408 15.104 133.76 15.936C133.936 15.088 134.032 13.552 134.144 10.912C134.16 10.704 134.16 10.288 134.16 10.288H132.144ZM129.536 9.296H130.624V10.288H129.536V9.296ZM130.624 6.896V7.856H129.536V6.896H130.624ZM130.624 4.576V5.456H129.536V4.576H130.624ZM136.144 6.384C136.864 5.648 137.488 4.832 137.904 4.112C138.352 4.848 139.024 5.68 139.776 6.384H136.144ZM140.08 10.08V11.552H138.768C138.816 11.072 138.832 10.608 138.832 10.144V10.08H140.08ZM135.984 11.552V10.08H137.152V10.128C137.152 10.592 137.136 11.072 137.056 11.552H135.984ZM141.696 12.928V8.704H138.832V7.84H140.432V6.96C140.768 7.248 141.12 7.488 141.472 7.696C141.712 7.2 142.08 6.512 142.416 6.064C141.008 5.392 139.616 3.936 138.656 2.464H137.024C136.368 3.792 134.976 5.44 133.536 6.304V5.456H132.144V4.576H133.856V3.04H127.968V11.76H132.544C132.512 12.448 132.48 13.04 132.448 13.52C132.304 13.088 132.112 12.624 131.904 12.224L131.152 12.48C131.456 13.12 131.776 13.984 131.872 14.544L132.384 14.352C132.304 15.184 132.224 15.584 132.112 15.744C131.984 15.904 131.872 15.952 131.68 15.952C131.472 15.952 131.12 15.936 130.704 15.888C130.928 16.288 131.072 16.912 131.088 17.36C131.664 17.392 132.176 17.376 132.496 17.312C132.896 17.264 133.184 17.12 133.456 16.752C133.536 16.656 133.6 16.512 133.664 16.304C134 16.624 134.4 17.104 134.592 17.424C136.496 16.496 137.568 15.296 138.144 14.016C138.832 15.488 139.808 16.688 141.136 17.376C141.408 16.896 141.952 16.224 142.336 15.872C140.992 15.296 139.984 14.224 139.344 12.928H141.696ZM156.544 8.4L156.192 8.528H153.664L154.048 7.904C153.68 7.728 153.2 7.552 152.672 7.344C154.016 6.432 155.344 5.328 156.368 4.304L155.008 3.232L154.576 3.344H145.008V5.088H152.736C152.112 5.632 151.392 6.16 150.704 6.592C149.808 6.256 148.912 5.952 148.192 5.696L147.248 7.136C148.272 7.52 149.568 8.032 150.752 8.528H143.472V10.336H149.792V15.248C149.792 15.488 149.696 15.552 149.392 15.568C149.072 15.568 147.888 15.568 146.944 15.536C147.232 16.032 147.536 16.816 147.632 17.36C149.008 17.36 150.048 17.344 150.784 17.072C151.552 16.8 151.776 16.32 151.776 15.312V10.336H155.152C154.752 11.056 154.288 11.776 153.904 12.304L155.536 13.248C156.432 12.176 157.376 10.576 158.096 9.072L156.544 8.4ZM159.824 11.808C159.696 13.152 159.44 14.576 158.976 15.52C159.392 15.664 160.096 16 160.432 16.208C160.896 15.184 161.232 13.584 161.392 12.08L159.824 11.808ZM163.391 12.16C163.792 13.136 164.208 14.432 164.336 15.248L165.84 14.72C165.648 13.904 165.232 12.656 164.8 11.712L163.391 12.16ZM168.384 5.152C168.688 4.416 168.96 3.648 169.168 2.864L167.216 2.448C166.704 4.464 165.76 6.512 164.576 7.776L164.464 7.584L163.12 8.176C163.312 8.512 163.504 8.896 163.68 9.28L162.064 9.344C163.104 8.048 164.224 6.416 165.12 5.008L163.504 4.336C163.12 5.136 162.608 6.064 162.032 6.96C161.872 6.752 161.68 6.512 161.472 6.288C162.048 5.392 162.704 4.16 163.28 3.056L161.6 2.464C161.328 3.296 160.88 4.368 160.432 5.248C160.304 5.136 160.176 5.024 160.048 4.912L159.152 6.224C159.824 6.864 160.608 7.728 161.072 8.416C160.832 8.768 160.576 9.104 160.336 9.408L159.152 9.456L159.312 11.12L161.68 10.96V17.408H163.36V10.832L164.272 10.768C164.368 11.088 164.448 11.376 164.496 11.632L165.936 10.96C165.76 10.16 165.248 8.976 164.688 7.968C165.168 8.256 165.872 8.736 166.192 9.024C166.672 8.448 167.12 7.744 167.552 6.96H171.968C171.792 12.416 171.552 14.752 171.072 15.248C170.88 15.456 170.704 15.52 170.4 15.52C169.968 15.52 169.056 15.52 168.048 15.424C168.4 15.968 168.656 16.8 168.688 17.344C169.616 17.376 170.608 17.392 171.184 17.296C171.856 17.2 172.272 17.024 172.72 16.416C173.392 15.568 173.616 13.04 173.824 6.032C173.84 5.792 173.84 5.152 173.84 5.152H168.384ZM170.192 12.464C169.856 11.456 168.944 9.984 168.112 8.88L166.592 9.648C167.408 10.8 168.24 12.336 168.544 13.344L170.192 12.464Z" fill="white"/>
<path d="M5.71999 14.4631L7.48099 13.9551L18.084 3.22517C18.1676 3.13946 18.2142 3.0243 18.2136 2.90455C18.213 2.7848 18.1654 2.67008 18.081 2.58517L17.446 1.94317C17.4049 1.901 17.3559 1.86744 17.3018 1.84442C17.2476 1.82141 17.1894 1.80942 17.1306 1.80914C17.0718 1.80886 17.0135 1.8203 16.9591 1.8428C16.9047 1.8653 16.8554 1.8984 16.814 1.94017L6.23899 12.6422L5.71899 14.4621L5.71999 14.4631ZM18.703 0.67117L19.338 1.31417C20.214 2.20117 20.222 3.63216 19.354 4.51016L8.42799 15.5681L4.66399 16.6521C4.43419 16.7165 4.18825 16.687 3.98016 16.5702C3.77206 16.4534 3.61879 16.2588 3.55399 16.0291C3.50578 15.864 3.50508 15.6886 3.55199 15.5231L4.64699 11.6832L15.544 0.65417C15.7512 0.445528 15.9979 0.280232 16.2696 0.167923C16.5414 0.0556135 16.8328 -0.00146091 17.1268 2.84128e-05C17.4209 0.00151773 17.7117 0.0615409 17.9823 0.176597C18.2529 0.291653 18.4979 0.45944 18.703 0.67017V0.67117ZM7.18399 1.82417C7.67999 1.82417 8.08199 2.23117 8.08199 2.73317C8.08278 2.85183 8.06017 2.96949 8.01546 3.07942C7.97074 3.18934 7.9048 3.28938 7.8214 3.3738C7.738 3.45822 7.63878 3.52537 7.52941 3.57142C7.42003 3.61747 7.30266 3.64151 7.18399 3.64217H3.59199C2.6 3.64217 1.796 4.45616 1.796 5.45916V16.3651C1.796 17.3691 2.6 18.1831 3.59199 18.1831H14.368C15.36 18.1831 16.165 17.3691 16.165 16.3651V12.7302C16.165 12.2282 16.567 11.8212 17.063 11.8212C17.559 11.8212 17.961 12.2282 17.961 12.7312V16.3651C17.961 18.3731 16.352 20.0011 14.368 20.0011H3.59199C1.608 20.0011 0 18.3731 0 16.3651V5.45916C0 3.45217 1.608 1.82417 3.59199 1.82417H7.18399Z" fill="white"/>
</svg>
