<svg width="126" height="17" viewBox="0 0 126 17" fill="none" xmlns="http://www.w3.org/2000/svg">
<path d="M36.976 2.008H34.768C34.816 2.296 34.88 3.08 34.88 3.416C34.88 3.688 34.88 4.152 34.864 4.712C34.544 4.728 34.224 4.744 33.936 4.744C33.36 4.744 32.672 4.728 31.728 4.616L31.76 6.552C32.304 6.616 32.928 6.632 34 6.632C34.256 6.632 34.544 6.616 34.848 6.6C34.848 7.048 34.848 7.496 34.848 7.944C34.848 8.312 34.848 8.696 34.864 9.08C32.896 9.928 31.296 11.384 31.296 12.776C31.296 14.472 33.488 15.816 35.04 15.816C36.096 15.816 36.8 15.288 36.8 13.304C36.8 12.76 36.768 11.512 36.736 10.248C37.712 9.96 38.752 9.8 39.744 9.8C41.136 9.8 42.096 10.44 42.096 11.528C42.096 12.696 41.072 13.336 39.776 13.576C39.216 13.672 38.528 13.688 37.808 13.688L38.544 15.752C39.2 15.704 39.904 15.656 40.64 15.496C43.184 14.856 44.176 13.432 44.176 11.544C44.176 9.336 42.24 8.056 39.776 8.056C38.896 8.056 37.792 8.2 36.704 8.472C36.704 8.264 36.704 8.072 36.704 7.88C36.704 7.416 36.704 6.92 36.72 6.44C37.76 6.312 38.864 6.152 39.776 5.944L39.728 3.96C38.896 4.2 37.84 4.408 36.784 4.536C36.8 4.136 36.816 3.752 36.832 3.4C36.864 2.984 36.928 2.296 36.976 2.008ZM41.536 3.736L40.656 5.288C41.648 5.768 43.744 6.968 44.512 7.624L45.472 5.992C44.624 5.384 42.768 4.328 41.536 3.736ZM33.264 12.696C33.264 12.136 33.92 11.48 34.896 10.952C34.928 11.816 34.944 12.552 34.944 12.952C34.944 13.496 34.72 13.624 34.432 13.624C34.016 13.624 33.264 13.192 33.264 12.696ZM51.648 3.512V4.376H49.2V3.512H51.648ZM49.2 6.568V5.656H51.648V6.568H49.2ZM53.424 8.008V2.056H47.312V16.392H49.2V8.008H53.424ZM55.264 10.68V12.568H52.624V10.68H55.264ZM57.04 14.136V9.112H50.848V15.032H52.624V14.136H57.04ZM56.336 6.584V5.656H58.864V6.584H56.336ZM58.864 3.496V4.376H56.336V3.496H58.864ZM60.784 2.056H54.528V8.024H58.864V14.088C58.864 14.376 58.752 14.472 58.448 14.472C58.144 14.488 57.056 14.504 56.128 14.44C56.4 14.952 56.704 15.848 56.768 16.392C58.24 16.392 59.248 16.344 59.904 16.024C60.576 15.72 60.784 15.176 60.784 14.12V2.056ZM66.16 3.56L63.696 3.528C63.792 4.024 63.824 4.712 63.824 5.16C63.824 6.136 63.84 8.008 64 9.48C64.448 13.768 65.968 15.352 67.728 15.352C69.008 15.352 70.016 14.376 71.072 11.592L69.472 9.64C69.168 10.92 68.528 12.792 67.776 12.792C66.768 12.792 66.288 11.208 66.064 8.904C65.968 7.752 65.952 6.552 65.968 5.512C65.968 5.064 66.048 4.136 66.16 3.56ZM74.16 3.928L72.128 4.584C73.872 6.568 74.72 10.456 74.976 13.032L77.072 12.216C76.896 9.768 75.68 5.768 74.16 3.928ZM89.184 11.528V14.136H82.864V11.528H89.184ZM80.992 16.408H82.864V15.816H89.184V16.408H91.136V9.848H80.992V16.408ZM82.768 6.584C84.08 5.544 85.2 4.408 85.952 3.336C86.72 4.392 87.904 5.544 89.232 6.584H82.768ZM84.88 1.464C83.68 3.416 81.12 5.832 78.368 7.16C78.784 7.56 79.312 8.248 79.568 8.712C80.416 8.248 81.264 7.72 82.048 7.144V8.264H90.016V7.16C90.816 7.736 91.648 8.264 92.464 8.68C92.8 8.088 93.232 7.464 93.696 6.968C91.152 5.944 88.56 3.912 86.848 1.464H84.88ZM98.352 3.464C98.352 3.64 98.32 4.088 98.288 4.696C97.6 4.792 96.896 4.872 96.432 4.904C95.872 4.936 95.504 4.936 95.04 4.92L95.248 6.968C96.144 6.84 97.376 6.68 98.16 6.584C98.144 6.968 98.112 7.352 98.08 7.72C97.168 9.064 95.568 11.176 94.656 12.296L95.92 14.04C96.48 13.288 97.264 12.12 97.936 11.112C97.92 12.456 97.904 13.384 97.872 14.632C97.872 14.888 97.856 15.464 97.824 15.816H100.032C99.984 15.448 99.936 14.872 99.92 14.584C99.824 13.08 99.824 11.736 99.824 10.424C99.824 10.008 99.84 9.544 99.856 9.08C101.2 7.848 102.688 7.032 104.384 7.032C105.984 7.032 106.992 8.184 106.992 9.432C107.008 11.928 104.992 13.08 102.176 13.496L103.136 15.432C107.104 14.648 109.136 12.712 109.136 9.48C109.12 6.904 107.184 5.16 104.72 5.16C103.28 5.16 101.632 5.608 100.016 6.808C100.032 6.664 100.032 6.504 100.048 6.36C100.32 5.944 100.64 5.416 100.864 5.128L100.272 4.376C100.4 3.368 100.528 2.552 100.624 2.104L98.288 2.024C98.368 2.52 98.352 3 98.352 3.464ZM122.24 2.44H120.096C120.144 2.76 120.208 3.512 120.208 3.912V5.72C118.752 5.848 117.2 5.992 115.84 6.12C115.84 5.496 115.856 4.952 115.856 4.584C115.856 3.912 115.872 3.464 115.952 2.92H113.696C113.776 3.496 113.824 4.04 113.824 4.696C113.824 4.968 113.824 5.56 113.824 6.312C113.312 6.36 112.896 6.392 112.608 6.424C111.792 6.504 111.056 6.536 110.592 6.536L110.816 8.584C111.232 8.52 112.224 8.36 112.736 8.296C113.008 8.264 113.376 8.232 113.808 8.184C113.808 9.672 113.808 11.224 113.824 11.912C113.904 14.68 114.4 15.544 118.544 15.544C120.064 15.544 122.032 15.416 123.104 15.288L123.184 13.112C121.984 13.32 119.968 13.512 118.4 13.512C116 13.512 115.856 13.16 115.824 11.592C115.792 10.904 115.808 9.432 115.824 7.96C117.184 7.816 118.752 7.672 120.176 7.56C120.16 8.328 120.112 9.064 120.048 9.496C120.016 9.8 119.872 9.864 119.552 9.864C119.232 9.864 118.576 9.768 118.08 9.656L118.032 11.432C118.592 11.512 119.872 11.672 120.448 11.672C121.264 11.672 121.664 11.464 121.84 10.616C121.968 9.944 122.032 8.632 122.08 7.416C122.544 7.384 122.96 7.368 123.312 7.352C123.728 7.336 124.576 7.32 124.848 7.336V5.368C124.384 5.416 123.76 5.448 123.312 5.48C122.944 5.496 122.544 5.528 122.112 5.56C122.128 5.032 122.128 4.456 122.144 3.832C122.16 3.4 122.208 2.696 122.24 2.44Z" fill="white"/>
<path d="M19.352 16.6377H0.667312C0.49033 16.6377 0.320596 16.5677 0.195451 16.4429C0.0703054 16.3182 0 16.1491 0 15.9727V2.6717C0.00133809 2.59958 0.0125634 2.52798 0.0333651 2.45888C0.0599647 2.37918 0.100643 2.30486 0.153481 2.23942C0.210554 2.17074 0.280905 2.11419 0.360348 2.07316C0.44132 2.0258 0.533392 2.00057 0.627274 2H19.3921C19.485 2.00152 19.5763 2.02428 19.659 2.06651C19.7421 2.11067 19.8149 2.17187 19.8725 2.24607C19.9265 2.30824 19.9674 2.38062 19.9927 2.45888C20.0024 2.52949 20.0024 2.6011 19.9927 2.6717V15.9727C19.9928 16.1445 19.9262 16.3098 19.8067 16.4338C19.6873 16.5578 19.5244 16.6308 19.352 16.6377ZM1.33462 15.3076H18.6847V4.0018L10.3967 9.86752C10.2837 9.94772 10.1484 9.99082 10.0097 9.99082C9.87094 9.99082 9.73565 9.94772 9.62264 9.86752L1.33462 3.96854V15.3076ZM2.74932 3.33675L10.0097 8.51083L17.2901 3.33675H2.74932Z" fill="white"/>
</svg>
