<svg width="160" height="48" viewBox="0 0 160 48" fill="none" xmlns="http://www.w3.org/2000/svg">
<rect width="160" height="48" rx="3" fill="#06C755"/>
<path fill-rule="evenodd" clip-rule="evenodd" d="M21.5 13C27.8408 13 33 17.0418 33 22.0108C33 23.9998 32.2022 25.7903 30.5347 27.5544C28.1226 30.236 22.7276 33.502 21.5 34.0016C20.3069 34.4874 20.4449 33.7282 20.4995 33.4284L20.5038 33.4034L20.6677 32.4526C20.7065 32.1695 20.7467 31.7295 20.6303 31.4491C20.5009 31.1396 19.9921 30.9786 19.6183 30.9009C14.0911 30.1972 10 26.4649 10 22.0108C10 17.0418 15.1606 13 21.5 13ZM17.2191 23.6681H15.0269V19.8261C15.0269 19.7689 15.0035 19.7141 14.9618 19.6735C14.92 19.6329 14.8634 19.61 14.8041 19.6096H13.9962C13.9668 19.6096 13.9376 19.6152 13.9104 19.6261C13.8832 19.637 13.8585 19.6529 13.8377 19.673C13.8169 19.6931 13.8003 19.717 13.7891 19.7433C13.7778 19.7695 13.772 19.7977 13.772 19.8261V24.6646C13.772 24.7216 13.7964 24.7757 13.8352 24.8132V24.8146L13.8381 24.8173L13.841 24.8201C13.8827 24.8588 13.9384 24.8802 13.9962 24.8798H17.2191C17.3427 24.8798 17.4419 24.7826 17.4419 24.6633V23.886C17.4421 23.8576 17.4365 23.8294 17.4254 23.803C17.4143 23.7767 17.398 23.7527 17.3773 23.7325C17.3566 23.7122 17.332 23.6961 17.3048 23.6851C17.2777 23.674 17.2486 23.6683 17.2191 23.6681ZM18.3562 19.6096H19.1641C19.2877 19.6096 19.3869 19.7068 19.3869 19.8261V24.6646C19.3869 24.784 19.2863 24.8798 19.1641 24.8798H18.3562C18.297 24.8798 18.2401 24.8572 18.1981 24.8169C18.1561 24.7766 18.1323 24.7218 18.1319 24.6646V19.8261C18.1319 19.7068 18.2326 19.6096 18.3562 19.6096ZM23.9092 19.6096H24.7143C24.8393 19.6096 24.9399 19.7068 24.9399 19.8261V24.6646C24.9399 24.784 24.8393 24.8798 24.7157 24.8798H23.9092C23.8899 24.8799 23.8705 24.8776 23.8517 24.8728H23.8489C23.8435 24.8712 23.8383 24.8693 23.8331 24.8673L23.8259 24.8645L23.8158 24.8604C23.8119 24.8588 23.808 24.8569 23.8043 24.8548L23.8 24.8534L23.7856 24.8451L23.7842 24.8437C23.7618 24.8292 23.7423 24.8108 23.7267 24.7896L21.4267 21.7915V24.6646C21.4269 24.693 21.4213 24.7211 21.4101 24.7474C21.399 24.7737 21.3826 24.7975 21.3619 24.8177C21.3412 24.8378 21.3166 24.8538 21.2895 24.8647C21.2623 24.8756 21.2333 24.8812 21.2039 24.8812H20.3974C20.3382 24.8812 20.2814 24.8586 20.2394 24.8182C20.1974 24.7779 20.1736 24.7232 20.1732 24.666V19.8261C20.1732 19.7068 20.2738 19.6096 20.3974 19.6096H21.2125L21.2197 19.611H21.2283L21.2326 19.6124H21.2413L21.2556 19.6165H21.2585L21.2614 19.6179L21.2758 19.6221L21.2829 19.6249C21.2874 19.6265 21.2917 19.6283 21.2959 19.6304L21.3002 19.6318L21.3031 19.6332C21.3095 19.6365 21.3158 19.6402 21.3217 19.6443L21.3261 19.6471L21.3333 19.6512V19.6526C21.3361 19.6526 21.3376 19.6554 21.339 19.6568C21.343 19.6594 21.3468 19.6621 21.3505 19.6651L21.3548 19.6693C21.3671 19.6802 21.3782 19.6923 21.3879 19.7054L23.685 22.702V19.8261C23.685 19.7068 23.7856 19.6096 23.9092 19.6096ZM29.3933 20.6048C29.3933 20.7242 29.2927 20.8213 29.1705 20.8213H26.9769V21.6402H29.1691C29.2927 21.6402 29.3919 21.7374 29.3919 21.8554V22.634C29.3919 22.7534 29.2913 22.8505 29.1691 22.8505H26.9769V23.6695H29.1691C29.2927 23.6695 29.3919 23.7666 29.3919 23.8846V24.6633C29.3919 24.7826 29.2913 24.8798 29.1691 24.8798H25.9462C25.9169 24.8799 25.8878 24.8745 25.8607 24.8638C25.8335 24.8531 25.8089 24.8373 25.7881 24.8173L25.7852 24.8132C25.745 24.7734 25.7224 24.7202 25.7219 24.6646V19.8261C25.7219 19.7678 25.7464 19.7151 25.7837 19.6776L25.7881 19.6734L25.7895 19.6721C25.8312 19.6321 25.8875 19.6097 25.9462 19.6096H29.1691C29.2927 19.6096 29.3919 19.7068 29.3919 19.8261V20.6048H29.3933Z" fill="white"/>
<path d="M39.4572 29H44.8452V27.512H41.2332V20.108H39.4572V29ZM46.3947 29H48.1707V20.108H46.3947V29ZM50.3557 29H52.0357V25.436C52.0357 24.416 51.9037 23.3 51.8197 22.34H51.8797L52.7797 24.248L55.3477 29H57.1477V20.108H55.4677V23.66C55.4677 24.668 55.6117 25.844 55.6957 26.768H55.6357L54.7477 24.848L52.1677 20.108H50.3557V29ZM59.344 29H64.924V27.512H61.12V25.136H64.24V23.648H61.12V21.596H64.792V20.108H59.344V29ZM66.4628 20.768L66.6188 22.412C68.0108 22.112 70.4588 21.848 71.5868 21.728C70.7708 22.34 69.7988 23.708 69.7988 25.436C69.7988 28.04 72.1748 29.384 74.6948 29.552L75.2588 27.908C73.2188 27.8 71.3708 27.092 71.3708 25.112C71.3708 23.684 72.4628 22.136 73.9148 21.752C74.5508 21.596 75.5828 21.596 76.2308 21.584L76.2188 20.048C75.3668 20.084 74.0588 20.156 72.8228 20.264C70.6268 20.444 68.6468 20.624 67.6388 20.708C67.4108 20.732 66.9428 20.756 66.4628 20.768ZM74.5148 22.76L73.6268 23.132C74.0108 23.672 74.2628 24.14 74.5628 24.8L75.4748 24.392C75.2468 23.924 74.8148 23.192 74.5148 22.76ZM75.8588 22.208L74.9828 22.616C75.3668 23.144 75.6428 23.588 75.9668 24.236L76.8668 23.804C76.6148 23.336 76.1588 22.628 75.8588 22.208ZM86.1668 22.88H85.2548V21.344H86.1668V22.88ZM86.1668 25.676H85.2548V24.152H86.1668V25.676ZM81.1268 24.152H81.9908V25.676H81.1268V24.152ZM84.0668 24.152V25.676H83.1788V24.152H84.0668ZM83.1788 22.88V21.344H84.0668V22.88H83.1788ZM81.1268 21.344H81.9908V22.88H81.1268V21.344ZM79.8668 22.88H78.2588V24.152H79.8668V25.676H78.4388V26.948H88.8668V25.676H87.4748V24.152H89.0348V22.88H87.4748V21.344H88.6028V20.084H81.4028C81.5828 19.808 81.7388 19.532 81.8708 19.244L80.4788 18.836C79.9508 19.952 79.0028 21.044 77.9948 21.704C78.3188 21.932 78.8948 22.388 79.1588 22.64C79.3988 22.46 79.6268 22.244 79.8668 22.016V22.88ZM79.4948 30.056C80.0828 29.432 80.5988 28.448 80.8628 27.536L79.4828 27.2C79.2068 28.076 78.6668 29 78.1388 29.504L79.4948 30.056ZM81.6308 27.62C81.7628 28.352 81.8588 29.336 81.8588 29.912L83.2508 29.708C83.2388 29.144 83.0948 28.196 82.9508 27.464L81.6308 27.62ZM84.0068 27.644C84.2708 28.376 84.5468 29.348 84.6188 29.924L86.0468 29.648C85.9388 29.06 85.6388 28.124 85.3508 27.416L84.0068 27.644ZM86.3828 27.584C86.9108 28.352 87.5468 29.408 87.7988 30.044L89.2628 29.552C88.9628 28.892 88.2908 27.884 87.7508 27.152L86.3828 27.584ZM98.2628 20.936C97.8788 20.492 97.0268 19.88 96.3548 19.484L95.6708 20.444C96.3308 20.888 97.1588 21.536 97.5308 22.004L98.2628 20.936ZM95.1188 23.456C95.8148 23.876 96.6908 24.512 97.0868 24.956L97.8068 23.816C97.3748 23.384 96.4868 22.808 95.7908 22.436L95.1188 23.456ZM94.0388 19.496C93.9068 20.336 93.6188 21.548 93.3788 22.304L94.2788 22.556C94.5788 21.86 94.9268 20.72 95.2388 19.76L94.0388 19.496ZM91.7108 22.304C91.6508 21.56 91.4108 20.42 91.0988 19.556L90.1028 19.82C90.3788 20.684 90.6188 21.848 90.6428 22.592L91.7108 22.304ZM94.9868 26.252C94.7348 25.916 93.5948 24.572 93.2468 24.224V24.14H95.0228V22.808H93.2468V18.884H91.9268V22.808H90.1148V24.14H91.4828C91.1108 25.232 90.4988 26.516 89.8988 27.248C90.1148 27.644 90.4268 28.292 90.5468 28.724C91.0628 28.004 91.5428 26.888 91.9268 25.772V30.008H93.2468V25.796C93.5948 26.348 93.9308 26.972 94.1108 27.356L94.9868 26.252ZM101.335 26.528L101.119 25.196L99.8948 25.424V18.824H98.5508V25.664L94.9868 26.3L95.2028 27.632L98.5508 27.032V30.032H99.8948V26.792L101.335 26.528ZM104.311 18.884C103.771 20.576 102.835 22.28 101.827 23.372C102.091 23.732 102.487 24.512 102.619 24.86C102.859 24.572 103.111 24.248 103.351 23.924V30.02H104.707V21.608C105.079 20.84 105.403 20.06 105.667 19.292L104.311 18.884ZM109.819 26.756V23.624C110.227 24.752 110.731 25.832 111.295 26.756H109.819ZM106.963 26.756C107.527 25.868 108.031 24.812 108.427 23.708V26.756H106.963ZM113.131 22.328V20.972H109.819V18.896H108.427V20.972H105.391V22.328H107.755C107.095 24.224 105.979 26.12 104.767 27.2C105.091 27.44 105.547 27.944 105.787 28.28C106.171 27.896 106.519 27.44 106.855 26.924V28.028H108.427V29.96H109.819V28.028H111.427V26.972C111.739 27.452 112.051 27.872 112.387 28.244C112.639 27.872 113.131 27.392 113.455 27.14C112.291 26.048 111.187 24.176 110.527 22.328H113.131ZM114.619 29.372C115.111 28.7 115.231 27.584 115.291 26.492L114.499 26.336C114.451 27.356 114.307 28.364 113.899 28.976L114.619 29.372ZM115.399 26.588C115.483 27.296 115.519 28.208 115.483 28.808L116.131 28.724C116.167 28.148 116.119 27.224 116.011 26.528L115.399 26.588ZM116.215 26.528C116.407 27.152 116.563 27.956 116.587 28.472L117.211 28.34C117.175 27.824 117.007 27.032 116.815 26.408L116.215 26.528ZM117.727 24.716V23.972H118.771V22.892H117.727V22.172H118.771V21.896C118.975 22.196 119.203 22.604 119.335 22.916C119.659 22.724 119.959 22.484 120.259 22.232V22.88H121.483V23.528H119.443V26.696H121.147C120.823 27.536 120.175 28.328 118.939 28.952C119.071 28.316 119.143 27.164 119.227 25.184C119.239 25.028 119.239 24.716 119.239 24.716H117.727ZM115.771 23.972H116.587V24.716H115.771V23.972ZM116.587 22.172V22.892H115.771V22.172H116.587ZM116.587 20.432V21.092H115.771V20.432H116.587ZM120.727 21.788C121.267 21.236 121.735 20.624 122.047 20.084C122.383 20.636 122.887 21.26 123.451 21.788H120.727ZM123.679 24.56V25.664H122.695C122.731 25.304 122.743 24.956 122.743 24.608V24.56H123.679ZM120.607 25.664V24.56H121.483V24.596C121.483 24.944 121.471 25.304 121.411 25.664H120.607ZM124.891 26.696V23.528H122.743V22.88H123.943V22.22C124.195 22.436 124.459 22.616 124.723 22.772C124.903 22.4 125.179 21.884 125.431 21.548C124.375 21.044 123.331 19.952 122.611 18.848H121.387C120.895 19.844 119.851 21.08 118.771 21.728V21.092H117.727V20.432H119.011V19.28H114.595V25.82H118.027C118.003 26.336 117.979 26.78 117.955 27.14C117.847 26.816 117.703 26.468 117.547 26.168L116.983 26.36C117.211 26.84 117.451 27.488 117.523 27.908L117.907 27.764C117.847 28.388 117.787 28.688 117.703 28.808C117.607 28.928 117.523 28.964 117.379 28.964C117.223 28.964 116.959 28.952 116.647 28.916C116.815 29.216 116.923 29.684 116.935 30.02C117.367 30.044 117.751 30.032 117.991 29.984C118.291 29.948 118.507 29.84 118.711 29.564C118.771 29.492 118.819 29.384 118.867 29.228C119.119 29.468 119.419 29.828 119.563 30.068C120.991 29.372 121.795 28.472 122.227 27.512C122.743 28.616 123.475 29.516 124.471 30.032C124.675 29.672 125.083 29.168 125.371 28.904C124.363 28.472 123.607 27.668 123.127 26.696H124.891ZM136.027 23.3L135.763 23.396H133.867L134.155 22.928C133.879 22.796 133.519 22.664 133.123 22.508C134.131 21.824 135.127 20.996 135.895 20.228L134.875 19.424L134.551 19.508H127.375V20.816H133.171C132.703 21.224 132.163 21.62 131.647 21.944C130.975 21.692 130.303 21.464 129.763 21.272L129.055 22.352C129.823 22.64 130.795 23.024 131.683 23.396H126.223V24.752H130.963V28.436C130.963 28.616 130.891 28.664 130.663 28.676C130.423 28.676 129.535 28.676 128.827 28.652C129.043 29.024 129.271 29.612 129.343 30.02C130.375 30.02 131.155 30.008 131.707 29.804C132.283 29.6 132.451 29.24 132.451 28.484V24.752H134.983C134.683 25.292 134.335 25.832 134.047 26.228L135.271 26.936C135.943 26.132 136.651 24.932 137.191 23.804L136.027 23.3ZM138.487 25.856C138.391 26.864 138.199 27.932 137.851 28.64C138.163 28.748 138.691 29 138.943 29.156C139.291 28.388 139.543 27.188 139.663 26.06L138.487 25.856ZM141.163 26.12C141.463 26.852 141.775 27.824 141.871 28.436L142.999 28.04C142.855 27.428 142.543 26.492 142.219 25.784L141.163 26.12ZM144.907 20.864C145.135 20.312 145.339 19.736 145.495 19.148L144.031 18.836C143.647 20.348 142.939 21.884 142.051 22.832L141.967 22.688L140.959 23.132C141.103 23.384 141.247 23.672 141.379 23.96L140.167 24.008C140.947 23.036 141.787 21.812 142.459 20.756L141.247 20.252C140.959 20.852 140.575 21.548 140.143 22.22C140.023 22.064 139.879 21.884 139.723 21.716C140.155 21.044 140.647 20.12 141.079 19.292L139.819 18.848C139.615 19.472 139.279 20.276 138.943 20.936C138.847 20.852 138.751 20.768 138.655 20.684L137.983 21.668C138.487 22.148 139.075 22.796 139.423 23.312C139.243 23.576 139.051 23.828 138.871 24.056L137.983 24.092L138.103 25.34L139.879 25.22V30.056H141.139V25.124L141.823 25.076C141.895 25.316 141.955 25.532 141.991 25.724L143.071 25.22C142.939 24.62 142.555 23.732 142.135 22.976C142.495 23.192 143.023 23.552 143.263 23.768C143.623 23.336 143.959 22.808 144.283 22.22H147.595C147.463 26.312 147.283 28.064 146.923 28.436C146.779 28.592 146.647 28.64 146.419 28.64C146.095 28.64 145.411 28.64 144.655 28.568C144.919 28.976 145.111 29.6 145.135 30.008C145.831 30.032 146.575 30.044 147.007 29.972C147.511 29.9 147.823 29.768 148.159 29.312C148.663 28.676 148.831 26.78 148.987 21.524C148.999 21.344 148.999 20.864 148.999 20.864H144.907ZM146.263 26.348C146.011 25.592 145.327 24.488 144.703 23.66L143.563 24.236C144.175 25.1 144.799 26.252 145.027 27.008L146.263 26.348Z" fill="white"/>
</svg>
