<svg width="170" height="27" viewBox="0 0 170 27" fill="none" xmlns="http://www.w3.org/2000/svg">
<path d="M50.2467 10.8379C50.329 14.5049 49.1104 18.0828 46.8066 20.9377C44.5027 23.7926 41.2624 25.7402 37.6596 26.4357C30.6704 27.6755 25.4915 23.7719 24.8546 16.8023C24.5591 12.9732 25.6918 9.17021 28.0344 6.12626C30.3771 3.08231 33.7639 1.01279 37.5422 0.316489C44.7157 -0.973556 50.2467 3.63375 50.2467 10.8379ZM30.0168 14.7415C30.0168 17.3719 30.5196 19.7677 33.084 21.1415C34.3216 21.8011 35.7268 22.0799 37.1226 21.9428C38.5184 21.8056 39.8424 21.2587 40.9278 20.3708C42.4515 19.2706 43.6435 17.773 44.3736 16.0416C45.1037 14.3103 45.3438 12.4116 45.0677 10.5531C44.5146 6.0463 40.777 3.85155 36.436 5.34264C34.5304 6.06127 32.8921 7.34874 31.7437 9.03021C30.5953 10.7117 29.9924 12.7057 30.0168 14.7415Z" fill="#555555"/>
<path d="M23.5641 6.11265L19.2231 8.2739C15.871 3.14722 11.0105 3.11372 7.4908 8.03934C5.62314 10.5349 4.80515 13.6613 5.21138 16.7513C5.68067 20.2194 7.7422 22.2801 10.7591 22.3806C12.3937 22.3634 13.9712 21.7766 15.2195 20.7215C16.4678 19.6664 17.3087 18.209 17.5973 16.6006H12.4519L13.0553 12.8142H23.6143C23.5239 15.9232 22.4282 18.9193 20.4914 21.3537C18.5546 23.7881 15.881 25.5297 12.8709 26.3178C5.94884 27.7251 0.870422 24.0728 0.0491605 17.0864C-0.262372 13.1378 0.914867 9.21556 3.34948 6.09056C5.7841 2.96556 9.3 0.863856 13.2061 0.198549C15.3525 -0.188724 17.5669 0.191683 19.4608 1.27307C21.3547 2.35445 22.8074 4.06779 23.5641 6.11265Z" fill="#555555"/>
<path d="M107.718 15.4788L113.065 25.883C111.221 25.883 109.713 25.9835 108.154 25.883C107.847 25.8005 107.56 25.6532 107.315 25.4509C107.069 25.2486 106.869 24.996 106.729 24.7102C105.473 21.8737 104.057 19.1105 102.489 16.4338C102.053 18.9804 101.483 21.4599 101.249 24.0568C101.115 25.7322 100.411 26.1175 98.9358 25.95C97.9923 25.8991 97.0468 25.8991 96.1033 25.95C97.4441 17.5731 98.7514 9.29666 100.126 0.819214C103.31 0.986752 106.411 0.953245 109.445 1.38884C110.123 1.44433 110.784 1.63703 111.386 1.95526C111.987 2.2735 112.518 2.71063 112.946 3.24015C113.374 3.76967 113.69 4.38055 113.875 5.03573C114.059 5.69091 114.109 6.37675 114.02 7.05164C113.936 11.0223 112.042 13.6527 107.718 15.4788ZM103.059 12.3794C105.338 12.5469 107.383 12.3794 108.338 10.4192C108.984 9.11844 109.11 7.62084 108.69 6.2307C108.003 4.55532 106.042 4.85689 104.316 4.87364L103.059 12.3794Z" fill="#555555"/>
<path d="M170 0.33327C169.128 5.9458 168.324 11.5583 167.369 17.3049L169.933 17.5897L169.38 21.2085L166.782 21.3928L165.894 25.7991H161.519L162.106 21.3426H150.809C151.216 20.1794 151.732 19.0574 152.351 17.9918C156.156 12.7981 160.044 7.67145 163.916 2.52802C165.894 -0.253114 166.061 -0.303376 170 0.33327ZM164.218 8.17406L163.748 7.97302C161.653 11.039 159.542 14.1049 157.312 17.3384H162.81L164.218 8.17406Z" fill="#555555"/>
<path d="M96.6228 0.98645L96.0194 5.02412H87.8906L86.9856 10.4524H94.7959L94.1423 14.7078H86.3319L85.1754 21.6272H93.3378L92.6674 25.8324H79.7115L83.6502 0.98645H96.6228Z" fill="#555555"/>
<path d="M131.887 25.7991C135.775 21.6609 139.463 17.8075 143.083 13.8871C144.062 12.7782 144.932 11.5775 145.681 10.3018C146.118 9.59105 146.382 8.78764 146.452 7.95623C146.601 7.25164 146.497 6.51685 146.156 5.88206C145.816 5.24727 145.261 4.75348 144.591 4.48819C143.909 4.25632 143.166 4.27769 142.498 4.54841C141.83 4.81913 141.282 5.3211 140.954 5.96253C140.484 6.77399 140.075 7.61965 139.731 8.49236H135.071C135.358 6.05064 136.58 3.81475 138.479 2.25316C140.379 0.691576 142.81 -0.0745046 145.262 0.115438C146.318 0.171471 147.344 0.48209 148.254 1.02078C149.164 1.55947 149.93 2.31022 150.486 3.20896C151.043 4.10769 151.374 5.12771 151.45 6.18193C151.527 7.23616 151.347 8.29327 150.927 9.26303C149.929 11.6149 148.553 13.788 146.854 15.6965C145.178 17.707 143.2 19.4159 141.021 21.5771H149.301L148.631 25.7321L131.887 25.7991Z" fill="#555555"/>
<path d="M114.556 21.7782L117.909 18.9301C118.16 19.4327 118.344 19.818 118.545 20.1866C118.891 20.9634 119.491 21.5993 120.247 21.9892C121.002 22.3791 121.868 22.4997 122.702 22.3311C123.568 22.1635 124.355 21.7146 124.94 21.0541C125.525 20.3937 125.875 19.5587 125.937 18.6788C126.322 16.7521 125.048 15.7301 123.473 15.0767C122.752 14.7584 122.048 14.4568 121.361 14.105C117.741 12.262 116.752 9.54792 118.294 5.72804C118.796 4.35563 119.645 3.13631 120.758 2.18841C121.87 1.2405 123.209 0.596208 124.644 0.318047C126.08 0.0398856 127.562 0.137305 128.949 0.600852C130.335 1.0644 131.578 1.87833 132.557 2.96366L130.362 5.59401C128.93 5.00278 127.433 4.58106 125.903 4.33747C125.182 4.31732 124.479 4.56188 123.926 5.02494C123.373 5.488 123.009 6.13746 122.903 6.85055C122.534 8.42541 123.507 9.21284 124.764 9.83273C126.021 10.4526 127.06 11.0055 128.116 11.6086C129.169 12.123 130.028 12.9632 130.566 14.0045C131.103 15.0458 131.29 16.2326 131.099 17.3887C130.985 19.5271 130.17 21.5684 128.779 23.1974C127.389 24.8265 125.5 25.9528 123.406 26.4023C119.451 27.2567 116.434 25.7321 114.556 21.7782Z" fill="#555555"/>
<path d="M68.0966 0.953094H80.5496L79.8624 5.02428C77.6835 5.02428 75.622 5.02428 73.5605 5.02428C73.2412 5.09544 72.9437 5.24212 72.6929 5.45202C72.4421 5.66192 72.2453 5.9289 72.1191 6.23055C71.806 7.60033 71.5765 8.98788 71.4319 10.3855H78.4713L77.8847 14.6242C75.9237 14.6242 74.0633 14.6242 72.2029 14.6242C71.0799 14.6242 70.6274 14.9258 70.5268 16.0986C70.1078 19.265 69.538 22.4315 69.0184 25.7153H64.1411L68.0966 0.953094Z" fill="#555555"/>
<path d="M56.096 21.778H63.0516L62.398 25.8826H50.6656L54.5708 0.98645H59.3643C58.2916 7.83877 57.219 14.6241 56.096 21.778Z" fill="#555555"/>
</svg>
