<svg width="170" height="27" viewBox="0 0 170 27" fill="none" xmlns="http://www.w3.org/2000/svg">
<path d="M50.2468 10.8382C50.3292 14.5052 49.1105 18.083 46.8067 20.9379C44.5028 23.7928 41.2625 25.7405 37.6597 26.436C30.6706 27.6758 25.4916 23.7721 24.8547 16.8025C24.5592 12.9734 25.6919 9.17048 28.0345 6.12653C30.3772 3.08259 33.764 1.01306 37.5424 0.316764C44.7158 -0.973281 50.2468 3.63402 50.2468 10.8382ZM30.0169 14.7418C30.0169 17.3722 30.5197 19.768 33.0841 21.1418C34.3217 21.8014 35.7269 22.0802 37.1227 21.943C38.5185 21.8059 39.8425 21.259 40.928 20.3711C42.4517 19.2709 43.6436 17.7733 44.3737 16.0419C45.1038 14.3105 45.3439 12.4119 45.0678 10.5534C44.5147 6.04658 40.7771 3.85182 36.4362 5.34291C34.5305 6.06155 32.8922 7.34901 31.7438 9.03049C30.5954 10.712 29.9925 12.706 30.0169 14.7418Z" fill="white"/>
<path d="M23.5641 6.1125L19.2231 8.27375C15.871 3.14707 11.0105 3.11356 7.4908 8.03919C5.62314 10.5348 4.80515 13.6611 5.21138 16.7512C5.68067 20.2192 7.7422 22.28 10.7591 22.3805C12.3937 22.3632 13.9712 21.7765 15.2195 20.7214C16.4678 19.6662 17.3087 18.2088 17.5973 16.6004H12.4519L13.0553 12.814H23.6143C23.5239 15.9231 22.4282 18.9192 20.4914 21.3536C18.5546 23.7879 15.881 25.5296 12.8709 26.3176C5.94884 27.725 0.870422 24.0726 0.0491605 17.0863C-0.262372 13.1377 0.914867 9.21541 3.34948 6.09041C5.7841 2.96541 9.3 0.863703 13.2061 0.198396C15.3525 -0.188877 17.5669 0.19153 19.4608 1.27291C21.3547 2.3543 22.8074 4.06764 23.5641 6.1125Z" fill="white"/>
<path d="M107.718 15.4789L113.065 25.8831C111.221 25.8831 109.713 25.9836 108.154 25.8831C107.847 25.8006 107.56 25.6533 107.315 25.451C107.069 25.2487 106.869 24.9961 106.729 24.7103C105.473 21.8738 104.057 19.1106 102.489 16.4339C102.053 18.9805 101.483 21.4601 101.249 24.0569C101.115 25.7323 100.411 26.1176 98.9358 25.9501C97.9923 25.8992 97.0468 25.8992 96.1033 25.9501C97.4441 17.5732 98.7514 9.29678 100.126 0.819336C103.31 0.986874 106.411 0.953367 109.445 1.38897C110.123 1.44445 110.784 1.63715 111.386 1.95539C111.987 2.27362 112.518 2.71075 112.946 3.24027C113.374 3.7698 113.69 4.38067 113.875 5.03585C114.059 5.69103 114.109 6.37687 114.02 7.05176C113.936 11.0224 112.042 13.6528 107.718 15.4789ZM103.059 12.3795C105.338 12.547 107.383 12.3795 108.338 10.4193C108.984 9.11857 109.11 7.62096 108.69 6.23083C108.003 4.55544 106.042 4.85701 104.316 4.87376L103.059 12.3795Z" fill="white"/>
<path d="M170 0.33327C169.128 5.9458 168.324 11.5583 167.369 17.3049L169.933 17.5897L169.38 21.2085L166.782 21.3928L165.894 25.7991H161.519L162.106 21.3426H150.809C151.216 20.1794 151.732 19.0574 152.351 17.9918C156.156 12.7981 160.044 7.67145 163.916 2.52802C165.894 -0.253114 166.061 -0.303376 170 0.33327ZM164.218 8.17406L163.748 7.97302C161.653 11.039 159.542 14.1049 157.312 17.3384H162.81L164.218 8.17406Z" fill="white"/>
<path d="M96.6227 0.986328L96.0193 5.024H87.8905L86.9854 10.4522H94.7958L94.1422 14.7077H86.3318L85.1753 21.6271H93.3377L92.6672 25.8323H79.7114L83.6501 0.986328H96.6227Z" fill="white"/>
<path d="M131.887 25.799C135.775 21.6608 139.462 17.8074 143.083 13.887C144.062 12.7781 144.932 11.5775 145.681 10.3017C146.118 9.59099 146.382 8.78758 146.452 7.95617C146.601 7.25158 146.496 6.51679 146.156 5.882C145.815 5.24721 145.261 4.75342 144.591 4.48813C143.909 4.25625 143.166 4.27763 142.498 4.54835C141.83 4.81907 141.282 5.32104 140.954 5.96247C140.483 6.77393 140.075 7.61959 139.731 8.49229H135.071C135.358 6.05058 136.58 3.81469 138.479 2.2531C140.379 0.691515 142.809 -0.0745656 145.262 0.115377C146.317 0.17141 147.344 0.482029 148.254 1.02072C149.164 1.55941 149.93 2.31016 150.486 3.2089C151.043 4.10763 151.374 5.12765 151.45 6.18187C151.527 7.2361 151.347 8.29321 150.927 9.26297C149.929 11.6149 148.553 13.788 146.854 15.6964C145.178 17.7069 143.2 19.4158 141.021 21.577H149.301L148.63 25.732L131.887 25.799Z" fill="white"/>
<path d="M114.556 21.7782L117.908 18.9301C118.16 19.4327 118.344 19.818 118.545 20.1866C118.891 20.9635 119.491 21.5993 120.247 21.9892C121.002 22.3791 121.868 22.4997 122.702 22.3311C123.568 22.1635 124.355 21.7146 124.94 21.0542C125.525 20.3937 125.875 19.5587 125.937 18.6788C126.322 16.7521 125.048 15.7301 123.473 15.0767C122.752 14.7584 122.048 14.4568 121.361 14.105C117.741 12.2621 116.752 9.54795 118.294 5.72807C118.796 4.35566 119.645 3.13634 120.758 2.18844C121.87 1.24053 123.209 0.596239 124.644 0.318077C126.079 0.0399161 127.562 0.137336 128.949 0.600883C130.335 1.06443 131.578 1.87836 132.557 2.96369L130.361 5.59404C128.93 5.00281 127.433 4.58109 125.903 4.3375C125.182 4.31735 124.479 4.56191 123.926 5.02497C123.373 5.48803 123.009 6.13749 122.903 6.85058C122.534 8.42544 123.506 9.21287 124.764 9.83276C126.021 10.4527 127.06 11.0055 128.116 11.6087C129.169 12.123 130.028 12.9632 130.565 14.0045C131.103 15.0458 131.29 16.2327 131.099 17.3887C130.985 19.5271 130.169 21.5684 128.779 23.1975C127.389 24.8265 125.5 25.9528 123.406 26.4023C119.45 27.2568 116.434 25.7322 114.556 21.7782Z" fill="white"/>
<path d="M68.0966 0.953125H80.5496L79.8624 5.02431C77.6835 5.02431 75.622 5.02431 73.5605 5.02431C73.2412 5.09547 72.9437 5.24216 72.6929 5.45205C72.4421 5.66195 72.2453 5.92893 72.1191 6.23058C71.806 7.60036 71.5765 8.98791 71.4319 10.3855H78.4713L77.8847 14.6243C75.9237 14.6243 74.0633 14.6243 72.2029 14.6243C71.0799 14.6243 70.6274 14.9258 70.5268 16.0986C70.1078 19.2651 69.538 22.4315 69.0184 25.7153H64.1411L68.0966 0.953125Z" fill="white"/>
<path d="M56.0962 21.7778H63.0517L62.3981 25.8825H50.6658L54.571 0.986328H59.3644C58.2918 7.83865 57.2191 14.6239 56.0962 21.7778Z" fill="white"/>
</svg>
