<svg width="170" height="27" viewBox="0 0 170 27" fill="none" xmlns="http://www.w3.org/2000/svg">
<path d="M50.2468 10.8379C50.3292 14.5049 49.1105 18.0828 46.8067 20.9377C44.5028 23.7925 41.2625 25.7402 37.6597 26.4357C30.6706 27.6755 25.4916 23.7718 24.8547 16.8023C24.5592 12.9731 25.6919 9.17019 28.0345 6.12625C30.3772 3.0823 33.764 1.01278 37.5424 0.316478C44.7158 -0.973567 50.2468 3.63374 50.2468 10.8379ZM30.0169 14.7415C30.0169 17.3719 30.5197 19.7677 33.0841 21.1415C34.3217 21.8011 35.7269 22.0799 37.1227 21.9428C38.5185 21.8056 39.8425 21.2587 40.928 20.3708C42.4517 19.2706 43.6436 17.773 44.3737 16.0416C45.1038 14.3102 45.3439 12.4116 45.0678 10.5531C44.5147 6.04629 40.7771 3.85154 36.4362 5.34263C34.5305 6.06126 32.8922 7.34872 31.7438 9.0302C30.5954 10.7117 29.9925 12.7057 30.0169 14.7415Z" fill="black"/>
<path d="M23.5641 6.11266L19.2231 8.27391C15.871 3.14724 11.0105 3.11373 7.4908 8.03936C5.62314 10.5349 4.80515 13.6613 5.21138 16.7514C5.68067 20.2194 7.7422 22.2801 10.7591 22.3806C12.3937 22.3634 13.9712 21.7767 15.2195 20.7215C16.4678 19.6664 17.3087 18.209 17.5973 16.6006H12.4519L13.0553 12.8142H23.6143C23.5239 15.9233 22.4282 18.9193 20.4914 21.3537C18.5546 23.7881 15.881 25.5297 12.8709 26.3178C5.94884 27.7251 0.870422 24.0728 0.0491605 17.0864C-0.262372 13.1378 0.914867 9.21557 3.34948 6.09057C5.7841 2.96557 9.3 0.863867 13.2061 0.19856C15.3525 -0.188713 17.5669 0.191694 19.4608 1.27308C21.3547 2.35446 22.8074 4.0678 23.5641 6.11266Z" fill="black"/>
<path d="M107.718 15.4788L113.065 25.8829C111.221 25.8829 109.713 25.9835 108.154 25.8829C107.847 25.8005 107.56 25.6532 107.315 25.4509C107.069 25.2486 106.869 24.996 106.729 24.7102C105.473 21.8737 104.057 19.1105 102.489 16.4338C102.053 18.9804 101.483 21.4599 101.249 24.0568C101.115 25.7322 100.411 26.1175 98.9358 25.95C97.9923 25.8991 97.0468 25.8991 96.1033 25.95C97.4441 17.573 98.7514 9.29665 100.126 0.819206C103.31 0.986745 106.411 0.953237 109.445 1.38884C110.123 1.44432 110.784 1.63702 111.386 1.95526C111.987 2.27349 112.518 2.71062 112.946 3.24014C113.374 3.76967 113.69 4.38054 113.875 5.03572C114.059 5.6909 114.109 6.37674 114.02 7.05163C113.936 11.0223 112.042 13.6526 107.718 15.4788ZM103.059 12.3794C105.338 12.5469 107.383 12.3794 108.338 10.4192C108.984 9.11844 109.11 7.62083 108.69 6.2307C108.003 4.55531 106.042 4.85688 104.316 4.87363L103.059 12.3794Z" fill="black"/>
<path d="M170 0.33327C169.128 5.9458 168.324 11.5583 167.369 17.3049L169.933 17.5897L169.38 21.2085L166.782 21.3928L165.894 25.7991H161.519L162.106 21.3426H150.809C151.216 20.1794 151.732 19.0574 152.351 17.9918C156.156 12.7981 160.044 7.67145 163.916 2.52802C165.894 -0.253114 166.061 -0.303376 170 0.33327ZM164.218 8.17406L163.748 7.97302C161.653 11.039 159.542 14.1049 157.312 17.3384H162.81L164.218 8.17406Z" fill="black"/>
<path d="M96.6227 0.986458L96.0193 5.02413H87.8905L86.9854 10.4524H94.7958L94.1422 14.7078H86.3318L85.1753 21.6272H93.3377L92.6672 25.8324H79.7114L83.6501 0.986458H96.6227Z" fill="black"/>
<path d="M131.887 25.7991C135.775 21.6609 139.462 17.8075 143.083 13.8871C144.062 12.7782 144.932 11.5775 145.681 10.3018C146.118 9.59104 146.382 8.78762 146.452 7.95622C146.601 7.25163 146.496 6.51683 146.156 5.88204C145.815 5.24726 145.261 4.75347 144.591 4.48817C143.909 4.2563 143.166 4.27768 142.498 4.5484C141.83 4.81911 141.282 5.32108 140.954 5.96251C140.483 6.77398 140.075 7.61963 139.731 8.49234H135.071C135.358 6.05063 136.58 3.81473 138.479 2.25315C140.379 0.691561 142.809 -0.0745198 145.262 0.115422C146.317 0.171455 147.344 0.482075 148.254 1.02076C149.164 1.55945 149.93 2.31021 150.486 3.20894C151.043 4.10768 151.374 5.1277 151.45 6.18192C151.527 7.23614 151.347 8.29326 150.927 9.26302C149.929 11.6149 148.553 13.788 146.854 15.6965C145.178 17.707 143.2 19.4158 141.021 21.5771H149.301L148.63 25.732L131.887 25.7991Z" fill="black"/>
<path d="M114.556 21.7782L117.908 18.9301C118.16 19.4327 118.344 19.818 118.545 20.1866C118.891 20.9634 119.491 21.5993 120.247 21.9892C121.002 22.3791 121.868 22.4997 122.702 22.3311C123.568 22.1635 124.355 21.7146 124.94 21.0541C125.525 20.3937 125.875 19.5587 125.937 18.6788C126.322 16.7521 125.048 15.7301 123.473 15.0767C122.752 14.7584 122.048 14.4568 121.361 14.105C117.741 12.262 116.752 9.54791 118.294 5.72804C118.796 4.35563 119.645 3.13631 120.758 2.1884C121.87 1.2405 123.209 0.596204 124.644 0.318043C126.079 0.0398817 127.562 0.137302 128.949 0.600848C130.335 1.0644 131.578 1.87833 132.557 2.96365L130.361 5.59401C128.93 5.00277 127.433 4.58106 125.903 4.33747C125.182 4.31731 124.479 4.56188 123.926 5.02494C123.373 5.488 123.009 6.13746 122.903 6.85054C122.534 8.4254 123.506 9.21284 124.764 9.83273C126.021 10.4526 127.06 11.0055 128.116 11.6086C129.169 12.1229 130.028 12.9632 130.565 14.0045C131.103 15.0458 131.29 16.2326 131.099 17.3887C130.985 19.5271 130.169 21.5684 128.779 23.1974C127.389 24.8265 125.5 25.9528 123.406 26.4023C119.45 27.2567 116.434 25.7321 114.556 21.7782Z" fill="black"/>
<path d="M68.0966 0.953106H80.5496L79.8624 5.02429C77.6835 5.02429 75.622 5.02429 73.5605 5.02429C73.2412 5.09545 72.9437 5.24214 72.6929 5.45203C72.4421 5.66193 72.2453 5.92891 72.1191 6.23056C71.806 7.60035 71.5765 8.98789 71.4319 10.3855H78.4713L77.8847 14.6242C75.9237 14.6242 74.0633 14.6242 72.2029 14.6242C71.0799 14.6242 70.6274 14.9258 70.5268 16.0986C70.1078 19.265 69.538 22.4315 69.0184 25.7153H64.1411L68.0966 0.953106Z" fill="black"/>
<path d="M56.0962 21.778H63.0517L62.3981 25.8827H50.6658L54.571 0.986458H59.3644C58.2918 7.83878 57.2191 14.6241 56.0962 21.778Z" fill="black"/>
</svg>
