<svg width="433" height="70" viewBox="0 0 433 70" fill="none" xmlns="http://www.w3.org/2000/svg">
<g filter="url(#filter0_d_286_4361)">
<rect width="433" height="66" rx="5" fill="#06C755"/>
<path d="M0 30.7998H433V60.9998C433 63.7612 430.761 65.9998 428 65.9998H4.99999C2.23857 65.9998 0 63.7612 0 60.9998V30.7998Z" fill="url(#paint0_linear_286_4361)"/>
</g>
<rect x="143" y="7" width="280" height="52" rx="3" fill="white"/>
<path d="M162.058 53H166.909V47.918H173.278V45.476H166.909V43.364H173.278V40.889H167.965L175.72 28.646H170.11L167.14 34.586C166.018 36.995 165.556 37.952 164.632 39.767H164.434C163.543 37.952 163.147 37.094 161.926 34.586L158.89 28.646H153.181L160.969 40.889H155.623V43.364H162.058V45.476H155.623V47.918H162.058V53Z" fill="url(#paint1_linear_286_4361)"/>
<path d="M190.121 32.5586C190.121 37.1159 190.495 40.6068 191.242 43.0312C191.99 45.4375 193.521 46.6406 195.836 46.6406C198.151 46.6406 199.664 45.4375 200.375 43.0312C201.104 40.6068 201.469 37.1159 201.469 32.5586C201.469 27.7826 201.104 24.2461 200.375 21.9492C199.664 19.6523 198.151 18.5039 195.836 18.5039C193.521 18.5039 191.99 19.6523 191.242 21.9492C190.495 24.2461 190.121 27.7826 190.121 32.5586ZM195.836 12.0781C200.885 12.0781 204.422 13.8555 206.445 17.4102C208.487 20.9648 209.508 26.0143 209.508 32.5586C209.508 39.1029 208.487 44.1432 206.445 47.6797C204.422 51.2161 200.885 52.9844 195.836 52.9844C190.786 52.9844 187.241 51.2161 185.199 47.6797C183.176 44.1432 182.164 39.1029 182.164 32.5586C182.164 26.0143 183.176 20.9648 185.199 17.4102C187.241 13.8555 190.786 12.0781 195.836 12.0781Z" fill="url(#paint2_linear_286_4361)"/>
<path d="M238.684 33.36L241.518 33.412L241.674 33.282V30.5L241.518 30.344L237.644 30.422H224.982C225.346 29.928 225.658 29.434 225.944 28.94L225.866 28.68L222.954 27.64L222.72 27.692C221.446 29.98 219.626 31.93 217.39 33.568L219.288 35.674C219.444 35.83 219.548 35.96 219.678 35.96C219.782 35.96 219.886 35.908 220.016 35.778C220.484 35.414 220.952 34.998 221.446 34.53V36.532L217.962 36.454L217.806 36.636V39.366L217.988 39.548L221.446 39.47V43.032L218.482 42.98L218.326 43.136V45.892L218.508 46.074L222.356 45.97H238.034L241.908 46.074L242.064 45.918V43.11L241.908 42.98L238.684 43.032V39.47L242.142 39.548L242.298 39.418V36.584L242.142 36.454L238.684 36.532V33.36ZM235.226 33.334V36.532H233.874V33.334H235.226ZM230.702 33.334V36.532H229.376V33.334H230.702ZM226.204 33.334V36.532H224.8V33.334H226.204ZM224.8 43.058V39.47H226.204V43.058H224.8ZM229.376 43.058V39.47H230.702V43.058H229.376ZM233.874 43.058V39.47H235.226V43.058H233.874ZM235.486 51.014L235.564 50.754C235.122 49.48 234.264 47.738 233.406 46.516L233.12 46.412L230.416 47.53L230.312 47.764C231.014 48.986 231.742 50.572 232.262 52.184L232.522 52.262L235.486 51.014ZM242.22 50.65L242.272 50.416C241.388 48.934 240.374 47.66 239.022 46.308L238.762 46.204L236.214 47.79L236.188 48.024C237.306 49.298 238.346 50.832 239.152 52.366L239.438 52.418L242.22 50.65ZM229.324 51.534L229.454 51.3C229.194 49.974 228.622 48.102 227.92 46.75L227.66 46.594L224.826 47.296L224.67 47.504C225.19 48.83 225.684 50.572 225.944 52.21L226.204 52.314L229.324 51.534ZM221.03 52.522L221.316 52.47C222.304 51.092 223.188 49.272 223.708 47.556L223.682 47.27L220.848 46.256L220.64 46.334C219.99 47.894 219.288 49.298 218.196 50.702L218.3 50.936L221.03 52.522ZM247.264 38.456C246.198 41.134 244.742 43.474 243.338 45.398L244.976 47.92C245.08 48.102 245.21 48.206 245.34 48.206C245.444 48.206 245.574 48.128 245.678 47.972C246.536 46.646 247.472 44.878 248.148 43.006L247.888 52.6H251.554L251.372 43.682V42.434C251.97 43.162 252.568 44.02 253.01 44.774L253.27 44.8L255.402 43.058L255.428 42.798C254.596 41.758 253.738 40.692 252.698 39.86H252.438L251.372 40.64V38.456H252.464L254.934 38.534L255.064 38.404V35.518L254.934 35.388L252.464 35.466H251.372V27.874L251.216 27.718H248.174L248.044 27.874V35.466H247.004L244.092 35.388L243.936 35.544V38.378L244.118 38.534L247.004 38.456H247.264ZM262.448 41.966L258.73 42.876L255.194 43.604L255.038 43.812L255.662 46.984L255.896 47.062L259.328 46.152L262.422 45.372L262.318 52.6H266.27L266.166 44.41L268.532 43.838L268.688 43.63L268.142 40.536L267.882 40.484L266.14 40.978V27.952L265.958 27.77H262.63L262.448 27.952V41.966ZM244.066 30.578L243.962 30.838C244.482 32.034 244.872 33.36 245.288 34.79L245.47 34.946L247.654 34.036L247.81 33.802C247.42 32.32 247.03 31.228 246.406 29.876L246.146 29.798L244.066 30.578ZM262.266 32.372V32.112C261.044 30.968 259.926 30.318 258.652 29.642L258.392 29.668L256.364 31.696V31.956C257.638 32.658 258.886 33.594 259.952 34.764L260.212 34.738L262.266 32.372ZM252.958 29.564L252.672 29.642C252.412 30.994 252.074 32.268 251.502 33.932L253.478 34.686C253.582 34.738 253.686 34.764 253.764 34.764C253.868 34.764 253.946 34.686 254.024 34.504C254.596 33.256 255.038 32.086 255.402 30.812L255.298 30.5L252.958 29.564ZM261.564 37.962L261.512 37.702C260.394 36.948 259.12 36.168 257.768 35.622L257.508 35.7L255.714 37.962L255.74 38.222C256.988 38.794 258.288 39.652 259.51 40.64L259.77 40.562L261.564 37.962ZM275.552 34.92C276.254 33.074 276.904 31.02 277.502 28.628L277.372 28.394L274.122 27.692L273.888 27.822C273.082 32.398 271.496 36.454 269.468 39.964L270.43 43.552C270.482 43.734 270.586 43.838 270.716 43.838C270.82 43.838 270.95 43.76 271.054 43.578C271.444 42.928 271.704 42.46 272.042 41.68V44.566L271.912 52.6H275.552V45.528L277.164 47.556C277.268 47.686 277.372 47.764 277.502 47.764C277.606 47.764 277.736 47.712 277.892 47.556C278.516 46.932 279.088 46.256 279.66 45.528V47.764L279.842 47.92L282.806 47.842H283.04L282.936 52.6H286.706L286.602 47.842H286.888L289.748 47.92L289.878 47.79V45.346C290.372 45.996 290.892 46.646 291.438 47.296C291.594 47.478 291.75 47.582 291.906 47.582C292.036 47.582 292.14 47.504 292.244 47.374L294.532 44.306C291.49 41.914 289.384 39.184 287.772 35.986H289.488L293.7 36.064L293.856 35.882V32.892L293.7 32.71L289.488 32.788H286.602V27.874L286.42 27.692H283.248L283.066 27.874V32.788H280.83L276.644 32.71L276.462 32.892V35.882L276.644 36.064L280.83 35.986H282.052C281.194 37.546 280.284 39.106 279.192 40.536C278.126 41.966 276.904 43.318 275.552 44.488V34.92ZM286.888 44.93H286.55L286.446 39.106C287.174 41.16 288.266 43.058 289.514 44.852L286.888 44.93ZM280.18 44.852C281.376 43.266 282.39 41.498 283.222 39.652L283.092 44.93H282.806L280.18 44.852ZM315.28 37.182L317.282 37.234L317.438 37.104V36.168C317.646 36.324 317.854 36.506 318.062 36.662C318.218 36.792 318.322 36.844 318.426 36.844C318.53 36.844 318.608 36.766 318.738 36.61L320.792 33.958C318.192 32.554 316.372 30.994 315.176 29.2C315.28 28.992 315.358 28.784 315.462 28.576L315.384 28.342L312.264 27.588L312.03 27.666C310.886 30.5 308.754 32.918 306.284 34.582V33.048L306.05 32.892L303.892 32.97V31.618L306.83 31.696L307.038 31.54V28.888L306.804 28.732L303.892 28.81H299.134L296.586 28.732L296.404 28.94L296.482 32.71V40.302L296.404 43.604L296.586 43.786L298.874 43.708H303.866C303.866 44.41 303.866 45.008 303.84 45.528C303.71 45.112 303.554 44.722 303.372 44.358L303.164 44.254L302.098 44.644L301.994 44.852C302.28 45.476 302.618 46.516 302.852 47.504L303.086 47.582L303.762 47.244C303.71 48.18 303.606 48.596 303.45 48.804C303.242 49.09 302.904 49.194 302.254 49.194C302.02 49.194 301.188 49.168 300.46 49.116L301.63 52.054C301.734 52.314 301.838 52.392 302.15 52.392H302.748C304.698 52.392 305.4 52.002 305.894 51.456C306.102 51.222 306.258 50.884 306.414 50.364L308.598 52.366C308.702 52.47 308.78 52.548 308.858 52.548C308.936 52.548 309.04 52.496 309.196 52.392C311.094 51.17 312.914 49.584 313.98 47.4C314.968 49.298 316.606 51.092 318.27 52.34C318.4 52.444 318.504 52.496 318.608 52.496C318.686 52.496 318.79 52.418 318.894 52.262L320.792 49.428C318.686 48.232 317.308 46.932 316.216 45.294H316.45L319.414 45.372L319.622 45.138L319.544 42.85V40.692L319.622 38.508L319.44 38.326L316.372 38.404H315.28V37.182ZM311.952 37.182V38.404H310.964L307.896 38.326L307.714 38.508L307.792 40.692V42.772L307.662 45.164L307.844 45.372L310.86 45.294H311.302L311.224 45.476C310.47 47.348 308.39 48.934 306.544 49.896C306.934 48.284 307.142 45.528 307.194 41.004L307.038 40.848L304.672 40.9H303.892V39.418L306.076 39.496L306.284 39.34V36.974L306.05 36.818L303.892 36.896V35.492L306.076 35.57L306.284 35.414V34.894L308.078 36.792C308.208 36.922 308.312 36.974 308.442 36.974C308.572 36.974 308.728 36.896 308.962 36.74C309.196 36.558 309.456 36.376 309.716 36.168V37.078L309.898 37.234L311.952 37.182ZM311.9 40.744C311.874 41.472 311.848 42.226 311.796 42.954H310.73V40.744H311.9ZM316.398 40.744V42.954H315.124C315.176 42.226 315.228 41.472 315.254 40.744H316.398ZM314.37 34.686H312.784L311.38 34.66C312.16 33.854 312.862 32.996 313.486 32.086C314.136 33.022 314.864 33.854 315.696 34.66L314.37 34.686ZM299.576 39.418H300.928V40.9H299.576V39.418ZM299.576 36.896V35.492H300.928V36.896H299.576ZM299.576 32.97V31.618H300.928V32.97H299.576ZM298.042 45.112L297.938 44.904L296.092 44.592L295.884 44.748C295.754 46.438 295.494 47.972 295.156 49.532L295.234 49.74L297.106 50.182L297.314 50.052C297.574 49.064 297.808 47.712 297.964 45.944C298.172 46.984 298.302 48.076 298.406 49.116L298.588 49.272L300.096 48.934L300.2 48.726C300.044 47.322 299.836 46.204 299.498 45.008L299.29 44.878L298.042 45.112ZM300.07 44.93L299.992 45.164C300.304 46.048 300.538 47.036 300.772 48.31L300.98 48.44L302.332 47.972L302.436 47.764C302.176 46.62 301.812 45.45 301.474 44.722L301.266 44.592L300.07 44.93ZM329.97 52.106C330.1 52.184 330.23 52.236 330.386 52.236C330.49 52.236 330.62 52.236 330.75 52.184C330.828 52.158 330.906 52.132 331.01 52.106C333.48 51.3 335.716 49.87 336.99 47.582C337.718 46.256 338.082 45.008 338.082 43.318C338.082 42.33 337.848 41.134 337.51 40.146C337.432 38.378 337.432 36.87 337.432 35.44C339.954 35.336 342.554 35.31 345.128 35.31L345.336 35.128V31.878L345.128 31.696C342.658 31.722 340.058 31.826 337.458 31.93C337.484 30.942 337.51 29.876 337.536 28.68L337.328 28.472H333.74L333.584 28.654C333.584 29.876 333.584 31.046 333.584 32.164C330.1 32.346 326.408 32.606 322.794 32.866L322.612 33.1L322.872 36.376L323.08 36.532C326.746 36.116 330.256 35.804 333.584 35.622C333.61 36.246 333.61 36.74 333.61 37.312C333.376 37.26 333.116 37.182 332.31 37.182C330.022 37.182 327.63 39.964 327.63 43.058C327.63 44.904 328.93 46.152 331.322 46.152C332.752 46.152 333.48 45.892 333.818 45.554C333.142 47.166 330.776 48.804 327.006 49.584L329.97 52.106ZM333.714 41.264C333.662 42.46 332.908 42.902 331.842 42.902C331.166 42.902 331.01 42.668 331.01 42.174C331.01 41.368 331.868 40.25 332.596 40.25C333.116 40.25 333.532 40.536 333.714 41.264ZM353.318 34.79C355.71 34.114 357.998 33.568 359.974 33.152C356.516 36.584 353.24 40.172 349.652 44.28L349.678 44.566L352.46 46.802L352.72 46.776C355.476 43.214 358.154 40.77 361.872 40.77C364.03 40.77 365.408 42.226 365.408 44.046C365.408 45.866 364.94 47.088 363.406 47.816C362.704 45.996 361.222 43.968 358.128 43.968C356.022 43.968 354.15 45.892 354.15 47.582C354.15 50.546 356.75 51.82 359.818 51.82C365.824 51.82 369.386 49.142 369.386 44.41C369.386 40.38 366.76 37.702 362.834 37.702C361.742 37.702 360.832 37.754 359.584 38.378C361.742 36.246 363.198 34.92 365.304 32.84C365.694 32.45 365.772 31.956 365.772 31.488C365.772 30.24 364.68 29.226 363.38 29.226C360.546 29.59 356.542 30.214 352.59 31.098L352.434 31.332L353.11 34.66L353.318 34.79ZM360.156 48.648C359.948 48.7 359.688 48.726 359.324 48.726C357.998 48.726 357.4 48.232 357.4 47.686C357.4 47.218 357.868 47.01 358.388 47.01C359.012 47.01 359.896 47.53 360.156 48.648Z" fill="url(#paint3_linear_286_4361)"/>
<path fill-rule="evenodd" clip-rule="evenodd" d="M36.9999 15C47.3214 15 55.7195 21.6829 55.7195 29.8988C55.7195 33.1875 54.4208 36.148 51.7065 39.0649C47.78 43.4987 38.9982 48.8987 36.9999 49.7249C35.0577 50.5282 35.2824 49.2728 35.3713 48.7771L35.3783 48.7358L35.6451 47.1638C35.7082 46.6956 35.7738 45.9681 35.5842 45.5045C35.3736 44.9927 34.5453 44.7265 33.9369 44.598C24.9398 43.4345 18.2803 37.2633 18.2803 29.8988C18.2803 21.6829 26.6807 15 36.9999 15ZM30.0315 32.639H26.4631V26.2866C26.4631 26.192 26.4249 26.1013 26.357 26.0342C26.289 25.9672 26.1968 25.9292 26.1004 25.9286H24.7853C24.7374 25.9286 24.6899 25.9378 24.6456 25.9558C24.6014 25.9738 24.5611 26.0002 24.5272 26.0334C24.4933 26.0667 24.4664 26.1061 24.4481 26.1496C24.4297 26.193 24.4203 26.2396 24.4203 26.2866V34.2868C24.4203 34.3809 24.4601 34.4704 24.5233 34.5323V34.5346L24.5279 34.5392L24.5326 34.5438C24.6005 34.6078 24.6912 34.6432 24.7853 34.6425H30.0315C30.2327 34.6425 30.3942 34.4819 30.3942 34.2845V32.9993C30.3945 32.9523 30.3854 32.9057 30.3673 32.8621C30.3493 32.8186 30.3226 32.7789 30.2889 32.7455C30.2553 32.712 30.2152 32.6854 30.171 32.6671C30.1269 32.6489 30.0794 32.6393 30.0315 32.639V32.639ZM31.8824 25.9286H33.1975C33.3987 25.9286 33.5602 26.0892 33.5602 26.2866V34.2868C33.5602 34.4841 33.3964 34.6425 33.1975 34.6425H31.8824C31.786 34.6425 31.6935 34.6051 31.6251 34.5384C31.5567 34.4718 31.518 34.3813 31.5174 34.2868V26.2866C31.5174 26.0892 31.6812 25.9286 31.8824 25.9286ZM40.9216 25.9286H42.232C42.4356 25.9286 42.5994 26.0892 42.5994 26.2866V34.2868C42.5994 34.4841 42.4356 34.6425 42.2344 34.6425H40.9216C40.8901 34.6427 40.8586 34.6388 40.828 34.631H40.8234C40.8147 34.6283 40.8061 34.6252 40.7976 34.6218L40.7859 34.6173L40.7695 34.6104C40.7631 34.6077 40.7568 34.6047 40.7508 34.6012L40.7438 34.5989L40.7204 34.5851L40.7181 34.5828C40.6816 34.5588 40.6498 34.5285 40.6245 34.4933L36.8805 29.5362V34.2868C36.8809 34.3337 36.8717 34.3802 36.8536 34.4236C36.8355 34.467 36.8089 34.5065 36.7751 34.5398C36.7414 34.5731 36.7014 34.5995 36.6572 34.6175C36.613 34.6355 36.5657 34.6448 36.5179 34.6448H35.2051C35.1087 34.6448 35.0162 34.6074 34.9478 34.5407C34.8795 34.4741 34.8407 34.3836 34.8401 34.2891V26.2866C34.8401 26.0892 35.0039 25.9286 35.2051 25.9286H36.5319L36.5436 25.9309H36.5576L36.5647 25.9332H36.5787L36.6021 25.94H36.6068L36.6115 25.9423L36.6349 25.9492L36.6466 25.9538C36.6537 25.9565 36.6608 25.9596 36.6676 25.963L36.6746 25.9653L36.6793 25.9676C36.6899 25.973 36.7 25.9792 36.7097 25.9859L36.7168 25.9905L36.7285 25.9974V25.9997C36.7331 25.9997 36.7355 26.0043 36.7378 26.0066C36.7443 26.0108 36.7505 26.0154 36.7565 26.0204L36.7636 26.0272C36.7835 26.0453 36.8016 26.0653 36.8174 26.0869L40.5566 31.0417V26.2866C40.5566 26.0892 40.7204 25.9286 40.9216 25.9286ZM49.8486 27.574C49.8486 27.7714 49.6848 27.9321 49.4859 27.9321H45.9151V29.2861H49.4835C49.6848 29.2861 49.8462 29.4467 49.8462 29.6418V30.9293C49.8462 31.1266 49.6824 31.2873 49.4835 31.2873H45.9151V32.6413H49.4835C49.6848 32.6413 49.8462 32.8019 49.8462 32.997V34.2845C49.8462 34.4819 49.6824 34.6425 49.4835 34.6425H44.2374C44.1896 34.6427 44.1423 34.6337 44.0982 34.616C44.054 34.5983 44.0138 34.5722 43.98 34.5392L43.9753 34.5323C43.9099 34.4666 43.873 34.3786 43.8723 34.2868V26.2866C43.8723 26.1902 43.9121 26.103 43.9729 26.041L43.98 26.0341L43.9823 26.0318C44.0501 25.9658 44.1418 25.9287 44.2374 25.9286H49.4835C49.6848 25.9286 49.8462 26.0892 49.8462 26.2866V27.574H49.8486Z" fill="white"/>
<path d="M66.9082 19.493C67.1932 17.954 67.8012 17.327 68.7512 17.327C69.5872 17.327 70.3472 17.878 70.3472 18.999C70.3472 20.234 69.4922 21.089 68.1812 21.089H67.2312L66.6422 23.844H67.9532C69.4352 23.844 70.5562 24.509 70.5562 26.029C70.5562 26.979 70.0812 27.891 68.8652 27.891C67.5922 27.891 66.9082 26.884 66.7562 25.478L63.3362 26.77C64.3622 29.202 66.1102 30.285 68.9602 30.285C72.3422 30.285 74.3942 28.404 74.3942 25.915C74.3942 23.635 73.0642 22.4 70.9362 22.02C73.0642 21.431 73.8432 19.93 73.8432 18.733C73.8432 16.301 71.8292 14.99 69.1122 14.99C66.1292 14.99 64.3432 16.643 63.8872 18.809L66.9082 19.493ZM81.004 14.99C77.28 14.99 75.76 17.422 75.76 22.571C75.76 27.758 77.28 30.19 81.004 30.19C84.709 30.19 86.21 27.758 86.21 22.571C86.21 17.422 84.709 14.99 81.004 14.99ZM81.004 27.929C79.712 27.929 79.332 26.732 79.332 22.571C79.332 18.429 79.712 17.194 81.004 17.194C82.239 17.194 82.6 18.429 82.6 22.571C82.6 26.732 82.239 27.929 81.004 27.929ZM89.6088 20.5C88.9818 22.837 88.2218 24.547 87.2148 26.01L88.3738 27.91C88.4498 28.043 88.5638 28.119 88.6588 28.119C88.7348 28.119 88.8298 28.062 88.8868 27.948C89.4378 26.96 89.7798 26.067 90.0268 25.136L89.8938 31.843H92.5918L92.4588 25.364V24.243C92.8388 24.775 93.1618 25.345 93.4658 25.896H93.6558L95.1188 24.661L95.1378 24.471C94.6058 23.635 94.1498 23.008 93.3138 22.172L93.1048 22.153L92.4588 22.647V20.5L94.4538 20.557L94.5488 20.462V18.353L94.4538 18.258L92.4588 18.315V16.244C93.1808 16.073 93.9408 15.902 94.7008 15.712L94.7578 15.522C94.2068 14.971 93.7318 14.553 92.9338 13.964L92.7438 13.945C91.0908 14.496 89.7798 14.705 87.4618 14.914L88.4878 16.662C88.5448 16.757 88.6778 16.833 88.9248 16.814C89.2478 16.776 89.6278 16.738 90.0078 16.681V18.315H89.7228L87.5378 18.258L87.4238 18.372V20.443L87.5568 20.557L89.6088 20.5ZM101.161 19.55V13.983L101.028 13.85H98.7098L98.5768 13.983V23.635C98.5768 24.091 98.4628 24.167 98.0638 24.205C97.6648 24.243 97.1138 24.243 96.3538 24.224L97.2848 26.58C97.3608 26.77 97.3988 26.808 97.7598 26.808C100.002 26.808 101.256 26.029 101.256 24.148L101.161 19.55ZM105.683 21.925L105.778 21.754C105.227 19.968 104.467 18.448 103.517 16.871L103.327 16.795L101.465 17.669L101.37 17.84C102.244 19.474 102.852 21.051 103.346 22.799L103.536 22.856L105.683 21.925ZM96.0118 17.099L95.8408 17.156C95.4418 19.132 94.8148 20.652 93.8648 22.4L95.7458 23.483C95.8218 23.54 95.8978 23.559 95.9548 23.559C96.0498 23.559 96.1258 23.502 96.2018 23.388C96.9808 21.963 97.6838 20.253 98.1968 18.087L98.1208 17.897L96.0118 17.099ZM94.0928 31.596C94.1878 31.767 94.3018 31.786 94.5488 31.748C99.3368 30.855 102.586 29.107 105.284 24.623L105.208 24.452L103.194 23.198L103.004 23.217C100.705 27.15 98.2538 28.575 92.7818 29.468L94.0928 31.596ZM119.914 21.469C120.674 22.115 121.206 22.742 121.795 23.521H121.985L123.03 22.78L123.049 22.59C122.479 21.83 121.814 21.165 121.111 20.576L120.921 20.595L119.933 21.298L119.914 21.469ZM121.7 20.272C122.46 20.918 122.973 21.469 123.562 22.248H123.752L124.74 21.526L124.759 21.336C124.189 20.576 123.581 19.968 122.878 19.379L122.688 19.398L121.719 20.101L121.7 20.272ZM108.077 21.336C110.775 20.576 112.808 20.044 114.67 19.588C113.435 20.595 112.124 22.609 112.124 24.946C112.124 27.53 113.302 29.126 115.183 29.924C116.741 30.589 118.812 30.836 121.187 30.798L121.339 30.684L121.491 27.796L121.358 27.663C119.382 27.682 117.862 27.568 116.817 27.245C115.696 26.903 114.974 26.143 114.974 24.68C114.974 22.894 115.962 21.165 117.729 19.74C118.888 18.79 120.731 18.41 122.84 18.258L122.973 18.087L122.422 15.56L122.251 15.465C116.893 16.434 112.656 17.308 107.355 18.6L107.279 18.752L107.906 21.26L108.077 21.336Z" fill="white"/>
<path d="M83.63 35.496L81.882 35.553H73.959L71.28 35.496L71.147 35.629V37.662L71.28 37.795L73.959 37.738H80.419C79.868 38.156 79.127 38.612 78.177 39.106C77.417 38.612 76.638 38.175 75.897 37.776H75.669L74.187 39.22V39.372C75.365 40.094 76.581 40.93 77.664 41.785H72.876L69.722 41.728L69.589 41.861V43.989L69.722 44.122L72.876 44.065H77.151V49.594C77.151 50.031 77.037 50.126 76.638 50.164C75.973 50.221 75.346 50.24 74.149 50.24L75.213 52.672C75.289 52.843 75.327 52.881 75.707 52.881C78.804 52.881 80.001 52.482 80.001 50.354L79.925 46.687V44.065H83.364C82.718 44.673 81.958 45.243 80.97 45.851L82.528 47.599C82.604 47.694 82.699 47.732 82.794 47.732C82.851 47.732 82.927 47.713 83.003 47.656C84.979 46.117 86.309 44.882 87.373 43.761C87.43 43.704 87.468 43.609 87.468 43.533C87.468 43.4 87.411 43.267 87.297 43.153L86.024 41.728L84.276 41.785H80.381L80.856 41.31V41.101C80.647 40.911 80.438 40.74 80.21 40.55C82.148 39.486 83.535 38.612 84.979 37.529C85.055 37.472 85.074 37.396 85.074 37.32C85.074 37.187 85.017 37.035 84.903 36.921L83.63 35.496ZM96.322 38.137L94.346 37.111L94.175 37.187C93.7 38.099 93.206 38.954 92.693 39.79C92.446 39.6 92.199 39.429 91.952 39.258C92.674 38.27 93.529 36.978 94.289 35.648L94.213 35.477L92.085 34.641L91.914 34.717C91.401 36.009 90.907 37.054 90.261 38.118C90.033 38.004 89.843 37.871 89.634 37.757L89.463 37.776L88.361 39.353L88.38 39.505C89.482 40.208 90.47 40.911 91.42 41.69C91.059 42.222 90.679 42.735 90.299 43.248C89.691 43.286 89.083 43.305 88.475 43.305L88.342 43.438L88.76 45.433L88.931 45.528C89.805 45.433 90.755 45.338 91.686 45.224V48.226L91.591 52.9H94.137L94.042 48.226V44.901C94.403 44.844 94.764 44.806 95.106 44.73C95.201 45.034 95.296 45.338 95.372 45.642L95.562 45.737L97.158 45.034L97.215 44.863C96.987 44.027 96.626 43.115 96.246 42.336L97.443 43.039C97.538 43.096 97.633 43.115 97.728 43.115C97.842 43.115 97.956 43.077 98.032 42.944C98.64 42.089 99.172 41.158 99.628 40.151H103.371C103.352 43.533 103.276 46.269 103.124 48.397C103.01 49.974 102.554 50.259 101.414 50.259C100.673 50.259 100.293 50.259 99.647 50.221L100.673 52.539C100.787 52.786 100.901 52.9 101.224 52.9H102.231C104.416 52.9 105.461 51.874 105.727 49.404C106.031 46.516 106.088 42.773 106.088 37.947L105.936 37.814L103.01 37.871H100.54C100.806 37.111 101.053 36.294 101.281 35.458L101.224 35.249L98.792 34.698L98.64 34.755C98.108 37.206 97.063 39.771 95.847 41.557L95.79 41.462L95.619 41.424L94.194 42.051L94.118 42.203C94.232 42.45 94.346 42.697 94.46 42.963C93.985 43.02 93.491 43.058 92.997 43.096C94.137 41.766 95.391 40.037 96.398 38.308L96.322 38.137ZM89.444 45.984L89.33 46.079C89.197 47.96 88.874 49.537 88.399 50.924L90.071 51.684C90.166 51.722 90.223 51.741 90.28 51.741C90.394 51.741 90.451 51.665 90.527 51.456C90.945 50.221 91.249 48.53 91.458 46.497L91.344 46.364L89.444 45.984ZM94.346 46.307L94.251 46.44C94.612 47.333 94.992 49.024 95.201 50.582L95.334 50.677L97.196 49.993L97.272 49.822C96.987 48.397 96.493 46.82 96.094 45.889L95.923 45.813L94.346 46.307ZM97.994 43.647L97.899 43.837C98.583 44.806 99.286 46.136 99.742 47.352L99.875 47.447L101.984 46.383L102.079 46.231C101.528 44.901 100.844 43.704 100.065 42.792L99.837 42.716L97.994 43.647ZM117.982 36.199H114.999V46.364H117.982V36.199ZM116.5 47.903C115.493 47.903 114.657 48.739 114.657 49.746C114.657 50.753 115.493 51.57 116.5 51.57C117.488 51.57 118.324 50.753 118.324 49.746C118.324 48.739 117.488 47.903 116.5 47.903Z" fill="white"/>
<rect x="11" y="8" width="123" height="50" rx="2" stroke="white" stroke-width="2"/>
<circle cx="396.5" cy="32.5" r="15.5" fill="url(#paint4_linear_286_4361)"/>
<path d="M403 33L393.25 39.0622L393.25 26.9378L403 33Z" fill="white"/>
<defs>
<filter id="filter0_d_286_4361" x="0" y="0" width="433" height="70" filterUnits="userSpaceOnUse" color-interpolation-filters="sRGB">
<feFlood flood-opacity="0" result="BackgroundImageFix"/>
<feColorMatrix in="SourceAlpha" type="matrix" values="0 0 0 0 0 0 0 0 0 0 0 0 0 0 0 0 0 0 127 0" result="hardAlpha"/>
<feOffset dy="4"/>
<feComposite in2="hardAlpha" operator="out"/>
<feColorMatrix type="matrix" values="0 0 0 0 0.0447917 0 0 0 0 0.5375 0 0 0 0 0.245957 0 0 0 1 0"/>
<feBlend mode="normal" in2="BackgroundImageFix" result="effect1_dropShadow_286_4361"/>
<feBlend mode="normal" in="SourceGraphic" in2="effect1_dropShadow_286_4361" result="shape"/>
</filter>
<linearGradient id="paint0_linear_286_4361" x1="216.5" y1="30.7998" x2="216.5" y2="65.9998" gradientUnits="userSpaceOnUse">
<stop stop-color="#07A848"/>
<stop offset="1" stop-color="#07B54E"/>
</linearGradient>
<linearGradient id="paint1_linear_286_4361" x1="164.5" y1="23" x2="164.5" y2="61" gradientUnits="userSpaceOnUse">
<stop stop-color="#06C755"/>
<stop offset="1" stop-color="#028C3A"/>
</linearGradient>
<linearGradient id="paint2_linear_286_4361" x1="196" y1="1" x2="196" y2="65" gradientUnits="userSpaceOnUse">
<stop stop-color="#06C755"/>
<stop offset="1" stop-color="#028C3A"/>
</linearGradient>
<linearGradient id="paint3_linear_286_4361" x1="295" y1="21" x2="295" y2="60" gradientUnits="userSpaceOnUse">
<stop stop-color="#06C755"/>
<stop offset="1" stop-color="#028C3A"/>
</linearGradient>
<linearGradient id="paint4_linear_286_4361" x1="396.5" y1="17" x2="396.5" y2="48" gradientUnits="userSpaceOnUse">
<stop stop-color="#06C755"/>
<stop offset="1" stop-color="#028C3A"/>
</linearGradient>
</defs>
</svg>
