<svg width="423" height="70" viewBox="0 0 423 70" fill="none" xmlns="http://www.w3.org/2000/svg">
<g filter="url(#filter0_d_197_1933)">
<rect width="423" height="66" rx="5" fill="#06C755"/>
<path d="M0 30.7998H423V60.9998C423 63.7612 420.761 65.9998 418 65.9998H4.99999C2.23857 65.9998 0 63.7612 0 60.9998V30.7998Z" fill="url(#paint0_linear_197_1933)"/>
</g>
<g filter="url(#filter1_d_197_1933)">
<path d="M113.132 20.498L109.31 19.51L109.024 19.588C105.93 25.048 101.978 28.818 98.286 30.794L100.834 33.134C100.964 33.264 101.094 33.342 101.25 33.342C101.432 33.342 101.614 33.238 101.874 33.082C103.278 32.146 104.578 31.132 105.8 30.014V31.548L105.982 31.704L108.868 31.626H112.638L115.55 31.704L115.706 31.574V29.832C117.032 31.002 118.436 32.094 119.944 33.108C120.1 33.212 120.256 33.264 120.386 33.264C120.594 33.264 120.828 33.108 121.14 32.796L123.818 30.118C118.904 27.83 115.68 25.23 112.742 21.512C112.898 21.278 113.054 21.018 113.21 20.758L113.132 20.498ZM112.638 28.428H108.868L107.49 28.402C108.686 27.128 109.778 25.802 110.844 24.398C111.858 25.828 112.976 27.128 114.198 28.376L112.638 28.428ZM105.514 36.618H114.276C113.626 38.542 112.508 41.116 111.182 43.664L115.03 44.6C116.72 41.272 117.708 38.724 118.93 35.578C119.008 35.37 119.06 35.188 119.06 35.058C119.06 34.85 118.93 34.72 118.774 34.564L117.396 33.238L115.316 33.368H105.514L102.602 33.29L102.446 33.446V36.54L102.628 36.696L105.514 36.618ZM132.97 44.106C133.1 44.184 133.23 44.236 133.386 44.236C133.49 44.236 133.62 44.236 133.75 44.184C133.828 44.158 133.906 44.132 134.01 44.106C136.48 43.3 138.716 41.87 139.99 39.582C140.718 38.256 141.082 37.008 141.082 35.318C141.082 34.33 140.848 33.134 140.51 32.146C140.432 30.378 140.432 28.87 140.432 27.44C142.954 27.336 145.554 27.31 148.128 27.31L148.336 27.128V23.878L148.128 23.696C145.658 23.722 143.058 23.826 140.458 23.93C140.484 22.942 140.51 21.876 140.536 20.68L140.328 20.472H136.74L136.584 20.654C136.584 21.876 136.584 23.046 136.584 24.164C133.1 24.346 129.408 24.606 125.794 24.866L125.612 25.1L125.872 28.376L126.08 28.532C129.746 28.116 133.256 27.804 136.584 27.622C136.61 28.246 136.61 28.74 136.61 29.312C136.376 29.26 136.116 29.182 135.31 29.182C133.022 29.182 130.63 31.964 130.63 35.058C130.63 36.904 131.93 38.152 134.322 38.152C135.752 38.152 136.48 37.892 136.818 37.554C136.142 39.166 133.776 40.804 130.006 41.584L132.97 44.106ZM136.714 33.264C136.662 34.46 135.908 34.902 134.842 34.902C134.166 34.902 134.01 34.668 134.01 34.174C134.01 33.368 134.868 32.25 135.596 32.25C136.116 32.25 136.532 32.536 136.714 33.264ZM168.2 27.804C169.24 28.688 169.968 29.546 170.774 30.612H171.034L172.464 29.598L172.49 29.338C171.71 28.298 170.8 27.388 169.838 26.582L169.578 26.608L168.226 27.57L168.2 27.804ZM170.644 26.166C171.684 27.05 172.386 27.804 173.192 28.87H173.452L174.804 27.882L174.83 27.622C174.05 26.582 173.218 25.75 172.256 24.944L171.996 24.97L170.67 25.932L170.644 26.166ZM168.642 43.508L171.216 40.284L171.19 40.024C167.186 37.242 162.48 34.538 159.126 33.004C158.892 32.9 158.71 32.718 158.684 32.536C158.658 32.354 158.814 32.068 159.074 31.86C161.596 29.65 165.522 26.868 169.188 24.372V24.112L166.484 21.122H166.198C162.22 24.216 158.294 27.362 155.33 30.248C154.446 31.106 153.874 31.912 153.874 32.978C153.874 34.174 154.55 34.98 155.616 35.526C160.582 38.1 164.404 40.466 168.408 43.534L168.642 43.508ZM182.552 26.92C183.254 25.074 183.904 23.02 184.502 20.628L184.372 20.394L181.122 19.692L180.888 19.822C180.082 24.398 178.496 28.454 176.468 31.964L177.43 35.552C177.482 35.734 177.586 35.838 177.716 35.838C177.82 35.838 177.95 35.76 178.054 35.578C178.444 34.928 178.704 34.46 179.042 33.68V36.566L178.912 44.6H182.552V37.528L184.164 39.556C184.268 39.686 184.372 39.764 184.502 39.764C184.606 39.764 184.736 39.712 184.892 39.556C185.516 38.932 186.088 38.256 186.66 37.528V39.764L186.842 39.92L189.806 39.842H190.04L189.936 44.6H193.706L193.602 39.842H193.888L196.748 39.92L196.878 39.79V37.346C197.372 37.996 197.892 38.646 198.438 39.296C198.594 39.478 198.75 39.582 198.906 39.582C199.036 39.582 199.14 39.504 199.244 39.374L201.532 36.306C198.49 33.914 196.384 31.184 194.772 27.986H196.488L200.7 28.064L200.856 27.882V24.892L200.7 24.71L196.488 24.788H193.602V19.874L193.42 19.692H190.248L190.066 19.874V24.788H187.83L183.644 24.71L183.462 24.892V27.882L183.644 28.064L187.83 27.986H189.052C188.194 29.546 187.284 31.106 186.192 32.536C185.126 33.966 183.904 35.318 182.552 36.488V26.92ZM193.888 36.93H193.55L193.446 31.106C194.174 33.16 195.266 35.058 196.514 36.852L193.888 36.93ZM187.18 36.852C188.376 35.266 189.39 33.498 190.222 31.652L190.092 36.93H189.806L187.18 36.852ZM222.28 29.182L224.282 29.234L224.438 29.104V28.168C224.646 28.324 224.854 28.506 225.062 28.662C225.218 28.792 225.322 28.844 225.426 28.844C225.53 28.844 225.608 28.766 225.738 28.61L227.792 25.958C225.192 24.554 223.372 22.994 222.176 21.2C222.28 20.992 222.358 20.784 222.462 20.576L222.384 20.342L219.264 19.588L219.03 19.666C217.886 22.5 215.754 24.918 213.284 26.582V25.048L213.05 24.892L210.892 24.97V23.618L213.83 23.696L214.038 23.54V20.888L213.804 20.732L210.892 20.81H206.134L203.586 20.732L203.404 20.94L203.482 24.71V32.302L203.404 35.604L203.586 35.786L205.874 35.708H210.866C210.866 36.41 210.866 37.008 210.84 37.528C210.71 37.112 210.554 36.722 210.372 36.358L210.164 36.254L209.098 36.644L208.994 36.852C209.28 37.476 209.618 38.516 209.852 39.504L210.086 39.582L210.762 39.244C210.71 40.18 210.606 40.596 210.45 40.804C210.242 41.09 209.904 41.194 209.254 41.194C209.02 41.194 208.188 41.168 207.46 41.116L208.63 44.054C208.734 44.314 208.838 44.392 209.15 44.392H209.748C211.698 44.392 212.4 44.002 212.894 43.456C213.102 43.222 213.258 42.884 213.414 42.364L215.598 44.366C215.702 44.47 215.78 44.548 215.858 44.548C215.936 44.548 216.04 44.496 216.196 44.392C218.094 43.17 219.914 41.584 220.98 39.4C221.968 41.298 223.606 43.092 225.27 44.34C225.4 44.444 225.504 44.496 225.608 44.496C225.686 44.496 225.79 44.418 225.894 44.262L227.792 41.428C225.686 40.232 224.308 38.932 223.216 37.294H223.45L226.414 37.372L226.622 37.138L226.544 34.85V32.692L226.622 30.508L226.44 30.326L223.372 30.404H222.28V29.182ZM218.952 29.182V30.404H217.964L214.896 30.326L214.714 30.508L214.792 32.692V34.772L214.662 37.164L214.844 37.372L217.86 37.294H218.302L218.224 37.476C217.47 39.348 215.39 40.934 213.544 41.896C213.934 40.284 214.142 37.528 214.194 33.004L214.038 32.848L211.672 32.9H210.892V31.418L213.076 31.496L213.284 31.34V28.974L213.05 28.818L210.892 28.896V27.492L213.076 27.57L213.284 27.414V26.894L215.078 28.792C215.208 28.922 215.312 28.974 215.442 28.974C215.572 28.974 215.728 28.896 215.962 28.74C216.196 28.558 216.456 28.376 216.716 28.168V29.078L216.898 29.234L218.952 29.182ZM218.9 32.744C218.874 33.472 218.848 34.226 218.796 34.954H217.73V32.744H218.9ZM223.398 32.744V34.954H222.124C222.176 34.226 222.228 33.472 222.254 32.744H223.398ZM221.37 26.686H219.784L218.38 26.66C219.16 25.854 219.862 24.996 220.486 24.086C221.136 25.022 221.864 25.854 222.696 26.66L221.37 26.686ZM206.576 31.418H207.928V32.9H206.576V31.418ZM206.576 28.896V27.492H207.928V28.896H206.576ZM206.576 24.97V23.618H207.928V24.97H206.576ZM205.042 37.112L204.938 36.904L203.092 36.592L202.884 36.748C202.754 38.438 202.494 39.972 202.156 41.532L202.234 41.74L204.106 42.182L204.314 42.052C204.574 41.064 204.808 39.712 204.964 37.944C205.172 38.984 205.302 40.076 205.406 41.116L205.588 41.272L207.096 40.934L207.2 40.726C207.044 39.322 206.836 38.204 206.498 37.008L206.29 36.878L205.042 37.112ZM207.07 36.93L206.992 37.164C207.304 38.048 207.538 39.036 207.772 40.31L207.98 40.44L209.332 39.972L209.436 39.764C209.176 38.62 208.812 37.45 208.474 36.722L208.266 36.592L207.07 36.93ZM248.02 20.784L245.628 20.862H234.786L231.12 20.784L230.938 20.966V23.748L231.12 23.93L234.786 23.852H243.626C242.872 24.424 241.858 25.048 240.558 25.724C239.518 25.048 238.452 24.45 237.438 23.904H237.126L235.098 25.88V26.088C236.71 27.076 238.374 28.22 239.856 29.39H233.304L228.988 29.312L228.806 29.494V32.406L228.988 32.588L233.304 32.51H239.154V40.076C239.154 40.674 238.998 40.804 238.452 40.856C237.542 40.934 236.684 40.96 235.046 40.96L236.502 44.288C236.606 44.522 236.658 44.574 237.178 44.574C241.416 44.574 243.054 44.028 243.054 41.116L242.95 36.098V32.51H247.656C246.772 33.342 245.732 34.122 244.38 34.954L246.512 37.346C246.616 37.476 246.746 37.528 246.876 37.528C246.954 37.528 247.058 37.502 247.162 37.424C249.866 35.318 251.686 33.628 253.142 32.094C253.22 32.016 253.272 31.886 253.272 31.782C253.272 31.6 253.194 31.418 253.038 31.262L251.296 29.312L248.904 29.39H243.574L244.224 28.74V28.454C243.938 28.194 243.652 27.96 243.34 27.7C245.992 26.244 247.89 25.048 249.866 23.566C249.97 23.488 249.996 23.384 249.996 23.28C249.996 23.098 249.918 22.89 249.762 22.734L248.02 20.784ZM265.388 24.398L262.684 22.994L262.45 23.098C261.8 24.346 261.124 25.516 260.422 26.66C260.084 26.4 259.746 26.166 259.408 25.932C260.396 24.58 261.566 22.812 262.606 20.992L262.502 20.758L259.59 19.614L259.356 19.718C258.654 21.486 257.978 22.916 257.094 24.372C256.782 24.216 256.522 24.034 256.236 23.878L256.002 23.904L254.494 26.062L254.52 26.27C256.028 27.232 257.38 28.194 258.68 29.26C258.186 29.988 257.666 30.69 257.146 31.392C256.314 31.444 255.482 31.47 254.65 31.47L254.468 31.652L255.04 34.382L255.274 34.512C256.47 34.382 257.77 34.252 259.044 34.096V38.204L258.914 44.6H262.398L262.268 38.204V33.654C262.762 33.576 263.256 33.524 263.724 33.42C263.854 33.836 263.984 34.252 264.088 34.668L264.348 34.798L266.532 33.836L266.61 33.602C266.298 32.458 265.804 31.21 265.284 30.144L266.922 31.106C267.052 31.184 267.182 31.21 267.312 31.21C267.468 31.21 267.624 31.158 267.728 30.976C268.56 29.806 269.288 28.532 269.912 27.154H275.034C275.008 31.782 274.904 35.526 274.696 38.438C274.54 40.596 273.916 40.986 272.356 40.986C271.342 40.986 270.822 40.986 269.938 40.934L271.342 44.106C271.498 44.444 271.654 44.6 272.096 44.6H273.474C276.464 44.6 277.894 43.196 278.258 39.816C278.674 35.864 278.752 30.742 278.752 24.138L278.544 23.956L274.54 24.034H271.16C271.524 22.994 271.862 21.876 272.174 20.732L272.096 20.446L268.768 19.692L268.56 19.77C267.832 23.124 266.402 26.634 264.738 29.078L264.66 28.948L264.426 28.896L262.476 29.754L262.372 29.962C262.528 30.3 262.684 30.638 262.84 31.002C262.19 31.08 261.514 31.132 260.838 31.184C262.398 29.364 264.114 26.998 265.492 24.632L265.388 24.398ZM255.976 35.136L255.82 35.266C255.638 37.84 255.196 39.998 254.546 41.896L256.834 42.936C256.964 42.988 257.042 43.014 257.12 43.014C257.276 43.014 257.354 42.91 257.458 42.624C258.03 40.934 258.446 38.62 258.732 35.838L258.576 35.656L255.976 35.136ZM262.684 35.578L262.554 35.76C263.048 36.982 263.568 39.296 263.854 41.428L264.036 41.558L266.584 40.622L266.688 40.388C266.298 38.438 265.622 36.28 265.076 35.006L264.842 34.902L262.684 35.578ZM267.676 31.938L267.546 32.198C268.482 33.524 269.444 35.344 270.068 37.008L270.25 37.138L273.136 35.682L273.266 35.474C272.512 33.654 271.576 32.016 270.51 30.768L270.198 30.664L267.676 31.938ZM281.612 34.512L283.9 37.06L284.16 37.034C285.772 35.318 287.54 33.654 288.684 32.822C289.594 32.172 290.608 31.912 291.648 31.912C292.428 31.912 292.818 32.25 292.948 32.9C292.376 33.16 291.856 33.42 291.388 33.68C288.97 35.058 286.864 36.8 286.864 39.296C286.864 41.532 288.242 43.742 293.494 43.742C296.536 43.742 298.72 43.612 301.19 43.404L301.346 43.196L301.112 39.738L300.852 39.582C298.564 39.92 295.964 40.154 294.066 40.128C291.752 40.102 290.712 39.868 290.712 38.984C290.712 38.1 291.596 37.372 293.182 36.618C293.182 37.216 293.182 37.996 293.182 38.75L293.39 38.906L296.822 38.776L297.004 38.62C296.978 37.372 296.952 36.098 296.9 35.084C298.824 34.382 301.06 33.706 303.686 33.03L303.816 32.796L302.204 29.598L301.944 29.494C299.916 30.17 298.07 30.82 296.432 31.444C296.042 29.962 294.872 28.948 293.26 28.948C292.22 28.948 291.596 29.052 290.816 29.286C291.336 28.662 291.908 27.856 292.324 27.232C294.482 26.972 296.614 26.634 298.512 26.244L298.668 26.01L298.408 22.942L298.174 22.812C296.874 23.124 295.574 23.358 294.274 23.566C294.56 22.812 294.872 22.032 295.184 21.122L295.028 20.94L291.466 20.42L291.258 20.55C290.894 21.824 290.504 22.968 290.036 24.034C288.112 24.164 286.188 24.216 284.238 24.216L284.056 24.372L284.16 27.57L284.316 27.726C285.538 27.726 286.838 27.7 288.086 27.596C286.578 29.858 284.524 31.86 281.612 34.226V34.512ZM314.97 44.106C315.1 44.184 315.23 44.236 315.386 44.236C315.49 44.236 315.62 44.236 315.75 44.184C315.828 44.158 315.906 44.132 316.01 44.106C318.48 43.3 320.716 41.87 321.99 39.582C322.718 38.256 323.082 37.008 323.082 35.318C323.082 34.33 322.848 33.134 322.51 32.146C322.432 30.378 322.432 28.87 322.432 27.44C324.954 27.336 327.554 27.31 330.128 27.31L330.336 27.128V23.878L330.128 23.696C327.658 23.722 325.058 23.826 322.458 23.93C322.484 22.942 322.51 21.876 322.536 20.68L322.328 20.472H318.74L318.584 20.654C318.584 21.876 318.584 23.046 318.584 24.164C315.1 24.346 311.408 24.606 307.794 24.866L307.612 25.1L307.872 28.376L308.08 28.532C311.746 28.116 315.256 27.804 318.584 27.622C318.61 28.246 318.61 28.74 318.61 29.312C318.376 29.26 318.116 29.182 317.31 29.182C315.022 29.182 312.63 31.964 312.63 35.058C312.63 36.904 313.93 38.152 316.322 38.152C317.752 38.152 318.48 37.892 318.818 37.554C318.142 39.166 315.776 40.804 312.006 41.584L314.97 44.106ZM318.714 33.264C318.662 34.46 317.908 34.902 316.842 34.902C316.166 34.902 316.01 34.668 316.01 34.174C316.01 33.368 316.868 32.25 317.596 32.25C318.116 32.25 318.532 32.536 318.714 33.264ZM338.318 26.79C340.71 26.114 342.998 25.568 344.974 25.152C341.516 28.584 338.24 32.172 334.652 36.28L334.678 36.566L337.46 38.802L337.72 38.776C340.476 35.214 343.154 32.77 346.872 32.77C349.03 32.77 350.408 34.226 350.408 36.046C350.408 37.866 349.94 39.088 348.406 39.816C347.704 37.996 346.222 35.968 343.128 35.968C341.022 35.968 339.15 37.892 339.15 39.582C339.15 42.546 341.75 43.82 344.818 43.82C350.824 43.82 354.386 41.142 354.386 36.41C354.386 32.38 351.76 29.702 347.834 29.702C346.742 29.702 345.832 29.754 344.584 30.378C346.742 28.246 348.198 26.92 350.304 24.84C350.694 24.45 350.772 23.956 350.772 23.488C350.772 22.24 349.68 21.226 348.38 21.226C345.546 21.59 341.542 22.214 337.59 23.098L337.434 23.332L338.11 26.66L338.318 26.79ZM345.156 40.648C344.948 40.7 344.688 40.726 344.324 40.726C342.998 40.726 342.4 40.232 342.4 39.686C342.4 39.218 342.868 39.01 343.388 39.01C344.012 39.01 344.896 39.53 345.156 40.648ZM373.028 21.746H368.946V35.656H373.028V21.746ZM371 37.762C369.622 37.762 368.478 38.906 368.478 40.284C368.478 41.662 369.622 42.78 371 42.78C372.352 42.78 373.496 41.662 373.496 40.284C373.496 38.906 372.352 37.762 371 37.762Z" fill="white"/>
</g>
<path fill-rule="evenodd" clip-rule="evenodd" d="M45 11.8035C57.6816 11.8035 68 20.0145 68 30.109C68 34.1497 66.4044 37.7871 63.0694 41.371C58.2451 46.8186 47.4552 53.4534 45 54.4685C42.6138 55.4554 42.8897 53.913 42.999 53.304L43.0076 53.2532L43.3354 51.3217C43.413 50.7465 43.4935 49.8527 43.2606 49.2831C43.0019 48.6543 41.9841 48.3272 41.2366 48.1693C30.1823 46.7397 22 39.1575 22 30.109C22 20.0145 32.3213 11.8035 45 11.8035ZM36.4382 33.4758H32.0539V25.6708C32.0539 25.5546 32.007 25.4432 31.9235 25.3608C31.84 25.2783 31.7267 25.2317 31.6082 25.2309H29.9925C29.9336 25.2309 29.8753 25.2423 29.8209 25.2644C29.7665 25.2865 29.717 25.3189 29.6754 25.3598C29.6337 25.4006 29.6007 25.4491 29.5781 25.5025C29.5556 25.5558 29.544 25.613 29.544 25.6708V35.5003C29.544 35.6159 29.5929 35.7259 29.6705 35.802V35.8049L29.6763 35.8105L29.682 35.8161C29.7654 35.8948 29.8768 35.9383 29.9925 35.9374H36.4382C36.6855 35.9374 36.8839 35.74 36.8839 35.4975V33.9185C36.8843 33.8607 36.873 33.8034 36.8508 33.7499C36.8286 33.6964 36.7959 33.6477 36.7545 33.6066C36.7132 33.5655 36.6639 33.5328 36.6097 33.5103C36.5554 33.4879 36.4971 33.4761 36.4382 33.4758ZM38.7124 25.2309H40.3281C40.5754 25.2309 40.7738 25.4283 40.7738 25.6708V35.5003C40.7738 35.7428 40.5725 35.9374 40.3281 35.9374H38.7124C38.5939 35.9374 38.4803 35.8914 38.3962 35.8095C38.3122 35.7277 38.2646 35.6165 38.2639 35.5003V25.6708C38.2639 25.4283 38.4651 25.2309 38.7124 25.2309ZM49.8185 25.2309H51.4285C51.6786 25.2309 51.8799 25.4283 51.8799 25.6708V35.5003C51.8799 35.7428 51.6786 35.9374 51.4314 35.9374H49.8185C49.7797 35.9376 49.741 35.9329 49.7035 35.9233H49.6978C49.6871 35.9199 49.6765 35.9161 49.6661 35.912L49.6518 35.9064L49.6316 35.8979C49.6237 35.8947 49.616 35.8909 49.6086 35.8866L49.6 35.8838L49.5713 35.8669L49.5684 35.8641C49.5235 35.8346 49.4846 35.7973 49.4534 35.7541L44.8534 29.6635V35.5003C44.8538 35.558 44.8425 35.6151 44.8203 35.6684C44.7981 35.7218 44.7653 35.7703 44.7239 35.8112C44.6825 35.8521 44.6332 35.8845 44.579 35.9067C44.5247 35.9288 44.4665 35.9402 44.4078 35.9402H42.7949C42.6764 35.9402 42.5628 35.8942 42.4788 35.8124C42.3947 35.7305 42.3471 35.6193 42.3464 35.5031V25.6708C42.3464 25.4283 42.5476 25.2309 42.7949 25.2309H44.425L44.4394 25.2338H44.4566L44.4653 25.2366H44.4825L44.5112 25.245H44.517L44.5228 25.2479L44.5515 25.2563L44.5659 25.2619C44.5747 25.2652 44.5833 25.269 44.5917 25.2732L44.6004 25.276L44.6061 25.2789C44.6191 25.2856 44.6316 25.2931 44.6435 25.3014L44.6521 25.3071L44.6665 25.3155V25.3183C44.6722 25.3183 44.6751 25.324 44.678 25.3268C44.686 25.332 44.6937 25.3377 44.701 25.3437L44.7096 25.3522C44.7342 25.3743 44.7563 25.3989 44.7757 25.4255L49.37 31.5132V25.6708C49.37 25.4283 49.5712 25.2309 49.8185 25.2309ZM60.7866 27.2527C60.7866 27.4952 60.5854 27.6925 60.341 27.6925H55.9538V29.3562H60.3381C60.5854 29.3562 60.7837 29.5536 60.7837 29.7932V31.3751C60.7837 31.6176 60.5825 31.815 60.3381 31.815H55.9538V33.4786H60.3381C60.5854 33.4786 60.7837 33.676 60.7837 33.9156V35.4975C60.7837 35.74 60.5825 35.9374 60.3381 35.9374H53.8924C53.8337 35.9377 53.7756 35.9266 53.7214 35.9048C53.6671 35.8831 53.6177 35.851 53.5761 35.8105L53.5704 35.802C53.4901 35.7212 53.4448 35.6131 53.4439 35.5003V25.6708C53.4439 25.5524 53.4927 25.4452 53.5675 25.3691L53.5761 25.3606L53.579 25.3578C53.6623 25.2767 53.775 25.2311 53.8924 25.2309H60.3381C60.5854 25.2309 60.7837 25.4283 60.7837 25.6708V27.2527H60.7866Z" fill="white"/>
<defs>
<filter id="filter0_d_197_1933" x="0" y="0" width="423" height="70" filterUnits="userSpaceOnUse" color-interpolation-filters="sRGB">
<feFlood flood-opacity="0" result="BackgroundImageFix"/>
<feColorMatrix in="SourceAlpha" type="matrix" values="0 0 0 0 0 0 0 0 0 0 0 0 0 0 0 0 0 0 127 0" result="hardAlpha"/>
<feOffset dy="4"/>
<feComposite in2="hardAlpha" operator="out"/>
<feColorMatrix type="matrix" values="0 0 0 0 0.0447917 0 0 0 0 0.5375 0 0 0 0 0.245957 0 0 0 1 0"/>
<feBlend mode="normal" in2="BackgroundImageFix" result="effect1_dropShadow_197_1933"/>
<feBlend mode="normal" in="SourceGraphic" in2="effect1_dropShadow_197_1933" result="shape"/>
</filter>
<filter id="filter1_d_197_1933" x="95.2861" y="18.51" width="281.21" height="31.0901" filterUnits="userSpaceOnUse" color-interpolation-filters="sRGB">
<feFlood flood-opacity="0" result="BackgroundImageFix"/>
<feColorMatrix in="SourceAlpha" type="matrix" values="0 0 0 0 0 0 0 0 0 0 0 0 0 0 0 0 0 0 127 0" result="hardAlpha"/>
<feOffset dy="2"/>
<feGaussianBlur stdDeviation="1.5"/>
<feComposite in2="hardAlpha" operator="out"/>
<feColorMatrix type="matrix" values="0 0 0 0 0 0 0 0 0 0 0 0 0 0 0 0 0 0 0.25 0"/>
<feBlend mode="normal" in2="BackgroundImageFix" result="effect1_dropShadow_197_1933"/>
<feBlend mode="normal" in="SourceGraphic" in2="effect1_dropShadow_197_1933" result="shape"/>
</filter>
<linearGradient id="paint0_linear_197_1933" x1="211.5" y1="30.7998" x2="211.5" y2="65.9998" gradientUnits="userSpaceOnUse">
<stop stop-color="#07A848"/>
<stop offset="1" stop-color="#07B54E"/>
</linearGradient>
</defs>
</svg>
