<svg width="190" height="55" viewBox="0 0 190 55" fill="none" xmlns="http://www.w3.org/2000/svg">
<path d="M12.775 10.45C11.225 12.775 9.35 14.85 7.025 16.425V14.325L7.1 10.575L6.925 10.4L3.65 10.475H3.175L0.925 10.4L0.775 10.55V13.4L0.95 13.55L3.175 13.475H3.675V18.85C2.575 19.475 1.625 20.025 0.4 20.8L0.325 21.025L2.1 23.95L2.325 24.05C3.4 23.1 4.375 22.175 5.325 21.4C6.8 23.25 8.825 23.75 11 23.9C12.575 24.025 14.6 24.075 16.8 24.075C18.725 24.075 20.825 24.025 22.9 23.95C23.175 23.95 23.25 23.95 23.35 23.7L24.75 20.45C20.45 20.775 15.3 21 12.2 20.875C9.725 20.775 7.875 20.4 7.025 18.875V17.15L8.45 18.725C8.625 18.9 8.775 19.025 8.975 19.025C9.075 19.025 9.2 18.975 9.325 18.875C11.225 17.4 12.8 15.775 13.975 13.9L13.8 20.275H17.425L17.225 13.65C18.475 15.45 20.025 17.05 21.95 18.55C22.075 18.65 22.175 18.7 22.3 18.7C22.45 18.7 22.625 18.575 22.75 18.4L24.65 15.95C22.2 14.5 19.975 12.65 18.15 10.45H20.55L23.85 10.525L24 10.4V7.675L23.85 7.55L20.55 7.625H17.25V1.025L17.1 0.899999H14.075L13.95 1.025V7.625H10.825L7.525 7.55L7.375 7.7V10.375L7.55 10.525L10.825 10.45H12.775ZM7.45 4.875L7.475 4.6C6.2 3.275 5.075 2.225 3.65 1.275L3.4 1.325L1.25 3.15L1.225 3.35C2.725 4.5 3.725 5.525 4.775 6.9H5.125L7.45 4.875ZM20.175 7.175C20.3 7.25 20.375 7.3 20.475 7.3C20.575 7.3 20.65 7.225 20.75 7.1C21.4 6.3 22.4 4.8 23.05 3.55L22.95 3.325L20.2 2.025L19.95 2.1C19.5 3.325 18.675 4.825 17.95 5.85L20.175 7.175ZM8.3 3.425L8.25 3.675C9 4.6 9.825 6.025 10.375 7.15L10.6 7.225L13.125 5.75L13.225 5.525C12.55 4.35 11.675 3.125 10.85 2.225L10.575 2.2L8.3 3.425ZM28.425 14.325L29.8 17.075L30.05 17.1C35.425 14.325 37.55 13.575 39.55 13.575C41.225 13.575 42.2 14.35 42.2 15.85C42.2 17.525 41.5 18.6 39.75 19.325C38.25 19.95 36.9 20.2 33.775 20.375L35.4 23.125C35.575 23.4 35.675 23.5 36 23.5C36.1 23.5 36.225 23.5 36.4 23.475C38.875 23.175 41.075 22.525 42.025 22.1C44.475 21 45.875 18.925 45.875 16.25C45.875 12.775 43.525 10.4 39.7 10.4C37.3 10.4 34.525 11.3 28.475 14.075L28.425 14.325ZM52.725 22.775L56.125 23.525L56.35 23.425C57.625 18.3 58.85 13.725 60.175 9.1C61.575 8.875 63 8.625 64.35 8.375L64.525 8.175L64.3 5.05L64.1 4.95C63.175 5.15 62.175 5.35 61.175 5.525C61.45 4.525 61.775 3.4 62.1 2.375L61.925 2.15L58.5 1.625L58.275 1.75C57.875 3.225 57.475 4.7 57.1 6.1C55.575 6.3 53.95 6.475 52.1 6.625L51.925 6.825L52.175 9.85L52.375 10.025C53.625 9.95 54.875 9.825 56.15 9.675C55.025 13.775 53.9 17.825 52.625 22.575L52.725 22.775ZM60.975 20.575C62.425 22.325 63.825 23.35 68.2 23.35C70.25 23.35 71.375 23.275 72.925 23.075L73.075 22.875V19.375L72.875 19.275C71.5 19.55 69.85 19.675 68.325 19.675C65.475 19.675 64.3 19.325 63.05 17.975L62.8 18L60.975 20.3V20.575ZM63.5 12.9C64.625 12.825 65.675 12.775 66.7 12.775C68.475 12.775 70.125 12.875 71.825 13.025L72.05 12.875L72.3 9.775L72.125 9.575C70.7 9.375 69.075 9.275 67.375 9.275C66.2 9.275 64.975 9.325 63.725 9.425L63.55 9.65L63.325 12.725L63.5 12.9ZM82.825 4.425C85 5.05 86.675 5.8 88.7 6.925L88.95 6.875L90.65 3.95L90.6 3.7C88.35 2.525 86.5 1.9 84.55 1.375L84.3 1.5L82.75 4.225L82.825 4.425ZM80.625 7.55C79.875 11.125 79.425 14.725 79.475 18.175L79.65 18.4L82.7 18.675L82.95 18.55C84.975 15 87.75 13.75 90 13.75C92.075 13.75 92.6 14.85 92.6 16.35C92.6 18.75 88.875 20.075 82.175 20.275L84.25 23.325C84.45 23.625 84.6 23.65 85.05 23.65C92.025 23.275 96.75 21.175 96.75 16.3C96.75 13.15 94.475 10.55 90.3 10.55C87.575 10.55 85.05 11.625 83.15 13.6C83.375 11.725 83.65 10.1 84.15 8.275L84 8.05L80.875 7.45L80.625 7.55ZM104.85 10.225L104.375 13.15L104.525 13.35C106.725 13.575 108.925 13.625 111.275 13.475C111.3 14.225 111.35 15 111.4 15.75C107.6 15.575 103.975 16.4 103.975 19.8C103.975 22.725 106.775 23.8 109.15 23.8C112.65 23.8 114.825 22.75 114.975 20.05C116.15 20.7 118.1 22.175 119.525 23.525H119.8L122 20.875V20.625C119.65 18.8 117.55 17.425 115.025 16.4C114.95 15.35 114.9 14.25 114.85 13.075C116.5 12.825 118.175 12.475 119.875 12L120 11.775L119.6 8.95L119.375 8.8C117.9 9.225 116.35 9.575 114.75 9.825C114.7 9.025 114.7 8.25 114.7 7.45C116.1 7.25 117.5 6.95 118.85 6.6L119.025 6.4L118.7 3.8L118.5 3.6C117.35 3.875 116.075 4.1 114.7 4.3C114.725 3.375 114.75 2.375 114.775 1.4L114.6 1.2H111.225L111.05 1.4C111.025 2.55 111.025 3.6 111.025 4.625C109.2 4.725 107.375 4.7 105.65 4.6L105.45 4.75L105.375 7.525L105.55 7.75C107.4 7.875 109.2 7.9 111.05 7.8C111.125 8.6 111.075 9.4 111.125 10.2C109.025 10.325 106.975 10.275 105.025 10.05L104.85 10.225ZM111.3 18.875C111.4 20 110.9 20.625 109.5 20.625C107.875 20.625 107.35 20.175 107.35 19.575C107.35 19.125 108.2 18.575 109.5 18.575C110.375 18.575 110.75 18.65 111.3 18.875ZM146.975 3.95L147.05 3.725C146.45 2.625 145.8 1.725 145.025 0.824998L144.775 0.799999L143.425 1.525L143.375 1.75C144.1 2.6 144.775 3.55 145.275 4.45C143.825 4.5 142.325 4.575 140.825 4.625C140.85 3.675 140.875 2.65 140.9 1.5L140.7 1.3H137.25L137.1 1.475C137.1 2.65 137.1 3.775 137.1 4.85C133.75 5.025 130.2 5.275 126.725 5.525L126.55 5.75L126.8 8.9L127 9.05C130.525 8.65 133.9 8.35 137.1 8.175C137.125 8.775 137.125 9.25 137.125 9.8C136.9 9.75 136.65 9.675 135.875 9.675C133.675 9.675 131.375 12.35 131.375 15.325C131.375 17.1 132.625 18.3 134.925 18.3C136.3 18.3 137 18.05 137.325 17.725C136.675 19.275 134.4 20.85 130.775 21.6L133.625 24.025C133.75 24.1 133.875 24.15 134.025 24.15C134.125 24.15 134.25 24.15 134.375 24.1C136.85 23.35 139.1 21.95 140.375 19.675C141.075 18.4 141.425 17.1 141.425 15.625C141.425 14.625 141.2 13.475 140.875 12.525C140.8 10.825 140.8 9.375 140.8 8C143.225 7.9 145.725 7.875 148.2 7.875L148.4 7.7V4.575L148.2 4.4C147.525 4.4 146.825 4.425 146.15 4.45L146.975 3.95ZM137.225 13.6C137.175 14.75 136.45 15.175 135.425 15.175C134.775 15.175 134.625 14.95 134.625 14.475C134.625 13.7 135.45 12.625 136.15 12.625C136.65 12.625 137.05 12.9 137.225 13.6ZM146.325 0.999999C147.175 2 147.65 2.7 148.25 3.825L148.5 3.875L149.85 3.125L149.925 2.875C149.325 1.775 148.75 0.974999 147.95 0.0749992L147.7 0.0499995L146.4 0.774999H146.375L146.325 0.999999ZM171.975 22.05L173.925 19.45L173.95 19.175C172.725 17.975 171.325 16.9 169.35 16.075C169.225 14.2 169.125 12.075 169.1 9.825C170.425 9.7 171.65 9.525 172.675 9.35L172.825 9.15L172.375 6.125L172.125 6C171.15 6.15 170.1 6.3 169.075 6.425C169.075 5.225 169.1 3.975 169.1 2.7L168.9 2.5H165.6L165.4 2.725C165.4 4.125 165.4 5.5 165.45 6.75C163.75 6.85 162.025 6.9 160.2 6.9L160.025 7.05L160.1 10.1L160.275 10.3C161.975 10.275 163.8 10.225 165.525 10.1C165.575 11.95 165.625 13.625 165.7 15.2C165.1 15.125 164.85 15.075 164.125 15.1C161.85 15.1 159.35 16.325 159.35 19.075C159.35 21.85 161.75 22.975 164.35 22.975C167 22.975 168.725 22 169.175 19.65C169.95 20.225 170.825 21.075 171.7 22.1L171.975 22.05ZM165.65 18.175C165.725 19.25 165.45 19.725 164.1 19.725C162.9 19.725 162.525 19.3 162.525 18.875C162.525 18.35 163.05 17.95 164.05 17.95C164.825 17.925 165.2 18.025 165.65 18.175ZM154 2.625C153.975 4.15 153.675 5.875 153.275 7.725C152.65 10.55 152.375 14.075 152.375 16.5C152.375 19.35 153 21.325 153.8 22.425C154.25 23 154.975 23.525 155.775 23.525C156.7 23.5 157.375 22.95 157.425 21.85C157.55 20.15 157.75 19.125 158.725 16.35L157.975 15.95C157.6 16.525 157.225 17.025 156.725 17.525C156.25 18 156.1 17.95 155.975 17.45C155.85 16.9 155.825 16.4 155.825 15.9C155.825 13.925 156.175 11.1 156.75 8.85C157.4 6.25 157.675 4.675 157.725 3.2L157.575 2.975L154.175 2.5L154 2.625ZM86.55 35.575V38.675L86.725 38.9C87.525 38.95 88.3 38.95 89.1 38.95C91.825 38.95 94.45 38.725 96.325 38.325L96.475 38.125L96.325 34.975L96.15 34.825C93.65 35.25 91.475 35.425 89.1 35.425C88.325 35.425 87.525 35.4 86.7 35.375L86.55 35.575ZM97.725 51.125L97.5 47.775L97.275 47.625C95.55 47.975 93.425 48.15 92.6 48.15C89.25 48.175 88.275 47.425 87.8 45.075L87.575 45L84.9 46.225L84.775 46.45C85.375 49.225 86.7 51.75 91.725 51.75C94.1 51.75 95.9 51.6 97.6 51.35L97.725 51.125ZM79.325 33C79.3 34.475 79.05 35.8 78.675 37.45C78.1 39.75 77.575 42.8 77.575 45.05C77.575 48.65 78.275 50.675 78.825 51.6C79.4 52.6 80 53.15 81 53.125C82.15 53.1 82.7 52.4 82.725 51.275C82.775 49.7 83.15 48.125 83.9 46L83.175 45.625C82.825 46.125 82.3 46.8 81.9 47.25C81.525 47.625 81.275 47.6 81.2 47.275C81.075 46.725 81.05 46.075 81.05 44.75C81.05 43.1 81.4 41.025 81.975 38.95C82.725 36.4 83.05 34.975 83.125 33.525L82.975 33.325L79.525 32.85L79.325 33ZM151 43.25L153.4 46.125L153.625 46.15C155.825 44.075 157.525 42.25 158.9 40.75C159.325 40.275 159.625 40.1 160.025 40.1C160.375 40.1 160.75 40.375 161.3 40.925C163.825 43.45 167.15 46.425 171.725 49.325L172 49.3L174.2 46.025L174.175 45.75C169.55 42.95 165.95 40.275 163 37.375C161.825 36.2 160.975 35.675 159.8 35.675C158.725 35.675 157.7 36.4 156.725 37.475C155.125 39.225 153.3 41.025 151.025 42.975L151 43.25ZM189.45 32.525H185.525V45.9H189.45V32.525ZM187.5 47.925C186.175 47.925 185.075 49.025 185.075 50.35C185.075 51.675 186.175 52.75 187.5 52.75C188.8 52.75 189.9 51.675 189.9 50.35C189.9 49.025 188.8 47.925 187.5 47.925Z" fill="#292415"/>
<path d="M7.4 43.2C4.575 44.6 2.075 47.175 2.075 48.7C2.075 51.175 6.7 53.35 8.325 53.35C10.225 53.35 11 52.4 11 51.025V45.425C12.775 44.55 14.225 44.075 15.775 44.075C17.5 44.075 18.475 44.975 18.475 46.25C18.475 47.7 17.375 48.475 15.925 48.525C15.05 48.55 14.05 48.225 13.2 47.825L12.425 50.85C12.375 51 12.4 51.2 12.55 51.3C13.55 51.925 14.65 52.15 16.125 52.15C19.825 52.15 22.425 50.1 22.425 46.275C22.425 43.45 20.3 40.875 16.2 40.875C14.425 40.875 12.525 41.4 10.95 41.975L10.975 39.55C12.075 39.35 13.2 39.075 14.325 38.825L14.5 38.625L14.175 35.6L13.975 35.475C13 35.75 12.075 36 11.025 36.225L11.075 32.4L10.9 32.25H7.65L7.45 32.425L7.425 36.8C5.85 37.025 4.2 37.15 2.475 37.225L2.3 37.4L2.45 40.425L2.625 40.575C4.275 40.5 5.85 40.35 7.425 40.125L7.4 43.2ZM7.475 49.125C7.475 49.475 7.4 49.6 7.175 49.6C6.775 49.6 5.65 49 5.65 48.525C5.65 48.175 6.375 47.475 7.475 46.825V49.125ZM16.625 37.3C19.025 38.1 20.65 39.225 22.275 40.85L22.55 40.775L24.425 38.125L24.4 37.85C22.85 36.225 20.75 35.125 18.6 34.425L18.325 34.475L16.55 37.1L16.625 37.3ZM37.85 43.225H41.525C41.475 45.075 41.65 47.15 42.075 49.025C42.95 52.95 44.55 54.175 46.45 54.175C48.225 54.175 49.35 53 49.625 49.125C49.65 48.825 49.65 48.75 49.325 48.475L47.35 46.85C47.225 49.65 46.825 50.125 46.525 50.125C46.2 50.125 45.975 49.875 45.7 48.875C45.15 46.825 45 45.375 45 43.125L45.075 40.425L44.9 40.25L42.075 40.325H30.775L27.225 40.25L27.075 40.4V43.15L27.25 43.3L30.775 43.225H37.125C36.75 43.85 36.375 44.45 35.925 45.025C35.575 45.475 35.2 45.9 34.8 46.325C33.4 45.375 31.95 44.475 30.575 43.725L30.325 43.75L28.575 45.65V45.9C29.8 46.6 31.1 47.475 32.375 48.45C30.525 49.8 28.375 50.825 25.975 51.55L27.85 53.925C28 54.1 28.15 54.225 28.35 54.225C28.425 54.225 28.5 54.2 28.6 54.175C30.7 53.425 32.925 52.175 35 50.525C36.35 51.65 37.6 52.775 38.65 53.825H38.9L41.125 51.5L41.15 51.25C40.05 50.275 38.8 49.25 37.475 48.25C38.475 47.175 39.4 46.025 40.2 44.75L40.15 44.5L37.85 43.225ZM33.55 32.9C33.8 32.5 34.05 32.1 34.275 31.7L34.225 31.425L31.225 30.35L31 30.4C29.65 33.1 27.7 35.375 25.9 36.875L28.225 38.575C28.35 38.675 28.475 38.725 28.6 38.725C28.725 38.725 28.875 38.675 29.025 38.525C29.525 38.05 30.05 37.525 30.575 36.925V39.275L30.75 39.425L34.025 39.35H41.725L45.025 39.425L45.175 39.3V36.8L45.025 36.675L41.725 36.75H34.025L30.775 36.675C31.025 36.4 31.275 36.1 31.5 35.8H44.35L47.65 35.875L47.8 35.75V32.95L47.65 32.825L44.35 32.9H33.55ZM66.075 50.425H64.5L61.85 50.375V47.8L61.675 47.625L59.05 47.7H57.9V46.575H58.325L61.225 46.65L61.35 46.45L61.325 43.775V41.85L62.675 43.6C62.825 43.8 62.9 43.875 63.025 43.875C63.075 43.875 63.15 43.85 63.275 43.8C64.8 43.25 66.4 42.375 67.925 41.175C69.3 42.125 70.825 42.875 72.5 43.425C72.625 43.475 72.7 43.475 72.8 43.475C72.975 43.475 73.075 43.4 73.2 43.2L74.875 40.575C73.075 40.125 71.65 39.575 70.45 38.875C71.725 37.45 72.85 35.825 73.7 34.025C73.775 33.85 73.825 33.725 73.825 33.625C73.825 33.4 73.675 33.275 73.525 33.125L72.175 31.825L70.175 31.925H64.825L61.9 31.85L61.75 32V34.6L61.9 34.8L64.825 34.75H64.975L63.175 35.825V36.1C63.875 37.225 64.65 38.225 65.475 39.1C64.2 40.025 62.8 40.725 61.325 41.3V39.575L61.35 37.125L61.225 36.95L58.5 37.05H57.9V35.975H58.725L61.225 36.05L61.4 35.875V33.3L61.225 33.125L58.725 33.2H57.9V30.75L57.8 30.525H55.075L54.9 30.725V33.2H53.625L51.05 33.125L50.875 33.275V35.875L51.075 36.05L53.625 35.975H54.9V37.05H54.375L51.7 36.95L51.5 37.125L51.575 39.575V43.775L51.45 46.475L51.6 46.65L54.525 46.575H54.85V47.7H53.5L50.8 47.625L50.625 47.775V50.375L50.825 50.55L53.5 50.475H54.825L54.75 54.35H58L57.925 50.475H59.05L60.45 50.525V53.375L60.6 53.55L64.5 53.475H70.775L74.425 53.55L74.575 53.375V50.525L74.425 50.35L70.775 50.425H69.425V48.125H69.65L73.275 48.2L73.45 48.025V45.225L73.275 45.05L69.65 45.125H69.425V42.575L69.25 42.4H66.25L66.075 42.575V45.125H65.95L62.325 45.05L62.15 45.225V48.025L62.325 48.2L65.95 48.125H66.075V50.425ZM55.125 40.7H54.05V39.3H55.125V40.7ZM55.125 42.825V44.325H54.05V42.825H55.125ZM57.675 40.7V39.3H58.725V40.7H57.675ZM57.675 42.825H58.725V44.325H57.675V42.825ZM69.4 34.75C69.025 35.475 68.525 36.2 67.9 36.9C67.25 36.225 66.675 35.5 66.1 34.75H69.4ZM106.3 37.5C106.975 35.725 107.6 33.75 108.175 31.45L108.05 31.225L104.925 30.55L104.7 30.675C103.925 35.075 102.4 38.975 100.45 42.35L101.375 45.8C101.425 45.975 101.525 46.075 101.65 46.075C101.75 46.075 101.875 46 101.975 45.825C102.35 45.2 102.6 44.75 102.925 44V46.775L102.8 54.5H106.3V47.7L107.85 49.65C107.95 49.775 108.05 49.85 108.175 49.85C108.275 49.85 108.4 49.8 108.55 49.65C109.15 49.05 109.7 48.4 110.25 47.7V49.85L110.425 50L113.275 49.925H113.5L113.4 54.5H117.025L116.925 49.925H117.2L119.95 50L120.075 49.875V47.525C120.55 48.15 121.05 48.775 121.575 49.4C121.725 49.575 121.875 49.675 122.025 49.675C122.15 49.675 122.25 49.6 122.35 49.475L124.55 46.525C121.625 44.225 119.6 41.6 118.05 38.525H119.7L123.75 38.6L123.9 38.425V35.55L123.75 35.375L119.7 35.45H116.925V30.725L116.75 30.55H113.7L113.525 30.725V35.45H111.375L107.35 35.375L107.175 35.55V38.425L107.35 38.6L111.375 38.525H112.55C111.725 40.025 110.85 41.525 109.8 42.9C108.775 44.275 107.6 45.575 106.3 46.7V37.5ZM117.2 47.125H116.875L116.775 41.525C117.475 43.5 118.525 45.325 119.725 47.05L117.2 47.125ZM110.75 47.05C111.9 45.525 112.875 43.825 113.675 42.05L113.55 47.125H113.275L110.75 47.05ZM144.5 39.675L146.425 39.725L146.575 39.6V38.7C146.775 38.85 146.975 39.025 147.175 39.175C147.325 39.3 147.425 39.35 147.525 39.35C147.625 39.35 147.7 39.275 147.825 39.125L149.8 36.575C147.3 35.225 145.55 33.725 144.4 32C144.5 31.8 144.575 31.6 144.675 31.4L144.6 31.175L141.6 30.45L141.375 30.525C140.275 33.25 138.225 35.575 135.85 37.175V35.7L135.625 35.55L133.55 35.625V34.325L136.375 34.4L136.575 34.25V31.7L136.35 31.55L133.55 31.625H128.975L126.525 31.55L126.35 31.75L126.425 35.375V42.675L126.35 45.85L126.525 46.025L128.725 45.95H133.525C133.525 46.625 133.525 47.2 133.5 47.7C133.375 47.3 133.225 46.925 133.05 46.575L132.85 46.475L131.825 46.85L131.725 47.05C132 47.65 132.325 48.65 132.55 49.6L132.775 49.675L133.425 49.35C133.375 50.25 133.275 50.65 133.125 50.85C132.925 51.125 132.6 51.225 131.975 51.225C131.75 51.225 130.95 51.2 130.25 51.15L131.375 53.975C131.475 54.225 131.575 54.3 131.875 54.3H132.45C134.325 54.3 135 53.925 135.475 53.4C135.675 53.175 135.825 52.85 135.975 52.35L138.075 54.275C138.175 54.375 138.25 54.45 138.325 54.45C138.4 54.45 138.5 54.4 138.65 54.3C140.475 53.125 142.225 51.6 143.25 49.5C144.2 51.325 145.775 53.05 147.375 54.25C147.5 54.35 147.6 54.4 147.7 54.4C147.775 54.4 147.875 54.325 147.975 54.175L149.8 51.45C147.775 50.3 146.45 49.05 145.4 47.475H145.625L148.475 47.55L148.675 47.325L148.6 45.125V43.05L148.675 40.95L148.5 40.775L145.55 40.85H144.5V39.675ZM141.3 39.675V40.85H140.35L137.4 40.775L137.225 40.95L137.3 43.05V45.05L137.175 47.35L137.35 47.55L140.25 47.475H140.675L140.6 47.65C139.875 49.45 137.875 50.975 136.1 51.9C136.475 50.35 136.675 47.7 136.725 43.35L136.575 43.2L134.3 43.25H133.55V41.825L135.65 41.9L135.85 41.75V39.475L135.625 39.325L133.55 39.4V38.05L135.65 38.125L135.85 37.975V37.475L137.575 39.3C137.7 39.425 137.8 39.475 137.925 39.475C138.05 39.475 138.2 39.4 138.425 39.25C138.65 39.075 138.9 38.9 139.15 38.7V39.575L139.325 39.725L141.3 39.675ZM141.25 43.1C141.225 43.8 141.2 44.525 141.15 45.225H140.125V43.1H141.25ZM145.575 43.1V45.225H144.35C144.4 44.525 144.45 43.8 144.475 43.1H145.575ZM143.625 37.275H142.1L140.75 37.25C141.5 36.475 142.175 35.65 142.775 34.775C143.4 35.675 144.1 36.475 144.9 37.25L143.625 37.275ZM129.4 41.825H130.7V43.25H129.4V41.825ZM129.4 39.4V38.05H130.7V39.4H129.4ZM129.4 35.625V34.325H130.7V35.625H129.4ZM127.925 47.3L127.825 47.1L126.05 46.8L125.85 46.95C125.725 48.575 125.475 50.05 125.15 51.55L125.225 51.75L127.025 52.175L127.225 52.05C127.475 51.1 127.7 49.8 127.85 48.1C128.05 49.1 128.175 50.15 128.275 51.15L128.45 51.3L129.9 50.975L130 50.775C129.85 49.425 129.65 48.35 129.325 47.2L129.125 47.075L127.925 47.3ZM129.875 47.125L129.8 47.35C130.1 48.2 130.325 49.15 130.55 50.375L130.75 50.5L132.05 50.05L132.15 49.85C131.9 48.75 131.55 47.625 131.225 46.925L131.025 46.8L129.875 47.125Z" fill="#F76F00"/>
</svg>
