<svg width="32" height="26" viewBox="0 0 32 26" fill="none" xmlns="http://www.w3.org/2000/svg">
<path d="M28.8 25.3576H3.2C2.35131 25.3576 1.53737 25.0237 0.937258 24.4292C0.337142 23.8348 0 23.0286 0 22.1879V3.03182C0.0358922 2.21529 0.388814 1.44405 0.985085 0.879118C1.58136 0.314185 2.37488 -0.000772201 3.2 1.4218e-06H28.8C29.6487 1.4218e-06 30.4626 0.333951 31.0627 0.928385C31.6629 1.52282 32 2.32905 32 3.1697V22.1879C32 23.0286 31.6629 23.8348 31.0627 24.4292C30.4626 25.0237 29.6487 25.3576 28.8 25.3576ZM3.2 6.13021V22.1879H28.8V6.13021L16 14.5806L3.2 6.13021ZM4.48 3.1697L16 10.777L27.52 3.1697H4.48Z" fill="#CEC6B0"/>
</svg>
