<svg width="30" height="30" viewBox="0 0 30 30" fill="none" xmlns="http://www.w3.org/2000/svg">
<circle cx="14.999" cy="15.0005" r="12.5" fill="white"/>
<path d="M28.3333 14.5828C28.3333 8.74951 23.75 1.24951 15 1.24951V27.9162C25 27.9162 28.3333 20.4162 28.3333 14.5828Z" fill="#EDEAE2"/>
<path d="M15 27C21.6 27 27 21.6 27 15C27 8.4 21.6 3 15 3C8.4 3 3 8.4 3 15C3 21.6 8.4 27 15 27ZM15 0C23.25 0 30 6.75 30 15C30 23.25 23.25 30 15 30C6.75 30 0 23.25 0 15C0 6.75 6.75 0 15 0ZM15.75 7.5V22.5H13.5V7.5H15.75Z" fill="#555555"/>
</svg>
