<svg width="30" height="30" viewBox="0 0 30 30" fill="none" xmlns="http://www.w3.org/2000/svg">
<circle cx="15.001" cy="15" r="12.5" transform="rotate(-180 15.001 15)" fill="#EDEAE2"/>
<path d="M15 3C8.37 3 3 8.37 3 15C3 21.63 8.37 27 15 27C21.63 27 27 21.63 27 15C27 8.37 21.63 3 15 3ZM15 30C6.75 30 5.90104e-07 23.25 1.31134e-06 15C2.03258e-06 6.75 6.75 -2.03258e-06 15 -1.31134e-06C23.295 -5.8617e-07 30 6.75 30 15C30 23.25 23.25 30 15 30ZM14.25 13.455L16.5 13.455L16.5 22.5L14.25 22.5L14.25 13.455Z" fill="#555555"/>
<path d="M14.2548 13.45L14.2548 15.7L23.2998 15.7L23.2998 13.45L14.2548 13.45Z" fill="#555555"/>
</svg>
