<svg width="25" height="24" viewBox="0 0 25 24" fill="none" xmlns="http://www.w3.org/2000/svg">
<path fill-rule="evenodd" clip-rule="evenodd" d="M12.5 0C19.3922 0 25 4.55 25 10.1438C25 12.3828 24.1328 14.3984 22.3203 16.3844C19.6984 19.4031 13.8344 23.0797 12.5 23.6422C11.2031 24.1891 11.3531 23.3344 11.4125 22.9969L11.4172 22.9688L11.5953 21.8984C11.6375 21.5797 11.6812 21.0844 11.5547 20.7687C11.4141 20.4203 10.8609 20.2391 10.4547 20.1516C4.44688 19.3594 0 15.1578 0 10.1438C0 4.55 5.60938 0 12.5 0ZM7.84687 12.0094H5.46406V7.68438C5.46406 7.62 5.4386 7.55824 5.39322 7.51257C5.34785 7.4669 5.28625 7.44104 5.22188 7.44063H4.34375C4.31174 7.44063 4.28004 7.44693 4.25047 7.45918C4.2209 7.47143 4.19403 7.48938 4.17139 7.51202C4.14876 7.53465 4.1308 7.56152 4.11855 7.5911C4.1063 7.62067 4.1 7.65237 4.1 7.68438V13.1313C4.1 13.1953 4.12656 13.2562 4.16875 13.2984V13.3L4.17188 13.3031L4.175 13.3062C4.22031 13.3498 4.28088 13.3739 4.34375 13.3734H7.84687C7.98125 13.3734 8.08906 13.2641 8.08906 13.1297V12.2547C8.08927 12.2227 8.08317 12.1909 8.07111 12.1613C8.05905 12.1316 8.04127 12.1047 8.01878 12.0819C7.99629 12.0591 7.96953 12.041 7.94004 12.0285C7.91054 12.0161 7.87888 12.0096 7.84687 12.0094ZM9.08281 7.44063H9.96094C10.0953 7.44063 10.2031 7.55 10.2031 7.68438V13.1313C10.2031 13.2656 10.0938 13.3734 9.96094 13.3734H9.08281C9.01844 13.3734 8.95667 13.348 8.91101 13.3026C8.86534 13.2572 8.83948 13.1956 8.83906 13.1313V7.68438C8.83906 7.55 8.94844 7.44063 9.08281 7.44063ZM15.1187 7.44063H15.9937C16.1297 7.44063 16.2391 7.55 16.2391 7.68438V13.1313C16.2391 13.2656 16.1297 13.3734 15.9953 13.3734H15.1187C15.0977 13.3736 15.0767 13.3709 15.0562 13.3656H15.0531C15.0473 13.3637 15.0416 13.3617 15.0359 13.3594L15.0281 13.3563L15.0172 13.3516C15.0129 13.3498 15.0087 13.3477 15.0047 13.3453L15 13.3438L14.9844 13.3344L14.9828 13.3328C14.9584 13.3165 14.9373 13.2958 14.9203 13.2719L12.4203 9.89688V13.1313C12.4205 13.1632 12.4144 13.1948 12.4023 13.2244C12.3902 13.254 12.3724 13.2809 12.3499 13.3035C12.3274 13.3262 12.3007 13.3441 12.2712 13.3564C12.2417 13.3687 12.2101 13.375 12.1781 13.375H11.3016C11.2372 13.375 11.1754 13.3495 11.1298 13.3042C11.0841 13.2588 11.0582 13.1972 11.0578 13.1328V7.68438C11.0578 7.55 11.1672 7.44063 11.3016 7.44063H12.1875L12.1953 7.44219H12.2047L12.2094 7.44375H12.2188L12.2344 7.44844H12.2375L12.2406 7.45L12.2562 7.45469L12.2641 7.45781C12.2689 7.45964 12.2736 7.46172 12.2781 7.46406L12.2828 7.46562L12.2859 7.46719C12.293 7.47089 12.2998 7.47507 12.3062 7.47969L12.3109 7.48281L12.3187 7.4875V7.48906C12.3219 7.48906 12.3234 7.49219 12.325 7.49375C12.3293 7.49665 12.3335 7.49978 12.3375 7.50313L12.3422 7.50781C12.3555 7.52009 12.3676 7.5337 12.3781 7.54844L14.875 10.9219V7.68438C14.875 7.55 14.9844 7.44063 15.1187 7.44063ZM21.0797 8.56094C21.0797 8.69531 20.9703 8.80469 20.8375 8.80469H18.4531V9.72656H20.8359C20.9703 9.72656 21.0781 9.83594 21.0781 9.96875V10.8453C21.0781 10.9797 20.9688 11.0891 20.8359 11.0891H18.4531V12.0109H20.8359C20.9703 12.0109 21.0781 12.1203 21.0781 12.2531V13.1297C21.0781 13.2641 20.9688 13.3734 20.8359 13.3734H17.3328C17.3009 13.3736 17.2694 13.3675 17.2399 13.3554C17.2104 13.3433 17.1836 13.3256 17.1609 13.3031L17.1578 13.2984C17.1142 13.2537 17.0895 13.1938 17.0891 13.1313V7.68438C17.0891 7.61875 17.1156 7.55937 17.1562 7.51719L17.1609 7.5125L17.1625 7.51094C17.2078 7.46598 17.269 7.44071 17.3328 7.44063H20.8359C20.9703 7.44063 21.0781 7.55 21.0781 7.68438V8.56094H21.0797Z" fill="#555555"/>
</svg>
