<svg width="23" height="23" viewBox="0 0 23 23" fill="none" xmlns="http://www.w3.org/2000/svg">
<path d="M11.4936 23C8.35203 23 7.98168 22.9834 6.75569 22.9299C5.79964 22.8985 4.85596 22.7044 3.9653 22.356C3.20312 22.0598 2.51095 21.6086 1.93274 21.031C1.35453 20.4534 0.90293 19.7621 0.606607 19.0009C0.271129 18.1083 0.0901838 17.1652 0.0715158 16.212C-9.5149e-09 14.9903 0 14.5899 0 11.477C0 8.33106 0.0166019 7.9638 0.0715158 6.74595C0.0905922 5.79402 0.271532 4.85225 0.606607 3.96086C0.90259 3.1987 1.3545 2.50656 1.93347 1.92864C2.51245 1.35072 3.20576 0.899724 3.96913 0.604458C4.86134 0.268056 5.80472 0.0868994 6.75825 0.0688622C7.97785 -1.28266e-07 8.37885 0 11.4936 0C14.6607 0 15.0247 0.0165778 16.2315 0.0688622C17.1868 0.0867153 18.1344 0.267798 19.0283 0.604458C19.7915 0.900066 20.4846 1.35118 21.0636 1.92906C21.6425 2.50693 22.0945 3.1989 22.3908 3.96086C22.7318 4.86627 22.9144 5.82269 22.9285 6.78804C23 8.0097 23 8.40885 23 11.5204C23 14.632 22.9821 15.04 22.9285 16.2477C22.9094 17.2018 22.728 18.1457 22.3921 19.0391C22.095 19.8009 21.6426 20.4926 21.0635 21.0704C20.4844 21.6482 19.7914 22.0995 19.0283 22.3955C18.1344 22.7297 17.1906 22.9107 16.2366 22.9299C15.017 23 14.6173 23 11.4936 23ZM11.4502 2.01868C8.32649 2.01868 8.00211 2.03399 6.78251 2.08882C6.05413 2.09833 5.33278 2.23247 4.64981 2.48542C4.15166 2.67608 3.69906 2.96887 3.32117 3.3449C2.94327 3.72093 2.64849 4.17185 2.4558 4.66861C2.20039 5.35723 2.0663 6.08538 2.05863 6.81992C1.99095 8.05561 1.99095 8.37952 1.99095 11.477C1.99095 14.5376 2.00244 14.9087 2.05863 16.1367C2.07013 16.8636 2.20422 17.5841 2.4558 18.2664C2.84659 19.27 3.64348 20.0632 4.65108 20.4483C5.33318 20.7028 6.05439 20.837 6.78251 20.8449C8.01871 20.9163 8.34437 20.9163 11.4502 20.9163C14.5828 20.9163 14.9072 20.901 16.1166 20.8449C16.845 20.8361 17.5665 20.7019 18.2493 20.4483C18.7448 20.2561 19.1948 19.9632 19.5708 19.588C19.9467 19.2128 20.2404 18.7636 20.4331 18.2689C20.6885 17.5803 20.8226 16.8509 20.8303 16.1163H20.8443C20.8992 14.8972 20.8992 14.572 20.8992 11.4566C20.8992 8.34126 20.8852 8.01353 20.8303 6.79569C20.8187 6.06939 20.6844 5.35026 20.4331 4.66861C20.2408 4.17324 19.9474 3.72329 19.5714 3.34741C19.1954 2.97153 18.7452 2.67797 18.2493 2.48542C17.5661 2.23037 16.8445 2.09775 16.1166 2.08882C14.8817 2.01869 14.5586 2.01868 11.4502 2.01868ZM11.4936 17.3673C10.3258 17.3681 9.18405 17.023 8.21268 16.3757C7.24132 15.7284 6.484 14.8081 6.03653 13.731C5.58905 12.6539 5.47151 11.4684 5.69878 10.3246C5.92604 9.18082 6.48791 8.13001 7.3133 7.30509C8.13869 6.48017 9.19054 5.91821 10.3358 5.69028C11.4811 5.46236 12.6683 5.5787 13.7473 6.0246C14.8264 6.4705 15.7487 7.22592 16.3978 8.19532C17.0469 9.16473 17.3934 10.3046 17.3937 11.4707C17.3916 13.0331 16.7695 14.5309 15.6637 15.6362C14.5578 16.7415 13.0583 17.3639 11.4936 17.3673ZM11.4936 7.64244C10.7359 7.64244 9.99515 7.86681 9.36511 8.28718C8.73507 8.70755 8.24402 9.30504 7.95404 10.0041C7.66407 10.7031 7.5882 11.4724 7.73603 12.2145C7.88385 12.9566 8.24874 13.6383 8.78454 14.1733C9.32035 14.7083 10.003 15.0727 10.7462 15.2203C11.4894 15.3679 12.2597 15.2921 12.9598 15.0026C13.6598 14.713 14.2582 14.2227 14.6791 13.5936C15.1001 12.9644 15.3248 12.2248 15.3248 11.4681C15.3225 10.4542 14.9181 9.4825 14.2001 8.76556C13.4821 8.04861 12.509 7.6448 11.4936 7.64244ZM17.6235 6.7332C17.4428 6.73253 17.2639 6.69631 17.0971 6.62661C16.9303 6.5569 16.7789 6.45508 16.6516 6.32695C16.3944 6.06819 16.2506 5.718 16.252 5.3534C16.2533 4.98881 16.3997 4.63969 16.6588 4.38284C16.9179 4.12599 17.2686 3.98246 17.6338 3.98381C17.9989 3.98516 18.3485 4.13129 18.6057 4.39006C18.8629 4.64882 19.0067 4.99901 19.0053 5.36361C19.004 5.7282 18.8576 6.07732 18.5985 6.33417C18.3394 6.59102 17.9887 6.73455 17.6235 6.7332Z" fill="#555555"/>
</svg>
