<svg width="30" height="31" viewBox="0 0 30 31" fill="none" xmlns="http://www.w3.org/2000/svg">
<path d="M14.9917 31C10.8939 31 10.4109 30.9777 8.81177 30.9055C7.56475 30.8632 6.33386 30.6016 5.17213 30.132C4.17798 29.7328 3.27515 29.1246 2.52097 28.3462C1.76678 27.5677 1.17774 26.6358 0.791227 25.6099C0.353647 24.4068 0.117631 23.1357 0.0932815 21.8509C-1.24107e-08 20.2043 0 19.6646 0 15.4691C0 11.2288 0.0216546 10.7338 0.0932815 9.09237C0.118164 7.80933 0.354172 6.53999 0.791227 5.33855C1.17729 4.31129 1.76674 3.3784 2.52192 2.59947C3.27711 1.82053 4.18143 1.21267 5.17712 0.814704C6.34088 0.361293 7.57137 0.117125 8.8151 0.0928142C10.4059 -1.7288e-07 10.9289 0 14.9917 0C19.1227 0 19.5974 0.022344 21.1716 0.0928142C22.4175 0.116877 23.6535 0.360945 24.8195 0.814704C25.815 1.21313 26.7191 1.82116 27.4742 2.60003C28.2293 3.37891 28.8189 4.31156 29.2054 5.33855C29.6502 6.55888 29.8884 7.84797 29.9067 9.14909C30 10.7957 30 11.3337 30 15.5275C30 19.7213 29.9767 20.2713 29.9067 21.899C29.8818 23.185 29.6453 24.4573 29.2071 25.6615C28.8196 26.6881 28.2295 27.6205 27.4741 28.3992C26.7188 29.178 25.8148 29.7862 24.8195 30.1853C23.6535 30.6356 22.4225 30.8797 21.1782 30.9055C19.5875 31 19.0661 31 14.9917 31ZM14.935 2.72084C10.8606 2.72084 10.4375 2.74146 8.84675 2.81537C7.8967 2.82819 6.9558 3.00899 6.06496 3.34991C5.41521 3.6069 4.82486 4.00152 4.33195 4.50834C3.83905 5.01516 3.45455 5.62293 3.20322 6.29247C2.87007 7.22061 2.69517 8.20204 2.68517 9.19206C2.59689 10.8576 2.59689 11.2941 2.59689 15.4691C2.59689 19.5941 2.61188 20.0943 2.68517 21.7495C2.70017 22.7292 2.87507 23.7003 3.20322 24.6199C3.71294 25.9726 4.75236 27.0416 6.06663 27.5607C6.95632 27.9038 7.89703 28.0846 8.84675 28.0953C10.4592 28.1915 10.884 28.1915 14.935 28.1915C19.0211 28.1915 19.4442 28.1709 21.0217 28.0953C21.9718 28.0834 22.9129 27.9026 23.8034 27.5607C24.4497 27.3018 25.0367 26.9069 25.5271 26.4012C26.0175 25.8955 26.4005 25.29 26.6519 24.6233C26.985 23.6952 27.1599 22.712 27.1699 21.722H27.1882C27.2599 20.0788 27.2599 19.6406 27.2599 15.4416C27.2599 11.2426 27.2415 10.8008 27.1699 9.1594C27.1548 8.18048 26.9797 7.21122 26.6519 6.29247C26.4011 5.6248 26.0183 5.01834 25.5279 4.51172C25.0375 4.0051 24.4502 3.60943 23.8034 3.34991C22.9123 3.00615 21.9711 2.8274 21.0217 2.81537C19.4109 2.72084 18.9895 2.72084 14.935 2.72084ZM14.9917 23.4081C13.4685 23.4091 11.9792 22.944 10.7122 22.0716C9.4452 21.1992 8.45739 19.9587 7.87373 18.5069C7.29007 17.0552 7.13675 15.4575 7.43319 13.9158C7.72962 12.3742 8.46249 10.9578 9.53909 9.84599C10.6157 8.73415 11.9877 7.97672 13.4815 7.66951C14.9753 7.36231 16.5239 7.51911 17.9313 8.12011C19.3387 8.7211 20.5418 9.73928 21.3884 11.0459C22.235 12.3525 22.6871 13.8888 22.6874 15.4605C22.6848 17.5663 21.8733 19.5852 20.4309 21.0749C18.9884 22.5646 17.0325 23.4036 14.9917 23.4081ZM14.9917 10.3007C14.0033 10.3007 13.0372 10.6031 12.2154 11.1697C11.3936 11.7363 10.7531 12.5416 10.3748 13.4838C9.99661 14.426 9.89765 15.4628 10.0905 16.463C10.2833 17.4632 10.7592 18.382 11.4581 19.1031C12.157 19.8243 13.0474 20.3153 14.0168 20.5143C14.9861 20.7133 15.9909 20.6112 16.904 20.2209C17.8172 19.8306 18.5976 19.1697 19.1467 18.3217C19.6958 17.4738 19.9889 16.4769 19.9889 15.457C19.9858 14.0905 19.4583 12.7808 18.5218 11.8144C17.5853 10.8481 16.3161 10.3039 14.9917 10.3007ZM22.9872 9.07518C22.7514 9.07428 22.5181 9.02546 22.3006 8.93151C22.083 8.83756 21.8856 8.70033 21.7195 8.52763C21.384 8.17887 21.1965 7.70686 21.1982 7.21546C21.2 6.72405 21.3909 6.2535 21.7289 5.90731C22.0669 5.56112 22.5243 5.36766 23.0006 5.36948C23.4768 5.37131 23.9328 5.56827 24.2683 5.91703C24.6038 6.2658 24.7913 6.7378 24.7896 7.22921C24.7878 7.72061 24.5969 8.19117 24.2589 8.53736C23.9209 8.88354 23.4635 9.07701 22.9872 9.07518Z" fill="white"/>
</svg>
