<svg width="30" height="30" viewBox="0 0 30 30" fill="none" xmlns="http://www.w3.org/2000/svg">
<circle cx="14.999" cy="15.0005" r="12.5" fill="white"/>
<path d="M14.9994 14.1663V1.66626C10.416 1.66626 -4.16732 7.91626 2.91602 20.8329C8.58268 31.1663 18.0549 28.7496 22.0827 26.2496L14.9994 14.1663Z" fill="#EDEAE2"/>
<path d="M15 27C21.6 27 27 21.6 27 15C27 8.4 21.6 3 15 3C8.4 3 3 8.4 3 15C3 21.6 8.4 27 15 27ZM15 0C23.25 0 30 6.75 30 15C30 23.25 23.25 30 15 30C6.75 30 0 23.25 0 15C0 6.75 6.75 0 15 0ZM19.95 21.3L18 22.5L13.5 14.7V7.5H15.75V14.1L19.95 21.3Z" fill="#555555"/>
</svg>
