<svg width="650" height="117" viewBox="0 0 650 117" fill="none" xmlns="http://www.w3.org/2000/svg">
<path d="M182.511 15.89H181.686L177.858 15.791L177.66 15.989V19.586L177.891 19.784L181.686 19.685H182.511V24.965C180.861 25.361 179.145 25.691 177.528 25.988L177.363 26.285L178.683 30.146L178.98 30.311C180.069 30.047 181.29 29.75 182.511 29.42V35.591C182.511 36.383 182.313 36.581 181.62 36.647C181.059 36.713 180.102 36.779 178.551 36.779L180.399 40.904C180.531 41.234 180.63 41.3 181.026 41.3C185.811 41.3 187.131 40.211 187.131 36.317L186.966 29.123V28.1C188.352 27.671 189.54 27.242 190.365 26.945C190.926 26.747 191.058 26.516 191.058 25.922L190.992 22.622C189.903 22.985 188.517 23.414 186.966 23.843V19.685L190.563 19.784L190.761 19.619V15.956L190.563 15.791L186.966 15.89V9.884L186.669 9.653H182.775L182.511 9.917V15.89ZM203.103 16.286H204.72L209.373 16.385L209.604 16.154V12.392L209.373 12.161L204.72 12.26H195.843L191.256 12.161L190.992 12.359V16.121L191.223 16.385L195.843 16.286H198.351V35.393C198.351 36.185 198.153 36.383 197.46 36.449C196.899 36.515 194.886 36.581 193.335 36.581L195.183 40.706C195.315 41.036 195.381 41.102 196.041 41.102H196.899C201.948 41.102 203.235 39.947 203.235 36.119L203.103 26.747V16.286ZM213.762 16.913L214.026 21.071L214.224 21.302C216.039 21.269 217.854 21.17 219.636 21.038C218.745 24.866 217.458 28.265 215.544 32.06L215.61 32.357L219.636 34.337L219.966 34.238C222.342 29.816 225.939 28.067 229.47 28.1C231.846 28.133 233.595 28.991 233.595 30.872C233.595 33.611 230.163 35.888 221.352 35.921L223.695 39.947C223.926 40.376 224.157 40.508 224.586 40.475C234.981 39.848 239.073 36.053 239.073 31.268C239.073 26.285 234.684 24.041 230.625 24.041C227.721 24.041 225.048 24.701 222.936 25.955C223.596 24.206 224.157 22.424 224.619 20.543C227.688 20.18 230.658 19.685 233.463 19.058L233.628 18.761L233.166 14.504L232.935 14.339C230.526 14.999 228.117 15.461 225.675 15.857C225.972 14.405 226.203 12.854 226.467 11.204L226.302 10.973L221.649 10.643L221.418 10.841C221.154 12.788 220.923 14.636 220.593 16.418C218.415 16.583 216.237 16.649 213.993 16.649L213.762 16.913ZM247.521 27.869L249.336 31.499L249.666 31.532C256.761 27.869 259.566 26.879 262.206 26.879C264.417 26.879 265.704 27.902 265.704 29.882C265.704 32.093 264.78 33.512 262.47 34.469C260.49 35.294 258.708 35.624 254.583 35.855L256.728 39.485C256.959 39.848 257.091 39.98 257.52 39.98C257.652 39.98 257.817 39.98 258.048 39.947C261.315 39.551 264.219 38.693 265.473 38.132C268.707 36.68 270.555 33.941 270.555 30.41C270.555 25.823 267.453 22.688 262.404 22.688C259.236 22.688 255.573 23.876 247.587 27.539L247.521 27.869ZM308.736 37.307C306.36 35.855 304.413 34.403 302.829 32.621C304.908 29.024 305.799 24.866 306.129 20.774L308.142 20.807L308.406 20.576V16.88L308.142 16.649L303.687 16.748H298.968C299.595 15.098 300.156 13.382 300.684 11.567L300.618 11.204L296.46 9.884L296.196 9.95C295.206 14.537 293.424 19.223 291.015 22.688V22.292L290.817 22.094L287.814 22.16H285.207V19.487H287.583L291.939 19.586L292.137 19.421V15.593L291.939 15.428L287.583 15.527H286.89V10.115L286.659 9.884H282.666L282.435 10.115V15.527H281.247L276.891 15.428L276.693 15.626V19.388L276.924 19.586L280.785 19.487V21.368C280.785 28.76 279.465 33.677 276.264 38.363L279.201 40.739C279.3 40.805 279.399 40.871 279.498 40.871C279.597 40.871 279.696 40.805 279.795 40.673C282.435 36.845 284.382 32.522 285.009 26.087H286.527C286.395 33.116 286.164 34.964 285.702 35.888C285.471 36.317 285.207 36.35 284.547 36.416C284.052 36.449 283.425 36.482 282.501 36.449L283.953 40.409C284.085 40.739 284.217 40.838 284.613 40.838H285.372C287.154 40.838 288.573 40.376 289.365 39.452C289.629 39.122 289.86 38.759 290.058 38.297L292.995 41.036C293.127 41.168 293.226 41.201 293.358 41.201C293.457 41.201 293.589 41.168 293.754 41.069C296.13 39.782 298.209 38.264 299.958 36.416C301.245 38.033 302.763 39.452 304.512 40.739C304.776 40.937 304.908 41.036 305.04 41.036C305.139 41.036 305.238 40.97 305.37 40.838L308.736 37.307ZM293.061 26.153C293.226 26.285 293.391 26.351 293.556 26.351C293.754 26.351 293.952 26.252 294.117 26.021C294.348 25.691 294.579 25.361 294.81 24.998C295.305 27.671 296.196 30.278 297.45 32.654C295.503 34.997 292.929 36.581 290.19 37.901C290.454 37.076 290.586 36.185 290.652 35.294C290.916 31.73 290.949 28.133 290.982 24.536L293.061 26.153ZM301.608 20.708C301.41 23.348 301.08 25.988 300.057 28.43C298.935 26.021 298.407 23.348 298.011 20.708H301.608ZM316.425 12.029C316.425 15.89 316.26 18.794 316.161 21.368C316.062 24.371 315.831 27.44 315.831 32.027C315.831 37.604 319.23 39.947 324.213 39.947C329.262 39.947 334.443 36.911 337.71 31.73C337.974 31.301 337.908 31.037 337.611 30.674L334.74 26.846C331.935 31.961 327.645 34.931 323.85 34.931C321.87 34.931 320.748 33.875 320.748 31.499C320.748 28.925 320.946 25.229 321.078 22.358C321.243 18.959 321.408 16.154 321.573 12.062L321.309 11.831L316.656 11.798L316.425 12.029ZM362.031 18.068H360.777L356.322 17.969L356.091 18.167L356.19 21.764V26.219L356.157 27.011C355.629 25.262 354.837 23.414 353.946 21.797L353.649 21.731L351.273 22.688L351.075 22.952C351.273 23.348 351.438 23.777 351.636 24.206C350.976 24.305 350.349 24.338 349.689 24.404C351.537 22.061 352.956 19.85 354.936 16.286L354.837 15.989L351.636 14.273L351.339 14.405C350.58 15.956 349.854 17.309 349.095 18.596C348.798 18.365 348.534 18.101 348.237 17.837C349.392 16.022 350.448 14.108 351.669 11.369L351.57 11.072L348.006 9.686L347.709 9.818C347.016 11.831 346.125 13.844 345.267 15.593C345.036 15.428 344.805 15.263 344.574 15.131H344.31L342.528 17.804V18.068C344.31 19.256 345.696 20.378 347.148 21.83C346.521 22.787 345.894 23.744 345.234 24.668C344.475 24.701 343.683 24.734 342.891 24.734L342.66 24.965L343.419 28.496L343.716 28.661C345.135 28.496 346.422 28.298 347.643 28.133V33.182L347.478 41.3H351.735L351.57 33.182V27.506L352.758 27.308C352.923 27.77 353.055 28.265 353.187 28.727L353.484 28.859L356.157 27.737L356.091 30.839L356.322 31.07L360.15 30.971C358.038 33.413 355.629 35.294 352.263 37.241L354.837 40.112C354.969 40.244 355.068 40.31 355.2 40.31C355.332 40.31 355.464 40.244 355.662 40.112C358.104 38.561 360.447 36.383 362.163 34.205L361.899 41.333H366.618L366.321 33.809C367.443 35.855 369.126 37.736 371.436 39.749C371.667 39.947 371.865 40.046 372.03 40.046C372.162 40.046 372.261 39.98 372.327 39.881L374.736 36.218C372.294 34.667 370.05 32.951 368.433 30.971H368.598L372.492 31.07L372.756 30.839L372.657 26.054V21.929L372.756 18.233L372.525 17.969L368.301 18.068H366.486V16.451H368.796L373.878 16.55L374.076 16.319V13.019L373.878 12.788L368.796 12.887H366.486V9.851L366.42 9.653H362.196L362.031 9.851V12.887H360.315L355.299 12.788L355.002 12.953V16.319L355.233 16.55L360.315 16.451H362.031V18.068ZM366.321 22.985V21.269H368.565V22.985H366.321ZM362.196 22.985H360.117V21.269H362.196V22.985ZM362.196 25.922V27.77H360.117V25.922H362.196ZM366.321 25.922H368.565V27.77H366.321V25.922ZM352.032 29.783L351.867 30.014C352.395 31.664 352.692 33.017 353.022 35.195L353.253 35.36L355.893 34.337L356.025 34.04C355.695 32.357 355.266 30.938 354.606 29.156L354.342 29.024L352.032 29.783ZM343.848 29.321L343.65 29.486C343.584 32.588 343.188 35.195 342.528 37.901L345.267 39.155C345.399 39.221 345.531 39.254 345.63 39.254C345.828 39.254 345.927 39.122 346.026 38.759C346.62 36.251 346.917 33.479 347.115 30.113L346.917 29.882L343.848 29.321ZM391.434 20.18L393.084 23.579L393.414 23.612C396.285 22.688 398.958 21.83 401.433 20.873V21.632C401.433 22.16 401.301 22.292 400.905 22.325C400.245 22.391 399.519 22.424 398.529 22.424L399.684 25.361C399.849 25.79 399.981 25.889 400.476 25.889C404.271 25.889 406.119 25.163 406.119 21.962L405.954 17.375V14.075L406.053 10.709L405.822 10.478L401.664 10.577H395.691L391.995 10.478L391.797 10.676V14.009L392.028 14.207L395.493 14.108L393.48 15.527L393.447 15.824C394.272 16.616 394.932 17.342 395.856 18.695C394.47 19.091 393.018 19.487 391.533 19.85L391.434 20.18ZM399.189 16.682L399.222 16.385C398.463 15.428 397.836 14.735 397.011 14.108H401.433V16.979C399.948 17.474 398.463 17.936 396.978 18.365L399.189 16.682ZM386.187 21.566C386.187 22.094 386.055 22.226 385.659 22.259C385.032 22.325 384.306 22.358 383.316 22.358L384.471 25.427C384.636 25.856 384.768 25.955 385.263 25.955C386.55 25.955 387.573 25.889 388.365 25.658C388.2 26.054 388.035 26.45 387.837 26.846H384.999L380.445 26.747L380.247 26.978L380.346 30.542V34.403L380.181 41.135H384.834V39.749H398.133V40.97H402.984L402.819 34.535V30.542L402.918 26.978L402.687 26.747L398.133 26.846H392.688C393.051 26.219 393.414 25.592 393.711 24.998L393.678 24.668L390.51 23.843C390.708 23.315 390.774 22.688 390.774 21.929L390.609 17.21V14.075L390.708 10.709L390.477 10.478L386.352 10.577H380.379L376.749 10.478L376.551 10.676V14.009L376.782 14.207L380.313 14.108L378.3 15.527L378.267 15.824C379.158 16.682 379.917 17.606 380.643 18.695C379.092 19.157 377.475 19.586 375.792 20.015L375.693 20.345L377.31 23.711L377.64 23.744C380.742 22.754 383.58 21.665 386.187 20.543V21.566ZM386.187 16.913C384.735 17.441 383.25 17.87 381.765 18.365L383.943 16.682L383.976 16.385C383.085 15.197 382.59 14.669 381.864 14.108H386.187V16.913ZM398.133 36.482H384.834V34.964H398.133V36.482ZM398.133 31.73H384.834V30.179H398.133V31.73ZM416.415 21.764L419.319 21.83L419.517 21.665V18.002L419.319 17.837L416.415 17.903V10.742L416.184 10.511H412.356L412.125 10.775V17.936L408.924 17.837L408.726 18.035V21.632L408.957 21.83L412.125 21.731V30.311C410.97 30.608 409.782 30.905 408.462 31.202L408.297 31.499L409.551 35.261L409.848 35.426C413.115 34.469 415.623 33.479 417.636 32.588L418.461 33.347C418.692 33.578 418.857 33.644 418.989 33.644C419.088 33.644 419.187 33.611 419.319 33.578C420.639 33.116 422.124 32.291 423.378 31.367H425.094C423.114 33.215 420.54 34.139 417.108 35.129L419.352 37.637C419.517 37.835 419.649 37.934 419.847 37.934C419.946 37.934 420.078 37.901 420.276 37.835C423.972 36.548 427.074 34.964 429.582 31.367H430.737C428.493 35.393 425.325 37.241 420.408 38.891L422.652 41.267C422.883 41.498 423.015 41.63 423.213 41.63C423.312 41.63 423.411 41.597 423.51 41.564C426.414 40.607 428.79 39.254 430.77 37.34L432.189 40.739C432.354 41.135 432.552 41.234 432.981 41.234C436.215 41.234 437.568 40.607 438.195 39.122C438.822 37.703 439.218 34.106 439.317 28.166L439.086 27.935L434.697 28.034H426.315C426.546 27.704 426.777 27.374 426.975 27.044H434.994L440.142 27.143L440.373 26.912V23.546L440.142 23.315L434.994 23.414H423.576L418.593 23.315L418.362 23.546V26.912L418.593 27.143L422.289 27.077C421.299 28.199 420.111 29.024 418.824 29.717V28.1C417.999 28.397 417.207 28.694 416.415 28.958V21.764ZM434.862 31.367C434.763 33.677 434.532 35.393 434.4 35.987C434.235 36.68 433.872 36.911 433.212 36.977C432.585 37.043 431.892 37.043 431.067 37.043C432.651 35.426 433.872 33.446 434.763 31.367H434.862ZM432.057 22.424L436.776 22.523L437.007 22.292L436.908 18.563V14.669L437.007 11.105L436.71 10.874L432.057 10.973H426.414L421.695 10.874L421.464 11.105L421.563 14.669V18.563L421.464 22.292L421.695 22.523L426.414 22.424H432.057ZM432.453 18.035V19.454H425.886V18.035H432.453ZM432.453 15.263H425.886V13.943H432.453V15.263ZM459.645 39.089C460.008 39.452 460.239 39.452 460.701 39.419C467.697 37.769 471.921 33.215 471.921 27.209C471.921 19.883 467.103 13.844 458.094 13.844C449.019 13.844 443.046 20.312 443.046 28.298C443.046 30.971 443.706 32.786 444.663 34.271C445.917 36.251 447.336 37.208 449.316 37.208C451.89 37.208 453.738 36.251 455.52 33.644C457.797 30.311 459.942 24.503 460.602 18.266C463.968 18.959 466.74 22.127 466.74 27.143C466.74 31.103 463.539 34.502 456.444 35.69L459.645 39.089ZM455.388 18.134C454.893 22.16 453.969 25.658 452.121 29.354C451.23 31.136 450.273 31.895 449.514 31.895C448.986 31.895 448.524 31.466 448.161 30.806C447.798 30.179 447.6 29.387 447.6 28.298C447.6 23.216 450.57 18.959 455.388 18.134Z" fill="#292415"/>
<path d="M12.15 63.25L11.9 70.35L12.3 70.7C15.3 71 18.55 71.15 21.35 71.15C26.95 71.15 32.25 70.75 37 69.9L37.4 69.55L37.2 62.5L36.85 62.2C31.6 62.95 26.2 63.45 21.4 63.45C18.45 63.45 15.5 63.3 12.5 63L12.15 63.25ZM6.4 87.6C7 93.2 9.7 99.25 24.65 99.25C30.2 99.25 36.25 99.1 42.1 98.45L42.4 98L41.7 90.5L41.25 90.15C35.9 90.95 30.4 91.4 25.15 91.4C16.8 91.4 14.1 90.6 13.25 85.4L12.85 85.2L6.65 87.25L6.4 87.6ZM71.55 58.75C65.15 71.35 58.85 83.9 52.7 97.7L52.85 98.25L59.55 100.7L60.05 100.5C62.2 95.1 64.15 90.75 66.15 87.2C67.8 84.25 69.75 82.05 72.25 82.05C73.9 82.05 74.45 82.7 74.45 85.3C74.45 87.95 74.2 91.2 74.2 93.4C74.2 98.35 77.1 101 82.8 101C88.55 101 93.85 97.35 98 89.55C98.45 88.65 98.4 88.4 97.9 87.7L93.45 81.75C89.8 89.55 86.25 93.05 83.15 93.05C81.9 93.05 81.7 92.1 81.75 90.65C81.8 89.2 81.9 86.25 81.85 83.15C81.8 79.1 79.15 76.05 74.25 76.05C72.85 76.05 71.8 76.35 70.35 77.15C73 72.25 75.65 67.8 78.85 61.95L78.7 61.4L72.05 58.6L71.55 58.75ZM125.35 58.4L118.65 57.25L118.2 57.55C117.75 60.3 117.1 63.05 116.3 65.85C112.9 66.2 109.35 66.45 105.55 66.55L105.2 66.9L105.35 73.05L105.75 73.35C108.5 73.3 111.15 73.15 113.75 72.9C111.25 78.95 107.85 84.75 103.65 89.8V90.25L109.55 94.05L110.05 93.95C115.05 86.9 118.85 80.3 121.85 71.95C124.05 71.65 126.25 71.2 128.4 70.75L127.15 73.6L127.4 73.95C129.8 74.1 132.25 74.3 134.2 74.65C130.05 75.9 127.5 78.2 127.4 80.9C127.3 82.85 127.75 84.45 128.5 87C127.45 86.85 127 86.75 125.25 86.75C119.9 86.75 115.9 90.05 115.9 94.75C115.9 99.95 119.9 102.55 126.4 102.55C132.05 102.55 136.45 99.9 136.6 95.85C138.7 97.25 140.3 98.65 142.45 100.6L142.9 100.55L147.1 95.15V94.65C144.3 92.35 140.35 90.05 136.2 88.25C134.75 84.65 134 82.35 134 80.8C134 78.55 136.75 77.3 139.95 77.3C141.4 77.3 142.4 77.4 144 78.15L144.4 77.95L146.45 72.4L146.3 71.9C141.75 69.6 136.45 68.45 130.85 68L129.9 63.6L129.45 63.4C127.7 63.85 125.95 64.25 124.2 64.6C124.65 62.8 125.2 60.85 125.65 58.85L125.35 58.4ZM129.7 93.45C129.75 95.45 128.1 96.45 125.25 96.45C123.45 96.45 122.35 95.65 122.35 94.45C122.35 93.6 123.35 92.55 125.05 92.55C127.3 92.55 128.55 92.8 129.7 93.45ZM321.8 98.15L326.5 94L326.6 93.55C326.3 93.2 325.95 92.85 325.65 92.35C329.2 88.8 332.05 84.3 333.95 79.15C336.65 80.1 338.4 82.25 338.4 86.1C338.4 91.75 335.45 95.35 324.7 97.15L329.15 102.25C329.4 102.55 329.6 102.55 330 102.55C339 100.9 345.85 95.85 345.85 86.35C345.85 80.95 341.55 74.95 335.55 73.85C335.65 73.45 335.75 73 335.9 72.3L335.65 71.95L329.45 70.5L329.1 70.75C329 71.5 328.8 72.25 328.65 72.75C326.85 72.75 325.05 72.9 323.25 73.2C323.35 71.8 323.45 70.55 323.5 69.85C327.9 69.3 332.15 68.6 336.7 67.7L336.95 67.25L336.65 61.05L336.15 60.85C331.95 62.05 328.05 62.8 324.1 63.35C324.3 61.75 324.45 60.2 324.65 58.65L324.4 58.2L317.7 57.95L317.35 58.35C317.25 60.25 317.1 62.15 316.95 64.05C314.1 64.25 311.3 64.3 308.8 64.3L308.45 64.65L308.55 70.5L308.85 70.85C311.55 70.8 314.1 70.7 316.55 70.5C316.45 72.2 316.35 73.55 316.3 75.25C309.75 78.7 304.5 85.3 304.5 92.8C304.5 96.9 306.75 99.95 310.65 99.95C313.6 99.95 316.85 98.8 320.05 96.8C320.5 97.35 320.85 97.7 321.35 98.15H321.8ZM316.25 82.25C316.3 85.05 316.55 87.9 317.25 90.65C315.3 91.95 313.65 92.7 312.7 92.7C311.65 92.7 311 92.2 311 91.1C311 88.4 313.25 84.7 316.25 82.25ZM323.1 85.4C322.85 83.3 322.7 80.85 322.9 78.75C324.3 78.35 325.75 78.1 327.15 78.2C326.2 80.75 324.7 83.4 323.1 85.4ZM365.65 58.65C365.2 63.2 364.7 65.95 364 69.15C363 73.55 362.1 77.6 362.1 81.45C362.1 84.45 362.85 87.75 364.1 90.15L364.6 90.35L370.9 88.85L371.15 88.35C370.5 86.65 369.85 84.45 369.85 82.15C369.85 79.5 370.1 78.05 370.9 76.05C371.85 73.55 374.25 71 376.15 71C377.75 71 378.55 71.6 379.15 73C379.85 74.6 380.1 77.5 380.1 80.6C380.1 89.65 377.35 94.45 365.6 97.35L370.75 102.4C371.1 102.7 371.35 102.85 371.7 102.85C371.95 102.85 372.25 102.75 372.65 102.65C384.45 98.65 388.25 91.55 388.25 81.2C388.25 75.65 387.45 71.55 385.3 68.55C383.1 65.55 380.9 64.6 378.05 64.6C375.25 64.6 372.75 65.9 371.05 68.45C371.6 66.6 372 65.5 372.35 64.05C372.65 62.6 372.85 61.45 373.15 59.15L372.8 58.75L366.05 58.3L365.65 58.65ZM409.7 75.45L408.75 81.3L409.05 81.7C413.45 82.15 417.85 82.25 422.55 81.95C422.6 83.45 422.7 85 422.8 86.5C415.2 86.15 407.95 87.8 407.95 94.6C407.95 100.45 413.55 102.6 418.3 102.6C425.3 102.6 429.65 100.5 429.95 95.1C432.3 96.4 436.2 99.35 439.05 102.05H439.6L444 96.75V96.25C439.3 92.6 435.1 89.85 430.05 87.8C429.9 85.7 429.8 83.5 429.7 81.15C433 80.65 436.35 79.95 439.75 79L440 78.55L439.2 72.9L438.75 72.6C435.8 73.45 432.7 74.15 429.5 74.65C429.4 73.05 429.4 71.5 429.4 69.9C432.2 69.5 435 68.9 437.7 68.2L438.05 67.8L437.4 62.6L437 62.2C434.7 62.75 432.15 63.2 429.4 63.6C429.45 61.75 429.5 59.75 429.55 57.8L429.2 57.4H422.45L422.1 57.8C422.05 60.1 422.05 62.2 422.05 64.25C418.4 64.45 414.75 64.4 411.3 64.2L410.9 64.5L410.75 70.05L411.1 70.5C414.8 70.75 418.4 70.8 422.1 70.6C422.25 72.2 422.15 73.8 422.25 75.4C418.05 75.65 413.95 75.55 410.05 75.1L409.7 75.45ZM422.6 92.75C422.8 95 421.8 96.25 419 96.25C415.75 96.25 414.7 95.35 414.7 94.15C414.7 93.25 416.4 92.15 419 92.15C420.75 92.15 421.5 92.3 422.6 92.75ZM462.2 73.95C459 74.7 455.7 75.5 452.3 76.35L452.1 76.8L453.7 82.8L454.25 82.95C457.05 82.15 459.7 81.45 462.25 80.8V90.85C462.25 97.55 465.45 100.15 476.15 100.15C483.5 100.15 487.65 99.85 492.15 99.3L492.5 98.85L492.05 92L491.65 91.65C486.6 92.35 481.55 92.9 475.9 92.9C470.1 92.9 469.45 92.3 469.45 89.15V79.05C473.05 78.35 476.7 77.6 480.3 77.05C480.2 80.25 479.95 81.7 479.65 82.25C479.4 82.7 478.95 82.95 478.05 82.95C476.85 82.95 475.6 82.8 473.35 82.3L474.4 88.45C474.45 88.85 474.6 89 475.15 89.15C476.6 89.55 478.3 89.7 479.7 89.7C482.4 89.7 484.3 88.7 485.55 87.05C486.65 85.8 487.4 83.95 487.65 75.95C490.5 75.55 493.6 75.2 496.75 74.85L497.15 74.45L496.35 68.35L495.9 68.05C493.2 68.4 490.4 68.75 487.75 69.2C487.8 65.7 487.8 62.2 487.8 59.15L487.45 58.8H480.75L480.4 59.15C480.45 62.4 480.45 66.4 480.4 70.35C476.8 70.95 473.1 71.65 469.5 72.35V63.5L469.1 63.15H462.65L462.2 63.5V73.95ZM521.55 58.75C515.15 71.35 508.85 83.9 502.7 97.7L502.85 98.25L509.55 100.7L510.05 100.5C512.2 95.1 514.15 90.75 516.15 87.2C517.8 84.25 519.75 82.05 522.25 82.05C523.9 82.05 524.45 82.7 524.45 85.3C524.45 87.95 524.2 91.2 524.2 93.4C524.2 98.35 527.1 101 532.8 101C538.55 101 543.85 97.35 548 89.55C548.45 88.65 548.4 88.4 547.9 87.7L543.45 81.75C539.8 89.55 536.25 93.05 533.15 93.05C531.9 93.05 531.7 92.1 531.75 90.65C531.8 89.2 531.9 86.25 531.85 83.15C531.8 79.1 529.15 76.05 524.25 76.05C522.85 76.05 521.8 76.35 520.35 77.15C523 72.25 525.65 67.8 528.85 61.95L528.7 61.4L522.05 58.6L521.55 58.75ZM554 100.15L560.6 101.8L561.15 101.65C563.9 91.95 566.4 84.2 569.75 74.7C571 74.6 572.15 74.5 573.05 74.5C575.25 74.5 575.6 75.1 575.6 78.1C575.6 82.45 574.6 88.6 573.8 91.15C573.05 93.5 572.35 93.8 570.75 93.8C569.55 93.8 567.35 93.3 565.75 92.7L566.35 99.8C566.4 100.5 566.55 100.6 566.9 100.7C569.1 101.3 571.2 101.6 573.05 101.6C575.7 101.6 579 100.4 580.8 94.75C582.15 90.85 583.05 84.25 583.1 77.65C583.15 70.35 579.25 67.8 575.1 67.8C574.15 67.8 573.2 67.85 572.2 67.9C573.05 65.45 574 62.8 575.05 59.95L574.9 59.4L568.15 57.75L567.65 58C566.35 61.85 565.2 65.4 564 68.85C560.55 69.35 556.85 69.8 552.9 70.1L552.6 70.45L553.7 76.5L554.1 76.8C556.6 76.5 559.3 76.15 561.6 75.8C559.05 83.45 556.55 91.05 553.85 99.75L554 100.15ZM583.55 70.2C587.35 74.45 590.2 80.35 592.15 86.1L592.6 86.2L598.85 82.6L599.05 82.1C596.9 76.45 593.7 71 589.45 66.35H588.95L583.65 69.7L583.55 70.2ZM618.75 73.15C619.4 68.45 621.15 65.65 624.9 65.65C627.75 65.65 629.8 67.75 629.8 71C629.8 73.9 628.7 75.9 625.45 78.85C622.05 82 620.9 84.15 620.9 87.35H627.25C627.8 85.3 629.15 83.8 632.55 81.3C637.4 77.75 639.05 75 639.05 70.9C639.05 63.4 633.95 59.5 625.65 59.5C617.7 59.5 612.1 63.25 610.6 71.75L618.75 73.15ZM624.25 90.85C621.6 90.85 619.4 93.05 619.4 95.7C619.4 98.35 621.6 100.5 624.25 100.5C626.85 100.5 629.05 98.35 629.05 95.7C629.05 93.05 626.85 90.85 624.25 90.85Z" fill="#292415"/>
<path d="M164.8 81.4C159.15 84.2 154.15 89.35 154.15 92.4C154.15 97.35 163.4 101.7 166.65 101.7C170.45 101.7 172 99.8 172 97.05V85.85C175.55 84.1 178.45 83.15 181.55 83.15C185 83.15 186.95 84.95 186.95 87.5C186.95 90.4 184.75 91.95 181.85 92.05C180.1 92.1 178.1 91.45 176.4 90.65L174.85 96.7C174.75 97 174.8 97.4 175.1 97.6C177.1 98.85 179.3 99.3 182.25 99.3C189.65 99.3 194.85 95.2 194.85 87.55C194.85 81.9 190.6 76.75 182.4 76.75C178.85 76.75 175.05 77.8 171.9 78.95L171.95 74.1C174.15 73.7 176.4 73.15 178.65 72.65L179 72.25L178.35 66.2L177.95 65.95C176 66.5 174.15 67 172.05 67.45L172.15 59.8L171.8 59.5H165.3L164.9 59.85L164.85 68.6C161.7 69.05 158.4 69.3 154.95 69.45L154.6 69.8L154.9 75.85L155.25 76.15C158.55 76 161.7 75.7 164.85 75.25L164.8 81.4ZM164.95 93.25C164.95 93.95 164.8 94.2 164.35 94.2C163.55 94.2 161.3 93 161.3 92.05C161.3 91.35 162.75 89.95 164.95 88.65V93.25ZM183.25 69.6C188.05 71.2 191.3 73.45 194.55 76.7L195.1 76.55L198.85 71.25L198.8 70.7C195.7 67.45 191.5 65.25 187.2 63.85L186.65 63.95L183.1 69.2L183.25 69.6ZM240.6 72.8L235.55 70.85L235.15 70.95C234.35 73.55 233.4 75.9 232.4 78.1C230.65 75.95 228.9 73.85 227.25 72.1L226.75 72.05L223.05 75.4L223 75.65H217.45L217.1 76V92.05L216.85 104H223.35V101H240.25V103.45H246.85L246.6 91.45V76L246.3 75.65H240.6L240.25 76V89.35C239 87.35 237.7 85.4 236.35 83.5C238 80.55 239.5 77.15 240.8 73.25L240.6 72.8ZM223.35 76.3C225.35 78.65 227.15 81.15 228.9 83.7C227.3 86.1 225.5 88.35 223.35 90.25V76.3ZM235.9 94.4L240.25 90.85V95.55H223.35V90.95L226.4 94.3C226.7 94.65 226.9 94.85 227.2 94.85C227.4 94.85 227.65 94.7 227.95 94.45C229.55 93.05 231.05 91.3 232.5 89.2C233.65 91.05 234.6 92.8 235.4 94.3L235.9 94.4ZM213.25 63.7V56.4L212.9 56.05H207.05L206.7 56.4V86L206.45 104H213.5L213.25 85.65V66.2C213.9 67.7 214.55 69.5 214.95 71.1L215.35 71.3L219.1 69.15L219.3 68.75C218.5 66.6 217.3 64.1 216.15 62.4L215.75 62.3L213.25 63.7ZM202.2 63.4L201.75 63.6C201.75 68.55 201.3 74 200.45 78.15L200.65 78.6L204.3 80.2L204.75 80.05C205.7 75.1 206.05 70.15 206.05 64.75L205.8 64.4L202.2 63.4ZM248.05 59.55L241.7 56.9L241.25 57.15C240.15 60.65 238.45 65.15 236.1 69.1L241.2 70.9C241.45 71 241.65 71.05 241.8 71.05C242.1 71.05 242.25 70.9 242.45 70.6C244.5 67.85 246.4 63.85 248.2 60.05L248.05 59.55ZM227.75 68.4L227.9 67.9C226.95 64.9 225.3 61.15 223.5 58.6L222.95 58.4L217.8 60.85L217.65 61.3C219.05 63.85 220.45 67.55 221.5 70.95L222 71.1L227.75 68.4ZM236.7 66.3L236.85 65.8C236.05 63.2 234.4 58.9 232.95 56.55L232.45 56.4L227.2 58.5L227 58.95C228.2 61.25 229.55 65.4 230.35 68.55L230.8 68.7L236.7 66.3ZM276.85 102.3C277.3 102.6 277.5 102.65 278.2 102.65C283.05 100.35 286.95 95.8 289.3 91C290.6 91.85 292.1 92.8 293.65 94L294.15 93.8L297.65 87.75L297.55 87.2C295.65 85.85 293.6 84.6 291.55 83.55C291.9 81.1 291.9 78.5 291.8 75.55L291.55 75.1L284.85 74.15L284.55 74.5C284.7 76.8 284.65 78.75 284.5 80.5C281.35 79.4 278.05 78.65 275.05 78.3C277.15 73.15 278.85 69.2 280.2 65.3C280.4 64.65 280.55 64.05 280.55 63.5C280.55 61.3 278.95 59.75 276.15 59.75C275.6 59.75 275.05 59.8 274.45 59.9C271.4 60.4 266.9 61.15 261.4 62.15L261.15 62.6L262.55 68.85L263 69.2C266.15 68.6 268.9 68.05 271.15 67.6C269.8 71.65 269 74 267.45 77.95C257.55 79.2 252.8 84.05 252.8 91.35C252.8 95.25 255.35 99.2 259.95 99.2C263.65 99.2 265.95 97.75 267.7 95.1C269 93.15 270.25 90.1 272.5 84.65C276.2 85 279.5 85.95 282.8 87.5C281.1 91.55 277.6 96.15 271.25 98.3L276.85 102.3ZM264.65 84.75C263.4 87.8 262.75 89.2 262 90.7C261.4 91.8 260.8 92.25 260.15 92.25C259.55 92.25 259.25 91.75 259.25 90.7C259.25 87.45 262.1 85 264.65 84.75Z" fill="#224481"/>
</svg>
