<svg width="208" height="38" viewBox="0 0 208 38" fill="none" xmlns="http://www.w3.org/2000/svg">
<path d="M11.7 8.082V11.644H14.222V8.082H11.7ZM2.132 10.266V15.752H4.55V12.528H21.476V15.752H23.972V10.266H2.132ZM5.746 14.712V16.818H20.124V14.712H5.746ZM8.762 18.924C13.78 22.642 13.832 28.206 12.142 29.454C11.674 29.896 11.128 29.974 10.452 29.974C9.828 29.974 8.944 29.922 7.982 29.844C8.424 30.52 8.632 31.534 8.684 32.184C9.49 32.236 10.296 32.262 10.92 32.262C12.194 32.262 12.974 32.054 13.884 31.3C16.614 29.35 16.562 22.07 10.634 17.806L8.762 18.924ZM12.766 15.232C10.426 17.416 5.98 19.106 1.924 20.016C2.34 20.458 2.99 21.472 3.224 21.94C7.41 20.77 12.064 18.794 14.794 16.09L12.766 15.232ZM10.842 20.276C8.944 21.784 5.096 23.5 2.21 24.254C2.652 24.748 3.198 25.606 3.458 26.152C6.422 25.112 10.296 23.11 12.454 21.394L10.842 20.276ZM12.844 22.876C10.4 25.32 5.382 27.894 1.274 28.96C1.742 29.506 2.288 30.39 2.574 31.014C6.708 29.636 11.778 26.828 14.534 24.124L12.844 22.876ZM15.912 15.57L13.858 16.012C15.392 22.538 18.252 27.764 23.27 30.234C23.66 29.558 24.44 28.596 24.986 28.102C20.176 26.1 17.264 21.264 15.912 15.57ZM21.892 17.39C20.462 18.716 18.044 20.432 16.328 21.42L17.888 22.928C19.656 21.992 22.022 20.458 23.79 19.054L21.892 17.39ZM37.648 9.616L34.606 9.304C34.606 11.28 34.294 13.568 33.8 15.752C33.098 18.976 31.07 25.892 28.054 29.922L30.732 30.988C33.566 26.412 35.542 19.522 36.4 15.856C36.712 14.374 37.05 12.476 37.258 11.436C37.388 10.864 37.518 10.188 37.648 9.616ZM46.592 12.242L44.174 13.308C46.02 15.518 47.97 20.146 48.698 22.928L51.272 21.706C50.44 19.262 48.204 14.4 46.592 12.242ZM27.768 15.154L28.028 17.962C28.73 17.858 29.952 17.702 30.602 17.598C32.136 17.416 36.816 16.87 38.48 16.87C40.118 16.87 41.132 17.234 41.132 19.496C41.132 22.2 40.768 25.476 39.988 27.114C39.494 28.128 38.766 28.362 37.856 28.362C37.128 28.362 35.724 28.128 34.658 27.816L35.1 30.546C35.958 30.728 37.18 30.91 38.194 30.91C39.988 30.91 41.34 30.416 42.198 28.648C43.29 26.438 43.68 22.278 43.68 19.184C43.68 15.57 41.756 14.53 39.26 14.53C37.414 14.53 32.292 15.102 30.29 15.154C29.406 15.18 28.626 15.206 27.768 15.154ZM60.684 9.382L60.034 11.878C62.036 12.398 67.73 13.568 70.278 13.906L70.902 11.41C68.614 11.176 63.024 10.136 60.684 9.382ZM60.424 14.348L57.668 13.958C57.512 16.896 56.888 22.2 56.368 24.644L58.76 25.242C58.942 24.774 59.202 24.358 59.618 23.864C61.36 21.758 64.09 20.562 67.314 20.562C69.784 20.562 71.578 21.94 71.578 23.838C71.578 27.296 67.522 29.454 59.488 28.414L60.268 31.092C70.434 31.95 74.386 28.596 74.386 23.916C74.386 20.822 71.734 18.248 67.522 18.248C64.558 18.248 61.828 19.132 59.384 21.108C59.618 19.522 60.086 15.96 60.424 14.348ZM84.604 18.274H79.092V20.562H82.238V27.634H84.604V18.274ZM84.604 26.646H82.472C81.276 27.712 79.924 28.778 78.806 29.558L80.028 31.976C81.328 30.832 82.472 29.792 83.564 28.7C85.176 30.754 87.412 31.586 90.714 31.716C93.73 31.846 99.294 31.794 102.362 31.664C102.466 30.936 102.856 29.818 103.142 29.246C99.788 29.48 93.704 29.558 90.714 29.428C87.828 29.324 85.722 28.492 84.604 26.646ZM79.274 10.11C80.808 11.358 82.576 13.178 83.304 14.478L85.332 12.918C84.526 11.67 82.706 9.902 81.146 8.732L79.274 10.11ZM89.986 17.936H98.02V20.12H89.986V17.936ZM87.724 16.22V21.836H100.412V16.22H87.724ZM85.722 13.178V14.998H102.492V13.178H85.722ZM87.126 9.85V11.644H100.932V9.85H87.126ZM92.742 8.082V14.348H95.134V8.082H92.742ZM92.716 20.952V28.544H95.056V20.952H92.716ZM92.716 20.9C91.234 22.954 88.374 24.618 85.54 25.606C85.982 26.048 86.71 27.036 86.996 27.478C89.986 26.23 93.106 24.15 94.874 21.602L92.716 20.9ZM100.412 21.212C99.45 22.07 97.812 23.318 96.59 24.046L97.994 25.008C99.242 24.384 100.88 23.396 102.258 22.382L100.412 21.212ZM95.056 21.498L93.21 21.966C94.822 24.904 97.734 27.114 101.322 28.102C101.608 27.504 102.206 26.646 102.7 26.23C99.346 25.502 96.434 23.76 95.056 21.498ZM110.214 11.67L107.042 11.618C107.198 12.32 107.224 13.438 107.224 14.088C107.224 15.622 107.276 18.742 107.51 21.056C108.238 27.894 110.63 30.39 113.282 30.39C115.18 30.39 116.766 28.856 118.404 24.384L116.35 21.966C115.752 24.332 114.608 27.192 113.334 27.192C111.566 27.192 110.526 24.436 110.11 20.354C109.954 18.326 109.928 16.142 109.954 14.478C109.954 13.776 110.058 12.424 110.214 11.67ZM123.5 12.346L120.926 13.204C123.578 16.324 125.06 22.096 125.502 26.568L128.154 25.502C127.816 21.29 125.892 15.336 123.5 12.346ZM143 17.13C141.336 17.13 139.984 18.482 139.984 20.12C139.984 21.784 141.336 23.136 143 23.136C144.638 23.136 145.99 21.784 145.99 20.12C145.99 18.482 144.638 17.13 143 17.13ZM169 17.13C167.336 17.13 165.984 18.482 165.984 20.12C165.984 21.784 167.336 23.136 169 23.136C170.638 23.136 171.99 21.784 171.99 20.12C171.99 18.482 170.638 17.13 169 17.13ZM195 17.13C193.336 17.13 191.984 18.482 191.984 20.12C191.984 21.784 193.336 23.136 195 23.136C196.638 23.136 197.99 21.784 197.99 20.12C197.99 18.482 196.638 17.13 195 17.13Z" fill="#333333"/>
</svg>
