<svg width="97" height="17" viewBox="0 0 97 17" fill="none" xmlns="http://www.w3.org/2000/svg">
<path d="M30.232 4.256H28.576C28.612 4.472 28.66 5.06 28.66 5.312C28.66 5.516 28.66 5.864 28.648 6.284C28.408 6.296 28.168 6.308 27.952 6.308C27.52 6.308 27.004 6.296 26.296 6.212L26.32 7.664C26.728 7.712 27.196 7.724 28 7.724C28.192 7.724 28.408 7.712 28.636 7.7C28.636 8.036 28.636 8.372 28.636 8.708C28.636 8.984 28.636 9.272 28.648 9.56C27.172 10.196 25.972 11.288 25.972 12.332C25.972 13.604 27.616 14.612 28.78 14.612C29.572 14.612 30.1 14.216 30.1 12.728C30.1 12.32 30.076 11.384 30.052 10.436C30.784 10.22 31.564 10.1 32.308 10.1C33.352 10.1 34.072 10.58 34.072 11.396C34.072 12.272 33.304 12.752 32.332 12.932C31.912 13.004 31.396 13.016 30.856 13.016L31.408 14.564C31.9 14.528 32.428 14.492 32.98 14.372C34.888 13.892 35.632 12.824 35.632 11.408C35.632 9.752 34.18 8.792 32.332 8.792C31.672 8.792 30.844 8.9 30.028 9.104C30.028 8.948 30.028 8.804 30.028 8.66C30.028 8.312 30.028 7.94 30.04 7.58C30.82 7.484 31.648 7.364 32.332 7.208L32.296 5.72C31.672 5.9 30.88 6.056 30.088 6.152C30.1 5.852 30.112 5.564 30.124 5.3C30.148 4.988 30.196 4.472 30.232 4.256ZM33.652 5.552L32.992 6.716C33.736 7.076 35.308 7.976 35.884 8.468L36.604 7.244C35.968 6.788 34.576 5.996 33.652 5.552ZM27.448 12.272C27.448 11.852 27.94 11.36 28.672 10.964C28.696 11.612 28.708 12.164 28.708 12.464C28.708 12.872 28.54 12.968 28.324 12.968C28.012 12.968 27.448 12.644 27.448 12.272ZM41.236 5.384V6.032H39.4V5.384H41.236ZM39.4 7.676V6.992H41.236V7.676H39.4ZM42.568 8.756V4.292H37.984V15.044H39.4V8.756H42.568ZM43.948 10.76V12.176H41.968V10.76H43.948ZM45.28 13.352V9.584H40.636V14.024H41.968V13.352H45.28ZM44.752 7.688V6.992H46.648V7.688H44.752ZM46.648 5.372V6.032H44.752V5.372H46.648ZM48.088 4.292H43.396V8.768H46.648V13.316C46.648 13.532 46.564 13.604 46.336 13.604C46.108 13.616 45.292 13.628 44.596 13.58C44.8 13.964 45.028 14.636 45.076 15.044C46.18 15.044 46.936 15.008 47.428 14.768C47.932 14.54 48.088 14.132 48.088 13.34V4.292ZM52.12 5.42L50.272 5.396C50.344 5.768 50.368 6.284 50.368 6.62C50.368 7.352 50.38 8.756 50.5 9.86C50.836 13.076 51.976 14.264 53.296 14.264C54.256 14.264 55.012 13.532 55.804 11.444L54.604 9.98C54.376 10.94 53.896 12.344 53.332 12.344C52.576 12.344 52.216 11.156 52.048 9.428C51.976 8.564 51.964 7.664 51.976 6.884C51.976 6.548 52.036 5.852 52.12 5.42ZM58.12 5.696L56.596 6.188C57.904 7.676 58.54 10.592 58.732 12.524L60.304 11.912C60.172 10.076 59.26 7.076 58.12 5.696ZM69.388 11.396V13.352H64.648V11.396H69.388ZM63.244 15.056H64.648V14.612H69.388V15.056H70.852V10.136H63.244V15.056ZM64.576 7.688C65.56 6.908 66.4 6.056 66.964 5.252C67.54 6.044 68.428 6.908 69.424 7.688H64.576ZM66.16 3.848C65.26 5.312 63.34 7.124 61.276 8.12C61.588 8.42 61.984 8.936 62.176 9.284C62.812 8.936 63.448 8.54 64.036 8.108V8.948H70.012V8.12C70.612 8.552 71.236 8.948 71.848 9.26C72.1 8.816 72.424 8.348 72.772 7.976C70.864 7.208 68.92 5.684 67.636 3.848H66.16ZM76.264 5.348C76.264 5.48 76.24 5.816 76.216 6.272C75.7 6.344 75.172 6.404 74.824 6.428C74.404 6.452 74.128 6.452 73.78 6.44L73.936 7.976C74.608 7.88 75.532 7.76 76.12 7.688C76.108 7.976 76.084 8.264 76.06 8.54C75.376 9.548 74.176 11.132 73.492 11.972L74.44 13.28C74.86 12.716 75.448 11.84 75.952 11.084C75.94 12.092 75.928 12.788 75.904 13.724C75.904 13.916 75.892 14.348 75.868 14.612H77.524C77.488 14.336 77.452 13.904 77.44 13.688C77.368 12.56 77.368 11.552 77.368 10.568C77.368 10.256 77.38 9.908 77.392 9.56C78.4 8.636 79.516 8.024 80.788 8.024C81.988 8.024 82.744 8.888 82.744 9.824C82.756 11.696 81.244 12.56 79.132 12.872L79.852 14.324C82.828 13.736 84.352 12.284 84.352 9.86C84.34 7.928 82.888 6.62 81.04 6.62C79.96 6.62 78.724 6.956 77.512 7.856C77.524 7.748 77.524 7.628 77.536 7.52C77.74 7.208 77.98 6.812 78.148 6.596L77.704 6.032C77.8 5.276 77.896 4.664 77.968 4.328L76.216 4.268C76.276 4.64 76.264 5 76.264 5.348ZM94.18 4.58H92.572C92.608 4.82 92.656 5.384 92.656 5.684V7.04C91.564 7.136 90.4 7.244 89.38 7.34C89.38 6.872 89.392 6.464 89.392 6.188C89.392 5.684 89.404 5.348 89.464 4.94H87.772C87.832 5.372 87.868 5.78 87.868 6.272C87.868 6.476 87.868 6.92 87.868 7.484C87.484 7.52 87.172 7.544 86.956 7.568C86.344 7.628 85.792 7.652 85.444 7.652L85.612 9.188C85.924 9.14 86.668 9.02 87.052 8.972C87.256 8.948 87.532 8.924 87.856 8.888C87.856 10.004 87.856 11.168 87.868 11.684C87.928 13.76 88.3 14.408 91.408 14.408C92.548 14.408 94.024 14.312 94.828 14.216L94.888 12.584C93.988 12.74 92.476 12.884 91.3 12.884C89.5 12.884 89.392 12.62 89.368 11.444C89.344 10.928 89.356 9.824 89.368 8.72C90.388 8.612 91.564 8.504 92.632 8.42C92.62 8.996 92.584 9.548 92.536 9.872C92.512 10.1 92.404 10.148 92.164 10.148C91.924 10.148 91.432 10.076 91.06 9.992L91.024 11.324C91.444 11.384 92.404 11.504 92.836 11.504C93.448 11.504 93.748 11.348 93.88 10.712C93.976 10.208 94.024 9.224 94.06 8.312C94.408 8.288 94.72 8.276 94.984 8.264C95.296 8.252 95.932 8.24 96.136 8.252V6.776C95.788 6.812 95.32 6.836 94.984 6.86C94.708 6.872 94.408 6.896 94.084 6.92C94.096 6.524 94.096 6.092 94.108 5.624C94.12 5.3 94.156 4.772 94.18 4.58Z" fill="white"/>
<path d="M19.352 16.6377H0.667312C0.49033 16.6377 0.320596 16.5677 0.195451 16.4429C0.0703054 16.3182 0 16.1491 0 15.9727V2.6717C0.00133809 2.59958 0.0125634 2.52798 0.0333651 2.45888C0.0599647 2.37918 0.100643 2.30486 0.153481 2.23942C0.210554 2.17074 0.280905 2.11419 0.360348 2.07316C0.44132 2.0258 0.533392 2.00057 0.627274 2H19.3921C19.485 2.00152 19.5763 2.02428 19.659 2.06651C19.7421 2.11067 19.8149 2.17187 19.8725 2.24607C19.9265 2.30824 19.9674 2.38062 19.9927 2.45888C20.0024 2.52949 20.0024 2.6011 19.9927 2.6717V15.9727C19.9928 16.1445 19.9262 16.3098 19.8067 16.4338C19.6873 16.5578 19.5244 16.6308 19.352 16.6377ZM1.33462 15.3076H18.6847V4.0018L10.3967 9.86752C10.2837 9.94772 10.1484 9.99082 10.0097 9.99082C9.87094 9.99082 9.73565 9.94772 9.62264 9.86752L1.33462 3.96854V15.3076ZM2.74932 3.33675L10.0097 8.51083L17.2901 3.33675H2.74932Z" fill="white"/>
</svg>
