<svg width="136" height="21" viewBox="0 0 136 21" fill="none" xmlns="http://www.w3.org/2000/svg">
<path d="M27.1664 15H29.3384L30.3104 10.608C30.4544 9.912 30.5744 9.228 30.6944 8.544H30.7424C30.8504 9.228 30.9824 9.912 31.1264 10.608L32.1224 15H34.3304L35.9744 6.108H34.2944L33.5864 10.452C33.4544 11.376 33.3224 12.324 33.1904 13.284H33.1304C32.9384 12.324 32.7584 11.364 32.5664 10.452L31.5464 6.108H30.0224L28.9904 10.452C28.7984 11.376 28.6064 12.324 28.4264 13.284H28.3784C28.2464 12.324 28.1024 11.388 27.9704 10.452L27.2624 6.108H25.4624L27.1664 15ZM37.3068 15H42.8868V13.512H39.0828V11.136H42.2028V9.648H39.0828V7.596H42.7548V6.108H37.3068V15ZM44.6897 15H47.8577C49.8137 15 51.3017 14.172 51.3017 12.384C51.3017 11.184 50.5937 10.512 49.6337 10.284V10.224C50.3897 9.96 50.8457 9.12 50.8457 8.304C50.8457 6.648 49.4537 6.108 47.6297 6.108H44.6897V15ZM46.4657 9.732V7.476H47.5217C48.5897 7.476 49.1177 7.788 49.1177 8.568C49.1177 9.276 48.6257 9.732 47.4977 9.732H46.4657ZM46.4657 13.632V11.04H47.7017C48.9257 11.04 49.5737 11.412 49.5737 12.276C49.5737 13.2 48.9137 13.632 47.7017 13.632H46.4657ZM52.5936 6.768L52.7496 8.412C54.1416 8.112 56.5896 7.848 57.7176 7.728C56.9016 8.34 55.9296 9.708 55.9296 11.436C55.9296 14.04 58.3056 15.384 60.8256 15.552L61.3896 13.908C59.3496 13.8 57.5016 13.092 57.5016 11.112C57.5016 9.684 58.5936 8.136 60.0456 7.752C60.6816 7.596 61.7136 7.596 62.3616 7.584L62.3496 6.048C61.4976 6.084 60.1896 6.156 58.9536 6.264C56.7576 6.444 54.7776 6.624 53.7696 6.708C53.5416 6.732 53.0736 6.756 52.5936 6.768ZM60.6456 8.76L59.7576 9.132C60.1416 9.672 60.3936 10.14 60.6936 10.8L61.6056 10.392C61.3776 9.924 60.9456 9.192 60.6456 8.76ZM61.9896 8.208L61.1136 8.616C61.4976 9.144 61.7736 9.588 62.0976 10.236L62.9976 9.804C62.7456 9.336 62.2896 8.628 61.9896 8.208ZM72.2976 8.88H71.3856V7.344H72.2976V8.88ZM72.2976 11.676H71.3856V10.152H72.2976V11.676ZM67.2576 10.152H68.1216V11.676H67.2576V10.152ZM70.1976 10.152V11.676H69.3096V10.152H70.1976ZM69.3096 8.88V7.344H70.1976V8.88H69.3096ZM67.2576 7.344H68.1216V8.88H67.2576V7.344ZM65.9976 8.88H64.3896V10.152H65.9976V11.676H64.5696V12.948H74.9976V11.676H73.6056V10.152H75.1656V8.88H73.6056V7.344H74.7336V6.084H67.5336C67.7136 5.808 67.8696 5.532 68.0016 5.244L66.6096 4.836C66.0816 5.952 65.1336 7.044 64.1256 7.704C64.4496 7.932 65.0256 8.388 65.2896 8.64C65.5296 8.46 65.7576 8.244 65.9976 8.016V8.88ZM65.6256 16.056C66.2136 15.432 66.7296 14.448 66.9936 13.536L65.6136 13.2C65.3376 14.076 64.7976 15 64.2696 15.504L65.6256 16.056ZM67.7616 13.62C67.8936 14.352 67.9896 15.336 67.9896 15.912L69.3816 15.708C69.3696 15.144 69.2256 14.196 69.0816 13.464L67.7616 13.62ZM70.1376 13.644C70.4016 14.376 70.6776 15.348 70.7496 15.924L72.1776 15.648C72.0696 15.06 71.7696 14.124 71.4816 13.416L70.1376 13.644ZM72.5136 13.584C73.0416 14.352 73.6776 15.408 73.9296 16.044L75.3936 15.552C75.0936 14.892 74.4216 13.884 73.8816 13.152L72.5136 13.584ZM84.3936 6.936C84.0096 6.492 83.1576 5.88 82.4856 5.484L81.8016 6.444C82.4616 6.888 83.2896 7.536 83.6616 8.004L84.3936 6.936ZM81.2496 9.456C81.9456 9.876 82.8216 10.512 83.2176 10.956L83.9376 9.816C83.5056 9.384 82.6176 8.808 81.9216 8.436L81.2496 9.456ZM80.1696 5.496C80.0376 6.336 79.7496 7.548 79.5096 8.304L80.4096 8.556C80.7096 7.86 81.0576 6.72 81.3696 5.76L80.1696 5.496ZM77.8416 8.304C77.7816 7.56 77.5416 6.42 77.2296 5.556L76.2336 5.82C76.5096 6.684 76.7496 7.848 76.7736 8.592L77.8416 8.304ZM81.1176 12.252C80.8656 11.916 79.7256 10.572 79.3776 10.224V10.14H81.1536V8.808H79.3776V4.884H78.0576V8.808H76.2456V10.14H77.6136C77.2416 11.232 76.6296 12.516 76.0296 13.248C76.2456 13.644 76.5576 14.292 76.6776 14.724C77.1936 14.004 77.6736 12.888 78.0576 11.772V16.008H79.3776V11.796C79.7256 12.348 80.0616 12.972 80.2416 13.356L81.1176 12.252ZM87.4656 12.528L87.2496 11.196L86.0256 11.424V4.824H84.6816V11.664L81.1176 12.3L81.3336 13.632L84.6816 13.032V16.032H86.0256V12.792L87.4656 12.528ZM90.4416 4.884C89.9016 6.576 88.9656 8.28 87.9576 9.372C88.2216 9.732 88.6176 10.512 88.7496 10.86C88.9896 10.572 89.2416 10.248 89.4816 9.924V16.02H90.8376V7.608C91.2096 6.84 91.5336 6.06 91.7976 5.292L90.4416 4.884ZM95.9496 12.756V9.624C96.3576 10.752 96.8616 11.832 97.4256 12.756H95.9496ZM93.0936 12.756C93.6576 11.868 94.1616 10.812 94.5576 9.708V12.756H93.0936ZM99.2616 8.328V6.972H95.9496V4.896H94.5576V6.972H91.5216V8.328H93.8856C93.2256 10.224 92.1096 12.12 90.8976 13.2C91.2216 13.44 91.6776 13.944 91.9176 14.28C92.3016 13.896 92.6496 13.44 92.9856 12.924V14.028H94.5576V15.96H95.9496V14.028H97.5576V12.972C97.8696 13.452 98.1816 13.872 98.5176 14.244C98.7696 13.872 99.2616 13.392 99.5856 13.14C98.4216 12.048 97.3176 10.176 96.6576 8.328H99.2616ZM100.75 15.372C101.242 14.7 101.362 13.584 101.422 12.492L100.63 12.336C100.582 13.356 100.438 14.364 100.03 14.976L100.75 15.372ZM101.53 12.588C101.614 13.296 101.65 14.208 101.614 14.808L102.262 14.724C102.298 14.148 102.25 13.224 102.142 12.528L101.53 12.588ZM102.346 12.528C102.538 13.152 102.694 13.956 102.718 14.472L103.342 14.34C103.306 13.824 103.138 13.032 102.946 12.408L102.346 12.528ZM103.858 10.716V9.972H104.902V8.892H103.858V8.172H104.902V7.896C105.106 8.196 105.334 8.604 105.466 8.916C105.79 8.724 106.09 8.484 106.39 8.232V8.88H107.614V9.528H105.574V12.696H107.278C106.954 13.536 106.306 14.328 105.07 14.952C105.202 14.316 105.274 13.164 105.358 11.184C105.37 11.028 105.37 10.716 105.37 10.716H103.858ZM101.902 9.972H102.718V10.716H101.902V9.972ZM102.718 8.172V8.892H101.902V8.172H102.718ZM102.718 6.432V7.092H101.902V6.432H102.718ZM106.858 7.788C107.398 7.236 107.866 6.624 108.178 6.084C108.514 6.636 109.018 7.26 109.582 7.788H106.858ZM109.81 10.56V11.664H108.826C108.862 11.304 108.874 10.956 108.874 10.608V10.56H109.81ZM106.738 11.664V10.56H107.614V10.596C107.614 10.944 107.602 11.304 107.542 11.664H106.738ZM111.022 12.696V9.528H108.874V8.88H110.074V8.22C110.326 8.436 110.59 8.616 110.854 8.772C111.034 8.4 111.31 7.884 111.562 7.548C110.506 7.044 109.462 5.952 108.742 4.848H107.518C107.026 5.844 105.982 7.08 104.902 7.728V7.092H103.858V6.432H105.142V5.28H100.726V11.82H104.158C104.134 12.336 104.11 12.78 104.086 13.14C103.978 12.816 103.834 12.468 103.678 12.168L103.114 12.36C103.342 12.84 103.582 13.488 103.654 13.908L104.038 13.764C103.978 14.388 103.918 14.688 103.834 14.808C103.738 14.928 103.654 14.964 103.51 14.964C103.354 14.964 103.09 14.952 102.778 14.916C102.946 15.216 103.054 15.684 103.066 16.02C103.498 16.044 103.882 16.032 104.122 15.984C104.422 15.948 104.638 15.84 104.842 15.564C104.902 15.492 104.95 15.384 104.998 15.228C105.25 15.468 105.55 15.828 105.694 16.068C107.122 15.372 107.926 14.472 108.358 13.512C108.874 14.616 109.606 15.516 110.602 16.032C110.806 15.672 111.214 15.168 111.502 14.904C110.494 14.472 109.738 13.668 109.258 12.696H111.022ZM122.158 9.3L121.894 9.396H119.998L120.286 8.928C120.01 8.796 119.65 8.664 119.254 8.508C120.262 7.824 121.258 6.996 122.026 6.228L121.006 5.424L120.682 5.508H113.506V6.816H119.302C118.834 7.224 118.294 7.62 117.778 7.944C117.106 7.692 116.434 7.464 115.894 7.272L115.186 8.352C115.954 8.64 116.926 9.024 117.814 9.396H112.354V10.752H117.094V14.436C117.094 14.616 117.022 14.664 116.794 14.676C116.554 14.676 115.666 14.676 114.958 14.652C115.174 15.024 115.402 15.612 115.474 16.02C116.506 16.02 117.286 16.008 117.838 15.804C118.414 15.6 118.582 15.24 118.582 14.484V10.752H121.114C120.814 11.292 120.466 11.832 120.178 12.228L121.402 12.936C122.074 12.132 122.782 10.932 123.322 9.804L122.158 9.3ZM124.618 11.856C124.522 12.864 124.33 13.932 123.982 14.64C124.294 14.748 124.822 15 125.074 15.156C125.422 14.388 125.674 13.188 125.794 12.06L124.618 11.856ZM127.294 12.12C127.594 12.852 127.906 13.824 128.002 14.436L129.13 14.04C128.986 13.428 128.674 12.492 128.35 11.784L127.294 12.12ZM131.038 6.864C131.266 6.312 131.47 5.736 131.626 5.148L130.162 4.836C129.778 6.348 129.07 7.884 128.182 8.832L128.098 8.688L127.09 9.132C127.234 9.384 127.378 9.672 127.51 9.96L126.298 10.008C127.078 9.036 127.918 7.812 128.59 6.756L127.378 6.252C127.09 6.852 126.706 7.548 126.274 8.22C126.154 8.064 126.01 7.884 125.854 7.716C126.286 7.044 126.778 6.12 127.21 5.292L125.95 4.848C125.746 5.472 125.41 6.276 125.074 6.936C124.978 6.852 124.882 6.768 124.786 6.684L124.114 7.668C124.618 8.148 125.206 8.796 125.554 9.312C125.374 9.576 125.182 9.828 125.002 10.056L124.114 10.092L124.234 11.34L126.01 11.22V16.056H127.27V11.124L127.954 11.076C128.026 11.316 128.086 11.532 128.122 11.724L129.202 11.22C129.07 10.62 128.686 9.732 128.266 8.976C128.626 9.192 129.154 9.552 129.394 9.768C129.754 9.336 130.09 8.808 130.414 8.22H133.726C133.594 12.312 133.414 14.064 133.054 14.436C132.91 14.592 132.778 14.64 132.55 14.64C132.226 14.64 131.542 14.64 130.786 14.568C131.05 14.976 131.242 15.6 131.266 16.008C131.962 16.032 132.706 16.044 133.138 15.972C133.642 15.9 133.954 15.768 134.29 15.312C134.794 14.676 134.962 12.78 135.118 7.524C135.13 7.344 135.13 6.864 135.13 6.864H131.038ZM132.394 12.348C132.142 11.592 131.458 10.488 130.834 9.66L129.694 10.236C130.306 11.1 130.93 12.252 131.158 13.008L132.394 12.348Z" fill="white"/>
<path d="M5.71999 14.4631L7.48099 13.9551L18.084 3.22517C18.1676 3.13946 18.2142 3.0243 18.2136 2.90455C18.213 2.7848 18.1654 2.67008 18.081 2.58517L17.446 1.94317C17.4049 1.901 17.3559 1.86744 17.3018 1.84442C17.2476 1.82141 17.1894 1.80942 17.1306 1.80914C17.0718 1.80886 17.0135 1.8203 16.9591 1.8428C16.9047 1.8653 16.8554 1.8984 16.814 1.94017L6.23899 12.6422L5.71899 14.4621L5.71999 14.4631ZM18.703 0.67117L19.338 1.31417C20.214 2.20117 20.222 3.63216 19.354 4.51016L8.42799 15.5681L4.66399 16.6521C4.43419 16.7165 4.18825 16.687 3.98016 16.5702C3.77206 16.4534 3.61879 16.2588 3.55399 16.0291C3.50578 15.864 3.50508 15.6886 3.55199 15.5231L4.64699 11.6832L15.544 0.65417C15.7512 0.445528 15.9979 0.280232 16.2696 0.167923C16.5414 0.0556135 16.8328 -0.00146091 17.1268 2.84128e-05C17.4209 0.00151773 17.7117 0.0615409 17.9823 0.176597C18.2529 0.291653 18.4979 0.45944 18.703 0.67017V0.67117ZM7.18399 1.82417C7.67999 1.82417 8.08199 2.23117 8.08199 2.73317C8.08278 2.85183 8.06017 2.96949 8.01546 3.07942C7.97074 3.18934 7.9048 3.28938 7.8214 3.3738C7.738 3.45822 7.63878 3.52537 7.52941 3.57142C7.42003 3.61747 7.30266 3.64151 7.18399 3.64217H3.59199C2.6 3.64217 1.796 4.45616 1.796 5.45916V16.3651C1.796 17.3691 2.6 18.1831 3.59199 18.1831H14.368C15.36 18.1831 16.165 17.3691 16.165 16.3651V12.7302C16.165 12.2282 16.567 11.8212 17.063 11.8212C17.559 11.8212 17.961 12.2282 17.961 12.7312V16.3651C17.961 18.3731 16.352 20.0011 14.368 20.0011H3.59199C1.608 20.0011 0 18.3731 0 16.3651V5.45916C0 3.45217 1.608 1.82417 3.59199 1.82417H7.18399Z" fill="white"/>
</svg>
