<svg width="140" height="22" viewBox="0 0 140 22" fill="none" xmlns="http://www.w3.org/2000/svg">
<path fill-rule="evenodd" clip-rule="evenodd" d="M11.5 0C17.8408 0 23 4.04182 23 9.01082C23 10.9998 22.2022 12.7903 20.5347 14.5544C18.1226 17.236 12.7276 20.502 11.5 21.0016C10.3069 21.4874 10.4449 20.7282 10.4995 20.4284L10.5038 20.4034L10.6677 19.4526C10.7065 19.1695 10.7467 18.7295 10.6303 18.4491C10.5009 18.1396 9.99206 17.9786 9.61831 17.9009C4.09113 17.1972 0 13.4649 0 9.01082C0 4.04182 5.16063 0 11.5 0ZM7.21912 10.6681H5.02694V6.82612C5.02694 6.76894 5.00351 6.71407 4.96177 6.6735C4.92002 6.63294 4.86335 6.60996 4.80412 6.6096H3.99625C3.9668 6.6096 3.93764 6.6152 3.91043 6.62608C3.88323 6.63696 3.8585 6.65291 3.83768 6.67302C3.81686 6.69312 3.80034 6.71699 3.78907 6.74326C3.7778 6.76953 3.772 6.79769 3.772 6.82612V11.6646C3.772 11.7216 3.79644 11.7757 3.83525 11.8132V11.8146L3.83813 11.8173L3.841 11.8201C3.88269 11.8588 3.93841 11.8802 3.99625 11.8798H7.21912C7.34275 11.8798 7.44194 11.7826 7.44194 11.6633V10.886C7.44213 10.8576 7.43651 10.8294 7.42542 10.803C7.41432 10.7767 7.39796 10.7527 7.37727 10.7325C7.35658 10.7122 7.33197 10.6961 7.30483 10.6851C7.2777 10.674 7.24857 10.6683 7.21912 10.6681ZM8.35619 6.6096H9.16406C9.28769 6.6096 9.38688 6.70676 9.38688 6.82612V11.6646C9.38688 11.784 9.28625 11.8798 9.16406 11.8798H8.35619C8.29696 11.8798 8.24014 11.8572 8.19812 11.8169C8.15611 11.7766 8.13232 11.7218 8.13194 11.6646V6.82612C8.13194 6.70676 8.23256 6.6096 8.35619 6.6096ZM13.9092 6.6096H14.7143C14.8393 6.6096 14.9399 6.70676 14.9399 6.82612V11.6646C14.9399 11.784 14.8393 11.8798 14.7157 11.8798H13.9092C13.8899 11.8799 13.8705 11.8776 13.8517 11.8728H13.8489C13.8435 11.8712 13.8383 11.8693 13.8331 11.8673L13.8259 11.8645L13.8158 11.8604C13.8119 11.8588 13.808 11.8569 13.8043 11.8548L13.8 11.8534L13.7856 11.8451L13.7842 11.8437C13.7618 11.8292 13.7423 11.8108 13.7267 11.7896L11.4267 8.79151V11.6646C11.4269 11.693 11.4213 11.7211 11.4101 11.7474C11.399 11.7737 11.3826 11.7975 11.3619 11.8177C11.3412 11.8378 11.3166 11.8538 11.2895 11.8647C11.2623 11.8756 11.2333 11.8812 11.2039 11.8812H10.3974C10.3382 11.8812 10.2814 11.8586 10.2394 11.8182C10.1974 11.7779 10.1736 11.7232 10.1732 11.666V6.82612C10.1732 6.70676 10.2738 6.6096 10.3974 6.6096H11.2125L11.2197 6.61098H11.2283L11.2326 6.61237H11.2413L11.2556 6.61654H11.2585L11.2614 6.61793L11.2758 6.62209L11.2829 6.62486C11.2874 6.62649 11.2917 6.62834 11.2959 6.63042L11.3002 6.6318L11.3031 6.63319C11.3095 6.63648 11.3158 6.64019 11.3217 6.6443L11.3261 6.64707L11.3333 6.65124V6.65263C11.3361 6.65263 11.3376 6.6554 11.339 6.65679C11.343 6.65936 11.3468 6.66214 11.3505 6.66512L11.3548 6.66928C11.3671 6.68019 11.3782 6.69228 11.3879 6.70537L13.685 9.70203V6.82612C13.685 6.70676 13.7856 6.6096 13.9092 6.6096ZM19.3933 7.60478C19.3933 7.72415 19.2927 7.82131 19.1705 7.82131H16.9769V8.64022H19.1691C19.2927 8.64022 19.3919 8.73738 19.3919 8.85536V9.63402C19.3919 9.75339 19.2913 9.85055 19.1691 9.85055H16.9769V10.6695H19.1691C19.2927 10.6695 19.3919 10.7666 19.3919 10.8846V11.6633C19.3919 11.7826 19.2913 11.8798 19.1691 11.8798H15.9462C15.9169 11.8799 15.8878 11.8745 15.8607 11.8638C15.8335 11.8531 15.8089 11.8373 15.7881 11.8173L15.7852 11.8132C15.745 11.7734 15.7224 11.7202 15.7219 11.6646V6.82612C15.7219 6.76783 15.7464 6.71508 15.7837 6.67761L15.7881 6.67344L15.7895 6.67206C15.8312 6.63212 15.8875 6.60967 15.9462 6.6096H19.1691C19.2927 6.6096 19.3919 6.70676 19.3919 6.82612V7.60478H19.3933Z" fill="white"/>
<path d="M29.4572 16H34.8452V14.512H31.2332V7.108H29.4572V16ZM36.3947 16H38.1707V7.108H36.3947V16ZM40.3557 16H42.0357V12.436C42.0357 11.416 41.9037 10.3 41.8197 9.34H41.8797L42.7797 11.248L45.3477 16H47.1477V7.108H45.4677V10.66C45.4677 11.668 45.6117 12.844 45.6957 13.768H45.6357L44.7477 11.848L42.1677 7.108H40.3557V16ZM49.344 16H54.924V14.512H51.12V12.136H54.24V10.648H51.12V8.596H54.792V7.108H49.344V16ZM56.4628 7.768L56.6188 9.412C58.0108 9.112 60.4588 8.848 61.5868 8.728C60.7708 9.34 59.7988 10.708 59.7988 12.436C59.7988 15.04 62.1748 16.384 64.6948 16.552L65.2588 14.908C63.2188 14.8 61.3708 14.092 61.3708 12.112C61.3708 10.684 62.4628 9.136 63.9148 8.752C64.5508 8.596 65.5828 8.596 66.2308 8.584L66.2188 7.048C65.3668 7.084 64.0588 7.156 62.8228 7.264C60.6268 7.444 58.6468 7.624 57.6388 7.708C57.4108 7.732 56.9428 7.756 56.4628 7.768ZM64.5148 9.76L63.6268 10.132C64.0108 10.672 64.2628 11.14 64.5628 11.8L65.4748 11.392C65.2468 10.924 64.8148 10.192 64.5148 9.76ZM65.8588 9.208L64.9828 9.616C65.3668 10.144 65.6428 10.588 65.9668 11.236L66.8668 10.804C66.6148 10.336 66.1588 9.628 65.8588 9.208ZM76.1668 9.88H75.2548V8.344H76.1668V9.88ZM76.1668 12.676H75.2548V11.152H76.1668V12.676ZM71.1268 11.152H71.9908V12.676H71.1268V11.152ZM74.0668 11.152V12.676H73.1788V11.152H74.0668ZM73.1788 9.88V8.344H74.0668V9.88H73.1788ZM71.1268 8.344H71.9908V9.88H71.1268V8.344ZM69.8668 9.88H68.2588V11.152H69.8668V12.676H68.4388V13.948H78.8668V12.676H77.4748V11.152H79.0348V9.88H77.4748V8.344H78.6028V7.084H71.4028C71.5828 6.808 71.7388 6.532 71.8708 6.244L70.4788 5.836C69.9508 6.952 69.0028 8.044 67.9948 8.704C68.3188 8.932 68.8948 9.388 69.1588 9.64C69.3988 9.46 69.6268 9.244 69.8668 9.016V9.88ZM69.4948 17.056C70.0828 16.432 70.5988 15.448 70.8628 14.536L69.4828 14.2C69.2068 15.076 68.6668 16 68.1388 16.504L69.4948 17.056ZM71.6308 14.62C71.7628 15.352 71.8588 16.336 71.8588 16.912L73.2508 16.708C73.2388 16.144 73.0948 15.196 72.9508 14.464L71.6308 14.62ZM74.0068 14.644C74.2708 15.376 74.5468 16.348 74.6188 16.924L76.0468 16.648C75.9388 16.06 75.6388 15.124 75.3508 14.416L74.0068 14.644ZM76.3828 14.584C76.9108 15.352 77.5468 16.408 77.7988 17.044L79.2628 16.552C78.9628 15.892 78.2908 14.884 77.7508 14.152L76.3828 14.584ZM88.2628 7.936C87.8788 7.492 87.0268 6.88 86.3548 6.484L85.6708 7.444C86.3308 7.888 87.1588 8.536 87.5308 9.004L88.2628 7.936ZM85.1188 10.456C85.8148 10.876 86.6908 11.512 87.0868 11.956L87.8068 10.816C87.3748 10.384 86.4868 9.808 85.7908 9.436L85.1188 10.456ZM84.0388 6.496C83.9068 7.336 83.6188 8.548 83.3788 9.304L84.2788 9.556C84.5788 8.86 84.9268 7.72 85.2388 6.76L84.0388 6.496ZM81.7108 9.304C81.6508 8.56 81.4108 7.42 81.0988 6.556L80.1028 6.82C80.3788 7.684 80.6188 8.848 80.6428 9.592L81.7108 9.304ZM84.9868 13.252C84.7348 12.916 83.5948 11.572 83.2468 11.224V11.14H85.0228V9.808H83.2468V5.884H81.9268V9.808H80.1148V11.14H81.4828C81.1108 12.232 80.4988 13.516 79.8988 14.248C80.1148 14.644 80.4268 15.292 80.5468 15.724C81.0628 15.004 81.5428 13.888 81.9268 12.772V17.008H83.2468V12.796C83.5948 13.348 83.9308 13.972 84.1108 14.356L84.9868 13.252ZM91.3348 13.528L91.1188 12.196L89.8948 12.424V5.824H88.5508V12.664L84.9868 13.3L85.2028 14.632L88.5508 14.032V17.032H89.8948V13.792L91.3348 13.528ZM94.3108 5.884C93.7708 7.576 92.8348 9.28 91.8268 10.372C92.0908 10.732 92.4868 11.512 92.6188 11.86C92.8588 11.572 93.1108 11.248 93.3508 10.924V17.02H94.7068V8.608C95.0788 7.84 95.4028 7.06 95.6668 6.292L94.3108 5.884ZM99.8188 13.756V10.624C100.227 11.752 100.731 12.832 101.295 13.756H99.8188ZM96.9628 13.756C97.5268 12.868 98.0308 11.812 98.4268 10.708V13.756H96.9628ZM103.131 9.328V7.972H99.8188V5.896H98.4268V7.972H95.3908V9.328H97.7548C97.0948 11.224 95.9788 13.12 94.7668 14.2C95.0908 14.44 95.5468 14.944 95.7868 15.28C96.1708 14.896 96.5188 14.44 96.8548 13.924V15.028H98.4268V16.96H99.8188V15.028H101.427V13.972C101.739 14.452 102.051 14.872 102.387 15.244C102.639 14.872 103.131 14.392 103.455 14.14C102.291 13.048 101.187 11.176 100.527 9.328H103.131ZM104.619 16.372C105.111 15.7 105.231 14.584 105.291 13.492L104.499 13.336C104.451 14.356 104.307 15.364 103.899 15.976L104.619 16.372ZM105.399 13.588C105.483 14.296 105.519 15.208 105.483 15.808L106.131 15.724C106.167 15.148 106.119 14.224 106.011 13.528L105.399 13.588ZM106.215 13.528C106.407 14.152 106.563 14.956 106.587 15.472L107.211 15.34C107.175 14.824 107.007 14.032 106.815 13.408L106.215 13.528ZM107.727 11.716V10.972H108.771V9.892H107.727V9.172H108.771V8.896C108.975 9.196 109.203 9.604 109.335 9.916C109.659 9.724 109.959 9.484 110.259 9.232V9.88H111.483V10.528H109.443V13.696H111.147C110.823 14.536 110.175 15.328 108.939 15.952C109.071 15.316 109.143 14.164 109.227 12.184C109.239 12.028 109.239 11.716 109.239 11.716H107.727ZM105.771 10.972H106.587V11.716H105.771V10.972ZM106.587 9.172V9.892H105.771V9.172H106.587ZM106.587 7.432V8.092H105.771V7.432H106.587ZM110.727 8.788C111.267 8.236 111.735 7.624 112.047 7.084C112.383 7.636 112.887 8.26 113.451 8.788H110.727ZM113.679 11.56V12.664H112.695C112.731 12.304 112.743 11.956 112.743 11.608V11.56H113.679ZM110.607 12.664V11.56H111.483V11.596C111.483 11.944 111.471 12.304 111.411 12.664H110.607ZM114.891 13.696V10.528H112.743V9.88H113.943V9.22C114.195 9.436 114.459 9.616 114.723 9.772C114.903 9.4 115.179 8.884 115.431 8.548C114.375 8.044 113.331 6.952 112.611 5.848H111.387C110.895 6.844 109.851 8.08 108.771 8.728V8.092H107.727V7.432H109.011V6.28H104.595V12.82H108.027C108.003 13.336 107.979 13.78 107.955 14.14C107.847 13.816 107.703 13.468 107.547 13.168L106.983 13.36C107.211 13.84 107.451 14.488 107.523 14.908L107.907 14.764C107.847 15.388 107.787 15.688 107.703 15.808C107.607 15.928 107.523 15.964 107.379 15.964C107.223 15.964 106.959 15.952 106.647 15.916C106.815 16.216 106.923 16.684 106.935 17.02C107.367 17.044 107.751 17.032 107.991 16.984C108.291 16.948 108.507 16.84 108.711 16.564C108.771 16.492 108.819 16.384 108.867 16.228C109.119 16.468 109.419 16.828 109.563 17.068C110.991 16.372 111.795 15.472 112.227 14.512C112.743 15.616 113.475 16.516 114.471 17.032C114.675 16.672 115.083 16.168 115.371 15.904C114.363 15.472 113.607 14.668 113.127 13.696H114.891ZM126.027 10.3L125.763 10.396H123.867L124.155 9.928C123.879 9.796 123.519 9.664 123.123 9.508C124.131 8.824 125.127 7.996 125.895 7.228L124.875 6.424L124.551 6.508H117.375V7.816H123.171C122.703 8.224 122.163 8.62 121.647 8.944C120.975 8.692 120.303 8.464 119.763 8.272L119.055 9.352C119.823 9.64 120.795 10.024 121.683 10.396H116.223V11.752H120.963V15.436C120.963 15.616 120.891 15.664 120.663 15.676C120.423 15.676 119.535 15.676 118.827 15.652C119.043 16.024 119.271 16.612 119.343 17.02C120.375 17.02 121.155 17.008 121.707 16.804C122.283 16.6 122.451 16.24 122.451 15.484V11.752H124.983C124.683 12.292 124.335 12.832 124.047 13.228L125.271 13.936C125.943 13.132 126.651 11.932 127.191 10.804L126.027 10.3ZM128.487 12.856C128.391 13.864 128.199 14.932 127.851 15.64C128.163 15.748 128.691 16 128.943 16.156C129.291 15.388 129.543 14.188 129.663 13.06L128.487 12.856ZM131.163 13.12C131.463 13.852 131.775 14.824 131.871 15.436L132.999 15.04C132.855 14.428 132.543 13.492 132.219 12.784L131.163 13.12ZM134.907 7.864C135.135 7.312 135.339 6.736 135.495 6.148L134.031 5.836C133.647 7.348 132.939 8.884 132.051 9.832L131.967 9.688L130.959 10.132C131.103 10.384 131.247 10.672 131.379 10.96L130.167 11.008C130.947 10.036 131.787 8.812 132.459 7.756L131.247 7.252C130.959 7.852 130.575 8.548 130.143 9.22C130.023 9.064 129.879 8.884 129.723 8.716C130.155 8.044 130.647 7.12 131.079 6.292L129.819 5.848C129.615 6.472 129.279 7.276 128.943 7.936C128.847 7.852 128.751 7.768 128.655 7.684L127.983 8.668C128.487 9.148 129.075 9.796 129.423 10.312C129.243 10.576 129.051 10.828 128.871 11.056L127.983 11.092L128.103 12.34L129.879 12.22V17.056H131.139V12.124L131.823 12.076C131.895 12.316 131.955 12.532 131.991 12.724L133.071 12.22C132.939 11.62 132.555 10.732 132.135 9.976C132.495 10.192 133.023 10.552 133.263 10.768C133.623 10.336 133.959 9.808 134.283 9.22H137.595C137.463 13.312 137.283 15.064 136.923 15.436C136.779 15.592 136.647 15.64 136.419 15.64C136.095 15.64 135.411 15.64 134.655 15.568C134.919 15.976 135.111 16.6 135.135 17.008C135.831 17.032 136.575 17.044 137.007 16.972C137.511 16.9 137.823 16.768 138.159 16.312C138.663 15.676 138.831 13.78 138.987 8.524C138.999 8.344 138.999 7.864 138.999 7.864H134.907ZM136.263 13.348C136.011 12.592 135.327 11.488 134.703 10.66L133.563 11.236C134.175 12.1 134.799 13.252 135.027 14.008L136.263 13.348Z" fill="white"/>
</svg>
