<svg width="415" height="81" viewBox="0 0 415 81" fill="none" xmlns="http://www.w3.org/2000/svg">
<g filter="url(#filter0_d_197_1881)">
<path d="M37.8439 36.9614H62.8508C62.1006 40.0113 61.3135 42.7825 60.4893 45.2748C59.709 47.6722 58.7181 49.9959 57.5282 52.2187C55.9757 55.0901 54.0869 57.7665 51.9019 60.1916C49.8878 62.4209 47.582 64.3681 45.047 65.9806C42.645 67.5073 40.0477 68.7026 37.3257 69.534C34.6856 70.3358 31.9418 70.7449 29.1826 70.748C25.7913 70.8323 22.4326 70.0689 19.4108 68.5272C16.7154 67.0971 14.4722 64.9437 12.9333 62.3088C11.277 59.3542 10.3055 56.0654 10.0906 52.685C9.80253 48.5172 10.2027 44.3304 11.275 40.2927C12.3076 35.979 13.9424 31.8321 16.1313 27.9743C18.1364 24.4092 20.6866 21.1795 23.6896 18.4024C26.5179 15.8034 29.7736 13.7123 33.3133 12.221C36.8441 10.7438 40.6349 9.98869 44.4621 10.0001C49.5158 10.0001 53.6342 11.2956 56.8174 13.8866C60.0007 16.4776 62.034 20.4949 62.9174 25.9385L49.5182 31.809C49.1777 28.6553 48.2869 26.3925 46.8458 25.0205C45.3358 23.6245 43.3338 22.8844 41.2788 22.9625C39.3885 22.9642 37.523 23.3945 35.8229 24.221C34.0064 25.1103 32.368 26.3246 30.9888 27.804C29.4249 29.4839 28.0974 31.3693 27.0431 33.408C25.8337 35.7263 24.9162 38.1855 24.3115 40.7294C23.7402 42.9471 23.4491 45.2277 23.4454 47.5179C23.4188 49.3802 23.7872 51.2271 24.5262 52.9367C25.1749 54.4093 26.2602 55.6471 27.6354 56.4827C29.2159 57.3663 31.0077 57.8014 32.8174 57.7412C34.0676 57.7388 35.3121 57.572 36.5188 57.2452C37.7676 56.9065 38.9528 56.3664 40.0278 55.6462C41.1655 54.8604 42.166 53.8924 42.9889 52.7813C43.9474 51.475 44.7105 50.0361 45.2542 48.5098H34.8902L37.8439 36.9614Z" fill="white"/>
<path d="M67.7957 40.396C68.8177 36.1902 70.4779 32.1657 72.7185 28.4626C74.8722 24.8896 77.5329 21.6479 80.6174 18.8388C83.5767 16.1418 86.9706 13.9643 90.6557 12.3983C94.261 10.8569 98.1425 10.066 102.063 10.0738C105.611 9.99187 109.124 10.7905 112.287 12.3983C115.137 13.8812 117.534 16.1064 119.223 18.8388C120.985 21.7718 122.074 25.0584 122.414 28.4626C122.811 32.4651 122.49 36.5063 121.466 40.396C120.447 44.6027 118.787 48.6276 116.544 52.3294C114.389 55.912 111.714 59.1552 108.608 61.9531C105.629 64.6558 102.215 66.8358 98.5101 68.401C94.9147 69.9325 91.0473 70.723 87.1393 70.7255C83.5794 70.8136 80.0534 70.0148 76.879 68.401C74.0477 66.9131 71.6733 64.6846 70.0091 61.9531C68.2619 59.0161 67.1827 55.7304 66.8481 52.3294C66.4511 48.3269 66.772 44.2857 67.7957 40.396V40.396ZM80.9727 40.396C80.4257 42.4586 80.2676 44.605 80.5063 46.7254C80.7074 48.5091 81.2962 50.2272 82.2312 51.7594C83.0925 53.1565 84.3083 54.3008 85.755 55.0759C87.2763 55.8836 88.9779 56.2912 90.7001 56.2603C92.6051 56.2486 94.4873 55.8454 96.23 55.0759C98.1228 54.2532 99.8722 53.1336 101.412 51.7594C103.057 50.2943 104.481 48.5987 105.639 46.7254C106.849 44.7685 107.741 42.6321 108.282 40.396C108.829 38.3334 108.987 36.187 108.748 34.0665C108.548 32.2783 107.948 30.558 106.994 29.0326C106.113 27.6413 104.889 26.4993 103.44 25.7161C101.916 24.9093 100.212 24.5018 98.4879 24.5316C96.5829 24.5434 94.7007 24.9466 92.958 25.7161C91.0599 26.5289 89.309 27.6494 87.776 29.0326C86.145 30.5008 84.7338 32.1962 83.5859 34.0665C82.3838 36.0239 81.5016 38.1606 80.9727 40.396V40.396Z" fill="white"/>
<path d="M149.109 11.6429L138.086 56.4821H153.188L150.079 69.141H122.363L136.502 11.6355L149.109 11.6429Z" fill="white"/>
<path d="M195.362 24.3023H180.194L177.832 33.926H191.653L188.544 46.5849H174.723L169.171 69.1637H156.586L170.725 11.6582H198.494L195.362 24.3023Z" fill="white"/>
<path d="M230.443 24.3023H215.46L213.098 33.926H227.245L224.129 46.5849H209.989L207.554 56.5048H222.53L219.42 69.1637H191.837L205.977 11.6582H233.553L230.443 24.3023Z" fill="white"/>
<path d="M268.813 69.1488H253.126L246.538 47.0291L241.104 69.1488H228.519L242.651 11.6433H262.276C264.597 11.5632 266.903 12.0458 268.998 13.0499C270.694 13.9087 272.098 15.2508 273.032 16.9068C273.975 18.6444 274.512 20.573 274.602 22.5478C274.726 24.857 274.494 27.1717 273.913 29.4102C273.062 33.3407 271.248 36.9985 268.635 40.0555C266.175 42.7783 262.958 44.704 259.396 45.5855L268.813 69.1488ZM248.921 37.3165H251.298C253.5 37.4004 255.67 36.7579 257.472 35.488C259.156 34.1785 260.321 32.3131 260.758 30.2245C261.321 27.9395 261.074 26.185 260.018 24.9611C258.962 23.7372 257.205 23.1277 254.747 23.1326H252.371L248.921 37.3165Z" fill="white"/>
<path d="M311.209 26.3605C310.3 25.1458 309.145 24.1368 307.819 23.3994C306.667 22.7789 305.381 22.4509 304.073 22.4444C302.522 22.4198 301.004 22.9005 299.75 23.8139C298.532 24.6733 297.668 25.9471 297.322 27.3969C297.056 28.2282 297.111 29.1289 297.477 29.9213C297.858 30.6163 298.408 31.2043 299.076 31.6314C299.861 32.1516 300.706 32.5743 301.593 32.8898C302.563 33.2452 303.503 33.6301 304.436 34.0373C308.147 35.6659 310.615 37.8399 311.839 40.5592C313.063 43.2785 313.144 46.8245 312.083 51.1971C311.411 54.0115 310.326 56.7109 308.863 59.207C307.495 61.5312 305.743 63.6064 303.681 65.344C301.636 67.0596 299.306 68.4026 296.796 69.3119C294.139 70.2659 291.335 70.7421 288.512 70.7185C285.628 70.7801 282.763 70.2353 280.103 69.1195C277.443 68.0036 275.047 66.3416 273.07 64.241L281.428 52.1891C282.604 53.968 284.14 55.481 285.936 56.6308C287.468 57.5904 289.237 58.1031 291.044 58.1114C292.863 58.1952 294.648 57.5958 296.048 56.431C297.246 55.4499 298.104 54.1157 298.499 52.6185C298.699 51.8962 298.757 51.1419 298.669 50.3976C298.554 49.7413 298.256 49.1307 297.81 48.6357C297.246 48.0271 296.576 47.5255 295.834 47.1552C294.985 46.6962 293.941 46.1879 292.702 45.6302C291.222 45.0133 289.79 44.3371 288.409 43.6018C287.051 42.8831 285.87 41.8717 284.951 40.6406C283.976 39.2756 283.351 37.6919 283.13 36.0287C282.875 33.6599 283.081 31.264 283.737 28.9737C284.387 26.256 285.43 23.6475 286.832 21.2303C288.119 19.0211 289.74 17.0235 291.636 15.308C293.465 13.6673 295.571 12.364 297.855 11.4585C300.183 10.538 302.665 10.0731 305.169 10.089C307.626 10.099 310.067 10.4962 312.401 11.2661C314.799 12.0469 317.05 13.2201 319.064 14.738L311.209 26.3605Z" fill="white"/>
<path d="M351.347 69.1495H312.327L327.991 54.3437C332.122 50.435 335.421 47.1186 337.889 44.3943C339.923 42.2043 341.831 39.9007 343.604 37.4948C344.675 36.0622 345.603 34.5273 346.372 32.9125C346.797 31.9534 347.149 30.9635 347.424 29.9513C347.627 29.1258 347.716 28.2766 347.69 27.4269C347.666 26.6755 347.487 25.9371 347.165 25.2579C346.864 24.6402 346.404 24.1137 345.832 23.7329C345.167 23.3222 344.392 23.1234 343.611 23.1629C342.763 23.1629 341.925 23.3393 341.148 23.6808C340.372 24.0224 339.676 24.5216 339.103 25.1468C337.781 26.5239 336.862 28.2367 336.445 30.0994C336.264 30.9055 336.128 31.7211 336.038 32.5423H322.276C323.051 29.332 324.286 26.2503 325.941 23.3924C327.447 20.7535 329.347 18.3596 331.574 16.293C333.644 14.3651 336.037 12.8165 338.644 11.7181C341.158 10.6603 343.859 10.1166 346.587 10.119C349.045 10.0669 351.481 10.5891 353.701 11.644C355.685 12.6076 357.377 14.0819 358.602 15.9155C359.871 17.8798 360.664 20.1129 360.919 22.4374C361.229 25.1826 361.026 27.9615 360.319 30.6324C359.56 33.7478 358.257 36.7049 356.47 39.3678C354.343 42.4182 351.836 45.1846 349.008 47.5997L338.777 56.4832H354.464L351.347 69.1495Z" fill="white"/>
<path d="M395.958 45.8894H401.814L399.001 57.3268H393.145L390.243 69.1714H378.546L381.448 57.3268H358.048L360.409 47.7031L387.8 11.6289H404.382L395.958 45.8894ZM384.261 45.8894L389.828 23.2366L373.142 45.8894H384.261Z" fill="white"/>
<path d="M37.8439 36.9614H62.8508C62.1006 40.0113 61.3135 42.7825 60.4893 45.2748C59.709 47.6722 58.7181 49.9959 57.5282 52.2187C55.9757 55.0901 54.0869 57.7665 51.9019 60.1916C49.8878 62.4209 47.582 64.3681 45.047 65.9806C42.645 67.5073 40.0477 68.7026 37.3257 69.534C34.6856 70.3358 31.9418 70.7449 29.1826 70.748C25.7913 70.8323 22.4326 70.0689 19.4108 68.5272C16.7154 67.0971 14.4722 64.9437 12.9333 62.3088C11.277 59.3542 10.3055 56.0654 10.0906 52.685C9.80253 48.5172 10.2027 44.3304 11.275 40.2927C12.3076 35.979 13.9424 31.8321 16.1313 27.9743C18.1364 24.4092 20.6866 21.1795 23.6896 18.4024C26.5179 15.8034 29.7736 13.7123 33.3133 12.221C36.8441 10.7438 40.6349 9.98869 44.4621 10.0001C49.5158 10.0001 53.6342 11.2956 56.8174 13.8866C60.0007 16.4776 62.034 20.4949 62.9174 25.9385L49.5182 31.809C49.1777 28.6553 48.2869 26.3925 46.8458 25.0205C45.3358 23.6245 43.3338 22.8844 41.2788 22.9625C39.3885 22.9642 37.523 23.3945 35.8229 24.221C34.0064 25.1103 32.368 26.3246 30.9888 27.804C29.4249 29.4839 28.0974 31.3693 27.0431 33.408C25.8337 35.7263 24.9162 38.1855 24.3115 40.7294C23.7402 42.9471 23.4491 45.2277 23.4454 47.5179C23.4188 49.3802 23.7872 51.2271 24.5262 52.9367C25.1749 54.4093 26.2602 55.6471 27.6354 56.4827C29.2159 57.3663 31.0077 57.8014 32.8174 57.7412C34.0676 57.7388 35.3121 57.572 36.5188 57.2452C37.7676 56.9065 38.9528 56.3664 40.0278 55.6462C41.1655 54.8604 42.166 53.8924 42.9889 52.7813C43.9474 51.475 44.7105 50.0361 45.2542 48.5098H34.8902L37.8439 36.9614Z" fill="white"/>
<path d="M67.7957 40.396C68.8177 36.1902 70.4779 32.1657 72.7185 28.4626C74.8722 24.8896 77.5329 21.6479 80.6174 18.8388C83.5767 16.1418 86.9706 13.9643 90.6557 12.3983C94.261 10.8569 98.1425 10.066 102.063 10.0738C105.611 9.99187 109.124 10.7905 112.287 12.3983C115.137 13.8812 117.534 16.1064 119.223 18.8388C120.985 21.7718 122.074 25.0584 122.414 28.4626C122.811 32.4651 122.49 36.5063 121.466 40.396C120.447 44.6027 118.787 48.6276 116.544 52.3294C114.389 55.912 111.714 59.1552 108.608 61.9531C105.629 64.6558 102.215 66.8358 98.5101 68.401C94.9147 69.9325 91.0473 70.723 87.1393 70.7255C83.5794 70.8136 80.0534 70.0148 76.879 68.401C74.0477 66.9131 71.6733 64.6846 70.0091 61.9531C68.2619 59.0161 67.1827 55.7304 66.8481 52.3294C66.4511 48.3269 66.772 44.2857 67.7957 40.396V40.396ZM80.9727 40.396C80.4257 42.4586 80.2676 44.605 80.5063 46.7254C80.7074 48.5091 81.2962 50.2272 82.2312 51.7594C83.0925 53.1565 84.3083 54.3008 85.755 55.0759C87.2763 55.8836 88.9779 56.2912 90.7001 56.2603C92.6051 56.2486 94.4873 55.8454 96.23 55.0759C98.1228 54.2532 99.8722 53.1336 101.412 51.7594C103.057 50.2943 104.481 48.5987 105.639 46.7254C106.849 44.7685 107.741 42.6321 108.282 40.396C108.829 38.3334 108.987 36.187 108.748 34.0665C108.548 32.2783 107.948 30.558 106.994 29.0326C106.113 27.6413 104.889 26.4993 103.44 25.7161C101.916 24.9093 100.212 24.5018 98.4879 24.5316C96.5829 24.5434 94.7007 24.9466 92.958 25.7161C91.0599 26.5289 89.309 27.6494 87.776 29.0326C86.145 30.5008 84.7338 32.1962 83.5859 34.0665C82.3838 36.0239 81.5016 38.1606 80.9727 40.396V40.396Z" fill="white"/>
<path d="M149.109 11.6429L138.086 56.4821H153.188L150.079 69.141H122.363L136.502 11.6355L149.109 11.6429Z" fill="white"/>
<path d="M195.362 24.3023H180.194L177.832 33.926H191.653L188.544 46.5849H174.723L169.171 69.1637H156.586L170.725 11.6582H198.494L195.362 24.3023Z" fill="white"/>
<path d="M230.443 24.3023H215.46L213.098 33.926H227.245L224.129 46.5849H209.989L207.554 56.5048H222.53L219.42 69.1637H191.837L205.977 11.6582H233.553L230.443 24.3023Z" fill="white"/>
<path d="M268.813 69.1488H253.126L246.538 47.0291L241.104 69.1488H228.519L242.651 11.6433H262.276C264.597 11.5632 266.903 12.0458 268.998 13.0499C270.694 13.9087 272.098 15.2508 273.032 16.9068C273.975 18.6444 274.512 20.573 274.602 22.5478C274.726 24.857 274.494 27.1717 273.913 29.4102C273.062 33.3407 271.248 36.9985 268.635 40.0555C266.175 42.7783 262.958 44.704 259.396 45.5855L268.813 69.1488ZM248.921 37.3165H251.298C253.5 37.4004 255.67 36.7579 257.472 35.488C259.156 34.1785 260.321 32.3131 260.758 30.2245C261.321 27.9395 261.074 26.185 260.018 24.9611C258.962 23.7372 257.205 23.1277 254.747 23.1326H252.371L248.921 37.3165Z" fill="white"/>
<path d="M311.209 26.3605C310.3 25.1458 309.145 24.1368 307.819 23.3994C306.667 22.7789 305.381 22.4509 304.073 22.4444C302.522 22.4198 301.004 22.9005 299.75 23.8139C298.532 24.6733 297.668 25.9471 297.322 27.3969C297.056 28.2282 297.111 29.1289 297.477 29.9213C297.858 30.6163 298.408 31.2043 299.076 31.6314C299.861 32.1516 300.706 32.5743 301.593 32.8898C302.563 33.2452 303.503 33.6301 304.436 34.0373C308.147 35.6659 310.615 37.8399 311.839 40.5592C313.063 43.2785 313.144 46.8245 312.083 51.1971C311.411 54.0115 310.326 56.7109 308.863 59.207C307.495 61.5312 305.743 63.6064 303.681 65.344C301.636 67.0596 299.306 68.4026 296.796 69.3119C294.139 70.2659 291.335 70.7421 288.512 70.7185C285.628 70.7801 282.763 70.2353 280.103 69.1195C277.443 68.0036 275.047 66.3416 273.07 64.241L281.428 52.1891C282.604 53.968 284.14 55.481 285.936 56.6308C287.468 57.5904 289.237 58.1031 291.044 58.1114C292.863 58.1952 294.648 57.5958 296.048 56.431C297.246 55.4499 298.104 54.1157 298.499 52.6185C298.699 51.8962 298.757 51.1419 298.669 50.3976C298.554 49.7413 298.256 49.1307 297.81 48.6357C297.246 48.0271 296.576 47.5255 295.834 47.1552C294.985 46.6962 293.941 46.1879 292.702 45.6302C291.222 45.0133 289.79 44.3371 288.409 43.6018C287.051 42.8831 285.87 41.8717 284.951 40.6406C283.976 39.2756 283.351 37.6919 283.13 36.0287C282.875 33.6599 283.081 31.264 283.737 28.9737C284.387 26.256 285.43 23.6475 286.832 21.2303C288.119 19.0211 289.74 17.0235 291.636 15.308C293.465 13.6673 295.571 12.364 297.855 11.4585C300.183 10.538 302.665 10.0731 305.169 10.089C307.626 10.099 310.067 10.4962 312.401 11.2661C314.799 12.0469 317.05 13.2201 319.064 14.738L311.209 26.3605Z" fill="white"/>
<path d="M351.347 69.1495H312.327L327.991 54.3437C332.122 50.435 335.421 47.1186 337.889 44.3943C339.923 42.2043 341.831 39.9007 343.604 37.4948C344.675 36.0622 345.603 34.5273 346.372 32.9125C346.797 31.9534 347.149 30.9635 347.424 29.9513C347.627 29.1258 347.716 28.2766 347.69 27.4269C347.666 26.6755 347.487 25.9371 347.165 25.2579C346.864 24.6402 346.404 24.1137 345.832 23.7329C345.167 23.3222 344.392 23.1234 343.611 23.1629C342.763 23.1629 341.925 23.3393 341.148 23.6808C340.372 24.0224 339.676 24.5216 339.103 25.1468C337.781 26.5239 336.862 28.2367 336.445 30.0994C336.264 30.9055 336.128 31.7211 336.038 32.5423H322.276C323.051 29.332 324.286 26.2503 325.941 23.3924C327.447 20.7535 329.347 18.3596 331.574 16.293C333.644 14.3651 336.037 12.8165 338.644 11.7181C341.158 10.6603 343.859 10.1166 346.587 10.119C349.045 10.0669 351.481 10.5891 353.701 11.644C355.685 12.6076 357.377 14.0819 358.602 15.9155C359.871 17.8798 360.664 20.1129 360.919 22.4374C361.229 25.1826 361.026 27.9615 360.319 30.6324C359.56 33.7478 358.257 36.7049 356.47 39.3678C354.343 42.4182 351.836 45.1846 349.008 47.5997L338.777 56.4832H354.464L351.347 69.1495Z" fill="white"/>
<path d="M395.958 45.8894H401.814L399.001 57.3268H393.145L390.243 69.1714H378.546L381.448 57.3268H358.048L360.409 47.7031L387.8 11.6289H404.382L395.958 45.8894ZM384.261 45.8894L389.828 23.2366L373.142 45.8894H384.261Z" fill="white"/>
</g>
<defs>
<filter id="filter0_d_197_1881" x="0" y="0" width="414.382" height="80.7544" filterUnits="userSpaceOnUse" color-interpolation-filters="sRGB">
<feFlood flood-opacity="0" result="BackgroundImageFix"/>
<feColorMatrix in="SourceAlpha" type="matrix" values="0 0 0 0 0 0 0 0 0 0 0 0 0 0 0 0 0 0 127 0" result="hardAlpha"/>
<feOffset/>
<feGaussianBlur stdDeviation="5"/>
<feComposite in2="hardAlpha" operator="out"/>
<feColorMatrix type="matrix" values="0 0 0 0 0 0 0 0 0 0 0 0 0 0 0 0 0 0 0.45 0"/>
<feBlend mode="multiply" in2="BackgroundImageFix" result="effect1_dropShadow_197_1881"/>
<feBlend mode="normal" in="SourceGraphic" in2="effect1_dropShadow_197_1881" result="shape"/>
</filter>
</defs>
</svg>
