<svg width="612" height="178" viewBox="0 0 612 178" fill="none" xmlns="http://www.w3.org/2000/svg">
<path d="M43.1668 124.799H81.9354C80.7725 129.527 79.5522 133.823 78.2744 137.687C77.0647 141.404 75.5285 145.006 73.6837 148.452C71.2769 152.904 68.3487 157.053 64.9612 160.813C61.8387 164.269 58.2641 167.288 54.3339 169.788C50.61 172.155 46.5835 174.008 42.3635 175.296C38.2705 176.54 34.0168 177.174 29.7391 177.179C24.4815 177.309 19.2745 176.126 14.5898 173.736C10.4109 171.519 6.93326 168.18 4.54758 164.095C1.97983 159.515 0.47363 154.416 0.140399 149.175C-0.306141 142.714 0.314224 136.223 1.97666 129.963C3.57748 123.276 6.11201 116.847 9.50549 110.866C12.614 105.339 16.5677 100.332 21.2232 96.0263C25.608 91.9972 30.6554 88.7552 36.1431 86.4432C41.6168 84.1532 47.4937 82.9825 53.4272 83.0002C61.262 83.0002 67.6468 85.0086 72.5818 89.0255C77.5169 93.0424 80.6691 99.2705 82.0387 107.71L61.2658 116.811C60.7378 111.922 59.3568 108.414 57.1227 106.287C54.7817 104.122 51.6779 102.975 48.4921 103.096C45.5614 103.099 42.6694 103.766 40.0337 105.047C37.2175 106.426 34.6775 108.308 32.5393 110.602C30.1147 113.206 28.0567 116.129 26.4223 119.29C24.5472 122.884 23.1248 126.696 22.1874 130.64C21.3016 134.078 20.8504 137.614 20.8446 141.165C20.8034 144.052 21.3745 146.915 22.5201 149.566C23.5258 151.848 25.2085 153.767 27.3405 155.063C29.7907 156.433 32.5686 157.107 35.3742 157.014C37.3124 157.01 39.2418 156.752 41.1126 156.245C43.0486 155.72 44.886 154.883 46.5526 153.766C48.3164 152.548 49.8674 151.047 51.1433 149.325C52.6292 147.299 53.8122 145.069 54.6551 142.702H38.5876L43.1668 124.799Z" fill="white"/>
<path d="M89.6017 130.123C91.1863 123.603 93.7601 117.364 97.2337 111.623C100.573 106.083 104.698 101.058 109.479 96.7029C114.067 92.5216 119.329 89.1458 125.042 86.7181C130.631 84.3283 136.649 83.1022 142.728 83.1144C148.227 82.9873 153.673 84.2254 158.577 86.7181C162.996 89.0169 166.711 92.4667 169.331 96.7029C172.061 101.25 173.751 106.345 174.277 111.623C174.893 117.828 174.395 124.093 172.808 130.123C171.228 136.645 168.654 142.885 165.176 148.624C161.835 154.178 157.689 159.206 152.873 163.544C148.255 167.734 142.963 171.113 137.219 173.54C131.645 175.914 125.649 177.14 119.591 177.144C114.071 177.28 108.605 176.042 103.684 173.54C99.2944 171.233 95.6133 167.778 93.0333 163.544C90.3246 158.99 88.6514 153.897 88.1327 148.624C87.5173 142.419 88.0148 136.154 89.6017 130.123ZM110.03 130.123C109.182 133.321 108.937 136.649 109.307 139.936C109.619 142.701 110.532 145.365 111.981 147.74C113.317 149.906 115.202 151.68 117.444 152.882C119.803 154.134 122.441 154.766 125.111 154.718C128.064 154.7 130.982 154.075 133.684 152.882C136.618 151.606 139.331 149.871 141.718 147.74C144.268 145.469 146.475 142.84 148.271 139.936C150.147 136.902 151.529 133.59 152.368 130.123C153.216 126.926 153.461 123.598 153.091 120.311C152.78 117.538 151.851 114.871 150.371 112.506C149.005 110.349 147.108 108.579 144.862 107.365C142.499 106.114 139.858 105.482 137.184 105.529C134.231 105.547 131.313 106.172 128.611 107.365C125.669 108.625 122.954 110.362 120.578 112.506C118.049 114.783 115.861 117.411 114.082 120.311C112.218 123.345 110.85 126.658 110.03 130.123Z" fill="white"/>
<path d="M215.664 85.5471L198.575 155.062H221.988L217.167 174.687H174.198L196.119 85.5356L215.664 85.5471Z" fill="white"/>
<path d="M287.37 105.173H263.854L260.193 120.093H281.62L276.8 139.718H255.373L246.765 174.722H227.255L249.176 85.5708H292.225L287.37 105.173Z" fill="white"/>
<path d="M341.757 105.173H318.528L314.867 120.093H336.799L331.967 139.718H310.046L306.27 155.097H329.488L324.668 174.722H281.905L303.826 85.5708H346.577L341.757 105.173Z" fill="white"/>
<path d="M401.241 174.699H376.922L366.708 140.407L358.284 174.699H338.773L360.683 85.5475H391.108C394.706 85.4232 398.281 86.1714 401.528 87.7281C404.158 89.0596 406.335 91.1402 407.783 93.7075C409.245 96.4013 410.077 99.3913 410.216 102.453C410.409 106.033 410.049 109.621 409.149 113.092C407.829 119.185 405.017 124.856 400.966 129.595C397.153 133.817 392.165 136.802 386.643 138.169L401.241 174.699ZM370.403 125.349H374.088C377.503 125.479 380.866 124.483 383.659 122.514C386.271 120.484 388.077 117.592 388.755 114.354C389.627 110.812 389.244 108.092 387.607 106.194C385.97 104.297 383.246 103.352 379.436 103.359H375.752L370.403 125.349Z" fill="white"/>
<path d="M466.97 108.364C465.561 106.481 463.77 104.916 461.714 103.773C459.929 102.811 457.934 102.303 455.907 102.293C453.501 102.254 451.149 103 449.204 104.416C447.316 105.748 445.977 107.723 445.44 109.971C445.027 111.259 445.114 112.656 445.681 113.884C446.272 114.962 447.124 115.873 448.16 116.535C449.376 117.342 450.687 117.997 452.062 118.486C453.565 119.037 455.023 119.634 456.469 120.265C462.223 122.79 466.048 126.16 467.946 130.376C469.843 134.592 469.97 140.089 468.325 146.868C467.283 151.232 465.601 155.416 463.332 159.286C461.212 162.89 458.496 166.107 455.298 168.801C452.128 171.46 448.515 173.542 444.625 174.952C440.506 176.431 436.158 177.169 431.782 177.133C427.311 177.228 422.87 176.384 418.746 174.654C414.622 172.924 410.907 170.347 407.842 167.09L420.799 148.406C422.623 151.164 425.004 153.51 427.788 155.292C430.163 156.78 432.906 157.575 435.707 157.588C438.528 157.718 441.295 156.788 443.466 154.982C445.323 153.462 446.652 151.393 447.265 149.072C447.575 147.952 447.665 146.783 447.529 145.629C447.35 144.611 446.889 143.665 446.197 142.897C445.323 141.954 444.284 141.176 443.133 140.602C441.817 139.89 440.199 139.102 438.278 138.238C435.983 137.281 433.764 136.233 431.622 135.093C429.517 133.979 427.686 132.411 426.262 130.503C424.75 128.386 423.78 125.931 423.439 123.352C423.042 119.68 423.362 115.966 424.38 112.415C425.387 108.202 427.004 104.158 429.177 100.41C431.173 96.9853 433.686 93.8885 436.626 91.229C439.461 88.6853 442.725 86.6647 446.266 85.261C449.875 83.8339 453.724 83.1131 457.605 83.1378C461.415 83.1533 465.199 83.7691 468.818 84.9626C472.535 86.1731 476.025 87.9921 479.147 90.3452L466.97 108.364Z" fill="white"/>
<path d="M529.196 174.701H468.702L492.987 151.747C499.391 145.687 504.506 140.546 508.332 136.322C511.485 132.927 514.443 129.356 517.192 125.626C518.853 123.405 520.29 121.025 521.484 118.522C522.142 117.035 522.687 115.5 523.114 113.931C523.428 112.651 523.567 111.335 523.527 110.017C523.489 108.852 523.212 107.708 522.712 106.655C522.246 105.697 521.533 104.881 520.646 104.291C519.615 103.654 518.414 103.346 517.203 103.407C515.888 103.407 514.588 103.68 513.385 104.21C512.182 104.739 511.102 105.513 510.214 106.483C508.165 108.617 506.74 111.273 506.093 114.161C505.813 115.41 505.602 116.675 505.462 117.948H484.127C485.329 112.971 487.242 108.193 489.808 103.763C492.143 99.6715 495.088 95.9601 498.542 92.7564C501.751 89.7675 505.461 87.3667 509.502 85.6637C513.4 84.0239 517.588 83.181 521.817 83.1847C525.627 83.1039 529.404 83.9135 532.846 85.5489C535.921 87.0427 538.544 89.3284 540.444 92.171C542.411 95.2163 543.641 98.6783 544.036 102.282C544.516 106.538 544.201 110.846 543.106 114.987C541.928 119.817 539.908 124.401 537.138 128.529C533.841 133.259 529.953 137.547 525.57 141.292L509.709 155.064H534.028L529.196 174.701Z" fill="white"/>
<path d="M598.357 138.64H607.435L603.074 156.372H593.995L589.496 174.734H571.363L575.862 156.372H539.584L543.245 141.452L585.709 85.5254H611.417L598.357 138.64ZM580.223 138.64L588.854 103.521L562.985 138.64H580.223Z" fill="white"/>
<path d="M43.1668 124.799H81.9354C80.7725 129.527 79.5522 133.823 78.2744 137.687C77.0647 141.404 75.5285 145.006 73.6837 148.452C71.2769 152.904 68.3487 157.053 64.9612 160.813C61.8387 164.269 58.2641 167.288 54.3339 169.788C50.61 172.155 46.5835 174.008 42.3635 175.296C38.2705 176.54 34.0168 177.174 29.7391 177.179C24.4815 177.309 19.2745 176.126 14.5898 173.736C10.4109 171.519 6.93326 168.18 4.54758 164.095C1.97983 159.515 0.47363 154.416 0.140399 149.175C-0.306141 142.714 0.314224 136.223 1.97666 129.963C3.57748 123.276 6.11201 116.847 9.50549 110.866C12.614 105.339 16.5677 100.332 21.2232 96.0263C25.608 91.9972 30.6554 88.7552 36.1431 86.4432C41.6168 84.1532 47.4937 82.9825 53.4272 83.0002C61.262 83.0002 67.6468 85.0086 72.5818 89.0255C77.5169 93.0424 80.6691 99.2705 82.0387 107.71L61.2658 116.811C60.7378 111.922 59.3568 108.414 57.1227 106.287C54.7817 104.122 51.6779 102.975 48.4921 103.096C45.5614 103.099 42.6694 103.766 40.0337 105.047C37.2175 106.426 34.6775 108.308 32.5393 110.602C30.1147 113.206 28.0567 116.129 26.4223 119.29C24.5472 122.884 23.1248 126.696 22.1874 130.64C21.3016 134.078 20.8504 137.614 20.8446 141.165C20.8034 144.052 21.3745 146.915 22.5201 149.566C23.5258 151.848 25.2085 153.767 27.3405 155.063C29.7907 156.433 32.5686 157.107 35.3742 157.014C37.3124 157.01 39.2418 156.752 41.1126 156.245C43.0486 155.72 44.886 154.883 46.5526 153.766C48.3164 152.548 49.8674 151.047 51.1433 149.325C52.6292 147.299 53.8122 145.069 54.6551 142.702H38.5876L43.1668 124.799Z" fill="white"/>
<path d="M89.6017 130.123C91.1863 123.603 93.7601 117.364 97.2337 111.623C100.573 106.083 104.698 101.058 109.479 96.7029C114.067 92.5216 119.329 89.1458 125.042 86.7181C130.631 84.3283 136.649 83.1022 142.728 83.1144C148.227 82.9873 153.673 84.2254 158.577 86.7181C162.996 89.0169 166.711 92.4667 169.331 96.7029C172.061 101.25 173.751 106.345 174.277 111.623C174.893 117.828 174.395 124.093 172.808 130.123C171.228 136.645 168.654 142.885 165.176 148.624C161.835 154.178 157.689 159.206 152.873 163.544C148.255 167.734 142.963 171.113 137.219 173.54C131.645 175.914 125.649 177.14 119.591 177.144C114.071 177.28 108.605 176.042 103.684 173.54C99.2944 171.233 95.6133 167.778 93.0333 163.544C90.3246 158.99 88.6514 153.897 88.1327 148.624C87.5173 142.419 88.0148 136.154 89.6017 130.123ZM110.03 130.123C109.182 133.321 108.937 136.649 109.307 139.936C109.619 142.701 110.532 145.365 111.981 147.74C113.317 149.906 115.202 151.68 117.444 152.882C119.803 154.134 122.441 154.766 125.111 154.718C128.064 154.7 130.982 154.075 133.684 152.882C136.618 151.606 139.331 149.871 141.718 147.74C144.268 145.469 146.475 142.84 148.271 139.936C150.147 136.902 151.529 133.59 152.368 130.123C153.216 126.926 153.461 123.598 153.091 120.311C152.78 117.538 151.851 114.871 150.371 112.506C149.005 110.349 147.108 108.579 144.862 107.365C142.499 106.114 139.858 105.482 137.184 105.529C134.231 105.547 131.313 106.172 128.611 107.365C125.669 108.625 122.954 110.362 120.578 112.506C118.049 114.783 115.861 117.411 114.082 120.311C112.218 123.345 110.85 126.658 110.03 130.123Z" fill="white"/>
<path d="M215.664 85.5471L198.575 155.062H221.988L217.167 174.687H174.198L196.119 85.5356L215.664 85.5471Z" fill="white"/>
<path d="M287.37 105.173H263.854L260.193 120.093H281.62L276.8 139.718H255.373L246.765 174.722H227.255L249.176 85.5708H292.225L287.37 105.173Z" fill="white"/>
<path d="M341.757 105.173H318.528L314.867 120.093H336.799L331.967 139.718H310.046L306.27 155.097H329.488L324.668 174.722H281.905L303.826 85.5708H346.577L341.757 105.173Z" fill="white"/>
<path d="M401.241 174.699H376.922L366.708 140.407L358.284 174.699H338.773L360.683 85.5475H391.108C394.706 85.4232 398.281 86.1714 401.528 87.7281C404.158 89.0596 406.335 91.1402 407.783 93.7075C409.245 96.4013 410.077 99.3913 410.216 102.453C410.409 106.033 410.049 109.621 409.149 113.092C407.829 119.185 405.017 124.856 400.966 129.595C397.153 133.817 392.165 136.802 386.643 138.169L401.241 174.699ZM370.403 125.349H374.088C377.503 125.479 380.866 124.483 383.659 122.514C386.271 120.484 388.077 117.592 388.755 114.354C389.627 110.812 389.244 108.092 387.607 106.194C385.97 104.297 383.246 103.352 379.436 103.359H375.752L370.403 125.349Z" fill="white"/>
<path d="M466.97 108.364C465.561 106.481 463.77 104.916 461.714 103.773C459.929 102.811 457.934 102.303 455.907 102.293C453.501 102.254 451.149 103 449.204 104.416C447.316 105.748 445.977 107.723 445.44 109.971C445.027 111.259 445.114 112.656 445.681 113.884C446.272 114.962 447.124 115.873 448.16 116.535C449.376 117.342 450.687 117.997 452.062 118.486C453.565 119.037 455.023 119.634 456.469 120.265C462.223 122.79 466.048 126.16 467.946 130.376C469.843 134.592 469.97 140.089 468.325 146.868C467.283 151.232 465.601 155.416 463.332 159.286C461.212 162.89 458.496 166.107 455.298 168.801C452.128 171.46 448.515 173.542 444.625 174.952C440.506 176.431 436.158 177.169 431.782 177.133C427.311 177.228 422.87 176.384 418.746 174.654C414.622 172.924 410.907 170.347 407.842 167.09L420.799 148.406C422.623 151.164 425.004 153.51 427.788 155.292C430.163 156.78 432.906 157.575 435.707 157.588C438.528 157.718 441.295 156.788 443.466 154.982C445.323 153.462 446.652 151.393 447.265 149.072C447.575 147.952 447.665 146.783 447.529 145.629C447.35 144.611 446.889 143.665 446.197 142.897C445.323 141.954 444.284 141.176 443.133 140.602C441.817 139.89 440.199 139.102 438.278 138.238C435.983 137.281 433.764 136.233 431.622 135.093C429.517 133.979 427.686 132.411 426.262 130.503C424.75 128.386 423.78 125.931 423.439 123.352C423.042 119.68 423.362 115.966 424.38 112.415C425.387 108.202 427.004 104.158 429.177 100.41C431.173 96.9853 433.686 93.8885 436.626 91.229C439.461 88.6853 442.725 86.6647 446.266 85.261C449.875 83.8339 453.724 83.1131 457.605 83.1378C461.415 83.1533 465.199 83.7691 468.818 84.9626C472.535 86.1731 476.025 87.9921 479.147 90.3452L466.97 108.364Z" fill="white"/>
<path d="M529.196 174.701H468.702L492.987 151.747C499.391 145.687 504.506 140.546 508.332 136.322C511.485 132.927 514.443 129.356 517.192 125.626C518.853 123.405 520.29 121.025 521.484 118.522C522.142 117.035 522.687 115.5 523.114 113.931C523.428 112.651 523.567 111.335 523.527 110.017C523.489 108.852 523.212 107.708 522.712 106.655C522.246 105.697 521.533 104.881 520.646 104.291C519.615 103.654 518.414 103.346 517.203 103.407C515.888 103.407 514.588 103.68 513.385 104.21C512.182 104.739 511.102 105.513 510.214 106.483C508.165 108.617 506.74 111.273 506.093 114.161C505.813 115.41 505.602 116.675 505.462 117.948H484.127C485.329 112.971 487.242 108.193 489.808 103.763C492.143 99.6715 495.088 95.9601 498.542 92.7564C501.751 89.7675 505.461 87.3667 509.502 85.6637C513.4 84.0239 517.588 83.181 521.817 83.1847C525.627 83.1039 529.404 83.9135 532.846 85.5489C535.921 87.0427 538.544 89.3284 540.444 92.171C542.411 95.2163 543.641 98.6783 544.036 102.282C544.516 106.538 544.201 110.846 543.106 114.987C541.928 119.817 539.908 124.401 537.138 128.529C533.841 133.259 529.953 137.547 525.57 141.292L509.709 155.064H534.028L529.196 174.701Z" fill="white"/>
<path d="M598.357 138.64H607.435L603.074 156.372H593.995L589.496 174.734H571.363L575.862 156.372H539.584L543.245 141.452L585.709 85.5254H611.417L598.357 138.64ZM580.223 138.64L588.854 103.521L562.985 138.64H580.223Z" fill="white"/>
<path d="M85.62 30.24C85.62 30.84 85.74 31.62 85.89 32.1C86.22 33.09 87.63 34.62 88.56 34.62C89.25 34.62 90 34.05 91.05 33.81C93 33.39 99.78 32.55 101.1 32.55C101.34 32.55 101.43 32.67 101.4 32.91C101.31 34.59 100.65 38.97 100.11 42.36C96.6 42.66 89.37 43.47 88.08 43.47C86.88 43.47 86.1 42.69 85.29 41.85L84.84 42.09C84.81 42.54 84.99 43.44 85.26 44.07C85.71 45.06 87.15 46.41 88.2 46.41C88.98 46.41 89.58 45.99 91.02 45.66C92.61 45.3 95.88 44.76 98.64 44.76C101.01 44.76 102.51 45.12 103.5 45.12C104.43 45.12 104.82 44.85 104.82 44.25C104.82 43.44 104.04 42.57 102.78 42.3C103.44 39.24 104.1 36.06 104.49 34.53C104.73 33.57 105.63 33.21 105.63 32.43C105.63 31.38 102.93 29.64 101.97 29.64C101.25 29.64 101.01 30.39 99.84 30.54C98.1 30.78 90.06 31.62 88.5 31.62C87.45 31.62 86.94 30.84 86.13 30.06L85.62 30.24ZM102.39 26.46C103.74 27.54 104.52 28.56 105.12 29.34C105.63 30.06 106.02 30.6 106.5 30.6C107.04 30.6 107.43 30.21 107.43 29.64C107.43 29.07 107.19 28.53 106.5 27.9C105.63 27.12 104.34 26.52 102.72 25.98L102.39 26.46ZM105.12 24.3C106.62 25.38 107.28 26.19 107.88 26.91C108.51 27.66 108.81 28.23 109.38 28.23C109.92 28.23 110.25 27.87 110.25 27.3C110.25 26.64 109.95 26.04 109.14 25.44C108.36 24.81 107.07 24.27 105.45 23.85L105.12 24.3ZM123.69 28.05C125.16 28.29 125.97 28.71 126 29.52C126.18 32.4 126.03 40.26 125.91 41.82C125.79 42.99 125.43 43.32 125.43 43.92C125.43 44.67 126.96 46.56 127.89 46.56C128.64 46.56 129.12 45.63 129.81 45.18C133.68 42.75 137.97 39.06 140.52 35.1L139.98 34.68C136.83 37.74 132.72 40.74 128.94 42.3C128.58 42.45 128.37 42.33 128.37 41.91C128.34 39.72 128.55 32.61 128.76 31.02C128.88 29.97 129.57 29.88 129.57 29.16C129.57 28.29 127.32 26.94 125.88 26.94C125.13 26.94 124.53 27.09 123.66 27.51L123.69 28.05ZM119.64 33.12C119.64 37.14 116.67 43.47 112.02 47.43L112.47 47.97C118.41 44.67 121.47 39.63 122.46 34.77C122.61 34.02 123.24 33.6 123.24 32.88C123.24 31.8 120.78 30.48 119.52 30.42C118.74 30.39 118.05 30.6 117.45 30.81V31.38C118.35 31.68 119.64 32.16 119.64 33.12ZM146.64 27.39L146.16 27.57C146.19 28.38 146.19 28.89 146.37 29.49C146.67 30.45 148.23 32.19 149.37 32.19C150 32.19 150.75 31.56 151.47 31.35C153.18 30.9 160.62 29.61 162.33 29.61C162.6 29.61 162.75 29.7 162.66 30.03C161.01 36.81 155.25 43.83 146.88 48.15L147.27 48.78C156.63 45.54 162.06 39.9 165.48 32.52C165.93 31.56 167.1 30.99 167.1 30.12C167.1 29.16 164.46 26.97 163.29 26.97C162.57 26.97 162.21 27.54 161.16 27.78C159.63 28.11 151.23 28.98 149.13 28.98C148.02 28.98 147.33 28.17 146.64 27.39ZM192.9 31.65C193.47 31.95 194.07 32.34 194.37 32.73C194.79 33.18 194.7 33.51 194.19 33.78C192.66 34.65 189.96 35.82 187.71 36.99C187.35 34.98 186.18 33.78 184.32 33.78C183.12 33.78 182.04 34.29 181.05 34.89C180.81 35.04 180.72 34.89 180.84 34.71C182.01 33.15 182.82 31.89 183.39 30.84C186.54 30.24 189.36 29.25 190.44 28.68C191.13 28.35 191.4 27.96 191.4 27.54C191.4 26.7 190.62 26.4 189.72 26.4C189.3 26.4 189.03 26.76 187.92 27.24C187.17 27.54 186.03 27.93 184.77 28.29C185.1 27.63 185.43 27 185.67 26.52C185.97 25.89 186.21 25.68 186.21 25.26C186.21 24.33 183.99 23.88 182.88 23.88C182.34 23.88 181.53 24.12 180.87 24.36V24.84C181.59 25.05 182.22 25.23 182.64 25.47C183.18 25.77 183.21 26.1 183.09 26.61C182.97 27.18 182.7 27.96 182.28 28.89C181.26 29.07 180.27 29.19 179.4 29.22C177.27 29.25 176.46 28.53 175.35 27.48L174.84 27.78C175.83 30.15 176.37 31.32 178.8 31.32C179.55 31.32 180.3 31.26 181.05 31.2C180.03 33 178.62 34.92 177 36.54C175.77 37.86 174.72 38.49 174.72 39.45C174.75 40.44 175.17 41.16 176.01 41.13C176.97 41.1 177.87 39.42 178.95 38.16C180.09 36.84 182.01 34.89 183.57 34.89C185.07 34.89 185.49 35.82 185.58 38.22C182.34 40.26 179.34 42.81 179.34 45.33C179.34 47.82 181.17 49.77 186.9 49.77C189.45 49.77 192.45 49.32 193.65 48.96C194.7 48.66 194.97 48.21 194.97 47.52C194.97 46.56 193.98 46.2 192.69 46.2C191.4 46.2 189.66 47.19 185.19 47.19C182.28 47.19 180.81 46.35 180.81 44.97C180.81 43.26 182.88 41.49 185.55 39.99C185.52 41.43 185.4 42.75 185.4 43.53C185.4 44.55 186.06 44.97 186.81 44.97C187.65 44.97 188.1 44.34 188.1 43.44C188.1 42.39 188.07 40.5 187.95 38.79C190.53 37.65 193.77 36.51 195.93 35.88C197.28 35.49 197.91 35.46 197.91 34.71C197.91 33.69 196.8 32.43 195.87 31.86C195.24 31.47 194.52 31.29 193.2 31.14L192.9 31.65ZM208.02 36.39C208.02 35.04 210.54 33.54 212.49 33.42C212.16 34.86 211.8 36.69 211.5 38.46C209.1 38.1 208.02 37.32 208.02 36.39ZM218.28 34.98C220.95 37.02 222.9 38.97 222.9 42.33C222.9 45.06 220.71 47.43 217.11 47.43C214.32 47.43 212.52 46.14 212.52 43.26C212.52 42.66 212.58 41.97 212.7 41.25C214.02 41.4 215.25 41.4 216.09 41.31C217.29 41.16 217.86 40.71 217.86 39.96C217.86 39.12 217.26 38.73 216.33 38.67C215.67 38.61 214.56 38.67 213.21 38.61C213.63 36.81 214.2 34.95 214.68 33.51C215.34 33.57 215.97 33.57 216.42 33.54C217.23 33.48 217.74 33.24 217.74 32.52C217.74 31.86 217.26 31.14 215.97 30.99L215.58 30.96C216 29.79 216.36 29.04 216.72 28.38C217.08 27.69 217.56 27.39 217.56 26.73C217.56 25.8 215.55 24.09 213.87 24.09C213.12 24.09 212.52 24.21 211.95 24.36L211.92 24.93C212.4 25.05 212.94 25.23 213.36 25.44C213.87 25.74 214.14 26.01 214.11 26.7C214.05 27.42 213.66 28.89 213.15 30.84C212.1 30.75 210.96 30.57 209.79 30.15C208.5 29.67 207.72 28.8 207 27.78L206.55 28.02C206.88 29.79 207.45 30.66 208.44 31.38C209.16 31.89 209.76 32.13 210.51 32.37C208.35 33.51 206.73 35.22 206.73 36.9C206.73 38.67 208.32 40.23 211.14 40.95C211.02 41.88 210.96 42.72 210.96 43.41C210.96 47.13 213.12 49.71 217.53 49.71C223.29 49.71 225.72 46.08 225.72 43.05C225.72 39.57 223.5 36.63 218.64 34.53L218.28 34.98ZM235.92 37.35C235.92 37.86 235.89 38.49 236.13 39.03C236.49 39.96 237.84 40.98 238.8 40.98C239.55 40.98 240.09 40.44 241.53 39.39C242.88 38.4 245.97 35.55 248.97 35.55C251.58 35.55 253.05 37.41 253.05 39.66C253.05 44.28 247.74 46.41 241.8 46.98L241.86 47.55C245.22 47.79 249.18 47.46 251.58 46.17C253.92 44.97 255.72 43.14 255.72 40.05C255.72 37.08 253.2 34.26 249.03 34.26C245.31 34.26 241.86 36.45 239.22 37.62C238.44 37.98 238.11 38.07 237.75 38.07C237.18 38.07 236.58 37.62 236.25 37.2L235.92 37.35ZM279.57 29.31C280.11 29.64 280.68 30.06 280.92 30.6C281.07 30.99 280.98 31.23 280.59 31.47C279.72 31.98 277.05 33.39 274.89 34.71C274.17 34.23 273.69 33.57 273.36 32.67C273 31.59 272.79 29.73 272.79 28.56C272.76 27.81 273 27.3 272.97 26.73C272.97 25.86 271.23 24.63 269.49 24.63C268.74 24.63 268.05 24.84 267.24 25.11L267.27 25.65C267.81 25.8 268.5 26.01 268.98 26.25C269.58 26.58 269.79 26.91 269.88 27.51C270.15 29.49 270.57 32.22 271.2 33.69C271.59 34.59 272.13 35.4 272.97 35.94C270.81 37.56 267.54 40.53 267.54 43.92C267.54 47.31 271.02 49.05 276.24 49.05C279.99 49.05 282.72 48.66 283.92 48.27C284.64 48 285.18 47.46 285.18 46.92C285.18 45.69 283.89 45.36 282.39 45.36C281.67 45.36 279.36 46.23 275.16 46.23C271.08 46.23 269.37 45.12 269.37 43.32C269.37 40.86 272.1 38.58 274.65 37.08C276.96 35.73 280.38 34.23 282.48 33.57C283.83 33.09 284.46 32.79 284.46 32.13C284.46 31.29 283.44 30 282.3 29.4C281.64 29.07 280.74 28.98 279.78 28.92L279.57 29.31ZM292.05 43.14C294.75 45.18 295.77 47.22 296.64 49.05C297.09 49.98 297.6 50.37 298.35 50.37C299.34 50.37 300 49.68 300 48.63C300 48 299.85 47.37 299.34 46.62C298.26 45.06 296.22 43.59 292.35 42.72L292.05 43.14ZM330.6 35.91H340.98V38.64L340.71 38.88C337.11 39.36 333.6 39.81 330.6 40.2V35.91ZM340.98 27.45V30.78H330.6V27.45H340.98ZM330.6 31.65H340.98V35.04H330.6V31.65ZM346.59 31.89C345.84 33.12 344.94 34.32 343.92 35.55V27.99C344.49 27.87 344.97 27.6 345.15 27.36L342.06 24.93L340.68 26.61H335.37C336.09 25.86 337.02 24.81 337.62 24.09C338.28 24.06 338.7 23.82 338.79 23.34L334.47 22.62C334.29 23.79 333.93 25.5 333.69 26.61H330.78L327.66 25.32V40.56C325.62 40.8 323.97 40.95 322.86 41.04L324.12 44.22C324.45 44.13 324.75 43.89 324.93 43.53C331.05 42.12 335.82 40.95 339.54 39.96C335.01 43.86 329.19 47.31 322.68 49.56L322.86 50.04C330.09 48.36 336.21 45.36 340.98 41.82V46.95C340.98 47.43 340.83 47.64 340.23 47.64C339.54 47.64 336 47.4 336 47.4V47.82C337.65 48.03 338.43 48.39 338.94 48.75C339.45 49.14 339.6 49.77 339.72 50.58C343.41 50.25 343.92 49.14 343.92 47.19V39.42C345.72 37.83 347.25 36.15 348.51 34.47C349.17 34.71 349.53 34.65 349.77 34.35L346.59 31.89ZM360.75 45.81C365.55 42.39 366.24 37.32 366.33 33.21H371.64V46.29H372.12C373.56 46.29 374.46 45.75 374.46 45.6V33.21H379.14C379.56 33.21 379.89 33.06 379.95 32.76C378.78 31.68 376.86 30.18 376.86 30.18L375.15 32.37H366.33V32.31V26.73C369.93 26.52 373.86 26.04 376.44 25.53C377.28 25.86 377.91 25.86 378.27 25.59L375.24 22.62C373.23 23.64 369.6 24.99 366.36 25.92L363.57 25.02V32.25C363.57 36.69 363.27 41.55 360.39 45.48L360.75 45.81ZM352.8 23.82C354.21 25.2 355.83 27.48 356.28 29.37C359.25 31.44 361.56 25.41 353.07 23.61L352.8 23.82ZM359.01 36.93C359.85 36.81 360.3 36.57 360.51 36.33L357.33 33.66L355.8 35.64H352.02L352.2 36.51H356.28V45.39C354.66 46.11 353.01 46.8 351.9 47.19L353.61 50.55C353.88 50.4 354.06 50.22 354.03 49.83C355.32 48.72 357.33 46.68 358.62 45.15C360.69 49.05 363 49.86 368.55 49.86H378.27C378.42 48.51 379.05 47.67 380.22 47.4V47.01C376.56 47.13 371.94 47.13 368.52 47.13C363.21 47.13 361.08 46.83 359.01 44.64V36.93ZM389.25 24.93C389.61 25.05 390.12 25.23 390.6 25.53C391.11 25.83 391.32 26.16 391.29 26.79C391.26 27.51 391.11 28.53 390.87 29.58C390.03 29.76 389.04 29.91 388.17 29.91C386.19 29.91 385.35 29.22 384.06 28.2L383.61 28.53C384.48 31.35 385.56 32.13 387.96 32.13C388.65 32.13 389.4 32.07 390.18 31.98C388.83 36.06 386.61 39.36 384.69 41.79C384.21 42.42 384.03 42.9 384.03 43.53C384.03 44.37 384.48 45.18 385.32 45.18C386.04 45.18 386.52 44.55 387.15 43.59C389.52 39.99 391.47 34.71 392.46 31.62C394.47 31.2 396.33 30.57 397.32 30C397.74 29.7 398.28 29.31 398.28 28.71C398.28 27.96 397.59 27.51 396.93 27.51C396.45 27.51 395.76 28.14 393.3 28.95C394.26 25.83 394.53 25.05 393.93 24.66C393.36 24.24 392.4 23.97 391.41 23.97C390.69 23.97 389.79 24.24 389.25 24.48V24.93ZM399 44.34C399 46.08 398.04 47.25 395.55 47.25C393.42 47.25 392.52 46.47 392.52 45.45C392.52 44.46 393.78 43.32 396.36 43.32C397.32 43.32 398.19 43.41 399 43.59C399 43.83 399 44.1 399 44.34ZM400.2 30.3C401.52 30.36 402.66 30.69 403.41 31.26C403.8 31.59 403.92 31.92 403.56 32.16C402.57 32.67 401.13 33.21 400.08 34.41C399.15 35.4 398.76 36.66 398.76 38.46C398.76 39.42 398.85 40.53 398.91 41.61C398.55 41.58 398.19 41.58 397.8 41.58C393.6 41.58 391.2 43.59 391.2 45.93C391.2 47.97 393.03 49.59 396.27 49.59C399.54 49.59 401.52 48.15 401.52 45.57C401.52 45.21 401.49 44.82 401.46 44.4C402.84 45.03 403.92 45.84 404.85 46.71C405.78 47.55 406.2 48.24 406.95 48.24C407.55 48.24 408.06 47.82 408.06 46.89C408.06 45.78 407.04 44.73 405.33 43.74C404.28 43.11 402.9 42.39 401.19 41.97C400.92 40.29 400.62 38.64 400.53 37.77C400.44 36.63 400.44 35.64 400.98 34.98C401.52 34.32 402.51 33.96 403.47 33.9C404.97 33.84 405.63 34.59 406.62 34.59C407.4 34.59 407.73 34.02 407.73 33.15C407.73 31.68 406.59 30.39 404.64 29.76C403.47 29.37 401.79 29.28 400.2 29.67V30.3ZM418.02 36.39C418.02 35.04 420.54 33.54 422.49 33.42C422.16 34.86 421.8 36.69 421.5 38.46C419.1 38.1 418.02 37.32 418.02 36.39ZM428.28 34.98C430.95 37.02 432.9 38.97 432.9 42.33C432.9 45.06 430.71 47.43 427.11 47.43C424.32 47.43 422.52 46.14 422.52 43.26C422.52 42.66 422.58 41.97 422.7 41.25C424.02 41.4 425.25 41.4 426.09 41.31C427.29 41.16 427.86 40.71 427.86 39.96C427.86 39.12 427.26 38.73 426.33 38.67C425.67 38.61 424.56 38.67 423.21 38.61C423.63 36.81 424.2 34.95 424.68 33.51C425.34 33.57 425.97 33.57 426.42 33.54C427.23 33.48 427.74 33.24 427.74 32.52C427.74 31.86 427.26 31.14 425.97 30.99L425.58 30.96C426 29.79 426.36 29.04 426.72 28.38C427.08 27.69 427.56 27.39 427.56 26.73C427.56 25.8 425.55 24.09 423.87 24.09C423.12 24.09 422.52 24.21 421.95 24.36L421.92 24.93C422.4 25.05 422.94 25.23 423.36 25.44C423.87 25.74 424.14 26.01 424.11 26.7C424.05 27.42 423.66 28.89 423.15 30.84C422.1 30.75 420.96 30.57 419.79 30.15C418.5 29.67 417.72 28.8 417 27.78L416.55 28.02C416.88 29.79 417.45 30.66 418.44 31.38C419.16 31.89 419.76 32.13 420.51 32.37C418.35 33.51 416.73 35.22 416.73 36.9C416.73 38.67 418.32 40.23 421.14 40.95C421.02 41.88 420.96 42.72 420.96 43.41C420.96 47.13 423.12 49.71 427.53 49.71C433.29 49.71 435.72 46.08 435.72 43.05C435.72 39.57 433.5 36.63 428.64 34.53L428.28 34.98ZM455.13 30.9C455.13 32.37 454.62 34.35 453.9 35.97C452.85 38.37 450.15 42.75 448.32 42.75C447.09 42.75 445.95 40.56 445.95 37.95C445.95 35.43 447 33.21 448.8 31.32C450.27 29.79 452.25 28.71 454.26 28.23C454.74 29.01 455.13 29.88 455.13 30.9ZM454.77 48.36C464.7 47.85 468.33 42.9 468.33 37.53C468.33 31.29 463.47 26.82 456.9 26.82C453.42 26.82 450.36 27.87 447.93 30C445.08 32.43 443.7 35.82 443.7 38.7C443.7 42.54 445.86 45.99 448.11 45.99C451.5 45.99 454.92 40.38 456.21 36.66C456.87 34.89 457.2 33.03 457.2 31.56C457.2 30.24 456.33 28.95 455.49 27.99C455.88 27.96 456.27 27.93 456.63 27.93C461.55 27.93 465.27 31.41 465.27 36.84C465.27 42.15 462.12 46.17 454.65 47.73L454.77 48.36ZM472.8 38.67C473.52 39.63 474.87 40.5 475.92 40.5C476.88 40.5 477.36 39.75 478.05 38.73C479.07 37.23 481.2 34.2 482.25 32.91C482.7 32.37 483.06 32.13 483.42 32.13C483.84 32.13 484.29 32.31 484.86 32.91C486.84 34.98 489.15 38.25 491.7 40.92C494.22 43.59 496.74 45.6 498.18 45.6C499.11 45.6 499.59 45.06 499.59 44.22C499.59 43.29 499.2 42.39 498 41.7C492.39 38.58 489.69 34.74 486.33 31.35C485.28 30.3 484.32 29.94 483.36 29.94C482.52 29.94 481.83 30.33 481.14 31.08C480.12 32.19 477.45 35.1 475.98 36.42C475.35 37.02 474.87 37.29 474.42 37.29C473.97 37.29 473.25 36.87 472.56 36.27L472.14 36.6C472.23 37.41 472.41 38.16 472.8 38.67ZM506.49 50.49C508.83 50.49 510.72 48.57 510.72 46.23C510.72 43.89 508.83 42 506.49 42C504.15 42 502.23 43.89 502.23 46.23C502.23 48.57 504.15 50.49 506.49 50.49ZM506.49 43.08C508.23 43.08 509.64 44.49 509.64 46.23C509.64 47.97 508.23 49.41 506.49 49.41C504.72 49.41 503.31 47.97 503.31 46.23C503.31 44.49 504.72 43.08 506.49 43.08Z" fill="white"/>
</svg>
