<svg width="98" height="34" viewBox="0 0 98 34" fill="none" xmlns="http://www.w3.org/2000/svg">
<g filter="url(#filter0_d_197_1603)">
<path d="M14.4136 13.3213H11.1904L10.1572 18.1953H13.3804C14.1965 18.1953 14.874 17.9969 15.4131 17.6001C15.9521 17.2033 16.3115 16.5744 16.4912 15.7134C16.6784 14.8524 16.5811 14.2384 16.1992 13.8716C15.8249 13.5047 15.2297 13.3213 14.4136 13.3213ZM13.0659 21.0479H9.55078L8.29297 27H4.85645L8.37158 10.4463H15.5815C17.2437 10.4463 18.4753 10.873 19.2764 11.7266C20.085 12.5801 20.3021 13.9015 19.9277 15.6909C19.5085 17.645 18.7186 19.0264 17.5581 19.835C16.3976 20.6436 14.9002 21.0479 13.0659 21.0479ZM31.8522 20.9019C32.1143 19.674 32.0619 18.7306 31.695 18.0718C31.3356 17.4054 30.688 17.0723 29.7521 17.0723C28.8163 17.0723 28.0264 17.4054 27.3825 18.0718C26.7386 18.7306 26.2857 19.674 26.0236 20.9019C25.7616 22.1297 25.8103 23.0768 26.1696 23.7432C26.5365 24.4095 27.1879 24.7427 28.1237 24.7427C29.0596 24.7427 29.8495 24.4095 30.4934 23.7432C31.1372 23.0768 31.5902 22.1297 31.8522 20.9019ZM27.5622 27.4268C25.4584 27.4268 24.0246 26.7904 23.2609 25.5176C22.5048 24.2373 22.3176 22.6987 22.6994 20.9019C23.0738 19.1349 23.916 17.6038 25.2263 16.3086C26.5365 15.0133 28.2435 14.3657 30.3474 14.3657C32.4512 14.3657 33.8812 15.0133 34.6374 16.3086C35.3936 17.6038 35.5845 19.1349 35.2102 20.9019C34.8283 22.6987 33.9823 24.2373 32.6721 25.5176C31.3693 26.7904 29.666 27.4268 27.5622 27.4268ZM44.7201 13.2988H41.4745L42.1034 10.3452H45.349L44.7201 13.2988ZM41.1601 14.7588H44.4057L41.8114 27H38.5658L41.1601 14.7588ZM60.0699 18.7568L58.318 27H55.0387L56.6109 19.5542C56.7532 18.9103 56.7719 18.4162 56.6671 18.0718C56.4874 17.4429 55.9558 17.1284 55.0724 17.1284C53.9868 17.1284 53.1445 17.5889 52.5455 18.5098C52.2311 18.9964 51.9952 19.6178 51.838 20.374L50.4342 27H47.2447L49.839 14.7812H52.9273L52.5455 16.5669C53.0921 15.938 53.5787 15.485 54.0055 15.208C54.7691 14.7139 55.6563 14.4668 56.6671 14.4668C57.9324 14.4668 58.8945 14.8 59.5533 15.4663C60.2197 16.1252 60.3919 17.222 60.0699 18.7568ZM64.4139 17.1509L64.8968 14.8711H66.6038L67.3338 11.457H70.5008L69.7708 14.8711H71.7586L71.2757 17.1509H69.2879L67.9065 23.6196C67.8017 24.1213 67.798 24.4357 67.8953 24.563C68.0001 24.6828 68.3782 24.7427 69.0296 24.7427C69.1269 24.7427 69.228 24.7427 69.3328 24.7427C69.4451 24.7352 69.5574 24.7277 69.6697 24.7202L69.1531 27.1123L67.6258 27.1685C66.1059 27.2209 65.1289 26.9588 64.6946 26.3823C64.4176 26.0155 64.3577 25.4502 64.5149 24.6865L66.1209 17.1509H64.4139ZM79.1538 19.6123C78.9546 20.5752 78.938 21.3721 79.104 22.0029C79.436 23.165 80.3602 23.7461 81.8765 23.7461C82.8062 23.7461 83.686 23.4307 84.5161 22.7998C85.3462 22.1579 85.8885 21.2393 86.1431 20.0439C86.4751 18.4613 86.0545 17.4043 84.8813 16.873C84.2173 16.5742 83.0994 16.4248 81.5278 16.4248L82.2417 13.0381C83.7912 13.016 84.8979 12.8665 85.562 12.5898C86.7131 12.125 87.438 11.1842 87.7368 9.76758C87.936 8.84896 87.8254 8.10189 87.4048 7.52637C86.9953 6.95085 86.3035 6.66309 85.3296 6.66309C84.2118 6.66309 83.3153 7.01725 82.6401 7.72559C81.965 8.43392 81.5112 9.38021 81.2788 10.5645H76.8628C77.1616 9.36914 77.6099 8.2347 78.2075 7.16113C78.7941 6.22038 79.5854 5.35156 80.5815 4.55469C81.3231 3.99023 82.1476 3.55859 83.0552 3.25977C83.9738 2.96094 85.0529 2.81152 86.2925 2.81152C88.5946 2.81152 90.3211 3.40918 91.4722 4.60449C92.6343 5.78874 93.005 7.38249 92.5845 9.38574C92.2856 10.8024 91.6105 11.9977 90.5591 12.9717C89.895 13.5804 89.2531 13.9954 88.6333 14.2168C89.0649 14.2168 89.6073 14.5876 90.2603 15.3291C91.2231 16.4469 91.4998 17.9743 91.0903 19.9111C90.6587 21.9476 89.5741 23.7406 87.8364 25.29C86.0988 26.8285 83.8465 27.5977 81.0796 27.5977C77.6707 27.5977 75.5402 26.4854 74.688 24.2607C74.2342 23.0765 74.1733 21.527 74.5054 19.6123H79.1538Z" fill="white"/>
</g>
<defs>
<filter id="filter0_d_197_1603" x="0.856445" y="0.811523" width="96.3589" height="32.7861" filterUnits="userSpaceOnUse" color-interpolation-filters="sRGB">
<feFlood flood-opacity="0" result="BackgroundImageFix"/>
<feColorMatrix in="SourceAlpha" type="matrix" values="0 0 0 0 0 0 0 0 0 0 0 0 0 0 0 0 0 0 127 0" result="hardAlpha"/>
<feOffset dy="2"/>
<feGaussianBlur stdDeviation="2"/>
<feComposite in2="hardAlpha" operator="out"/>
<feColorMatrix type="matrix" values="0 0 0 0 0 0 0 0 0 0 0 0 0 0 0 0 0 0 0.2 0"/>
<feBlend mode="normal" in2="BackgroundImageFix" result="effect1_dropShadow_197_1603"/>
<feBlend mode="normal" in="SourceGraphic" in2="effect1_dropShadow_197_1603" result="shape"/>
</filter>
</defs>
</svg>
