<svg width="98" height="34" viewBox="0 0 98 34" fill="none" xmlns="http://www.w3.org/2000/svg">
<g filter="url(#filter0_d_197_1602)">
<path d="M14.4136 13.3213H11.1904L10.1572 18.1953H13.3804C14.1965 18.1953 14.874 17.9969 15.4131 17.6001C15.9521 17.2033 16.3115 16.5744 16.4912 15.7134C16.6784 14.8524 16.5811 14.2384 16.1992 13.8716C15.8249 13.5047 15.2297 13.3213 14.4136 13.3213ZM13.0659 21.0479H9.55078L8.29297 27H4.85645L8.37158 10.4463H15.5815C17.2437 10.4463 18.4753 10.873 19.2764 11.7266C20.085 12.5801 20.3021 13.9015 19.9277 15.6909C19.5085 17.645 18.7186 19.0264 17.5581 19.835C16.3976 20.6436 14.9002 21.0479 13.0659 21.0479ZM31.8522 20.9019C32.1143 19.674 32.0619 18.7306 31.695 18.0718C31.3356 17.4054 30.688 17.0723 29.7521 17.0723C28.8163 17.0723 28.0264 17.4054 27.3825 18.0718C26.7386 18.7306 26.2857 19.674 26.0236 20.9019C25.7616 22.1297 25.8103 23.0768 26.1696 23.7432C26.5365 24.4095 27.1879 24.7427 28.1237 24.7427C29.0596 24.7427 29.8495 24.4095 30.4934 23.7432C31.1372 23.0768 31.5902 22.1297 31.8522 20.9019ZM27.5622 27.4268C25.4584 27.4268 24.0246 26.7904 23.2609 25.5176C22.5048 24.2373 22.3176 22.6987 22.6994 20.9019C23.0738 19.1349 23.916 17.6038 25.2263 16.3086C26.5365 15.0133 28.2435 14.3657 30.3474 14.3657C32.4512 14.3657 33.8812 15.0133 34.6374 16.3086C35.3936 17.6038 35.5845 19.1349 35.2102 20.9019C34.8283 22.6987 33.9823 24.2373 32.6721 25.5176C31.3693 26.7904 29.666 27.4268 27.5622 27.4268ZM44.7201 13.2988H41.4745L42.1034 10.3452H45.349L44.7201 13.2988ZM41.1601 14.7588H44.4057L41.8114 27H38.5658L41.1601 14.7588ZM60.0699 18.7568L58.318 27H55.0387L56.6109 19.5542C56.7532 18.9103 56.7719 18.4162 56.6671 18.0718C56.4874 17.4429 55.9558 17.1284 55.0724 17.1284C53.9868 17.1284 53.1445 17.5889 52.5455 18.5098C52.2311 18.9964 51.9952 19.6178 51.838 20.374L50.4342 27H47.2447L49.839 14.7812H52.9273L52.5455 16.5669C53.0921 15.938 53.5787 15.485 54.0055 15.208C54.7691 14.7139 55.6563 14.4668 56.6671 14.4668C57.9324 14.4668 58.8945 14.8 59.5533 15.4663C60.2197 16.1252 60.3919 17.222 60.0699 18.7568ZM64.4139 17.1509L64.8968 14.8711H66.6038L67.3338 11.457H70.5008L69.7708 14.8711H71.7586L71.2757 17.1509H69.2879L67.9065 23.6196C67.8017 24.1213 67.798 24.4357 67.8953 24.563C68.0001 24.6828 68.3782 24.7427 69.0296 24.7427C69.1269 24.7427 69.228 24.7427 69.3328 24.7427C69.4451 24.7352 69.5574 24.7277 69.6697 24.7202L69.1531 27.1123L67.6258 27.1685C66.1059 27.2209 65.1289 26.9588 64.6946 26.3823C64.4176 26.0155 64.3577 25.4502 64.5149 24.6865L66.1209 17.1509H64.4139ZM75.2192 22.2686C76.2375 20.6637 78.1909 18.9648 81.0796 17.1719C83.592 15.6113 85.241 14.4935 86.0269 13.8184C87.2332 12.7669 87.9692 11.6159 88.2349 10.3652C88.4562 9.34701 88.3566 8.50033 87.936 7.8252C87.5155 7.15007 86.7795 6.8125 85.728 6.8125C84.2892 6.8125 83.1935 7.34928 82.4409 8.42285C82.0093 9.04264 81.6274 10.0277 81.2954 11.3779H76.6968C77.2059 9.3304 77.9253 7.67578 78.855 6.41406C80.6258 4.01237 83.1216 2.81152 86.3423 2.81152C88.8879 2.81152 90.7638 3.51986 91.9702 4.93652C93.1766 6.34212 93.5308 8.20703 93.0327 10.5312C92.6564 12.3132 91.7931 13.8958 90.4429 15.2793C89.5464 16.1979 88.1795 17.2217 86.3423 18.3506L84.1675 19.6953C82.8062 20.5365 81.8654 21.1452 81.3452 21.5215C80.825 21.8978 80.3657 22.335 79.9673 22.833H90.4761L89.5962 27H73.1108C73.5203 25.2734 74.2231 23.6963 75.2192 22.2686Z" fill="white"/>
</g>
<defs>
<filter id="filter0_d_197_1602" x="0.856445" y="0.811523" width="96.9233" height="32.6152" filterUnits="userSpaceOnUse" color-interpolation-filters="sRGB">
<feFlood flood-opacity="0" result="BackgroundImageFix"/>
<feColorMatrix in="SourceAlpha" type="matrix" values="0 0 0 0 0 0 0 0 0 0 0 0 0 0 0 0 0 0 127 0" result="hardAlpha"/>
<feOffset dy="2"/>
<feGaussianBlur stdDeviation="2"/>
<feComposite in2="hardAlpha" operator="out"/>
<feColorMatrix type="matrix" values="0 0 0 0 0 0 0 0 0 0 0 0 0 0 0 0 0 0 0.2 0"/>
<feBlend mode="normal" in2="BackgroundImageFix" result="effect1_dropShadow_197_1602"/>
<feBlend mode="normal" in="SourceGraphic" in2="effect1_dropShadow_197_1602" result="shape"/>
</filter>
</defs>
</svg>
