<svg width="70" height="70" viewBox="0 0 70 70" fill="none" xmlns="http://www.w3.org/2000/svg">
<circle cx="35" cy="35" r="34.5" fill="white" stroke="#CEC6B0"/>
<path d="M17.2507 36H28.1627V33.272H24.6427C23.8727 33.272 22.7947 33.36 21.9807 33.448C24.9507 30.544 27.3927 27.376 27.3927 24.428C27.3927 21.392 25.3467 19.412 22.2667 19.412C20.0447 19.412 18.5927 20.27 17.0967 21.876L18.8567 23.636C19.6927 22.734 20.6607 21.964 21.8487 21.964C23.4107 21.964 24.2907 22.954 24.2907 24.604C24.2907 27.112 21.6727 30.17 17.2507 34.13V36ZM35.7498 36.308C39.0718 36.308 41.2498 33.404 41.2498 27.794C41.2498 22.184 39.0718 19.412 35.7498 19.412C32.4278 19.412 30.2278 22.162 30.2278 27.794C30.2278 33.404 32.4278 36.308 35.7498 36.308ZM35.7498 33.778C34.3418 33.778 33.2858 32.37 33.2858 27.794C33.2858 23.24 34.3418 21.92 35.7498 21.92C37.1578 21.92 38.1918 23.24 38.1918 27.794C38.1918 32.37 37.1578 33.778 35.7498 33.778ZM45.1828 32.01C46.6668 32.01 47.7168 30.792 47.7168 28.706C47.7168 26.634 46.6668 25.444 45.1828 25.444C43.6988 25.444 42.6628 26.634 42.6628 28.706C42.6628 30.792 43.6988 32.01 45.1828 32.01ZM45.1828 30.848C44.5808 30.848 44.1188 30.232 44.1188 28.706C44.1188 27.18 44.5808 26.606 45.1828 26.606C45.7848 26.606 46.2608 27.18 46.2608 28.706C46.2608 30.232 45.7848 30.848 45.1828 30.848ZM45.5328 36.196H46.7508L52.3788 25.444H51.1608L45.5328 36.196ZM52.7148 36.196C54.1848 36.196 55.2488 34.964 55.2488 32.892C55.2488 30.806 54.1848 29.616 52.7148 29.616C51.2448 29.616 50.1948 30.806 50.1948 32.892C50.1948 34.964 51.2448 36.196 52.7148 36.196ZM52.7148 35.02C52.1128 35.02 51.6508 34.418 51.6508 32.892C51.6508 31.366 52.1128 30.778 52.7148 30.778C53.3168 30.778 53.7928 31.366 53.7928 32.892C53.7928 34.418 53.3168 35.02 52.7148 35.02ZM27.656 51.152V52.342H24.87V51.152H27.656ZM23.372 54.204H24.87V53.588H27.656V54.078H29.238V49.906H23.372V54.204ZM28.44 44.684H27.012V43.928H25.486V44.684H24.058V43.648H28.44V44.684ZM27.04 41.226H25.444V42.402H22.588V44.796H23.274V45.86H25.486V46.448H23.414V47.554H25.486V48.156H22.63V49.43H29.826V48.156H27.012V47.554H29.056V46.448H27.012V45.86H29.252V44.796H29.98V42.402H27.04V41.226ZM32.15 42.626H30.568V50.452H32.15V42.626ZM33.466 41.394V52.174C33.466 52.398 33.368 52.482 33.13 52.482C32.85 52.482 32.052 52.496 31.24 52.454C31.478 52.93 31.716 53.7 31.786 54.176C32.934 54.176 33.802 54.12 34.348 53.84C34.908 53.588 35.076 53.112 35.076 52.188V41.394H33.466ZM38.884 47.848C38.968 47.372 39.052 46.868 39.122 46.378H43.182V41.674H37.316V43.228H41.53V44.824H37.652C37.47 46.434 37.12 48.436 36.798 49.752L38.478 50.018C38.52 49.822 38.562 49.612 38.604 49.388H41.446C41.292 51.222 41.11 52.104 40.816 52.342C40.634 52.482 40.466 52.51 40.186 52.51C39.808 52.51 38.912 52.496 38.072 52.412C38.394 52.902 38.646 53.63 38.688 54.162C39.542 54.19 40.396 54.19 40.886 54.134C41.488 54.078 41.88 53.952 42.272 53.532C42.762 52.986 43.014 51.628 43.238 48.534C43.28 48.31 43.294 47.848 43.294 47.848H38.884ZM46.332 41.352V54.218H47.998V41.352H46.332Z" fill="#555555"/>
</svg>
