<svg width="50" height="50" viewBox="0 0 50 50" fill="none" xmlns="http://www.w3.org/2000/svg">
<circle cx="25" cy="25" r="25" fill="#333333"/>
<path d="M34.1546 33.948C33.2706 34.91 32.2306 35.404 31.0346 35.404C29.9686 35.404 29.0326 34.988 27.9926 33.87C32.0486 32.726 34.8046 29.294 34.8046 24.9C34.8046 19.492 30.6446 15.54 25.0026 15.54C19.3606 15.54 15.2006 19.518 15.2006 24.9C15.2006 29.944 18.8666 33.766 23.9626 34.208C26.6406 37.016 28.4866 37.978 30.9566 37.978C32.8806 37.978 34.5186 37.224 35.7146 35.82L34.1546 33.948ZM18.6066 24.9C18.6066 21.182 21.3366 18.504 25.0026 18.504C28.6686 18.504 31.3986 21.182 31.3986 24.9C31.3986 28.618 28.6686 31.296 25.0026 31.296C21.3366 31.296 18.6066 28.618 18.6066 24.9Z" fill="white"/>
</svg>
