<svg width="50" height="50" viewBox="0 0 50 50" fill="none" xmlns="http://www.w3.org/2000/svg">
<circle cx="25" cy="25" r="25" fill="#CBC3AD"/>
<path d="M35.7146 35.82C35.108 36.5307 34.3973 37.068 33.5826 37.432C32.7853 37.796 31.91 37.978 30.9566 37.978C29.7086 37.978 28.5646 37.692 27.5246 37.12C26.4846 36.5653 25.2973 35.5947 23.9626 34.208C22.2813 34.0693 20.7733 33.584 19.4386 32.752C18.104 31.9027 17.064 30.802 16.3186 29.45C15.5733 28.0807 15.2006 26.564 15.2006 24.9C15.2006 23.132 15.6253 21.5373 16.4746 20.116C17.324 18.6773 18.494 17.5593 19.9846 16.762C21.4753 15.9473 23.148 15.54 25.0026 15.54C26.8573 15.54 28.53 15.9473 30.0206 16.762C31.5113 17.5593 32.6813 18.6687 33.5306 20.09C34.38 21.5113 34.8046 23.1147 34.8046 24.9C34.8046 26.3387 34.5186 27.6733 33.9466 28.904C33.3746 30.1173 32.5773 31.1573 31.5546 32.024C30.532 32.8733 29.3446 33.4887 27.9926 33.87C28.4953 34.4073 28.9893 34.7973 29.4746 35.04C29.96 35.2827 30.48 35.404 31.0346 35.404C32.2306 35.404 33.2706 34.9187 34.1546 33.948L35.7146 35.82ZM18.6066 24.9C18.6066 26.1133 18.884 27.214 19.4386 28.202C19.9933 29.1727 20.756 29.9353 21.7266 30.49C22.6973 31.0273 23.7893 31.296 25.0026 31.296C26.216 31.296 27.308 31.0273 28.2786 30.49C29.2493 29.9353 30.012 29.1727 30.5666 28.202C31.1213 27.214 31.3986 26.1133 31.3986 24.9C31.3986 23.6867 31.1213 22.5947 30.5666 21.624C30.012 20.636 29.2493 19.8733 28.2786 19.336C27.308 18.7813 26.216 18.504 25.0026 18.504C23.7893 18.504 22.6973 18.7813 21.7266 19.336C20.756 19.8733 19.9933 20.636 19.4386 21.624C18.884 22.5947 18.6066 23.6867 18.6066 24.9Z" fill="white"/>
</svg>
