<svg width="50" height="50" viewBox="0 0 50 50" fill="none" xmlns="http://www.w3.org/2000/svg">
<rect width="50" height="50" fill="#483B19"/>
<path d="M14.6802 32.6265C14.6802 34.8237 14.8604 36.5068 15.2207 37.6758C15.5811 38.8359 16.3193 39.416 17.4355 39.416C18.5518 39.416 19.2812 38.8359 19.624 37.6758C19.9756 36.5068 20.1514 34.8237 20.1514 32.6265C20.1514 30.3237 19.9756 28.6187 19.624 27.5112C19.2812 26.4038 18.5518 25.8501 17.4355 25.8501C16.3193 25.8501 15.5811 26.4038 15.2207 27.5112C14.8604 28.6187 14.6802 30.3237 14.6802 32.6265ZM17.4355 22.752C19.8701 22.752 21.5752 23.6089 22.5508 25.3228C23.5352 27.0366 24.0273 29.4712 24.0273 32.6265C24.0273 35.7817 23.5352 38.2119 22.5508 39.917C21.5752 41.6221 19.8701 42.4746 17.4355 42.4746C15.001 42.4746 13.2915 41.6221 12.3071 39.917C11.3315 38.2119 10.8438 35.7817 10.8438 32.6265C10.8438 29.4712 11.3315 27.0366 12.3071 25.3228C13.2915 23.6089 15.001 22.752 17.4355 22.752ZM25.873 42C25.9082 40.6289 26.2026 39.3765 26.7563 38.2427C27.2925 36.9683 28.5581 35.6191 30.5532 34.1953C32.2847 32.9561 33.4053 32.0684 33.915 31.5322C34.6973 30.6973 35.0884 29.7832 35.0884 28.79C35.0884 27.9814 34.8643 27.3091 34.416 26.7729C33.9678 26.2368 33.3262 25.9688 32.4912 25.9688C31.3486 25.9688 30.5708 26.395 30.1577 27.2476C29.9204 27.7397 29.7798 28.522 29.7358 29.5942H26.084C26.1455 27.9683 26.4399 26.6543 26.9673 25.6523C27.9692 23.7451 29.749 22.7915 32.3066 22.7915C34.3281 22.7915 35.9365 23.354 37.1318 24.479C38.3271 25.5952 38.9248 27.0762 38.9248 28.9219C38.9248 30.3369 38.5029 31.5938 37.6592 32.6924C37.1055 33.4219 36.1958 34.2349 34.9302 35.1313L33.4272 36.1992C32.4868 36.8672 31.8408 37.3506 31.4893 37.6494C31.1465 37.9482 30.8564 38.2954 30.6191 38.6909H38.9644V42H25.873Z" fill="white"/>
<path d="M13.7168 15.5405C13.7168 15.0073 13.5941 14.5355 13.3486 14.125C13.1074 13.7145 12.7139 13.5093 12.168 13.5093C11.512 13.5093 11.0614 13.8203 10.8159 14.4424C10.689 14.7725 10.6255 15.1914 10.6255 15.6992C10.6255 16.5033 10.8392 17.0682 11.2666 17.394C11.5205 17.5845 11.821 17.6797 12.168 17.6797C12.6715 17.6797 13.0545 17.485 13.3169 17.0957C13.5835 16.7064 13.7168 16.188 13.7168 15.5405ZM12.6885 11.9287C13.4967 11.9287 14.1802 12.2271 14.7388 12.8237C15.3016 13.4204 15.583 14.2964 15.583 15.4517C15.583 16.6704 15.3079 17.5993 14.7578 18.2383C14.2119 18.8773 13.5073 19.1968 12.644 19.1968C12.0939 19.1968 11.6369 19.0592 11.2729 18.7842C11.0741 18.6318 10.8794 18.4097 10.689 18.1177V21.7231H8.89893V12.0811H10.6318V13.103C10.8265 12.8026 11.0339 12.5656 11.2539 12.3921C11.6559 12.0832 12.1341 11.9287 12.6885 11.9287ZM20.001 17.7241C20.5299 17.7241 20.9362 17.5358 21.2197 17.1592C21.5033 16.7826 21.645 16.2472 21.645 15.5532C21.645 14.8592 21.5033 14.326 21.2197 13.9536C20.9362 13.577 20.5299 13.3887 20.001 13.3887C19.472 13.3887 19.0636 13.577 18.7759 13.9536C18.4924 14.326 18.3506 14.8592 18.3506 15.5532C18.3506 16.2472 18.4924 16.7826 18.7759 17.1592C19.0636 17.5358 19.472 17.7241 20.001 17.7241ZM23.543 15.5532C23.543 16.5688 23.251 17.4385 22.667 18.1621C22.083 18.8815 21.1965 19.2412 20.0073 19.2412C18.8182 19.2412 17.9316 18.8815 17.3477 18.1621C16.7637 17.4385 16.4717 16.5688 16.4717 15.5532C16.4717 14.5545 16.7637 13.6891 17.3477 12.957C17.9316 12.2249 18.8182 11.8589 20.0073 11.8589C21.1965 11.8589 22.083 12.2249 22.667 12.957C23.251 13.6891 23.543 14.5545 23.543 15.5532ZM26.7041 11.2559H24.8696V9.58643H26.7041V11.2559ZM24.8696 12.0811H26.7041V19H24.8696V12.0811ZM32.2964 11.916C33.0116 11.916 33.5955 12.1043 34.0483 12.481C34.5054 12.8534 34.7339 13.4733 34.7339 14.3408V19H32.8804V14.7915C32.8804 14.4276 32.8317 14.1483 32.7344 13.9536C32.5566 13.5981 32.2181 13.4204 31.7188 13.4204C31.1051 13.4204 30.6841 13.6807 30.4556 14.2012C30.3371 14.4762 30.2778 14.8275 30.2778 15.2549V19H28.4751V12.0938H30.2207V13.103C30.4535 12.7476 30.6735 12.4915 30.8809 12.335C31.2533 12.0557 31.7251 11.916 32.2964 11.916ZM35.6987 13.4331V12.1445H36.6636V10.2148H38.4536V12.1445H39.5771V13.4331H38.4536V17.0894C38.4536 17.3729 38.4896 17.5506 38.5615 17.6226C38.6335 17.6903 38.8535 17.7241 39.2217 17.7241C39.2767 17.7241 39.3338 17.7241 39.3931 17.7241C39.4565 17.7199 39.5179 17.7157 39.5771 17.7114V19.0635L38.7202 19.0952C37.8654 19.1248 37.2814 18.9767 36.9683 18.6509C36.7651 18.4435 36.6636 18.124 36.6636 17.6924V13.4331H35.6987Z" fill="white"/>
</svg>
