<svg width="50" height="50" viewBox="0 0 50 50" fill="none" xmlns="http://www.w3.org/2000/svg">
<rect width="50" height="50" fill="#483B19"/>
<path d="M14.6802 32.6265C14.6802 34.8237 14.8604 36.5068 15.2207 37.6758C15.5811 38.8359 16.3193 39.416 17.4355 39.416C18.5518 39.416 19.2812 38.8359 19.624 37.6758C19.9756 36.5068 20.1514 34.8237 20.1514 32.6265C20.1514 30.3237 19.9756 28.6187 19.624 27.5112C19.2812 26.4038 18.5518 25.8501 17.4355 25.8501C16.3193 25.8501 15.5811 26.4038 15.2207 27.5112C14.8604 28.6187 14.6802 30.3237 14.6802 32.6265ZM17.4355 22.752C19.8701 22.752 21.5752 23.6089 22.5508 25.3228C23.5352 27.0366 24.0273 29.4712 24.0273 32.6265C24.0273 35.7817 23.5352 38.2119 22.5508 39.917C21.5752 41.6221 19.8701 42.4746 17.4355 42.4746C15.001 42.4746 13.2915 41.6221 12.3071 39.917C11.3315 38.2119 10.8438 35.7817 10.8438 32.6265C10.8438 29.4712 11.3315 27.0366 12.3071 25.3228C13.2915 23.6089 15.001 22.752 17.4355 22.752ZM29.4326 36.1333C29.4326 36.8979 29.5557 37.5308 29.8018 38.0317C30.2588 38.9546 31.0894 39.416 32.2935 39.416C33.0317 39.416 33.6733 39.1655 34.2183 38.6646C34.772 38.1548 35.0488 37.4253 35.0488 36.4761C35.0488 35.2192 34.5391 34.3799 33.5195 33.958C32.9395 33.7207 32.0254 33.6021 30.7773 33.6021V30.9126C31.999 30.895 32.8516 30.7764 33.335 30.5566C34.1699 30.1875 34.5874 29.4404 34.5874 28.3154C34.5874 27.5859 34.3721 26.9927 33.9414 26.5356C33.5195 26.0786 32.9219 25.8501 32.1484 25.8501C31.2607 25.8501 30.606 26.1313 30.1841 26.6938C29.771 27.2563 29.5732 28.0078 29.5908 28.9482H26.084C26.1191 27.999 26.2817 27.0981 26.5718 26.2456C26.8794 25.4985 27.3628 24.8086 28.022 24.1758C28.5142 23.7275 29.0986 23.3848 29.7754 23.1475C30.4521 22.9102 31.2827 22.7915 32.2671 22.7915C34.0952 22.7915 35.5674 23.2661 36.6836 24.2153C37.8086 25.1558 38.3711 26.4214 38.3711 28.0122C38.3711 29.1372 38.0371 30.0864 37.3691 30.8599C36.9473 31.3433 36.5078 31.6729 36.0508 31.8486C36.3936 31.8486 36.8857 32.1431 37.5273 32.7319C38.4854 33.6196 38.9644 34.8325 38.9644 36.3706C38.9644 37.9878 38.4019 39.4116 37.2769 40.6421C36.1606 41.8638 34.5039 42.4746 32.3066 42.4746C29.5996 42.4746 27.7188 41.5913 26.6641 39.8247C26.1104 38.8843 25.8027 37.6538 25.7412 36.1333H29.4326Z" fill="white"/>
<path d="M13.7168 15.5405C13.7168 15.0073 13.5941 14.5355 13.3486 14.125C13.1074 13.7145 12.7139 13.5093 12.168 13.5093C11.512 13.5093 11.0614 13.8203 10.8159 14.4424C10.689 14.7725 10.6255 15.1914 10.6255 15.6992C10.6255 16.5033 10.8392 17.0682 11.2666 17.394C11.5205 17.5845 11.821 17.6797 12.168 17.6797C12.6715 17.6797 13.0545 17.485 13.3169 17.0957C13.5835 16.7064 13.7168 16.188 13.7168 15.5405ZM12.6885 11.9287C13.4967 11.9287 14.1802 12.2271 14.7388 12.8237C15.3016 13.4204 15.583 14.2964 15.583 15.4517C15.583 16.6704 15.3079 17.5993 14.7578 18.2383C14.2119 18.8773 13.5073 19.1968 12.644 19.1968C12.0939 19.1968 11.6369 19.0592 11.2729 18.7842C11.0741 18.6318 10.8794 18.4097 10.689 18.1177V21.7231H8.89893V12.0811H10.6318V13.103C10.8265 12.8026 11.0339 12.5656 11.2539 12.3921C11.6559 12.0832 12.1341 11.9287 12.6885 11.9287ZM20.001 17.7241C20.5299 17.7241 20.9362 17.5358 21.2197 17.1592C21.5033 16.7826 21.645 16.2472 21.645 15.5532C21.645 14.8592 21.5033 14.326 21.2197 13.9536C20.9362 13.577 20.5299 13.3887 20.001 13.3887C19.472 13.3887 19.0636 13.577 18.7759 13.9536C18.4924 14.326 18.3506 14.8592 18.3506 15.5532C18.3506 16.2472 18.4924 16.7826 18.7759 17.1592C19.0636 17.5358 19.472 17.7241 20.001 17.7241ZM23.543 15.5532C23.543 16.5688 23.251 17.4385 22.667 18.1621C22.083 18.8815 21.1965 19.2412 20.0073 19.2412C18.8182 19.2412 17.9316 18.8815 17.3477 18.1621C16.7637 17.4385 16.4717 16.5688 16.4717 15.5532C16.4717 14.5545 16.7637 13.6891 17.3477 12.957C17.9316 12.2249 18.8182 11.8589 20.0073 11.8589C21.1965 11.8589 22.083 12.2249 22.667 12.957C23.251 13.6891 23.543 14.5545 23.543 15.5532ZM26.7041 11.2559H24.8696V9.58643H26.7041V11.2559ZM24.8696 12.0811H26.7041V19H24.8696V12.0811ZM32.2964 11.916C33.0116 11.916 33.5955 12.1043 34.0483 12.481C34.5054 12.8534 34.7339 13.4733 34.7339 14.3408V19H32.8804V14.7915C32.8804 14.4276 32.8317 14.1483 32.7344 13.9536C32.5566 13.5981 32.2181 13.4204 31.7188 13.4204C31.1051 13.4204 30.6841 13.6807 30.4556 14.2012C30.3371 14.4762 30.2778 14.8275 30.2778 15.2549V19H28.4751V12.0938H30.2207V13.103C30.4535 12.7476 30.6735 12.4915 30.8809 12.335C31.2533 12.0557 31.7251 11.916 32.2964 11.916ZM35.6987 13.4331V12.1445H36.6636V10.2148H38.4536V12.1445H39.5771V13.4331H38.4536V17.0894C38.4536 17.3729 38.4896 17.5506 38.5615 17.6226C38.6335 17.6903 38.8535 17.7241 39.2217 17.7241C39.2767 17.7241 39.3338 17.7241 39.3931 17.7241C39.4565 17.7199 39.5179 17.7157 39.5771 17.7114V19.0635L38.7202 19.0952C37.8654 19.1248 37.2814 18.9767 36.9683 18.6509C36.7651 18.4435 36.6636 18.124 36.6636 17.6924V13.4331H35.6987Z" fill="white"/>
</svg>
