<svg width="46" height="50" viewBox="0 0 46 50" fill="none" xmlns="http://www.w3.org/2000/svg">
<path d="M6 30L23.34 48L40 30" stroke="#222" stroke-width="2" stroke-linecap="round"/>
<path d="M3.85839 14.098C5.95839 14.098 7.24639 13.188 7.24639 11.788C7.24639 8.862 2.62639 10.206 2.62639 8.694C2.62639 8.204 3.13039 7.854 4.19439 7.854C4.90839 7.854 5.62239 7.994 6.33639 8.414L7.00839 7.084C6.33639 6.678 5.20239 6.44 4.20839 6.44C2.19239 6.44 0.918391 7.364 0.918391 8.778C0.918391 11.76 5.53839 10.416 5.53839 11.844C5.53839 12.362 5.07639 12.67 3.97039 12.67C3.03239 12.67 2.02439 12.362 1.36639 11.928L0.694391 13.258C1.36639 13.734 2.61239 14.098 3.85839 14.098ZM13.5835 14.098C15.0395 14.098 16.2015 13.468 16.7755 12.348L15.4315 11.564C14.9835 12.278 14.3115 12.6 13.5695 12.6C12.2815 12.6 11.3015 11.718 11.3015 10.262C11.3015 8.82 12.2815 7.924 13.5695 7.924C14.3115 7.924 14.9835 8.246 15.4315 8.96L16.7755 8.176C16.2015 7.042 15.0395 6.44 13.5835 6.44C11.2175 6.44 9.53747 8.022 9.53747 10.262C9.53747 12.502 11.2175 14.098 13.5835 14.098ZM21.3542 7.616V6.524H19.6882V14H21.4382V10.374C21.4382 8.848 22.2782 8.064 23.6082 8.064C23.7342 8.064 23.8602 8.078 24.0142 8.106V6.44C22.7682 6.44 21.8582 6.832 21.3542 7.616ZM30.1904 14.098C32.5144 14.098 34.1804 12.502 34.1804 10.262C34.1804 8.022 32.5144 6.44 30.1904 6.44C27.8944 6.44 26.2144 8.022 26.2144 10.262C26.2144 12.502 27.8944 14.098 30.1904 14.098ZM30.1904 12.6C28.9304 12.6 27.9784 11.69 27.9784 10.262C27.9784 8.834 28.9304 7.924 30.1904 7.924C31.4644 7.924 32.4164 8.834 32.4164 10.262C32.4164 11.69 31.4644 12.6 30.1904 12.6ZM37.2539 14H39.0039V3.612H37.2539V14ZM42.7007 14H44.4507V3.612H42.7007V14Z" fill="#222"/>
</svg>
