<svg width="160" height="48" viewBox="0 0 160 48" fill="none" xmlns="http://www.w3.org/2000/svg">
<rect width="160" height="48" rx="3" fill="#F13529"/>
<path d="M39.1664 29H41.3384L42.3104 24.608C42.4544 23.912 42.5744 23.228 42.6944 22.544H42.7424C42.8504 23.228 42.9824 23.912 43.1264 24.608L44.1224 29H46.3304L47.9744 20.108H46.2944L45.5864 24.452C45.4544 25.376 45.3224 26.324 45.1904 27.284H45.1304C44.9384 26.324 44.7584 25.364 44.5664 24.452L43.5464 20.108H42.0224L40.9904 24.452C40.7984 25.376 40.6064 26.324 40.4264 27.284H40.3784C40.2464 26.324 40.1024 25.388 39.9704 24.452L39.2624 20.108H37.4624L39.1664 29ZM49.3068 29H54.8868V27.512H51.0828V25.136H54.2028V23.648H51.0828V21.596H54.7548V20.108H49.3068V29ZM56.6897 29H59.8577C61.8137 29 63.3017 28.172 63.3017 26.384C63.3017 25.184 62.5937 24.512 61.6337 24.284V24.224C62.3897 23.96 62.8457 23.12 62.8457 22.304C62.8457 20.648 61.4537 20.108 59.6297 20.108H56.6897V29ZM58.4657 23.732V21.476H59.5217C60.5897 21.476 61.1177 21.788 61.1177 22.568C61.1177 23.276 60.6257 23.732 59.4977 23.732H58.4657ZM58.4657 27.632V25.04H59.7017C60.9257 25.04 61.5737 25.412 61.5737 26.276C61.5737 27.2 60.9137 27.632 59.7017 27.632H58.4657ZM64.5936 20.768L64.7496 22.412C66.1416 22.112 68.5896 21.848 69.7176 21.728C68.9016 22.34 67.9296 23.708 67.9296 25.436C67.9296 28.04 70.3056 29.384 72.8256 29.552L73.3896 27.908C71.3496 27.8 69.5016 27.092 69.5016 25.112C69.5016 23.684 70.5936 22.136 72.0456 21.752C72.6816 21.596 73.7136 21.596 74.3616 21.584L74.3496 20.048C73.4976 20.084 72.1896 20.156 70.9536 20.264C68.7576 20.444 66.7776 20.624 65.7696 20.708C65.5416 20.732 65.0736 20.756 64.5936 20.768ZM72.6456 22.76L71.7576 23.132C72.1416 23.672 72.3936 24.14 72.6936 24.8L73.6056 24.392C73.3776 23.924 72.9456 23.192 72.6456 22.76ZM73.9896 22.208L73.1136 22.616C73.4976 23.144 73.7736 23.588 74.0976 24.236L74.9976 23.804C74.7456 23.336 74.2896 22.628 73.9896 22.208ZM84.2976 22.88H83.3856V21.344H84.2976V22.88ZM84.2976 25.676H83.3856V24.152H84.2976V25.676ZM79.2576 24.152H80.1216V25.676H79.2576V24.152ZM82.1976 24.152V25.676H81.3096V24.152H82.1976ZM81.3096 22.88V21.344H82.1976V22.88H81.3096ZM79.2576 21.344H80.1216V22.88H79.2576V21.344ZM77.9976 22.88H76.3896V24.152H77.9976V25.676H76.5696V26.948H86.9976V25.676H85.6056V24.152H87.1656V22.88H85.6056V21.344H86.7336V20.084H79.5336C79.7136 19.808 79.8696 19.532 80.0016 19.244L78.6096 18.836C78.0816 19.952 77.1336 21.044 76.1256 21.704C76.4496 21.932 77.0256 22.388 77.2896 22.64C77.5296 22.46 77.7576 22.244 77.9976 22.016V22.88ZM77.6256 30.056C78.2136 29.432 78.7296 28.448 78.9936 27.536L77.6136 27.2C77.3376 28.076 76.7976 29 76.2696 29.504L77.6256 30.056ZM79.7616 27.62C79.8936 28.352 79.9896 29.336 79.9896 29.912L81.3816 29.708C81.3696 29.144 81.2256 28.196 81.0816 27.464L79.7616 27.62ZM82.1376 27.644C82.4016 28.376 82.6776 29.348 82.7496 29.924L84.1776 29.648C84.0696 29.06 83.7696 28.124 83.4816 27.416L82.1376 27.644ZM84.5136 27.584C85.0416 28.352 85.6776 29.408 85.9296 30.044L87.3936 29.552C87.0936 28.892 86.4216 27.884 85.8816 27.152L84.5136 27.584ZM96.3936 20.936C96.0096 20.492 95.1576 19.88 94.4856 19.484L93.8016 20.444C94.4616 20.888 95.2896 21.536 95.6616 22.004L96.3936 20.936ZM93.2496 23.456C93.9456 23.876 94.8216 24.512 95.2176 24.956L95.9376 23.816C95.5056 23.384 94.6176 22.808 93.9216 22.436L93.2496 23.456ZM92.1696 19.496C92.0376 20.336 91.7496 21.548 91.5096 22.304L92.4096 22.556C92.7096 21.86 93.0576 20.72 93.3696 19.76L92.1696 19.496ZM89.8416 22.304C89.7816 21.56 89.5416 20.42 89.2296 19.556L88.2336 19.82C88.5096 20.684 88.7496 21.848 88.7736 22.592L89.8416 22.304ZM93.1176 26.252C92.8656 25.916 91.7256 24.572 91.3776 24.224V24.14H93.1536V22.808H91.3776V18.884H90.0576V22.808H88.2456V24.14H89.6136C89.2416 25.232 88.6296 26.516 88.0296 27.248C88.2456 27.644 88.5576 28.292 88.6776 28.724C89.1936 28.004 89.6736 26.888 90.0576 25.772V30.008H91.3776V25.796C91.7256 26.348 92.0616 26.972 92.2416 27.356L93.1176 26.252ZM99.4656 26.528L99.2496 25.196L98.0256 25.424V18.824H96.6816V25.664L93.1176 26.3L93.3336 27.632L96.6816 27.032V30.032H98.0256V26.792L99.4656 26.528ZM102.442 18.884C101.902 20.576 100.966 22.28 99.9576 23.372C100.222 23.732 100.618 24.512 100.75 24.86C100.99 24.572 101.242 24.248 101.482 23.924V30.02H102.838V21.608C103.21 20.84 103.534 20.06 103.798 19.292L102.442 18.884ZM107.95 26.756V23.624C108.358 24.752 108.862 25.832 109.426 26.756H107.95ZM105.094 26.756C105.658 25.868 106.162 24.812 106.558 23.708V26.756H105.094ZM111.262 22.328V20.972H107.95V18.896H106.558V20.972H103.522V22.328H105.886C105.226 24.224 104.11 26.12 102.898 27.2C103.222 27.44 103.678 27.944 103.918 28.28C104.302 27.896 104.65 27.44 104.986 26.924V28.028H106.558V29.96H107.95V28.028H109.558V26.972C109.87 27.452 110.182 27.872 110.518 28.244C110.77 27.872 111.262 27.392 111.586 27.14C110.422 26.048 109.318 24.176 108.658 22.328H111.262ZM112.75 29.372C113.242 28.7 113.362 27.584 113.422 26.492L112.63 26.336C112.582 27.356 112.438 28.364 112.03 28.976L112.75 29.372ZM113.53 26.588C113.614 27.296 113.65 28.208 113.614 28.808L114.262 28.724C114.298 28.148 114.25 27.224 114.142 26.528L113.53 26.588ZM114.346 26.528C114.538 27.152 114.694 27.956 114.718 28.472L115.342 28.34C115.306 27.824 115.138 27.032 114.946 26.408L114.346 26.528ZM115.858 24.716V23.972H116.902V22.892H115.858V22.172H116.902V21.896C117.106 22.196 117.334 22.604 117.466 22.916C117.79 22.724 118.09 22.484 118.39 22.232V22.88H119.614V23.528H117.574V26.696H119.278C118.954 27.536 118.306 28.328 117.07 28.952C117.202 28.316 117.274 27.164 117.358 25.184C117.37 25.028 117.37 24.716 117.37 24.716H115.858ZM113.902 23.972H114.718V24.716H113.902V23.972ZM114.718 22.172V22.892H113.902V22.172H114.718ZM114.718 20.432V21.092H113.902V20.432H114.718ZM118.858 21.788C119.398 21.236 119.866 20.624 120.178 20.084C120.514 20.636 121.018 21.26 121.582 21.788H118.858ZM121.81 24.56V25.664H120.826C120.862 25.304 120.874 24.956 120.874 24.608V24.56H121.81ZM118.738 25.664V24.56H119.614V24.596C119.614 24.944 119.602 25.304 119.542 25.664H118.738ZM123.022 26.696V23.528H120.874V22.88H122.074V22.22C122.326 22.436 122.59 22.616 122.854 22.772C123.034 22.4 123.31 21.884 123.562 21.548C122.506 21.044 121.462 19.952 120.742 18.848H119.518C119.026 19.844 117.982 21.08 116.902 21.728V21.092H115.858V20.432H117.142V19.28H112.726V25.82H116.158C116.134 26.336 116.11 26.78 116.086 27.14C115.978 26.816 115.834 26.468 115.678 26.168L115.114 26.36C115.342 26.84 115.582 27.488 115.654 27.908L116.038 27.764C115.978 28.388 115.918 28.688 115.834 28.808C115.738 28.928 115.654 28.964 115.51 28.964C115.354 28.964 115.09 28.952 114.778 28.916C114.946 29.216 115.054 29.684 115.066 30.02C115.498 30.044 115.882 30.032 116.122 29.984C116.422 29.948 116.638 29.84 116.842 29.564C116.902 29.492 116.95 29.384 116.998 29.228C117.25 29.468 117.55 29.828 117.694 30.068C119.122 29.372 119.926 28.472 120.358 27.512C120.874 28.616 121.606 29.516 122.602 30.032C122.806 29.672 123.214 29.168 123.502 28.904C122.494 28.472 121.738 27.668 121.258 26.696H123.022ZM134.158 23.3L133.894 23.396H131.998L132.286 22.928C132.01 22.796 131.65 22.664 131.254 22.508C132.262 21.824 133.258 20.996 134.026 20.228L133.006 19.424L132.682 19.508H125.506V20.816H131.302C130.834 21.224 130.294 21.62 129.778 21.944C129.106 21.692 128.434 21.464 127.894 21.272L127.186 22.352C127.954 22.64 128.926 23.024 129.814 23.396H124.354V24.752H129.094V28.436C129.094 28.616 129.022 28.664 128.794 28.676C128.554 28.676 127.666 28.676 126.958 28.652C127.174 29.024 127.402 29.612 127.474 30.02C128.506 30.02 129.286 30.008 129.838 29.804C130.414 29.6 130.582 29.24 130.582 28.484V24.752H133.114C132.814 25.292 132.466 25.832 132.178 26.228L133.402 26.936C134.074 26.132 134.782 24.932 135.322 23.804L134.158 23.3ZM136.618 25.856C136.522 26.864 136.33 27.932 135.982 28.64C136.294 28.748 136.822 29 137.074 29.156C137.422 28.388 137.674 27.188 137.794 26.06L136.618 25.856ZM139.294 26.12C139.594 26.852 139.906 27.824 140.002 28.436L141.13 28.04C140.986 27.428 140.674 26.492 140.35 25.784L139.294 26.12ZM143.038 20.864C143.266 20.312 143.47 19.736 143.626 19.148L142.162 18.836C141.778 20.348 141.07 21.884 140.182 22.832L140.098 22.688L139.09 23.132C139.234 23.384 139.378 23.672 139.51 23.96L138.298 24.008C139.078 23.036 139.918 21.812 140.59 20.756L139.378 20.252C139.09 20.852 138.706 21.548 138.274 22.22C138.154 22.064 138.01 21.884 137.854 21.716C138.286 21.044 138.778 20.12 139.21 19.292L137.95 18.848C137.746 19.472 137.41 20.276 137.074 20.936C136.978 20.852 136.882 20.768 136.786 20.684L136.114 21.668C136.618 22.148 137.206 22.796 137.554 23.312C137.374 23.576 137.182 23.828 137.002 24.056L136.114 24.092L136.234 25.34L138.01 25.22V30.056H139.27V25.124L139.954 25.076C140.026 25.316 140.086 25.532 140.122 25.724L141.202 25.22C141.07 24.62 140.686 23.732 140.266 22.976C140.626 23.192 141.154 23.552 141.394 23.768C141.754 23.336 142.09 22.808 142.414 22.22H145.726C145.594 26.312 145.414 28.064 145.054 28.436C144.91 28.592 144.778 28.64 144.55 28.64C144.226 28.64 143.542 28.64 142.786 28.568C143.05 28.976 143.242 29.6 143.266 30.008C143.962 30.032 144.706 30.044 145.138 29.972C145.642 29.9 145.954 29.768 146.29 29.312C146.794 28.676 146.962 26.78 147.118 21.524C147.13 21.344 147.13 20.864 147.13 20.864H143.038ZM144.394 26.348C144.142 25.592 143.458 24.488 142.834 23.66L141.694 24.236C142.306 25.1 142.93 26.252 143.158 27.008L144.394 26.348Z" fill="white"/>
<path d="M17.72 28.4631L19.481 27.9551L30.084 17.2252C30.1676 17.1395 30.2142 17.0243 30.2136 16.9046C30.213 16.7848 30.1654 16.6701 30.081 16.5852L29.446 15.9432C29.4049 15.901 29.3559 15.8674 29.3018 15.8444C29.2476 15.8214 29.1894 15.8094 29.1306 15.8091C29.0718 15.8089 29.0135 15.8203 28.9591 15.8428C28.9047 15.8653 28.8554 15.8984 28.814 15.9402L18.239 26.6422L17.719 28.4621L17.72 28.4631ZM30.703 14.6712L31.338 15.3142C32.214 16.2012 32.222 17.6322 31.354 18.5102L20.428 29.5681L16.664 30.6521C16.4342 30.7165 16.1883 30.687 15.9802 30.5702C15.7721 30.4534 15.6188 30.2588 15.554 30.0291C15.5058 29.864 15.5051 29.6886 15.552 29.5231L16.647 25.6832L27.544 14.6542C27.7512 14.4455 27.9979 14.2802 28.2696 14.1679C28.5414 14.0556 28.8328 13.9985 29.1268 14C29.4209 14.0015 29.7117 14.0615 29.9823 14.1766C30.2529 14.2917 30.4979 14.4594 30.703 14.6702V14.6712ZM19.184 15.8242C19.68 15.8242 20.082 16.2312 20.082 16.7332C20.0828 16.8518 20.0602 16.9695 20.0155 17.0794C19.9707 17.1893 19.9048 17.2894 19.8214 17.3738C19.738 17.4582 19.6388 17.5254 19.5294 17.5714C19.42 17.6175 19.3027 17.6415 19.184 17.6422H15.592C14.6 17.6422 13.796 18.4562 13.796 19.4592V30.3651C13.796 31.3691 14.6 32.1831 15.592 32.1831H26.368C27.36 32.1831 28.165 31.3691 28.165 30.3651V26.7302C28.165 26.2282 28.567 25.8212 29.063 25.8212C29.559 25.8212 29.961 26.2282 29.961 26.7312V30.3651C29.961 32.3731 28.352 34.0011 26.368 34.0011H15.592C13.608 34.0011 12 32.3731 12 30.3651V19.4592C12 17.4522 13.608 15.8242 15.592 15.8242H19.184Z" fill="white"/>
</svg>
