<svg width="33" height="33" viewBox="0 0 33 33" fill="none" xmlns="http://www.w3.org/2000/svg">
<path fill-rule="evenodd" clip-rule="evenodd" d="M16.5 0C25.5977 0 33 6.006 33 13.3897C33 16.3453 31.8553 19.0059 29.4628 21.6274C26.0019 25.6121 18.2614 30.4652 16.5 31.2077C14.7881 31.9296 14.9861 30.8014 15.0645 30.3559L15.0707 30.3187L15.3058 28.9059C15.3615 28.4852 15.4192 27.8314 15.2522 27.4147C15.0666 26.9548 14.3364 26.7156 13.8002 26.6001C5.86987 25.5544 0 20.0083 0 13.3897C0 6.006 7.40438 0 16.5 0ZM10.3579 15.8524H7.21256V10.1434C7.21256 10.0584 7.17895 9.97687 7.11905 9.91659C7.05916 9.85631 6.97785 9.82217 6.89288 9.82162H5.73375C5.6915 9.82162 5.64966 9.82995 5.61062 9.84612C5.57159 9.86228 5.53612 9.88599 5.50624 9.91586C5.47636 9.94574 5.45266 9.98121 5.43649 10.0202C5.42032 10.0593 5.412 10.1011 5.412 10.1434V17.3332C5.412 17.4178 5.44706 17.4982 5.50275 17.5539V17.556L5.50688 17.5601L5.511 17.5642C5.57081 17.6218 5.65076 17.6536 5.73375 17.6529H10.3579C10.5352 17.6529 10.6776 17.5086 10.6776 17.3312V16.1762C10.6778 16.1339 10.6698 16.092 10.6539 16.0529C10.6379 16.0138 10.6145 15.9781 10.5848 15.9481C10.5551 15.918 10.5198 15.8941 10.4808 15.8777C10.4419 15.8612 10.4001 15.8526 10.3579 15.8524ZM11.9893 9.82162H13.1484C13.3258 9.82162 13.4681 9.966 13.4681 10.1434V17.3332C13.4681 17.5106 13.3237 17.6529 13.1484 17.6529H11.9893C11.9043 17.6529 11.8228 17.6193 11.7625 17.5594C11.7022 17.4995 11.6681 17.4182 11.6676 17.3332V10.1434C11.6676 9.966 11.8119 9.82162 11.9893 9.82162ZM19.9567 9.82162H21.1117C21.2912 9.82162 21.4356 9.966 21.4356 10.1434V17.3332C21.4356 17.5106 21.2912 17.6529 21.1138 17.6529H19.9567C19.9289 17.6531 19.9012 17.6496 19.8742 17.6426H19.8701C19.8625 17.6401 19.8549 17.6374 19.8474 17.6344L19.8371 17.6302L19.8227 17.6241C19.817 17.6217 19.8115 17.6189 19.8062 17.6158L19.8 17.6137L19.7794 17.6014L19.7773 17.5993C19.7451 17.5778 19.7172 17.5505 19.6948 17.5189L16.3948 13.0639V17.3332C16.3951 17.3754 16.387 17.4172 16.3711 17.4562C16.3551 17.4952 16.3316 17.5307 16.3019 17.5606C16.2722 17.5905 16.2369 17.6143 16.1979 17.6305C16.159 17.6467 16.1173 17.655 16.0751 17.655H14.9181C14.8331 17.655 14.7516 17.6214 14.6913 17.5615C14.631 17.5016 14.5969 17.4203 14.5963 17.3353V10.1434C14.5963 9.966 14.7407 9.82162 14.9181 9.82162H16.0875L16.0978 9.82369H16.1102L16.1164 9.82575H16.1287L16.1494 9.83194H16.1535L16.1576 9.834L16.1782 9.84019L16.1886 9.84431C16.1949 9.84672 16.2011 9.84947 16.2071 9.85256L16.2133 9.85462L16.2174 9.85669C16.2267 9.86158 16.2357 9.86709 16.2442 9.87319L16.2504 9.87731L16.2607 9.8835V9.88556C16.2649 9.88556 16.2669 9.88969 16.269 9.89175C16.2747 9.89557 16.2802 9.8997 16.2855 9.90412L16.2917 9.91031C16.3093 9.92652 16.3252 9.94449 16.3391 9.96394L19.635 14.4169V10.1434C19.635 9.966 19.7794 9.82162 19.9567 9.82162ZM27.8252 11.3004C27.8252 11.4778 27.6808 11.6222 27.5055 11.6222H24.3581V12.8391H27.5034C27.6808 12.8391 27.8231 12.9834 27.8231 13.1587V14.3158C27.8231 14.4932 27.6788 14.6376 27.5034 14.6376H24.3581V15.8544H27.5034C27.6808 15.8544 27.8231 15.9988 27.8231 16.1741V17.3312C27.8231 17.5086 27.6788 17.6529 27.5034 17.6529H22.8793C22.8372 17.6532 22.7956 17.6451 22.7566 17.6291C22.7177 17.6132 22.6823 17.5898 22.6524 17.5601L22.6483 17.5539C22.5907 17.4948 22.5582 17.4158 22.5576 17.3332V10.1434C22.5576 10.0567 22.5926 9.97837 22.6462 9.92269L22.6524 9.9165L22.6545 9.91444C22.7143 9.85509 22.7951 9.82173 22.8793 9.82162H27.5034C27.6808 9.82162 27.8231 9.966 27.8231 10.1434V11.3004H27.8252Z" fill="white"/>
</svg>
