<svg width="341" height="86" viewBox="0 0 341 86" fill="none" xmlns="http://www.w3.org/2000/svg">
<path d="M128.084 10.308L125.564 10.371H125.123L125.69 6.591L125.543 6.444L123.086 6.087L122.939 6.234C122.771 7.662 122.603 9.027 122.414 10.35L120.65 10.308L120.503 10.455V12.744L120.65 12.891L122.015 12.849C121.595 15.222 121.091 17.532 120.398 19.968L120.482 20.157L122.54 20.955L122.75 20.871L122.96 20.157C123.17 20.304 123.38 20.43 123.59 20.577C122.792 21.711 121.721 22.614 120.293 23.475L121.826 25.323C121.91 25.449 122.015 25.491 122.099 25.491C122.183 25.491 122.267 25.47 122.372 25.386C123.8 24.399 124.892 23.412 125.711 22.278C126.131 22.656 126.53 23.055 126.929 23.517L127.139 23.538L128.819 21.774L128.84 21.585C128.294 21.018 127.664 20.493 126.971 20.01C127.874 17.742 128.189 14.781 128.231 10.455L128.084 10.308ZM125.585 12.828C125.459 15.201 125.165 17.028 124.64 18.477C124.304 18.288 123.968 18.078 123.611 17.889C124.052 16.209 124.409 14.529 124.724 12.828H125.585ZM130.541 17.952L127.79 17.889L127.643 18.036V19.842L127.79 19.989L130.541 19.926H137.66L140.411 19.989L140.558 19.842V18.036L140.411 17.889L137.66 17.952H137.261C137.387 17.574 137.492 17.196 137.576 16.818L138.773 16.839L138.92 16.692L138.857 15.117V13.92L138.92 12.66L138.773 12.513L135.686 12.576H132.368L129.26 12.513L129.134 12.66L129.197 13.92V15.117L129.134 16.692L129.26 16.839L130.52 16.818C130.625 17.196 130.73 17.574 130.814 17.952H130.541ZM133.25 17.952C133.166 17.553 133.082 17.175 132.977 16.776H135.119C135.035 17.175 134.93 17.553 134.846 17.952H133.25ZM131.591 15.033V14.319H136.337V15.033H131.591ZM135.392 7.431V6.108L135.245 5.961H132.725L132.578 6.108V7.431H130.31L127.559 7.368L127.412 7.515V9.321L127.559 9.468L130.31 9.405H132.578V10.098H131.486L128.924 10.035L128.798 10.161V11.904L128.945 12.03L131.486 11.967H136.463L139.025 12.03L139.151 11.925V10.14L139.025 10.035L136.463 10.098H135.392V9.405H137.66L140.411 9.468L140.558 9.321V7.515L140.411 7.368L137.66 7.431H135.392ZM136.295 25.239V26.1H139.235L139.13 23.727V22.215L139.193 20.619L139.046 20.472L135.917 20.535H132.137L129.008 20.472L128.861 20.619L128.924 22.215V23.832L128.819 26.1H131.654V25.239H136.295ZM136.295 23.349H131.654V22.404H136.295V23.349ZM145.724 7.473C145.724 9.93 145.619 11.778 145.556 13.416C145.493 15.327 145.346 17.28 145.346 20.199C145.346 23.748 147.509 25.239 150.68 25.239C153.893 25.239 157.19 23.307 159.269 20.01C159.437 19.737 159.395 19.569 159.206 19.338L157.379 16.902C155.594 20.157 152.864 22.047 150.449 22.047C149.189 22.047 148.475 21.375 148.475 19.863C148.475 18.225 148.601 15.873 148.685 14.046C148.79 11.883 148.895 10.098 149 7.494L148.832 7.347L145.871 7.326L145.724 7.473ZM164.351 9.111C164.246 11.4 164.204 13.416 164.204 15.117C164.204 17.973 164.771 20.325 165.422 21.648C166.262 23.349 167.459 24.315 168.824 24.315C170.525 24.315 171.89 22.74 172.73 20.556C172.814 20.325 172.814 20.22 172.667 20.031L170.567 17.385C170.084 19.317 169.37 20.451 168.803 20.451C168.341 20.451 168.068 19.842 167.837 19.023C167.543 17.952 167.354 16.713 167.354 14.865C167.354 13.647 167.417 11.568 167.606 9.237L167.459 9.09L164.498 8.985L164.351 9.111ZM174.41 12.828C176.594 14.361 178.19 16.65 179.324 19.548L179.534 19.611L182.201 17.952L182.264 17.763C181.046 14.949 179.051 12.576 176.699 10.98L176.468 11.022L174.452 12.639L174.41 12.828ZM198.371 20.43V21.501H201.479L201.374 17.637V16.293L201.437 14.403L201.29 14.256L198.161 14.319H189.551L186.065 14.256L185.918 14.403L185.981 16.818V18.225C185.981 20.976 185.393 22.53 183.356 24.21L185.414 25.953C185.498 26.037 185.582 26.058 185.666 26.058C185.729 26.058 185.813 26.037 185.876 25.974C187.661 24.378 188.522 22.719 188.816 20.43H198.371ZM195.074 18.183V16.566H198.371V18.183H195.074ZM192.134 18.183H188.942V16.566H192.134V18.183ZM194.948 7.662V6.192L194.78 6.045H192.008L191.861 6.213V7.662H187.136L183.944 7.599L183.818 7.725V9.93L183.965 10.056L187.136 9.993H191.861V11.085H188.879L186.107 11.022L185.981 11.148V13.311L186.128 13.437L188.879 13.374H198.224L200.996 13.437L201.122 13.332V11.127L200.996 11.022L198.224 11.085H194.948V9.993H200.03L203.222 10.056L203.348 9.951V7.704L203.222 7.599L200.03 7.662H194.948ZM221.303 6.696C222.143 7.41 222.71 8.019 223.361 8.88H223.571L224.663 8.082L224.684 7.872C224.054 7.032 223.382 6.36 222.605 5.709L222.395 5.73L221.324 6.507L221.303 6.696ZM219.329 8.019C220.169 8.733 220.757 9.426 221.408 10.287H221.618L222.773 9.468L222.794 9.258C222.164 8.418 221.429 7.683 220.652 7.032L220.442 7.053L219.35 7.83L219.329 8.019ZM205.679 24.483L208.451 25.176L208.682 25.113C209.837 21.039 210.887 17.784 212.294 13.794C212.819 13.752 213.302 13.71 213.68 13.71C214.604 13.71 214.751 13.962 214.751 15.222C214.751 17.049 214.331 19.632 213.995 20.703C213.68 21.69 213.386 21.816 212.714 21.816C212.21 21.816 211.286 21.606 210.614 21.354L210.866 24.336C210.887 24.63 210.95 24.672 211.097 24.714C212.021 24.966 212.903 25.092 213.68 25.092C214.793 25.092 216.179 24.588 216.935 22.215C217.502 20.577 217.88 17.805 217.901 15.033C217.922 11.967 216.284 10.896 214.541 10.896C214.142 10.896 213.743 10.917 213.323 10.938C213.68 9.909 214.079 8.796 214.52 7.599L214.457 7.368L211.622 6.675L211.412 6.78C210.866 8.397 210.383 9.888 209.879 11.337C208.43 11.547 206.876 11.736 205.217 11.862L205.091 12.009L205.553 14.55L205.721 14.676C206.771 14.55 207.905 14.403 208.871 14.256C207.8 17.469 206.75 20.661 205.616 24.315L205.679 24.483ZM218.09 11.904C219.686 13.689 220.883 16.167 221.702 18.582L221.891 18.624L224.516 17.112L224.6 16.902C223.697 14.529 222.353 12.24 220.568 10.287H220.358L218.132 11.694L218.09 11.904Z" fill="white"/>
<path d="M108.435 45.6181C106.392 48.5603 102.989 52.1316 100.14 54.3261C98.2755 52.7045 96.3475 51.2105 94.5223 49.9579L94.0196 49.979L89.9295 53.5914L89.9569 54.0495C94.0283 56.7948 99.337 61.7562 103.433 67.2762L103.834 67.3318L108.584 63.2204L108.601 62.7685C107.36 61.2334 105.935 59.7182 104.452 58.286C108.754 55.1119 112.366 51.3424 116.309 45.8469C116.593 45.4321 116.93 45.2971 116.979 44.9405C117.029 44.5839 116.965 44.3932 116.657 43.9872L113.74 40.1298L109.831 39.8148L100.184 38.6132C101.159 37.1582 102.044 35.6909 102.884 34.2174L102.857 33.7593L96.8959 31.2062L96.4316 31.2781C92.7843 38.9043 86.5108 45.4848 79.6165 49.6623L83.8441 53.2471C84.5785 53.8487 84.7444 53.9625 85.6332 53.4498C89.2828 51.0484 92.8714 47.7754 96.0762 43.9948L108.435 45.6181Z" fill="#FFF500"/>
<path d="M53.8933 44.2175L53.6504 42.1617L67.4008 40.5373L67.9621 45.2883L73.9922 44.5759L73.2241 40.0346L73.0136 38.253L72.7567 34.902L72.3991 34.62L65.6086 35.5612L54.3251 36.8942L47.5936 37.5505L47.3116 37.9081L47.8912 41.6378L48.0099 42.6428C47.2538 40.5551 46.2854 38.6314 45.1692 36.6326L44.7875 36.5387L41.542 38.0802L41.311 38.478C41.6096 39.0449 41.919 39.7031 42.2229 40.3157C41.3201 40.515 40.4629 40.7089 39.5601 40.9082C41.7646 37.2201 43.5929 33.4838 45.6571 28.6079L45.4715 28.213L40.7596 26.361L40.3701 26.5923C39.4763 28.8286 38.612 30.9225 37.7369 32.925C37.3847 32.6887 36.9815 32.4121 36.5782 32.1355C37.9152 29.3373 39.0719 26.1898 40.352 22.5183L40.1664 22.1233L35.006 20.7875L34.6165 21.0188C33.9407 23.9242 33.0929 26.9425 32.1455 29.5094C31.7477 29.2785 31.3552 29.0932 30.9628 28.908L30.5973 28.9512L28.5676 32.9428L28.6108 33.3083C31.2263 34.6668 33.3741 35.988 35.5705 37.7203C34.9101 39.1879 34.1987 40.6152 33.4361 42.0022C32.3908 42.172 31.2998 42.3472 30.2035 42.4768L29.9215 42.8343L31.5496 47.5982L31.9877 47.778C33.8337 47.3284 35.5427 46.8949 37.1549 46.4265L37.9806 53.4159L39.0798 64.6807L44.9728 63.9845L43.4168 52.7737L42.4885 44.9163C42.9399 44.8167 43.386 44.6713 43.832 44.526C44.1011 45.2353 44.2734 45.9098 44.4914 46.5788L44.8838 46.764L48.21 45.1205L48.3644 47.6035L53.3894 47.0099C54.0378 54.0665 51.58 56.395 45.3385 58.8461L49.2774 62.7812C49.5381 63.0283 49.7371 63.1438 50.0568 63.106C50.1939 63.0898 50.3255 63.0279 50.5029 62.9607C57.8861 59.5872 60.5898 54.6358 59.1443 43.9677L58.7813 43.64L53.8933 44.2175ZM55.445 29.9066L54.1659 30.0577L48.1197 30.633L47.8726 30.8938L48.423 35.5534L48.7752 35.7897L54.7434 34.9457L64.428 33.8016L69.9718 33.2856L70.2538 32.928L69.7087 28.3141L69.4076 28.1181L63.8506 28.9136L61.8406 29.151L61.5329 26.5471L65.8728 26.0344L71.5079 25.5077L71.7039 25.2066L71.1642 20.6384L70.7664 20.4074L65.3007 21.1921L60.9609 21.7048L60.5831 18.507L60.2255 18.225L54.4696 18.905L54.193 19.3083L54.5653 22.4603L50.9108 22.8921L45.3213 23.4135L45.085 23.7656L45.6247 28.3338L45.9715 28.5245L51.4828 27.7344L55.1374 27.3027L55.445 29.9066ZM43.4253 48.1407L43.2346 48.4874C44.2354 50.6852 44.9351 52.6869 45.7481 55.648L46.0949 55.8386L49.9933 53.9422L50.1274 53.5094C49.3954 51.2336 48.5022 49.1621 47.2971 46.8032L46.9101 46.6636L43.4253 48.1407ZM32.2784 48.6701L32.0313 48.9309C32.4472 53.2358 32.3254 56.9095 31.8543 60.7634L35.851 62.0514C36.0445 62.1212 36.2327 62.1452 36.3697 62.1291C36.6438 62.0967 36.7593 61.8978 36.8369 61.3791C37.2491 57.8101 37.2069 53.9242 36.9305 49.2322L36.6186 48.9448L32.2784 48.6701ZM66.9289 42.8164L66.566 42.4887L61.0841 43.1363L60.8021 43.4939L61.4335 48.8387L62.2621 56.2447C62.7802 60.6302 63.6914 60.8931 68.7621 60.294C71.7315 59.9432 73.7037 59.386 74.9231 57.945C75.855 56.8159 76.1014 54.9803 75.8955 51.6696C75.8873 51.2074 75.8308 51.1214 75.347 50.9469L70.6783 49.4604C70.8792 53.5128 70.6187 54.0531 69.431 54.1934C68.2889 54.3284 68.2889 54.3284 68.1648 53.2777L66.9289 42.8164Z" fill="#FFF500"/>
<path d="M136.833 53.937L136.749 50.934L136.581 50.808C134.019 51.081 131.961 51.228 130.113 51.228C127.635 51.228 125.85 50.913 125.85 49.506C125.85 48.519 126.585 47.637 128.223 46.692C128.643 47.049 129.105 47.259 129.672 47.259C130.323 47.259 131.121 46.734 131.184 45.894C131.226 45.39 131.415 45.117 131.751 44.844C132.969 44.319 134.838 43.605 136.665 42.996L136.749 42.828L135.51 40.077L135.3 39.993C133.2 40.77 131.058 41.673 129.147 42.639C128.139 41.19 127.089 39.426 126.165 37.746L125.955 37.683L123.414 39.006L123.372 39.216C124.296 40.896 125.409 42.744 126.438 44.214C124.212 45.789 122.637 47.616 122.637 49.527C122.637 52.824 125.052 54.357 130.092 54.357C132.738 54.357 134.775 54.273 136.707 54.126L136.833 53.937ZM147.543 38.208C147.837 37.788 148.152 37.347 148.425 36.906L148.404 36.696L145.821 35.898L145.632 35.919C144.435 38.292 142.755 39.867 140.55 41.484L142.125 42.933C142.23 43.038 142.335 43.101 142.461 43.101C142.545 43.101 142.671 43.059 142.797 42.954C143.028 42.786 143.28 42.597 143.511 42.408V45.369L143.448 48.057L143.595 48.183L146.535 48.12H149.349V48.96H144.75L141.306 48.918L141.117 49.002V51.186L141.264 51.333L144.75 51.27H147.27C145.275 52.425 143.133 53.202 140.739 53.811L142.419 55.764C142.503 55.869 142.566 55.911 142.671 55.911C142.734 55.911 142.818 55.89 142.923 55.848C145.086 55.155 147.417 53.979 149.37 52.593L149.244 56.079H152.52L152.394 52.446C154.179 53.916 156.006 54.798 158.841 55.764C158.946 55.806 159.03 55.827 159.093 55.827C159.24 55.827 159.324 55.764 159.387 55.68L161.214 53.517C158.631 52.971 156.384 52.341 154.431 51.27H157.203L160.689 51.333L160.836 51.186V49.044L160.689 48.918L157.203 48.96H152.415V48.12H156.825L159.807 48.183L159.933 48.099V46.146L159.807 46.062L156.825 46.125H153.276V45.348H155.67L158.652 45.39L158.778 45.327V43.605L158.652 43.5L155.67 43.563H153.276V42.807H155.67L158.652 42.87L158.778 42.786V41.064L158.652 40.98L155.67 41.022H153.276V40.224H156.636L159.618 40.266L159.744 40.182V38.25L159.618 38.145L156.636 38.208H153.696C154.053 37.704 154.41 37.137 154.641 36.696L154.515 36.507L151.785 35.919L151.617 36.024C151.449 36.591 151.05 37.431 150.588 38.208H147.543ZM150.294 40.224V41.022H146.451V40.224H150.294ZM150.294 42.807V43.563H146.451V42.807H150.294ZM150.294 45.348V46.125H146.451V45.348H150.294ZM165.561 44.109L165.162 46.566L165.288 46.734C167.136 46.923 168.984 46.965 170.958 46.839C170.979 47.469 171.021 48.12 171.063 48.75C167.871 48.603 164.826 49.296 164.826 52.152C164.826 54.609 167.178 55.512 169.173 55.512C172.113 55.512 173.94 54.63 174.066 52.362C175.053 52.908 176.691 54.147 177.888 55.281H178.119L179.967 53.055V52.845C177.993 51.312 176.229 50.157 174.108 49.296C174.045 48.414 174.003 47.49 173.961 46.503C175.347 46.293 176.754 45.999 178.182 45.6L178.287 45.411L177.951 43.038L177.762 42.912C176.523 43.269 175.221 43.563 173.877 43.773C173.835 43.101 173.835 42.45 173.835 41.778C175.011 41.61 176.187 41.358 177.321 41.064L177.468 40.896L177.195 38.712L177.027 38.544C176.061 38.775 174.99 38.964 173.835 39.132C173.856 38.355 173.877 37.515 173.898 36.696L173.751 36.528H170.916L170.769 36.696C170.748 37.662 170.748 38.544 170.748 39.405C169.215 39.489 167.682 39.468 166.233 39.384L166.065 39.51L166.002 41.841L166.149 42.03C167.703 42.135 169.215 42.156 170.769 42.072C170.832 42.744 170.79 43.416 170.832 44.088C169.068 44.193 167.346 44.151 165.708 43.962L165.561 44.109ZM170.979 51.375C171.063 52.32 170.643 52.845 169.467 52.845C168.102 52.845 167.661 52.467 167.661 51.963C167.661 51.585 168.375 51.123 169.467 51.123C170.202 51.123 170.517 51.186 170.979 51.375ZM185.364 47.553L186.519 49.863L186.729 49.884C191.244 47.553 193.029 46.923 194.709 46.923C196.116 46.923 196.935 47.574 196.935 48.834C196.935 50.241 196.347 51.144 194.877 51.753C193.617 52.278 192.483 52.488 189.858 52.635L191.223 54.945C191.37 55.176 191.454 55.26 191.727 55.26C191.811 55.26 191.916 55.26 192.063 55.239C194.142 54.987 195.99 54.441 196.788 54.084C198.846 53.16 200.022 51.417 200.022 49.17C200.022 46.251 198.048 44.256 194.835 44.256C192.819 44.256 190.488 45.012 185.406 47.343L185.364 47.553ZM204.551 44.403C207.533 43.563 209.78 42.975 211.838 42.471C210.473 43.584 209.024 45.81 209.024 48.393C209.024 51.249 210.326 53.013 212.405 53.895C214.127 54.63 216.416 54.903 219.041 54.861L219.209 54.735L219.377 51.543L219.23 51.396C217.046 51.417 215.366 51.291 214.211 50.934C212.972 50.556 212.174 49.716 212.174 48.099C212.174 46.125 213.266 44.214 215.219 42.639C216.5 41.589 218.537 41.169 220.868 41.001L221.015 40.812L220.406 38.019L220.217 37.914C214.295 38.985 209.612 39.951 203.753 41.379L203.669 41.547L204.362 44.319L204.551 44.403ZM225.362 39.111C225.257 41.4 225.215 43.416 225.215 45.117C225.215 47.973 225.782 50.325 226.433 51.648C227.273 53.349 228.47 54.315 229.835 54.315C231.536 54.315 232.901 52.74 233.741 50.556C233.825 50.325 233.825 50.22 233.678 50.031L231.578 47.385C231.095 49.317 230.381 50.451 229.814 50.451C229.352 50.451 229.079 49.842 228.848 49.023C228.554 47.952 228.365 46.713 228.365 44.865C228.365 43.647 228.428 41.568 228.617 39.237L228.47 39.09L225.509 38.985L225.362 39.111ZM235.421 42.828C237.605 44.361 239.201 46.65 240.335 49.548L240.545 49.611L243.212 47.952L243.275 47.763C242.057 44.949 240.062 42.576 237.71 40.98L237.479 41.022L235.463 42.639L235.421 42.828ZM248.084 44.109L247.685 46.566L247.811 46.734C249.659 46.923 251.507 46.965 253.481 46.839C253.502 47.469 253.544 48.12 253.586 48.75C250.394 48.603 247.349 49.296 247.349 52.152C247.349 54.609 249.701 55.512 251.696 55.512C254.636 55.512 256.463 54.63 256.589 52.362C257.576 52.908 259.214 54.147 260.411 55.281H260.642L262.49 53.055V52.845C260.516 51.312 258.752 50.157 256.631 49.296C256.568 48.414 256.526 47.49 256.484 46.503C257.87 46.293 259.277 45.999 260.705 45.6L260.81 45.411L260.474 43.038L260.285 42.912C259.046 43.269 257.744 43.563 256.4 43.773C256.358 43.101 256.358 42.45 256.358 41.778C257.534 41.61 258.71 41.358 259.844 41.064L259.991 40.896L259.718 38.712L259.55 38.544C258.584 38.775 257.513 38.964 256.358 39.132C256.379 38.355 256.4 37.515 256.421 36.696L256.274 36.528H253.439L253.292 36.696C253.271 37.662 253.271 38.544 253.271 39.405C251.738 39.489 250.205 39.468 248.756 39.384L248.588 39.51L248.525 41.841L248.672 42.03C250.226 42.135 251.738 42.156 253.292 42.072C253.355 42.744 253.313 43.416 253.355 44.088C251.591 44.193 249.869 44.151 248.231 43.962L248.084 44.109ZM253.502 51.375C253.586 52.32 253.166 52.845 251.99 52.845C250.625 52.845 250.184 52.467 250.184 51.963C250.184 51.585 250.898 51.123 251.99 51.123C252.725 51.123 253.04 51.186 253.502 51.375ZM272.255 55.701C272.36 55.764 272.465 55.806 272.591 55.806C272.675 55.806 272.78 55.806 272.885 55.764C272.948 55.743 273.011 55.722 273.095 55.701C275.09 55.05 276.896 53.895 277.925 52.047C278.513 50.976 278.807 49.968 278.807 48.603C278.807 47.805 278.618 46.839 278.345 46.041C278.282 44.613 278.282 43.395 278.282 42.24C280.319 42.156 282.419 42.135 284.498 42.135L284.666 41.988V39.363L284.498 39.216C282.503 39.237 280.403 39.321 278.303 39.405C278.324 38.607 278.345 37.746 278.366 36.78L278.198 36.612H275.3L275.174 36.759C275.174 37.746 275.174 38.691 275.174 39.594C272.36 39.741 269.378 39.951 266.459 40.161L266.312 40.35L266.522 42.996L266.69 43.122C269.651 42.786 272.486 42.534 275.174 42.387C275.195 42.891 275.195 43.29 275.195 43.752C275.006 43.71 274.796 43.647 274.145 43.647C272.297 43.647 270.365 45.894 270.365 48.393C270.365 49.884 271.415 50.892 273.347 50.892C274.502 50.892 275.09 50.682 275.363 50.409C274.817 51.711 272.906 53.034 269.861 53.664L272.255 55.701ZM275.279 46.944C275.237 47.91 274.628 48.267 273.767 48.267C273.221 48.267 273.095 48.078 273.095 47.679C273.095 47.028 273.788 46.125 274.376 46.125C274.796 46.125 275.132 46.356 275.279 46.944ZM298.148 37.641H294.851V48.876H298.148V37.641ZM296.51 50.577C295.397 50.577 294.473 51.501 294.473 52.614C294.473 53.727 295.397 54.63 296.51 54.63C297.602 54.63 298.526 53.727 298.526 52.614C298.526 51.501 297.602 50.577 296.51 50.577ZM308.648 37.641H305.351V48.876H308.648V37.641ZM307.01 50.577C305.897 50.577 304.973 51.501 304.973 52.614C304.973 53.727 305.897 54.63 307.01 54.63C308.102 54.63 309.026 53.727 309.026 52.614C309.026 51.501 308.102 50.577 307.01 50.577Z" fill="white"/>
<path d="M324.912 24L330.171 25.139L318.286 61.8172L316.094 61.3426L324.912 24Z" fill="white"/>
<path d="M335.318 39.0151L340.137 41.1788L325.655 63.2536L323.646 62.352L335.318 39.0151Z" fill="white"/>
<path d="M15.228 24L9.96848 25.139L21.8541 61.8172L24.0456 61.3426L15.228 24Z" fill="white"/>
<path d="M4.82178 39.0151L0.00225031 41.1788L14.485 63.2536L16.4932 62.352L4.82178 39.0151Z" fill="white"/>
</svg>
