<svg width="50" height="50" viewBox="0 0 50 50" fill="none" xmlns="http://www.w3.org/2000/svg">
<rect width="50" height="50" fill="#A59C84"/>
<path d="M21.264 35.096L24.254 30.312C24.8 29.272 25.32 28.206 25.788 27.166H25.892C25.84 28.31 25.762 30.052 25.762 31.17V35.096H21.264ZM25.762 43H29.324V38.008H31.586V35.096H29.324V23.734H24.722L17.546 35.408V38.008H25.762V43Z" fill="#EDEAE2"/>
<path d="M11.368 18.196C13.762 18.196 15.176 16.754 15.176 15.06C15.176 13.562 14.35 12.764 13.09 12.246L11.732 11.672C10.85 11.322 10.122 11.056 10.122 10.314C10.122 9.628 10.696 9.222 11.606 9.222C12.46 9.222 13.146 9.53 13.804 10.076L14.854 8.774C14.014 7.92 12.81 7.444 11.606 7.444C9.506 7.444 8.022 8.746 8.022 10.44C8.022 11.952 9.072 12.792 10.122 13.226L11.508 13.814C12.432 14.206 13.062 14.444 13.062 15.214C13.062 15.942 12.488 16.404 11.41 16.404C10.5 16.404 9.52 15.942 8.778 15.256L7.588 16.684C8.596 17.65 9.982 18.196 11.368 18.196ZM18.7402 18H20.8122V9.362H23.7522V7.626H15.8282V9.362H18.7402V18ZM25.4322 18H31.9422V16.264H27.5042V13.492H31.1442V11.756H27.5042V9.362H31.7882V7.626H25.4322V18ZM34.0455 18H36.1175V14.318H37.5035C39.7295 14.318 41.5075 13.254 41.5075 10.888C41.5075 8.438 39.7435 7.626 37.4475 7.626H34.0455V18ZM36.1175 12.68V9.278H37.2935C38.7215 9.278 39.4775 9.684 39.4775 10.888C39.4775 12.078 38.7915 12.68 37.3635 12.68H36.1175Z" fill="#EDEAE2"/>
</svg>
