<svg width="50" height="50" viewBox="0 0 50 50" fill="none" xmlns="http://www.w3.org/2000/svg">
<rect width="50" height="50" fill="#A59C84"/>
<path d="M25.008 33.588C26.672 33.588 27.764 34.654 27.764 36.916C27.764 39.282 26.568 40.478 25.138 40.478C23.526 40.478 22.226 39.126 21.862 35.616C22.746 34.16 23.968 33.588 25.008 33.588ZM25.216 43.364C28.492 43.364 31.248 40.868 31.248 36.916C31.248 32.808 28.96 30.884 25.736 30.884C24.488 30.884 22.824 31.664 21.784 32.964C21.94 28.128 23.76 26.464 25.97 26.464C27.088 26.464 28.258 27.088 28.934 27.868L30.962 25.58C29.792 24.384 28.102 23.396 25.736 23.396C21.862 23.396 18.3 26.464 18.3 33.64C18.3 40.426 21.55 43.364 25.216 43.364Z" fill="#EDEAE2"/>
<path d="M11.368 18.196C13.762 18.196 15.176 16.754 15.176 15.06C15.176 13.562 14.35 12.764 13.09 12.246L11.732 11.672C10.85 11.322 10.122 11.056 10.122 10.314C10.122 9.628 10.696 9.222 11.606 9.222C12.46 9.222 13.146 9.53 13.804 10.076L14.854 8.774C14.014 7.92 12.81 7.444 11.606 7.444C9.506 7.444 8.022 8.746 8.022 10.44C8.022 11.952 9.072 12.792 10.122 13.226L11.508 13.814C12.432 14.206 13.062 14.444 13.062 15.214C13.062 15.942 12.488 16.404 11.41 16.404C10.5 16.404 9.52 15.942 8.778 15.256L7.588 16.684C8.596 17.65 9.982 18.196 11.368 18.196ZM18.7402 18H20.8122V9.362H23.7522V7.626H15.8282V9.362H18.7402V18ZM25.4322 18H31.9422V16.264H27.5042V13.492H31.1442V11.756H27.5042V9.362H31.7882V7.626H25.4322V18ZM34.0455 18H36.1175V14.318H37.5035C39.7295 14.318 41.5075 13.254 41.5075 10.888C41.5075 8.438 39.7435 7.626 37.4475 7.626H34.0455V18ZM36.1175 12.68V9.278H37.2935C38.7215 9.278 39.4775 9.684 39.4775 10.888C39.4775 12.078 38.7915 12.68 37.3635 12.68H36.1175Z" fill="#EDEAE2"/>
</svg>
