<svg width="168" height="63" viewBox="0 0 168 63" fill="none" xmlns="http://www.w3.org/2000/svg">
<path d="M30.912 48.848V50.696H37.128L36.918 42.758V39.608L37.044 34.82L36.75 34.526L30.744 34.652H26.208V30.452H33.684L38.766 30.578L39.06 30.284V25.496L38.808 25.286L33.684 25.412H26.208V21.758L25.956 21.506H20.37L20.16 21.758V34.652H17.892L11.844 34.526L11.55 34.82L11.676 39.608V43.388L11.466 51.116H17.514V48.848H30.912ZM30.912 43.934H17.514V39.482H30.912V43.934ZM19.026 15.542H11.214L4.242 15.416L3.948 15.71L4.074 22.556V29.738C4.074 37.718 2.982 42.002 0.336 46.832L4.242 50.486C4.41 50.654 4.578 50.738 4.746 50.738C4.914 50.738 5.04 50.654 5.208 50.402C8.442 45.53 9.996 39.314 9.996 29.654V20.582H33.096L40.068 20.708L40.362 20.414V15.71L40.068 15.416L33.096 15.542H25.242V11.258L24.948 10.964H19.32L19.026 11.258V15.542ZM68.544 42.086L68.46 51.242H73.878L73.836 46.16L75.348 50.654C75.474 51.074 75.6 51.158 76.272 51.158C80.976 51.158 81.774 50.15 81.774 45.866L81.606 37.802V27.554L81.732 23.354L81.438 23.06L76.86 23.186H73.752V20.918H77.238L82.782 21.044L83.034 20.834V16.172L82.782 15.962L80.598 16.004L82.32 14.534V14.114C81.27 13.064 80.052 12.098 78.33 10.922L77.868 10.838L74.802 13.022L74.718 13.4C75.894 14.24 76.902 15.206 77.7 16.088H73.752V11.258L73.458 10.964H68.838L68.586 11.216V16.088H65.814L60.27 15.962L60.018 16.214V18.44C59.346 17.726 58.716 17.054 58.002 16.382C56.868 15.374 55.692 14.408 54.516 13.526L55.02 12.56L54.81 12.182L50.19 10.88L49.77 11.048C47.796 14.996 45.192 18.566 42.126 21.17L43.932 25.79C44.016 26 44.142 26.168 44.31 26.168C44.436 26.168 44.562 26.084 44.73 25.958C44.856 25.832 45.024 25.706 45.15 25.58V28.184L45.444 28.478L49.392 28.352V30.914H48.678L43.344 30.788L43.05 31.082V35.156L43.344 35.45L48.678 35.324H54.348L59.85 35.45L60.144 35.156V31.082L59.85 30.788L54.726 30.914V28.352L58.464 28.478L58.758 28.184V24.278L58.464 23.984L54.726 24.11V20.666L54.474 20.414H50.022C50.736 19.49 51.408 18.524 52.08 17.558C53.592 19.028 55.146 20.834 56.28 22.598L56.7 22.682L60.018 19.7V20.792L60.312 21.044L65.814 20.918H68.586V23.186H65.772L61.236 23.06L60.942 23.354L61.068 27.554V39.02L60.858 51.2H66.108V42.086H68.544ZM73.794 42.086H76.44V45.068C76.44 45.698 76.314 45.908 75.768 45.992C75.306 46.076 74.844 46.076 73.836 46.076L73.794 42.086ZM73.752 37.55V35.072H76.44V37.55H73.752ZM68.586 37.55H66.108V35.072H68.586V37.55ZM73.752 30.536V27.974H76.44V30.536H73.752ZM68.586 30.536H66.108V27.974H68.586V30.536ZM49.392 24.11L46.788 24.026C47.67 23.102 48.594 22.178 49.392 21.17V24.11ZM53.76 49.016V50.906H59.346L59.136 43.64V40.994L59.262 37.298L58.968 37.004L54.6 37.13H48.804L45.066 37.004L44.814 37.298L44.856 40.994V43.43L44.646 51.2H50.106V49.016H53.76ZM53.76 44.48H50.106V41.666H53.76V44.48ZM93.324 33.812H116.802L123.774 33.938L124.068 33.644V27.764L123.774 27.47L116.802 27.596H93.324L86.352 27.47L86.058 27.764V33.644L86.352 33.938L93.324 33.812ZM141.876 16.466V15.29H143.472L147.882 15.416L148.134 15.206V12.056L147.882 11.846L143.472 11.972H135.618L129.192 11.846L128.898 12.098L129.024 16.676V22.514L128.898 27.554L129.192 27.848L135.618 27.722H143.22L147.63 27.848L147.882 27.638V24.488L147.63 24.278L143.22 24.404H141.876V23.144H143.01L147.042 23.27L147.378 22.934L147.252 20.246V20.162L149.772 21.926C149.982 22.094 150.15 22.22 150.318 22.22C150.486 22.22 150.696 22.094 150.948 21.842C151.704 21.086 152.502 20.204 153.258 19.154H161.91L166.614 19.28L166.866 19.07V14.786L166.614 14.576L161.91 14.702H156.198C156.618 13.946 157.038 13.148 157.374 12.392L157.248 12.014L152.544 10.796L152.082 10.922C151.074 13.526 149.352 15.878 147.294 18.02L147.378 16.634L147.084 16.34L142.968 16.466H141.876ZM137.088 16.466H133.98V15.29H137.088V16.466ZM133.98 19.196H142.758V20.414H133.98V19.196ZM133.98 23.144H137.088V24.404H133.98V23.144ZM154.224 44.48H154.77L160.23 44.606L160.524 44.27L160.398 38.936V33.518L160.524 28.94L160.23 28.604L154.77 28.73H139.02L133.77 28.604L133.476 28.94L133.602 33.518V38.936L133.476 44.312L133.77 44.606L139.02 44.48H139.65C137.718 46.454 133.602 46.874 126.798 46.916L129.528 50.822C129.696 51.074 129.906 51.242 130.326 51.242C138.642 51.242 144.144 49.226 146.118 44.48H148.428L148.344 46.58C148.218 50.234 149.016 50.654 156.03 50.654C163.17 50.654 164.514 50.192 165.69 49.268C166.614 48.596 167.244 47.21 167.412 45.152C167.454 44.816 167.412 44.732 167.034 44.564L162.54 42.8C162.246 45.824 161.868 46.076 156.954 46.076C154.224 46.076 154.224 46.076 154.224 45.32V44.48ZM139.314 40.028H154.518V41.288H139.314V40.028ZM139.314 37.172V35.954H154.518V37.172H139.314ZM139.314 33.14V31.964H154.518V33.14H139.314ZM155.526 26.84H160.314L165.018 26.966L165.27 26.756V22.472L165.018 22.262L160.314 22.388H155.526L150.822 22.262L150.57 22.514V26.714L150.864 26.966L155.526 26.84Z" fill="#483B19"/>
</svg>
