<svg width="69" height="86" viewBox="0 0 69 86" fill="none" xmlns="http://www.w3.org/2000/svg">
<path d="M36.2114 74.0425L1 84.6542V1H68V84.6058L36.8206 74.0528L36.5177 73.9502L36.2114 74.0425Z" fill="white" stroke="#967110" stroke-width="2"/>
<path d="M27.188 10.36V11.886H33.936V10.36H27.188ZM26.348 13.076V14.63H34.552V13.076H26.348ZM26.656 15.89V17.444H34.412V15.89H26.656ZM29.68 9.1V13.93H31.346V9.1H29.68ZM31.346 14.462V20.356C31.346 20.552 31.276 20.594 31.052 20.594C30.814 20.608 30.044 20.608 29.358 20.58C29.582 21.042 29.806 21.756 29.862 22.246C30.926 22.246 31.724 22.204 32.284 21.952C32.844 21.7 33.012 21.238 33.012 20.384V14.462H31.346ZM27.146 18.2C27.748 18.872 28.462 19.796 28.756 20.412L30.086 19.544C29.75 18.928 29.008 18.046 28.392 17.43L27.146 18.2ZM21.364 16.576L21.77 18.186C23.254 17.752 25.172 17.178 26.936 16.618L26.712 15.148C24.78 15.694 22.736 16.268 21.364 16.576ZM23.884 9.114V22.26H25.424V9.114H23.884ZM22.036 9.842C21.91 11.494 21.672 13.244 21.224 14.378C21.56 14.546 22.162 14.924 22.414 15.134C22.918 13.874 23.254 11.928 23.436 10.08L22.036 9.842ZM22.414 11.76L22.106 13.356H26.586V11.76H22.414ZM45.234 11.844L44.842 13.258H48.608V11.844H45.234ZM45.01 9.114C44.744 11.34 44.268 13.51 43.33 14.896C43.624 15.204 44.128 15.932 44.31 16.268C45.486 14.602 46.158 11.998 46.536 9.366L45.01 9.114ZM40.81 9.128V13.468H42.168V9.128H40.81ZM39.088 10.304V14.042H43.96V10.318H42.784V12.754H40.208V10.304H39.088ZM39.144 14.84V16.142H43.82V14.84H39.144ZM39.34 17.066V18.326H43.666V17.066H39.34ZM38.822 19.544L39.046 20.972C40.418 20.832 42.224 20.664 43.974 20.468L43.96 19.18C42.056 19.334 40.124 19.46 38.822 19.544ZM40.796 15.526V20.034L42.21 19.838V15.526H40.796ZM45.514 13.216L44.408 13.37C44.828 17.262 45.612 20.496 47.74 22.176C47.964 21.77 48.44 21.182 48.776 20.916C46.732 19.572 45.892 16.59 45.514 13.216ZM46.606 12.712C46.354 16.884 45.458 19.67 42.672 21.182C42.98 21.448 43.54 22.022 43.722 22.302C46.648 20.482 47.698 17.458 48.076 12.796L46.606 12.712ZM37.576 9.1C37.1 9.982 36.12 11.102 35.252 11.788C35.504 12.096 35.896 12.726 36.092 13.076C37.156 12.208 38.318 10.892 39.088 9.674L37.576 9.1ZM37.8 12.054C37.17 13.454 36.134 14.868 35.154 15.806C35.42 16.17 35.882 16.982 36.036 17.332C37.198 16.156 38.458 14.28 39.256 12.572L37.8 12.054ZM36.848 15.12V22.26H38.36V13.608V13.594L36.848 15.12Z" fill="#967110"/>
<path d="M22.7344 49.8906C22.7344 52.4948 22.9479 54.4896 23.375 55.875C23.8021 57.25 24.6771 57.9375 26 57.9375C27.3229 57.9375 28.1875 57.25 28.5938 55.875C29.0104 54.4896 29.2188 52.4948 29.2188 49.8906C29.2188 47.1615 29.0104 45.1406 28.5938 43.8281C28.1875 42.5156 27.3229 41.8594 26 41.8594C24.6771 41.8594 23.8021 42.5156 23.375 43.8281C22.9479 45.1406 22.7344 47.1615 22.7344 49.8906ZM26 38.1875C28.8854 38.1875 30.9062 39.2031 32.0625 41.2344C33.2292 43.2656 33.8125 46.151 33.8125 49.8906C33.8125 53.6302 33.2292 56.5104 32.0625 58.5312C30.9062 60.5521 28.8854 61.5625 26 61.5625C23.1146 61.5625 21.0885 60.5521 19.9219 58.5312C18.7656 56.5104 18.1875 53.6302 18.1875 49.8906C18.1875 46.151 18.7656 43.2656 19.9219 41.2344C21.0885 39.2031 23.1146 38.1875 26 38.1875ZM37.2188 45.375V42.3438C38.625 42.2812 39.6094 42.1875 40.1719 42.0625C41.0677 41.8646 41.7969 41.4688 42.3594 40.875C42.7448 40.4688 43.0365 39.9271 43.2344 39.25C43.349 38.8438 43.4062 38.5417 43.4062 38.3438H47.1094V61H42.5469V45.375H37.2188Z" fill="#967110"/>
<line x1="13" y1="29" x2="59" y2="29" stroke="#967110" stroke-width="2"/>
</svg>
