<svg width="243" height="243" viewBox="0 0 243 243" fill="none" xmlns="http://www.w3.org/2000/svg">
<g filter="url(#filter0_d_197_1920)">
<circle cx="121.5" cy="121.5" r="111.5" fill="#F76F00"/>
</g>
<path d="M40.88 107.44C37.49 109.12 34.49 112.21 34.49 114.04C34.49 117.01 40.04 119.62 41.99 119.62C44.27 119.62 45.2 118.48 45.2 116.83V110.11C47.33 109.06 49.07 108.49 50.93 108.49C53 108.49 54.17 109.57 54.17 111.1C54.17 112.84 52.85 113.77 51.11 113.83C50.06 113.86 48.86 113.47 47.84 112.99L46.91 116.62C46.85 116.8 46.88 117.04 47.06 117.16C48.26 117.91 49.58 118.18 51.35 118.18C55.79 118.18 58.91 115.72 58.91 111.13C58.91 107.74 56.36 104.65 51.44 104.65C49.31 104.65 47.03 105.28 45.14 105.97L45.17 103.06C46.49 102.82 47.84 102.49 49.19 102.19L49.4 101.95L49.01 98.32L48.77 98.17C47.6 98.5 46.49 98.8 45.23 99.07L45.29 94.48L45.08 94.3H41.18L40.94 94.51L40.91 99.76C39.02 100.03 37.04 100.18 34.97 100.27L34.76 100.48L34.94 104.11L35.15 104.29C37.13 104.2 39.02 104.02 40.91 103.75L40.88 107.44ZM40.97 114.55C40.97 114.97 40.88 115.12 40.61 115.12C40.13 115.12 38.78 114.4 38.78 113.83C38.78 113.41 39.65 112.57 40.97 111.79V114.55ZM51.95 100.36C54.83 101.32 56.78 102.67 58.73 104.62L59.06 104.53L61.31 101.35L61.28 101.02C59.42 99.07 56.9 97.75 54.32 96.91L53.99 96.97L51.86 100.12L51.95 100.36ZM85.22 102.94L85.4 102.79V99.64L85.22 99.49L81.44 99.58H72.65L68.69 99.49L68.51 99.67V102.76L68.72 102.94L72.65 102.85H73.19C70.43 104.29 66.83 105.61 63.11 106.39L65.09 109.24C65.21 109.45 65.36 109.51 65.54 109.51C65.63 109.51 65.78 109.51 65.93 109.45C68.75 108.61 71.45 107.5 73.88 106.18C74.09 106.36 74.27 106.57 74.45 106.81C71.48 108.82 67.58 110.59 63.2 111.55L65.27 114.52C65.36 114.67 65.51 114.76 65.69 114.76C65.81 114.76 65.93 114.76 66.08 114.7C69.89 113.5 73.13 111.79 76.22 109.6C76.34 109.87 76.46 110.14 76.55 110.44C73.4 113.2 68.33 115.66 62.87 116.95L64.88 119.95C64.97 120.1 65.12 120.19 65.3 120.19C65.42 120.19 65.54 120.16 65.69 120.13C68.18 119.44 70.52 118.51 72.65 117.37L74.06 120.43C74.24 120.85 74.33 120.94 74.93 120.94C79.61 120.94 81.05 119.62 81.05 114.1C81.05 112.51 80.81 111.34 80.57 110.32C80.69 110.59 80.84 110.92 81.08 111.43C82.49 114.46 84.35 117.01 87.59 119.47C87.77 119.62 87.92 119.68 88.04 119.68C88.19 119.68 88.31 119.62 88.49 119.44L91.46 116.56C88.13 114.4 86.21 112.48 84.86 110.14C86.45 109.21 88.4 107.83 90.08 106.42V106.12L87.29 103.51H86.96C85.97 104.68 84.68 105.85 83.39 106.87C82.94 105.58 82.58 104.23 82.31 102.88L85.22 102.94ZM78.56 103.03C78.89 105.04 79.4 106.99 79.85 108.43C79.22 107.17 78.14 105.7 76.76 104.38C77.39 103.96 77.99 103.51 78.56 103.03ZM72.86 117.25C74.36 116.44 75.77 115.51 77.09 114.46C77 116.8 76.43 117.1 75.59 117.19C75.08 117.25 73.79 117.28 72.86 117.25ZM74.6 94.75H68.9L63.92 94.66L63.71 94.87L63.8 97.42V97.96L63.65 101.8H67.85V98.11H86.06V101.8H90.38L90.23 97.96V97.15L90.32 94.87L90.08 94.66L85.13 94.75H79.04V92.44L78.83 92.23H74.81L74.6 92.44V94.75ZM98.99 96.49L95.42 98.41L95.45 98.74C96.53 100.36 97.58 102.04 98.54 103.72C96.83 104.59 95.03 105.52 93.32 106.33L93.26 106.6L95.21 110.02L95.48 110.08C97.16 109.18 98.81 108.19 100.52 107.32C102.8 111.67 104.69 116.11 106.16 120.4L106.43 120.52L110.48 118.99L110.6 118.75C108.92 114.43 106.91 109.84 104.45 105.22C105.8 104.53 107.09 103.87 108.23 103.33C110.24 102.4 111.89 101.86 113.03 101.86C114.77 101.86 115.7 102.94 115.7 104.23C115.7 106.96 113 107.62 107.9 107.5L110.12 111.19C110.36 111.58 110.54 111.61 111.02 111.61C116.27 111.52 120.47 109.36 120.47 104.38C120.47 100.84 117.8 97.69 113.36 97.69C111.95 97.69 110.12 98.26 107.99 99.16L110.3 96.85L110.33 96.58C108.8 95.17 107.36 94.15 105.59 93.19L105.26 93.25L102.68 95.8L102.65 96.1C104.3 97 105.8 98.23 107.09 99.55C105.53 100.18 104.03 100.96 102.53 101.74C101.51 100 100.46 98.29 99.32 96.61L98.99 96.49ZM151.22 106.27L151.43 106.09V103.18L151.22 103L146.93 103.09C146.9 101.23 146.9 99.4 146.87 97.54C147.44 98.8 147.8 100 148.16 101.35L148.37 101.47L151.1 99.82L151.19 99.55C150.74 98.05 150.35 97.12 149.36 95.47L149.15 95.38L146.87 96.73V92.89L146.66 92.68H143.36L143.18 92.92C143.18 97.12 143.21 100.42 143.27 103.09H141.17C141.5 102.16 141.8 101.14 142.16 99.97L142.04 99.7L139.58 98.77L142.49 98.86L142.67 98.71V95.74L142.49 95.59L139.91 95.68V93.31L139.7 93.1H136.4L136.22 93.31V95.68L133.46 95.59V93.25L133.25 93.04L129.62 93.13H126.38L122.96 93.04L122.69 93.19V96.34L122.9 96.55L123.98 96.52V112.36C123.53 112.45 123.08 112.51 122.57 112.6L122.42 112.87L123.44 116.26L123.71 116.41C125.63 115.87 127.34 115.39 128.75 114.88L128.66 121.03H132.41L132.26 110.47V96.52L133.19 96.55V98.68L133.4 98.86L136.37 98.77H139.13L139.07 98.83C138.86 100.27 138.56 101.68 138.17 103.09H137.06L135.8 103.06L137.66 102.4L137.78 102.13C137.39 100.84 137.03 99.94 136.58 99.01L136.34 98.83L133.91 99.73L133.82 99.97C134.24 100.99 134.54 102.04 134.81 103.03L132.92 103L132.74 103.21V106.09L132.95 106.27L137.06 106.18H143.36C143.48 108.91 143.63 111.64 144.14 114.34C143.63 115 143.03 115.63 142.43 116.23L142.37 114.16V110.35L142.46 107.41L142.28 107.2L139.43 107.29H136.61L133.76 107.2L133.55 107.41L133.64 110.5V113.5L133.49 119.35H136.85V117.52H139.22L140.93 117.58C140.42 118 139.88 118.39 139.34 118.75L141.59 120.58C141.77 120.73 141.92 120.79 142.07 120.79C142.22 120.79 142.4 120.73 142.58 120.58C143.54 119.86 144.47 119.08 145.31 118.21C146.21 120.13 147.35 120.67 148.43 120.67C150.14 120.67 151.16 119.2 151.64 115.39C151.7 115.03 151.58 114.88 151.25 114.61L149.27 113.05C148.97 115.54 148.73 115.81 148.46 115.81C148.31 115.81 148.16 115.63 147.95 114.88C149.21 112.96 150.26 110.86 151.04 108.61L150.92 108.31L148.49 106.66L148.25 106.78C147.98 107.8 147.65 108.88 147.2 109.93C147.08 108.67 147.05 107.44 146.99 106.18L151.22 106.27ZM127.31 99.22V96.46H128.81V99.22H127.31ZM128.81 102.43V105.31H127.31V102.43H128.81ZM128.81 108.52V111.34C128.3 111.46 127.82 111.58 127.31 111.7V108.52H128.81ZM139.19 113.65V114.88H136.85V113.65H139.19ZM139.19 111.13H136.85V109.93H139.19V111.13ZM159.65 103.24L162.29 103.3L162.47 103.15V99.82L162.29 99.67L159.65 99.73V93.22L159.44 93.01H155.96L155.75 93.25V99.76L152.84 99.67L152.66 99.85V103.12L152.87 103.3L155.75 103.21V111.01C154.7 111.28 153.62 111.55 152.42 111.82L152.27 112.09L153.41 115.51L153.68 115.66C156.65 114.79 158.93 113.89 160.76 113.08L161.51 113.77C161.72 113.98 161.87 114.04 161.99 114.04C162.08 114.04 162.17 114.01 162.29 113.98C163.49 113.56 164.84 112.81 165.98 111.97H167.54C165.74 113.65 163.4 114.49 160.28 115.39L162.32 117.67C162.47 117.85 162.59 117.94 162.77 117.94C162.86 117.94 162.98 117.91 163.16 117.85C166.52 116.68 169.34 115.24 171.62 111.97H172.67C170.63 115.63 167.75 117.31 163.28 118.81L165.32 120.97C165.53 121.18 165.65 121.3 165.83 121.3C165.92 121.3 166.01 121.27 166.1 121.24C168.74 120.37 170.9 119.14 172.7 117.4L173.99 120.49C174.14 120.85 174.32 120.94 174.71 120.94C177.65 120.94 178.88 120.37 179.45 119.02C180.02 117.73 180.38 114.46 180.47 109.06L180.26 108.85L176.27 108.94H168.65C168.86 108.64 169.07 108.34 169.25 108.04H176.54L181.22 108.13L181.43 107.92V104.86L181.22 104.65L176.54 104.74H166.16L161.63 104.65L161.42 104.86V107.92L161.63 108.13L164.99 108.07C164.09 109.09 163.01 109.84 161.84 110.47V109C161.09 109.27 160.37 109.54 159.65 109.78V103.24ZM176.42 111.97C176.33 114.07 176.12 115.63 176 116.17C175.85 116.8 175.52 117.01 174.92 117.07C174.35 117.13 173.72 117.13 172.97 117.13C174.41 115.66 175.52 113.86 176.33 111.97H176.42ZM173.87 103.84L178.16 103.93L178.37 103.72L178.28 100.33V96.79L178.37 93.55L178.1 93.34L173.87 93.43H168.74L164.45 93.34L164.24 93.55L164.33 96.79V100.33L164.24 103.72L164.45 103.93L168.74 103.84H173.87ZM174.23 99.85V101.14H168.26V99.85H174.23ZM174.23 97.33H168.26V96.13H174.23V97.33ZM198.95 118.99C199.28 119.32 199.49 119.32 199.91 119.29C206.27 117.79 210.11 113.65 210.11 108.19C210.11 101.53 205.73 96.04 197.54 96.04C189.29 96.04 183.86 101.92 183.86 109.18C183.86 111.61 184.46 113.26 185.33 114.61C186.47 116.41 187.76 117.28 189.56 117.28C191.9 117.28 193.58 116.41 195.2 114.04C197.27 111.01 199.22 105.73 199.82 100.06C202.88 100.69 205.4 103.57 205.4 108.13C205.4 111.73 202.49 114.82 196.04 115.9L198.95 118.99ZM195.08 99.94C194.63 103.6 193.79 106.78 192.11 110.14C191.3 111.76 190.43 112.45 189.74 112.45C189.26 112.45 188.84 112.06 188.51 111.46C188.18 110.89 188 110.17 188 109.18C188 104.56 190.7 100.69 195.08 99.94Z" fill="white"/>
<path d="M96.86 146.59V151.06L96.71 157.66H101.3L101.15 151.06V146.59H101.96L105.5 146.68L105.71 146.47V143.14L105.5 142.93L101.96 143.02H93.2V140.44C97.22 139.96 101.39 139.21 104.87 138.13L104.9 137.83C103.88 136.72 102.86 135.73 101.87 134.95H101.57C98.9 135.91 95.27 136.66 92.36 137.02L89.06 136.39L88.85 136.6L88.94 140.5V143.95C88.94 150.01 88.46 152.41 85.91 155.32L88.97 157.45C89.15 157.57 89.27 157.63 89.39 157.63C89.57 157.63 89.72 157.51 89.87 157.33C92.12 154.6 92.96 152.05 93.14 146.59H96.86ZM106.7 158.14C101.54 158.53 95.51 158.8 91.79 158.65C89.09 158.53 86.99 158.14 85.88 156.7V150.79L85.97 146.29L85.76 146.08L81.83 146.17H81.02L78.26 146.08L78.08 146.26V149.68L78.29 149.86L81.02 149.77H81.8V156.1C80.39 156.88 79.19 157.57 77.63 158.56L77.54 158.83L79.67 162.34L79.94 162.46C81.23 161.32 82.4 160.21 83.54 159.28C85.31 161.5 87.74 162.1 90.35 162.28C92.24 162.43 94.61 162.49 97.22 162.49C99.53 162.49 101.99 162.43 104.48 162.34C104.81 162.34 104.9 162.34 105.02 162.04L106.7 158.14ZM86.18 139.45L86.21 139.12C84.68 137.44 83.3 136.27 81.56 135.13L81.26 135.19L78.65 137.38L78.62 137.62C80.45 139 81.65 140.23 82.94 141.88H83.36L86.18 139.45ZM126.35 161.74L129.32 158.02L129.29 157.72C124.67 154.51 119.24 151.39 115.37 149.62C115.1 149.5 114.89 149.29 114.86 149.08C114.83 148.87 115.01 148.54 115.31 148.3C118.22 145.75 122.75 142.54 126.98 139.66V139.36L123.86 135.91H123.53C118.94 139.48 114.41 143.11 110.99 146.44C109.97 147.43 109.31 148.36 109.31 149.59C109.31 150.97 110.09 151.9 111.32 152.53C117.05 155.5 121.46 158.23 126.08 161.77L126.35 161.74ZM145.01 140.29V144.01L145.22 144.28C146.18 144.34 147.11 144.34 148.07 144.34C151.34 144.34 154.49 144.07 156.74 143.59L156.92 143.35L156.74 139.57L156.53 139.39C153.53 139.9 150.92 140.11 148.07 140.11C147.14 140.11 146.18 140.08 145.19 140.05L145.01 140.29ZM158.42 158.95L158.15 154.93L157.88 154.75C155.81 155.17 153.26 155.38 152.27 155.38C148.25 155.41 147.08 154.51 146.51 151.69L146.24 151.6L143.03 153.07L142.88 153.34C143.6 156.67 145.19 159.7 151.22 159.7C154.07 159.7 156.23 159.52 158.27 159.22L158.42 158.95ZM136.34 137.2C136.31 138.97 136.01 140.56 135.56 142.54C134.87 145.3 134.24 148.96 134.24 151.66C134.24 155.98 135.08 158.41 135.74 159.52C136.43 160.72 137.15 161.38 138.35 161.35C139.73 161.32 140.39 160.48 140.42 159.13C140.48 157.24 140.93 155.35 141.83 152.8L140.96 152.35C140.54 152.95 139.91 153.76 139.43 154.3C138.98 154.75 138.68 154.72 138.59 154.33C138.44 153.67 138.41 152.89 138.41 151.3C138.41 149.32 138.83 146.83 139.52 144.34C140.42 141.28 140.81 139.57 140.9 137.83L140.72 137.59L136.58 137.02L136.34 137.2ZM175.19 136.63H170.48V152.68H175.19V136.63ZM172.85 155.11C171.26 155.11 169.94 156.43 169.94 158.02C169.94 159.61 171.26 160.9 172.85 160.9C174.41 160.9 175.73 159.61 175.73 158.02C175.73 156.43 174.41 155.11 172.85 155.11Z" fill="white"/>
<defs>
<filter id="filter0_d_197_1920" x="0" y="0" width="243" height="243" filterUnits="userSpaceOnUse" color-interpolation-filters="sRGB">
<feFlood flood-opacity="0" result="BackgroundImageFix"/>
<feColorMatrix in="SourceAlpha" type="matrix" values="0 0 0 0 0 0 0 0 0 0 0 0 0 0 0 0 0 0 127 0" result="hardAlpha"/>
<feOffset/>
<feGaussianBlur stdDeviation="5"/>
<feComposite in2="hardAlpha" operator="out"/>
<feColorMatrix type="matrix" values="0 0 0 0 0 0 0 0 0 0 0 0 0 0 0 0 0 0 0.45 0"/>
<feBlend mode="multiply" in2="BackgroundImageFix" result="effect1_dropShadow_197_1920"/>
<feBlend mode="normal" in="SourceGraphic" in2="effect1_dropShadow_197_1920" result="shape"/>
</filter>
</defs>
</svg>
