<svg width="654" height="97" viewBox="0 0 654 97" fill="none" xmlns="http://www.w3.org/2000/svg">
<path d="M290.124 50.9603C287.762 54.3601 283.83 58.487 280.538 61.0229C278.383 59.149 276.155 57.4226 274.046 55.9751L273.465 55.9995L268.739 60.1738L268.771 60.7032C273.475 63.8756 279.61 69.6087 284.343 75.9874L284.806 76.0517L290.295 71.3007L290.315 70.7784C288.881 69.0046 287.234 67.2538 285.521 65.5988C290.492 61.9309 294.666 57.575 299.222 51.2247C299.551 50.7453 299.94 50.5893 299.997 50.1772C300.054 49.7652 299.98 49.5449 299.625 49.0757L296.253 44.6182L291.736 44.2542L280.589 42.8657C281.715 41.1844 282.738 39.4888 283.709 37.7861L283.677 37.2567L276.789 34.3065L276.253 34.3895C272.038 43.2021 264.789 50.8063 256.822 55.6336L261.707 59.776C262.556 60.4711 262.747 60.6027 263.774 60.0102C267.992 57.2353 272.139 53.4531 275.842 49.0845L290.124 50.9603Z" fill="#FFF500"/>
<path d="M224.141 48.6579L223.845 46.1553L240.584 44.1777L241.268 49.9615L248.609 49.0943L247.674 43.5658L247.417 41.3969L247.105 37.3174L246.669 36.9741L238.403 38.1199L224.666 39.7427L216.471 40.5416L216.128 40.9769L216.834 45.5175L216.978 46.741C216.058 44.1994 214.879 41.8576 213.52 39.4242L213.055 39.3099L209.104 41.1864L208.823 41.6707C209.186 42.3609 209.563 43.1622 209.933 43.9079C208.834 44.1506 207.79 44.3866 206.691 44.6293C209.375 40.1394 211.601 35.5908 214.114 29.655L213.888 29.1742L208.152 26.9196L207.677 27.2012C206.589 29.9237 205.537 32.4727 204.472 34.9105C204.043 34.6229 203.552 34.2861 203.061 33.9494C204.689 30.5429 206.097 26.7112 207.655 22.2415L207.429 21.7607L201.147 20.1345L200.673 20.4161C199.85 23.9531 198.818 27.6275 197.665 30.7524C197.181 30.4713 196.703 30.2458 196.225 30.0203L195.78 30.0728L193.309 34.9323L193.362 35.3772C196.546 37.0311 199.161 38.6394 201.834 40.7483C201.031 42.5349 200.164 44.2725 199.236 45.9611C197.964 46.1678 196.635 46.3811 195.301 46.5388L194.957 46.9741L196.94 52.7736L197.473 52.9925C199.72 52.4451 201.801 51.9174 203.763 51.3472L204.769 59.856L206.107 73.5697L213.281 72.7222L211.386 59.0742L210.256 49.5087C210.806 49.3874 211.349 49.2105 211.892 49.0335C212.22 49.8971 212.429 50.7181 212.695 51.5326L213.172 51.7581L217.222 49.7572L217.41 52.7801L223.527 52.0574C224.316 60.6481 221.324 63.4827 213.726 66.4668L218.521 71.2573C218.839 71.5581 219.081 71.6987 219.47 71.6527C219.637 71.633 219.797 71.5576 220.013 71.4757C229.001 67.3689 232.293 61.3411 230.533 48.3538L230.091 47.9549L224.141 48.6579ZM226.03 31.236L224.472 31.4199L217.112 32.1203L216.811 32.4378L217.481 38.1104L217.91 38.3981L225.175 37.3705L236.965 35.9777L243.714 35.3496L244.058 34.9143L243.394 29.2973L243.028 29.0587L236.262 30.0271L233.815 30.3162L233.441 27.1462L238.724 26.5221L245.584 25.8808L245.823 25.5142L245.166 19.9529L244.682 19.6718L238.028 20.627L232.745 21.2512L232.285 17.3583L231.849 17.015L224.842 17.8428L224.505 18.3337L224.959 22.171L220.51 22.6966L213.705 23.3313L213.417 23.76L214.074 29.3213L214.497 29.5534L221.206 28.5916L225.655 28.066L226.03 31.236ZM211.397 53.434L211.165 53.8562C212.383 56.5317 213.235 58.9686 214.225 62.5734L214.647 62.8054L219.393 60.4967L219.556 59.9699C218.665 57.1993 217.577 54.6775 216.11 51.8058L215.639 51.6359L211.397 53.434ZM197.827 54.0785L197.526 54.396C198.032 59.6368 197.884 64.1091 197.31 68.8008L202.176 70.3688C202.412 70.4537 202.641 70.4831 202.807 70.4633C203.141 70.4239 203.282 70.1818 203.376 69.5503C203.878 65.2054 203.827 60.4748 203.49 54.7628L203.11 54.4129L197.827 54.0785ZM240.01 46.9523L239.568 46.5534L232.895 47.3418L232.551 47.7771L233.32 54.2838L234.329 63.2997C234.959 68.6386 236.069 68.9587 242.242 68.2294C245.857 67.8024 248.258 67.124 249.742 65.3697C250.877 63.9951 251.176 61.7605 250.926 57.7301C250.916 57.1674 250.847 57.0627 250.258 56.8503L244.574 55.0406C244.819 59.974 244.502 60.6318 243.056 60.8026C241.666 60.9668 241.666 60.9668 241.515 59.6877L240.01 46.9523Z" fill="#FFF500"/>
<path d="M344.002 67.892L343.858 62.744L343.57 62.528C339.178 62.996 335.65 63.248 332.482 63.248C328.234 63.248 325.174 62.708 325.174 60.296C325.174 58.604 326.434 57.092 329.242 55.472C329.962 56.084 330.754 56.444 331.726 56.444C332.842 56.444 334.21 55.544 334.318 54.104C334.39 53.24 334.714 52.772 335.29 52.304C337.378 51.404 340.582 50.18 343.714 49.136L343.858 48.848L341.734 44.132L341.374 43.988C337.774 45.32 334.102 46.868 330.826 48.524C329.098 46.04 327.298 43.016 325.714 40.136L325.354 40.028L320.998 42.296L320.926 42.656C322.51 45.536 324.418 48.704 326.182 51.224C322.366 53.924 319.666 57.056 319.666 60.332C319.666 65.984 323.806 68.612 332.446 68.612C336.982 68.612 340.474 68.468 343.786 68.216L344.002 67.892ZM362.362 40.928C362.866 40.208 363.406 39.452 363.874 38.696L363.838 38.336L359.41 36.968L359.086 37.004C357.034 41.072 354.154 43.772 350.374 46.544L353.074 49.028C353.254 49.208 353.434 49.316 353.65 49.316C353.794 49.316 354.01 49.244 354.226 49.064C354.622 48.776 355.054 48.452 355.45 48.128V53.204L355.342 57.812L355.594 58.028L360.634 57.92H365.458V59.36H357.574L351.67 59.288L351.346 59.432V63.176L351.598 63.428L357.574 63.32H361.894C358.474 65.3 354.802 66.632 350.698 67.676L353.578 71.024C353.722 71.204 353.83 71.276 354.01 71.276C354.118 71.276 354.262 71.24 354.442 71.168C358.15 69.98 362.146 67.964 365.494 65.588L365.278 71.564H370.894L370.678 65.336C373.738 67.856 376.87 69.368 381.73 71.024C381.91 71.096 382.054 71.132 382.162 71.132C382.414 71.132 382.558 71.024 382.666 70.88L385.798 67.172C381.37 66.236 377.518 65.156 374.17 63.32H378.922L384.898 63.428L385.15 63.176V59.504L384.898 59.288L378.922 59.36H370.714V57.92H378.274L383.386 58.028L383.602 57.884V54.536L383.386 54.392L378.274 54.5H372.19V53.168H376.294L381.406 53.24L381.622 53.132V50.18L381.406 50L376.294 50.108H372.19V48.812H376.294L381.406 48.92L381.622 48.776V45.824L381.406 45.68L376.294 45.752H372.19V44.384H377.95L383.062 44.456L383.278 44.312V41L383.062 40.82L377.95 40.928H372.91C373.522 40.064 374.134 39.092 374.53 38.336L374.314 38.012L369.634 37.004L369.346 37.184C369.058 38.156 368.374 39.596 367.582 40.928H362.362ZM367.078 44.384V45.752H360.49V44.384H367.078ZM367.078 48.812V50.108H360.49V48.812H367.078ZM367.078 53.168V54.5H360.49V53.168H367.078ZM393.25 51.044L392.566 55.256L392.782 55.544C395.95 55.868 399.118 55.94 402.502 55.724C402.538 56.804 402.61 57.92 402.682 59C397.21 58.748 391.99 59.936 391.99 64.832C391.99 69.044 396.022 70.592 399.442 70.592C404.482 70.592 407.614 69.08 407.83 65.192C409.522 66.128 412.33 68.252 414.382 70.196H414.778L417.946 66.38V66.02C414.562 63.392 411.538 61.412 407.902 59.936C407.794 58.424 407.722 56.84 407.65 55.148C410.026 54.788 412.438 54.284 414.886 53.6L415.066 53.276L414.49 49.208L414.166 48.992C412.042 49.604 409.81 50.108 407.506 50.468C407.434 49.316 407.434 48.2 407.434 47.048C409.45 46.76 411.466 46.328 413.41 45.824L413.662 45.536L413.194 41.792L412.906 41.504C411.25 41.9 409.414 42.224 407.434 42.512C407.47 41.18 407.506 39.74 407.542 38.336L407.29 38.048H402.43L402.178 38.336C402.142 39.992 402.142 41.504 402.142 42.98C399.514 43.124 396.886 43.088 394.402 42.944L394.114 43.16L394.006 47.156L394.258 47.48C396.922 47.66 399.514 47.696 402.178 47.552C402.286 48.704 402.214 49.856 402.286 51.008C399.262 51.188 396.31 51.116 393.502 50.792L393.25 51.044ZM402.538 63.5C402.682 65.12 401.962 66.02 399.946 66.02C397.606 66.02 396.85 65.372 396.85 64.508C396.85 63.86 398.074 63.068 399.946 63.068C401.206 63.068 401.746 63.176 402.538 63.5ZM427.198 56.948L429.178 60.908L429.538 60.944C437.278 56.948 440.338 55.868 443.218 55.868C445.63 55.868 447.034 56.984 447.034 59.144C447.034 61.556 446.026 63.104 443.506 64.148C441.346 65.048 439.402 65.408 434.902 65.66L437.242 69.62C437.494 70.016 437.638 70.16 438.106 70.16C438.25 70.16 438.43 70.16 438.682 70.124C442.246 69.692 445.414 68.756 446.782 68.144C450.31 66.56 452.326 63.572 452.326 59.72C452.326 54.716 448.942 51.296 443.434 51.296C439.978 51.296 435.982 52.592 427.27 56.588L427.198 56.948ZM460.09 51.548C465.202 50.108 469.054 49.1 472.582 48.236C470.242 50.144 467.758 53.96 467.758 58.388C467.758 63.284 469.99 66.308 473.554 67.82C476.506 69.08 480.43 69.548 484.93 69.476L485.218 69.26L485.506 63.788L485.254 63.536C481.51 63.572 478.63 63.356 476.65 62.744C474.526 62.096 473.158 60.656 473.158 57.884C473.158 54.5 475.03 51.224 478.378 48.524C480.574 46.724 484.066 46.004 488.062 45.716L488.314 45.392L487.27 40.604L486.946 40.424C476.794 42.26 468.766 43.916 458.722 46.364L458.578 46.652L459.766 51.404L460.09 51.548ZM495.766 42.476C495.586 46.4 495.514 49.856 495.514 52.772C495.514 57.668 496.486 61.7 497.602 63.968C499.042 66.884 501.094 68.54 503.434 68.54C506.35 68.54 508.69 65.84 510.13 62.096C510.274 61.7 510.274 61.52 510.022 61.196L506.422 56.66C505.594 59.972 504.37 61.916 503.398 61.916C502.606 61.916 502.138 60.872 501.742 59.468C501.238 57.632 500.914 55.508 500.914 52.34C500.914 50.252 501.022 46.688 501.346 42.692L501.094 42.44L496.018 42.26L495.766 42.476ZM513.01 48.848C516.754 51.476 519.49 55.4 521.434 60.368L521.794 60.476L526.366 57.632L526.474 57.308C524.386 52.484 520.966 48.416 516.934 45.68L516.538 45.752L513.082 48.524L513.01 48.848ZM534.718 51.044L534.034 55.256L534.25 55.544C537.418 55.868 540.586 55.94 543.97 55.724C544.006 56.804 544.078 57.92 544.15 59C538.678 58.748 533.458 59.936 533.458 64.832C533.458 69.044 537.49 70.592 540.91 70.592C545.95 70.592 549.082 69.08 549.298 65.192C550.99 66.128 553.798 68.252 555.85 70.196H556.246L559.414 66.38V66.02C556.03 63.392 553.006 61.412 549.37 59.936C549.262 58.424 549.19 56.84 549.118 55.148C551.494 54.788 553.906 54.284 556.354 53.6L556.534 53.276L555.958 49.208L555.634 48.992C553.51 49.604 551.278 50.108 548.974 50.468C548.902 49.316 548.902 48.2 548.902 47.048C550.918 46.76 552.934 46.328 554.878 45.824L555.13 45.536L554.662 41.792L554.374 41.504C552.718 41.9 550.882 42.224 548.902 42.512C548.938 41.18 548.974 39.74 549.01 38.336L548.758 38.048H543.898L543.646 38.336C543.61 39.992 543.61 41.504 543.61 42.98C540.982 43.124 538.354 43.088 535.87 42.944L535.582 43.16L535.474 47.156L535.726 47.48C538.39 47.66 540.982 47.696 543.646 47.552C543.754 48.704 543.682 49.856 543.754 51.008C540.73 51.188 537.778 51.116 534.97 50.792L534.718 51.044ZM544.006 63.5C544.15 65.12 543.43 66.02 541.414 66.02C539.074 66.02 538.318 65.372 538.318 64.508C538.318 63.86 539.542 63.068 541.414 63.068C542.674 63.068 543.214 63.176 544.006 63.5ZM576.154 70.916C576.334 71.024 576.514 71.096 576.73 71.096C576.874 71.096 577.054 71.096 577.234 71.024C577.342 70.988 577.45 70.952 577.594 70.916C581.014 69.8 584.11 67.82 585.874 64.652C586.882 62.816 587.386 61.088 587.386 58.748C587.386 57.38 587.062 55.724 586.594 54.356C586.486 51.908 586.486 49.82 586.486 47.84C589.978 47.696 593.578 47.66 597.142 47.66L597.43 47.408V42.908L597.142 42.656C593.722 42.692 590.122 42.836 586.522 42.98C586.558 41.612 586.594 40.136 586.63 38.48L586.342 38.192H581.374L581.158 38.444C581.158 40.136 581.158 41.756 581.158 43.304C576.334 43.556 571.222 43.916 566.218 44.276L565.966 44.6L566.326 49.136L566.614 49.352C571.69 48.776 576.55 48.344 581.158 48.092C581.194 48.956 581.194 49.64 581.194 50.432C580.87 50.36 580.51 50.252 579.394 50.252C576.226 50.252 572.914 54.104 572.914 58.388C572.914 60.944 574.714 62.672 578.026 62.672C580.006 62.672 581.014 62.312 581.482 61.844C580.546 64.076 577.27 66.344 572.05 67.424L576.154 70.916ZM581.338 55.904C581.266 57.56 580.222 58.172 578.746 58.172C577.81 58.172 577.594 57.848 577.594 57.164C577.594 56.048 578.782 54.5 579.79 54.5C580.51 54.5 581.086 54.896 581.338 55.904ZM620.542 39.956H614.89V59.216H620.542V39.956ZM617.734 62.132C615.826 62.132 614.242 63.716 614.242 65.624C614.242 67.532 615.826 69.08 617.734 69.08C619.606 69.08 621.19 67.532 621.19 65.624C621.19 63.716 619.606 62.132 617.734 62.132ZM638.542 39.956H632.89V59.216H638.542V39.956ZM635.734 62.132C633.826 62.132 632.242 63.716 632.242 65.624C632.242 67.532 633.826 69.08 635.734 69.08C637.606 69.08 639.19 67.532 639.19 65.624C639.19 63.716 637.606 62.132 635.734 62.132Z" fill="white"/>
<path d="M13.86 44.528L9.54 44.636H8.784L9.756 38.156L9.504 37.904L5.292 37.292L5.04 37.544C4.752 39.992 4.464 42.332 4.14 44.6L1.116 44.528L0.864 44.78V48.704L1.116 48.956L3.456 48.884C2.736 52.952 1.872 56.912 0.684 61.088L0.828 61.412L4.356 62.78L4.716 62.636L5.076 61.412C5.436 61.664 5.796 61.88 6.156 62.132C4.788 64.076 2.952 65.624 0.504 67.1L3.132 70.268C3.276 70.484 3.456 70.556 3.6 70.556C3.744 70.556 3.888 70.52 4.068 70.376C6.516 68.684 8.388 66.992 9.792 65.048C10.512 65.696 11.196 66.38 11.88 67.172L12.24 67.208L15.12 64.184L15.156 63.86C14.22 62.888 13.14 61.988 11.952 61.16C13.5 57.272 14.04 52.196 14.112 44.78L13.86 44.528ZM9.576 48.848C9.36 52.916 8.856 56.048 7.956 58.532C7.38 58.208 6.804 57.848 6.192 57.524C6.948 54.644 7.56 51.764 8.1 48.848H9.576ZM18.072 57.632L13.356 57.524L13.104 57.776V60.872L13.356 61.124L18.072 61.016H30.276L34.992 61.124L35.244 60.872V57.776L34.992 57.524L30.276 57.632H29.592C29.808 56.984 29.988 56.336 30.132 55.688L32.184 55.724L32.436 55.472L32.328 52.772V50.72L32.436 48.56L32.184 48.308L26.892 48.416H21.204L15.876 48.308L15.66 48.56L15.768 50.72V52.772L15.66 55.472L15.876 55.724L18.036 55.688C18.216 56.336 18.396 56.984 18.54 57.632H18.072ZM22.716 57.632C22.572 56.948 22.428 56.3 22.248 55.616H25.92C25.776 56.3 25.596 56.948 25.452 57.632H22.716ZM19.872 52.628V51.404H28.008V52.628H19.872ZM26.388 39.596V37.328L26.136 37.076H21.816L21.564 37.328V39.596H17.676L12.96 39.488L12.708 39.74V42.836L12.96 43.088L17.676 42.98H21.564V44.168H19.692L15.3 44.06L15.084 44.276V47.264L15.336 47.48L19.692 47.372H28.224L32.616 47.48L32.832 47.3V44.24L32.616 44.06L28.224 44.168H26.388V42.98H30.276L34.992 43.088L35.244 42.836V39.74L34.992 39.488L30.276 39.596H26.388ZM27.936 70.124V71.6H32.976L32.796 67.532V64.94L32.904 62.204L32.652 61.952L27.288 62.06H20.808L15.444 61.952L15.192 62.204L15.3 64.94V67.712L15.12 71.6H19.98V70.124H27.936ZM27.936 66.884H19.98V65.264H27.936V66.884ZM44.1 39.668C44.1 43.88 43.92 47.048 43.812 49.856C43.704 53.132 43.452 56.48 43.452 61.484C43.452 67.568 47.16 70.124 52.596 70.124C58.104 70.124 63.756 66.812 67.32 61.16C67.608 60.692 67.536 60.404 67.212 60.008L64.08 55.832C61.02 61.412 56.34 64.652 52.2 64.652C50.04 64.652 48.816 63.5 48.816 60.908C48.816 58.1 49.032 54.068 49.176 50.936C49.356 47.228 49.536 44.168 49.716 39.704L49.428 39.452L44.352 39.416L44.1 39.668ZM76.032 42.476C75.852 46.4 75.78 49.856 75.78 52.772C75.78 57.668 76.752 61.7 77.868 63.968C79.308 66.884 81.36 68.54 83.7 68.54C86.616 68.54 88.956 65.84 90.396 62.096C90.54 61.7 90.54 61.52 90.288 61.196L86.688 56.66C85.86 59.972 84.636 61.916 83.664 61.916C82.872 61.916 82.404 60.872 82.008 59.468C81.504 57.632 81.18 55.508 81.18 52.34C81.18 50.252 81.288 46.688 81.612 42.692L81.36 42.44L76.284 42.26L76.032 42.476ZM93.276 48.848C97.02 51.476 99.756 55.4 101.7 60.368L102.06 60.476L106.632 57.632L106.74 57.308C104.652 52.484 101.232 48.416 97.2 45.68L96.804 45.752L93.348 48.524L93.276 48.848ZM134.352 61.88V63.716H139.68L139.5 57.092V54.788L139.608 51.548L139.356 51.296L133.992 51.404H119.232L113.256 51.296L113.004 51.548L113.112 55.688V58.1C113.112 62.816 112.104 65.48 108.612 68.36L112.14 71.348C112.284 71.492 112.428 71.528 112.572 71.528C112.68 71.528 112.824 71.492 112.932 71.384C115.992 68.648 117.468 65.804 117.972 61.88H134.352ZM128.7 58.028V55.256H134.352V58.028H128.7ZM123.66 58.028H118.188V55.256H123.66V58.028ZM128.484 39.992V37.472L128.196 37.22H123.444L123.192 37.508V39.992H115.092L109.62 39.884L109.404 40.1V43.88L109.656 44.096L115.092 43.988H123.192V45.86H118.08L113.328 45.752L113.112 45.968V49.676L113.364 49.892L118.08 49.784H134.1L138.852 49.892L139.068 49.712V45.932L138.852 45.752L134.1 45.86H128.484V43.988H137.196L142.668 44.096L142.884 43.916V40.064L142.668 39.884L137.196 39.992H128.484ZM173.664 38.336C175.104 39.56 176.076 40.604 177.192 42.08H177.552L179.424 40.712L179.46 40.352C178.38 38.912 177.228 37.76 175.896 36.644L175.536 36.68L173.7 38.012L173.664 38.336ZM170.28 40.604C171.72 41.828 172.728 43.016 173.844 44.492H174.204L176.184 43.088L176.22 42.728C175.14 41.288 173.88 40.028 172.548 38.912L172.188 38.948L170.316 40.28L170.28 40.604ZM146.88 68.828L151.632 70.016L152.028 69.908C154.008 62.924 155.808 57.344 158.22 50.504C159.12 50.432 159.948 50.36 160.596 50.36C162.18 50.36 162.432 50.792 162.432 52.952C162.432 56.084 161.712 60.512 161.136 62.348C160.596 64.04 160.092 64.256 158.94 64.256C158.076 64.256 156.492 63.896 155.34 63.464L155.772 68.576C155.808 69.08 155.916 69.152 156.168 69.224C157.752 69.656 159.264 69.872 160.596 69.872C162.504 69.872 164.88 69.008 166.176 64.94C167.148 62.132 167.796 57.38 167.832 52.628C167.868 47.372 165.06 45.536 162.072 45.536C161.388 45.536 160.704 45.572 159.984 45.608C160.596 43.844 161.28 41.936 162.036 39.884L161.928 39.488L157.068 38.3L156.708 38.48C155.772 41.252 154.944 43.808 154.08 46.292C151.596 46.652 148.932 46.976 146.088 47.192L145.872 47.444L146.664 51.8L146.952 52.016C148.752 51.8 150.696 51.548 152.352 51.296C150.516 56.804 148.716 62.276 146.772 68.54L146.88 68.828ZM168.156 47.264C170.892 50.324 172.944 54.572 174.348 58.712L174.672 58.784L179.172 56.192L179.316 55.832C177.768 51.764 175.464 47.84 172.404 44.492H172.044L168.228 46.904L168.156 47.264Z" fill="white"/>
</svg>
