<svg width="182" height="50" viewBox="0 0 182 50" fill="none" xmlns="http://www.w3.org/2000/svg">
<rect width="182" height="50" fill="#483b19"/>
<path d="M43.664 19.8L39.904 28.44L36.176 19.8H33.92L38.816 31H40.864L45.744 19.8H43.664ZM48.5259 31H50.6059V19.8H48.5259V31ZM57.3153 29.256V26.168H62.7233V24.456H57.3153V21.544H63.4113V19.8H55.2353V31H63.6353V29.256H57.3153ZM81.7817 19.8L78.9177 28.36L76.0857 19.8H74.1657L71.2697 28.312L68.4857 19.8H66.3257L70.0377 31H72.2617L75.0777 22.712L77.8457 31H80.0538L83.7658 19.8H81.7817ZM105.573 31L105.557 19.8H103.845L99.4765 27.224L95.0285 19.8H93.3165V31H95.3005V23.672L98.9805 29.72H99.9085L103.589 23.576L103.605 31H105.573ZM115.43 31.16C118.902 31.16 121.462 28.728 121.462 25.4C121.462 22.072 118.902 19.64 115.43 19.64C111.958 19.64 109.398 22.088 109.398 25.4C109.398 28.712 111.958 31.16 115.43 31.16ZM115.43 29.336C113.174 29.336 111.494 27.688 111.494 25.4C111.494 23.112 113.174 21.464 115.43 21.464C117.686 21.464 119.366 23.112 119.366 25.4C119.366 27.688 117.686 29.336 115.43 29.336ZM134.834 31L132.258 27.32C133.778 26.728 134.642 25.48 134.642 23.784C134.642 21.304 132.818 19.8 129.874 19.8H125.266V31H127.346V27.736H129.874C130.018 27.736 130.162 27.736 130.306 27.72L132.594 31H134.834ZM132.546 23.784C132.546 25.192 131.602 26.024 129.778 26.024H127.346V21.56H129.778C131.602 21.56 132.546 22.376 132.546 23.784ZM140.65 29.256V26.168H146.058V24.456H140.65V21.544H146.746V19.8H138.57V31H146.97V29.256H140.65Z" fill="white"/>
</svg>
