<svg width="30" height="30" viewBox="0 0 30 30" fill="none" xmlns="http://www.w3.org/2000/svg">
<circle cx="14.999" cy="15" r="12.5" fill="#EDEAE2"/>
<path d="M15 27C21.63 27 27 21.63 27 15C27 8.37 21.63 3 15 3C8.37 3 3 8.37 3 15C3 21.63 8.37 27 15 27ZM15 0C23.25 0 30 6.75 30 15C30 23.25 23.25 30 15 30C6.705 30 0 23.25 0 15C0 6.75 6.75 0 15 0ZM15.75 16.545H13.5V7.5H15.75V16.545Z" fill="#555555"/>
<path d="M15.0842 15.0041L13.4932 16.5951L19.889 22.9909L21.48 21.3999L15.0842 15.0041Z" fill="#555555"/>
</svg>
