<svg width="246" height="41" viewBox="0 0 246 41" fill="none" xmlns="http://www.w3.org/2000/svg">
<path d="M29.894 14.37L28.76 9.036L28.34 8.826C25.442 9.75 22.586 10.338 19.142 10.674C19.1 8.28 19.1 5.718 19.1 2.946L18.764 2.652H12.926L12.59 2.946C12.674 11.472 13.01 17.184 13.514 23.526C12.674 23.442 12.254 23.4 10.658 23.4C4.946 23.4 0.326 26.214 0.326 30.582C0.326 35.748 4.4 38.058 10.196 38.058C16.412 38.058 19.436 34.866 19.94 31.002C22.544 32.304 25.4 34.194 28.634 37.26L29.096 37.218L32.876 32.43L32.834 31.968C28.844 28.818 24.266 26.466 19.856 24.66C19.604 22.098 19.436 19.494 19.31 16.638C23.006 16.344 26.534 15.756 29.684 14.79L29.894 14.37ZM13.304 29.154C13.346 31.254 12.128 32.514 9.86 32.514C7.592 32.514 6.206 31.926 6.206 30.54C6.206 29.49 7.55 28.65 9.776 28.65C11.498 28.65 12.212 28.818 13.304 29.154ZM68.66 38.436L72.818 33.228L72.776 32.808C66.308 28.314 58.706 23.946 53.288 21.468C52.91 21.3 52.616 21.006 52.574 20.712C52.532 20.418 52.784 19.956 53.204 19.62C57.278 16.05 63.62 11.556 69.542 7.524V7.104L65.174 2.274H64.712C58.286 7.272 51.944 12.354 47.156 17.016C45.728 18.402 44.804 19.704 44.804 21.426C44.804 23.358 45.896 24.66 47.618 25.542C55.64 29.7 61.814 33.522 68.282 38.478L68.66 38.436ZM98.312 35.286L102.26 31.8L102.344 31.422C102.092 31.128 101.798 30.834 101.546 30.414C104.528 27.432 106.922 23.652 108.518 19.326C110.786 20.124 112.256 21.93 112.256 25.164C112.256 29.91 109.778 32.934 100.748 34.446L104.486 38.73C104.696 38.982 104.864 38.982 105.2 38.982C112.76 37.596 118.514 33.354 118.514 25.374C118.514 20.838 114.902 15.798 109.862 14.874C109.946 14.538 110.03 14.16 110.156 13.572L109.946 13.278L104.738 12.06L104.444 12.27C104.36 12.9 104.192 13.53 104.066 13.95C102.554 13.95 101.042 14.076 99.53 14.328C99.614 13.152 99.698 12.102 99.74 11.514C103.436 11.052 107.006 10.464 110.828 9.708L111.038 9.33L110.786 4.122L110.366 3.954C106.838 4.962 103.562 5.592 100.244 6.054C100.412 4.71 100.538 3.408 100.706 2.106L100.496 1.728L94.868 1.518L94.574 1.854C94.49 3.45 94.364 5.046 94.238 6.642C91.844 6.81 89.492 6.852 87.392 6.852L87.098 7.146L87.182 12.06L87.434 12.354C89.702 12.312 91.844 12.228 93.902 12.06C93.818 13.488 93.734 14.622 93.692 16.05C88.19 18.948 83.78 24.492 83.78 30.792C83.78 34.236 85.67 36.798 88.946 36.798C91.424 36.798 94.154 35.832 96.842 34.152C97.22 34.614 97.514 34.908 97.934 35.286H98.312ZM93.65 21.93C93.692 24.282 93.902 26.676 94.49 28.986C92.852 30.078 91.466 30.708 90.668 30.708C89.786 30.708 89.24 30.288 89.24 29.364C89.24 27.096 91.13 23.988 93.65 21.93ZM99.404 24.576C99.194 22.812 99.068 20.754 99.236 18.99C100.412 18.654 101.63 18.444 102.806 18.528C102.008 20.67 100.748 22.896 99.404 24.576ZM132.206 11.43C136.07 10.338 139.766 9.456 142.958 8.784C137.372 14.328 132.08 20.124 126.284 26.76L126.326 27.222L130.82 30.834L131.24 30.792C135.692 25.038 140.018 21.09 146.024 21.09C149.51 21.09 151.736 23.442 151.736 26.382C151.736 29.322 150.98 31.296 148.502 32.472C147.368 29.532 144.974 26.256 139.976 26.256C136.574 26.256 133.55 29.364 133.55 32.094C133.55 36.882 137.75 38.94 142.706 38.94C152.408 38.94 158.162 34.614 158.162 26.97C158.162 20.46 153.92 16.134 147.578 16.134C145.814 16.134 144.344 16.218 142.328 17.226C145.814 13.782 148.166 11.64 151.568 8.28C152.198 7.65 152.324 6.852 152.324 6.096C152.324 4.08 150.56 2.442 148.46 2.442C143.882 3.03 137.414 4.038 131.03 5.466L130.778 5.844L131.87 11.22L132.206 11.43ZM143.252 33.816C142.916 33.9 142.496 33.942 141.908 33.942C139.766 33.942 138.8 33.144 138.8 32.262C138.8 31.506 139.556 31.17 140.396 31.17C141.404 31.17 142.832 32.01 143.252 33.816ZM188.234 16.05C189.956 14.622 191.216 13.068 191.804 10.884H194.408V11.388L194.198 15.168H199.994L199.784 11.472V10.884L204.194 11.01L204.446 10.8V6.852L204.194 6.642L199.826 6.768H192.308V5.55C195.29 5.298 199.322 4.836 203.48 4.038L203.606 3.618C202.388 2.274 201.758 1.686 199.994 0.341998L199.574 0.299999C196.592 1.098 193.568 1.56 190.502 1.896L186.848 1.182L186.554 1.518L186.68 5.55V6.6C186.68 9.96 186.092 11.388 183.026 13.278L186.134 16.05H176.81L171.56 15.924L171.266 16.26L171.392 20.922V28.608L171.14 34.026L171.434 34.32L177.062 34.194H177.23C173.828 35.16 169.88 35.874 165.47 36.42L168.116 39.948C168.41 40.326 168.788 40.368 169.418 40.284C173.828 39.738 179.162 38.562 183.152 37.092L183.194 36.798L180.044 34.194H189.788L187.058 37.008L187.184 37.302C191.594 37.932 196.298 39.024 200.498 40.326L200.876 40.242L204.026 36.588L203.9 36.294C200.078 35.286 196.046 34.656 192.392 34.194H193.232L198.818 34.32L199.112 33.984L198.986 28.608V20.922L199.112 16.26L198.818 15.924L193.568 16.05H188.234ZM177.272 19.662H192.896V21.132H177.272V19.662ZM177.272 30.624V29.07H192.896V30.624H177.272ZM177.272 25.92V24.324H192.896V25.92H177.272ZM181.724 10.926L185.252 11.01L185.504 10.8V6.852L185.252 6.642L180.884 6.768H174.248V5.55C177.272 5.298 180.548 4.836 184.79 4.038L184.916 3.618C183.698 2.274 183.068 1.686 181.304 0.341998L180.884 0.299999C177.818 1.098 175.592 1.56 172.442 1.896L168.788 1.182L168.494 1.518L168.62 5.382V6.6C168.62 10.464 167.738 12.06 164.546 14.118L167.822 17.352C168.158 17.688 168.41 17.856 168.62 17.856C168.83 17.856 169.082 17.688 169.376 17.478C171.728 15.672 173.198 13.74 173.828 10.884H176.348V11.388L176.138 15.168H181.934L181.724 11.472V10.926ZM235.274 35.622L236.618 39.234C236.786 39.654 236.954 39.864 237.794 39.864C242.624 39.864 245.312 38.73 245.312 34.992L245.102 22.98V7.314L245.228 1.728L244.976 1.434L240.482 1.56H232.796L228.344 1.434L228.05 1.728L228.176 6.6V13.194L228.05 17.898L228.386 18.276L232.838 18.15H239.474V32.892C239.474 33.9 239.39 34.068 238.886 34.152C238.004 34.236 237.08 34.278 236.03 34.32L235.862 29.364V24.912L235.988 20.922L235.694 20.628L231.116 20.754H222.674L217.886 20.628L217.592 20.922L217.718 24.912V29.784L217.508 36.042H223.052V33.648H230.402V35.622H235.274ZM233.594 11.724H239.474V13.698H233.594V11.724ZM233.594 7.944V6.012H239.474V7.944H233.594ZM223.052 29.238V25.08H230.402V29.238H223.052ZM213.434 1.56L208.94 1.434L208.688 1.728L208.814 7.314V25.878L208.604 40.158H214.19V18.15H220.49L224.942 18.276L225.278 17.898L225.152 13.194V6.6L225.278 1.728L224.984 1.434L220.532 1.56H213.434ZM214.19 7.944V6.012H219.818V7.944H214.19ZM214.19 11.724H219.818V13.698H214.19V11.724Z" fill="#483B19"/>
</svg>
