<svg width="66" height="22" viewBox="0 0 66 22" fill="none" xmlns="http://www.w3.org/2000/svg">
<rect width="66" height="22" fill="#483B19"/>
<path d="M12.232 5.256H10.576C10.612 5.472 10.66 6.06 10.66 6.312C10.66 6.516 10.66 6.864 10.648 7.284C10.408 7.296 10.168 7.308 9.952 7.308C9.52 7.308 9.004 7.296 8.296 7.212L8.32 8.664C8.728 8.712 9.196 8.724 10 8.724C10.192 8.724 10.408 8.712 10.636 8.7C10.636 9.036 10.636 9.372 10.636 9.708C10.636 9.984 10.636 10.272 10.648 10.56C9.172 11.196 7.972 12.288 7.972 13.332C7.972 14.604 9.616 15.612 10.78 15.612C11.572 15.612 12.1 15.216 12.1 13.728C12.1 13.32 12.076 12.384 12.052 11.436C12.784 11.22 13.564 11.1 14.308 11.1C15.352 11.1 16.072 11.58 16.072 12.396C16.072 13.272 15.304 13.752 14.332 13.932C13.912 14.004 13.396 14.016 12.856 14.016L13.408 15.564C13.9 15.528 14.428 15.492 14.98 15.372C16.888 14.892 17.632 13.824 17.632 12.408C17.632 10.752 16.18 9.792 14.332 9.792C13.672 9.792 12.844 9.9 12.028 10.104C12.028 9.948 12.028 9.804 12.028 9.66C12.028 9.312 12.028 8.94 12.04 8.58C12.82 8.484 13.648 8.364 14.332 8.208L14.296 6.72C13.672 6.9 12.88 7.056 12.088 7.152C12.1 6.852 12.112 6.564 12.124 6.3C12.148 5.988 12.196 5.472 12.232 5.256ZM15.652 6.552L14.992 7.716C15.736 8.076 17.308 8.976 17.884 9.468L18.604 8.244C17.968 7.788 16.576 6.996 15.652 6.552ZM9.448 13.272C9.448 12.852 9.94 12.36 10.672 11.964C10.696 12.612 10.708 13.164 10.708 13.464C10.708 13.872 10.54 13.968 10.324 13.968C10.012 13.968 9.448 13.644 9.448 13.272ZM28.036 5.328H26.296C26.332 5.472 26.38 5.88 26.416 6.372C26.428 6.468 26.428 6.588 26.44 6.744C24.808 6.768 22.624 6.816 21.256 6.816L21.292 8.268C22.768 8.184 24.64 8.112 26.452 8.088C26.464 8.352 26.464 8.628 26.464 8.892C26.308 8.868 26.152 8.856 25.984 8.856C24.676 8.856 23.584 9.744 23.584 11.1C23.584 12.564 24.724 13.308 25.648 13.308C25.84 13.308 26.02 13.284 26.188 13.248C25.528 13.968 24.472 14.364 23.26 14.616L24.544 15.888C27.472 15.072 28.384 13.08 28.384 11.52C28.384 10.896 28.24 10.332 27.952 9.876C27.952 9.348 27.94 8.688 27.94 8.076C29.572 8.076 30.688 8.1 31.408 8.136L31.42 6.72C30.796 6.708 29.152 6.732 27.94 6.732C27.952 6.588 27.952 6.456 27.952 6.36C27.964 6.168 28.012 5.52 28.036 5.328ZM25.024 11.076C25.024 10.44 25.48 10.116 25.948 10.116C26.272 10.116 26.56 10.26 26.728 10.536C26.896 11.592 26.452 11.976 25.948 11.976C25.468 11.976 25.024 11.628 25.024 11.076ZM41.236 5.328H39.496C39.532 5.472 39.58 5.88 39.616 6.372C39.628 6.468 39.628 6.588 39.64 6.744C38.008 6.768 35.824 6.816 34.456 6.816L34.492 8.268C35.968 8.184 37.84 8.112 39.652 8.088C39.664 8.352 39.664 8.628 39.664 8.892C39.508 8.868 39.352 8.856 39.184 8.856C37.876 8.856 36.784 9.744 36.784 11.1C36.784 12.564 37.924 13.308 38.848 13.308C39.04 13.308 39.22 13.284 39.388 13.248C38.728 13.968 37.672 14.364 36.46 14.616L37.744 15.888C40.672 15.072 41.584 13.08 41.584 11.52C41.584 10.896 41.44 10.332 41.152 9.876C41.152 9.348 41.14 8.688 41.14 8.076C42.772 8.076 43.888 8.1 44.608 8.136L44.62 6.72C43.996 6.708 42.352 6.732 41.14 6.732C41.152 6.588 41.152 6.456 41.152 6.36C41.164 6.168 41.212 5.52 41.236 5.328ZM38.224 11.076C38.224 10.44 38.68 10.116 39.148 10.116C39.472 10.116 39.76 10.26 39.928 10.536C40.096 11.592 39.652 11.976 39.148 11.976C38.668 11.976 38.224 11.628 38.224 11.076ZM54.988 5.592L53.332 5.436C53.332 5.712 53.296 6.228 53.236 6.576C53.212 6.756 53.176 6.948 53.128 7.152C52.204 7.188 51.316 7.416 50.404 7.872C50.32 7.62 50.248 7.368 50.188 7.14C50.092 6.78 49.996 6.384 49.924 5.988L48.352 6.48C48.568 6.912 48.7 7.296 48.832 7.728C48.94 8.052 49.036 8.376 49.156 8.7C48.064 9.66 47.38 11.124 47.38 12.492C47.38 14.04 48.292 14.88 49.288 14.88C50.176 14.88 50.848 14.484 51.652 13.608C51.772 13.764 51.916 13.92 52.06 14.076L53.272 13.116C53.044 12.9 52.828 12.648 52.612 12.396C53.296 11.352 53.824 9.972 54.244 8.58C55.444 8.904 56.188 9.9 56.188 11.232C56.188 12.732 55.144 14.088 52.516 14.304L53.428 15.696C55.924 15.312 57.736 13.86 57.736 11.316C57.736 9.216 56.488 7.692 54.604 7.26C54.64 7.104 54.676 6.96 54.712 6.804C54.784 6.504 54.892 5.916 54.988 5.592ZM48.784 12.372C48.784 11.628 49.108 10.776 49.672 10.116C50.02 11.016 50.404 11.832 50.788 12.42C50.344 12.96 49.9 13.332 49.468 13.332C49.036 13.332 48.784 12.96 48.784 12.372ZM50.836 9.18C51.4 8.844 52.036 8.592 52.768 8.508C52.492 9.396 52.132 10.332 51.7 11.1C51.412 10.62 51.112 9.924 50.836 9.18Z" fill="white"/>
</svg>
