<svg width="117" height="48" viewBox="0 0 117 48" fill="none" xmlns="http://www.w3.org/2000/svg">
<rect width="117" height="48" rx="3" fill="#483B19"/>
<path d="M40.232 19.256H38.576C38.612 19.472 38.66 20.06 38.66 20.312C38.66 20.516 38.66 20.864 38.648 21.284C38.408 21.296 38.168 21.308 37.952 21.308C37.52 21.308 37.004 21.296 36.296 21.212L36.32 22.664C36.728 22.712 37.196 22.724 38 22.724C38.192 22.724 38.408 22.712 38.636 22.7C38.636 23.036 38.636 23.372 38.636 23.708C38.636 23.984 38.636 24.272 38.648 24.56C37.172 25.196 35.972 26.288 35.972 27.332C35.972 28.604 37.616 29.612 38.78 29.612C39.572 29.612 40.1 29.216 40.1 27.728C40.1 27.32 40.076 26.384 40.052 25.436C40.784 25.22 41.564 25.1 42.308 25.1C43.352 25.1 44.072 25.58 44.072 26.396C44.072 27.272 43.304 27.752 42.332 27.932C41.912 28.004 41.396 28.016 40.856 28.016L41.408 29.564C41.9 29.528 42.428 29.492 42.98 29.372C44.888 28.892 45.632 27.824 45.632 26.408C45.632 24.752 44.18 23.792 42.332 23.792C41.672 23.792 40.844 23.9 40.028 24.104C40.028 23.948 40.028 23.804 40.028 23.66C40.028 23.312 40.028 22.94 40.04 22.58C40.82 22.484 41.648 22.364 42.332 22.208L42.296 20.72C41.672 20.9 40.88 21.056 40.088 21.152C40.1 20.852 40.112 20.564 40.124 20.3C40.148 19.988 40.196 19.472 40.232 19.256ZM43.652 20.552L42.992 21.716C43.736 22.076 45.308 22.976 45.884 23.468L46.604 22.244C45.968 21.788 44.576 20.996 43.652 20.552ZM37.448 27.272C37.448 26.852 37.94 26.36 38.672 25.964C38.696 26.612 38.708 27.164 38.708 27.464C38.708 27.872 38.54 27.968 38.324 27.968C38.012 27.968 37.448 27.644 37.448 27.272ZM51.236 20.384V21.032H49.4V20.384H51.236ZM49.4 22.676V21.992H51.236V22.676H49.4ZM52.568 23.756V19.292H47.984V30.044H49.4V23.756H52.568ZM53.948 25.76V27.176H51.968V25.76H53.948ZM55.28 28.352V24.584H50.636V29.024H51.968V28.352H55.28ZM54.752 22.688V21.992H56.648V22.688H54.752ZM56.648 20.372V21.032H54.752V20.372H56.648ZM58.088 19.292H53.396V23.768H56.648V28.316C56.648 28.532 56.564 28.604 56.336 28.604C56.108 28.616 55.292 28.628 54.596 28.58C54.8 28.964 55.028 29.636 55.076 30.044C56.18 30.044 56.936 30.008 57.428 29.768C57.932 29.54 58.088 29.132 58.088 28.34V19.292ZM62.12 20.42L60.272 20.396C60.344 20.768 60.368 21.284 60.368 21.62C60.368 22.352 60.38 23.756 60.5 24.86C60.836 28.076 61.976 29.264 63.296 29.264C64.256 29.264 65.012 28.532 65.804 26.444L64.604 24.98C64.376 25.94 63.896 27.344 63.332 27.344C62.576 27.344 62.216 26.156 62.048 24.428C61.976 23.564 61.964 22.664 61.976 21.884C61.976 21.548 62.036 20.852 62.12 20.42ZM68.12 20.696L66.596 21.188C67.904 22.676 68.54 25.592 68.732 27.524L70.304 26.912C70.172 25.076 69.26 22.076 68.12 20.696ZM79.388 26.396V28.352H74.648V26.396H79.388ZM73.244 30.056H74.648V29.612H79.388V30.056H80.852V25.136H73.244V30.056ZM74.576 22.688C75.56 21.908 76.4 21.056 76.964 20.252C77.54 21.044 78.428 21.908 79.424 22.688H74.576ZM76.16 18.848C75.26 20.312 73.34 22.124 71.276 23.12C71.588 23.42 71.984 23.936 72.176 24.284C72.812 23.936 73.448 23.54 74.036 23.108V23.948H80.012V23.12C80.612 23.552 81.236 23.948 81.848 24.26C82.1 23.816 82.424 23.348 82.772 22.976C80.864 22.208 78.92 20.684 77.636 18.848H76.16ZM86.264 20.348C86.264 20.48 86.24 20.816 86.216 21.272C85.7 21.344 85.172 21.404 84.824 21.428C84.404 21.452 84.128 21.452 83.78 21.44L83.936 22.976C84.608 22.88 85.532 22.76 86.12 22.688C86.108 22.976 86.084 23.264 86.06 23.54C85.376 24.548 84.176 26.132 83.492 26.972L84.44 28.28C84.86 27.716 85.448 26.84 85.952 26.084C85.94 27.092 85.928 27.788 85.904 28.724C85.904 28.916 85.892 29.348 85.868 29.612H87.524C87.488 29.336 87.452 28.904 87.44 28.688C87.368 27.56 87.368 26.552 87.368 25.568C87.368 25.256 87.38 24.908 87.392 24.56C88.4 23.636 89.516 23.024 90.788 23.024C91.988 23.024 92.744 23.888 92.744 24.824C92.756 26.696 91.244 27.56 89.132 27.872L89.852 29.324C92.828 28.736 94.352 27.284 94.352 24.86C94.34 22.928 92.888 21.62 91.04 21.62C89.96 21.62 88.724 21.956 87.512 22.856C87.524 22.748 87.524 22.628 87.536 22.52C87.74 22.208 87.98 21.812 88.148 21.596L87.704 21.032C87.8 20.276 87.896 19.664 87.968 19.328L86.216 19.268C86.276 19.64 86.264 20 86.264 20.348ZM104.18 19.58H102.572C102.608 19.82 102.656 20.384 102.656 20.684V22.04C101.564 22.136 100.4 22.244 99.38 22.34C99.38 21.872 99.392 21.464 99.392 21.188C99.392 20.684 99.404 20.348 99.464 19.94H97.772C97.832 20.372 97.868 20.78 97.868 21.272C97.868 21.476 97.868 21.92 97.868 22.484C97.484 22.52 97.172 22.544 96.956 22.568C96.344 22.628 95.792 22.652 95.444 22.652L95.612 24.188C95.924 24.14 96.668 24.02 97.052 23.972C97.256 23.948 97.532 23.924 97.856 23.888C97.856 25.004 97.856 26.168 97.868 26.684C97.928 28.76 98.3 29.408 101.408 29.408C102.548 29.408 104.024 29.312 104.828 29.216L104.888 27.584C103.988 27.74 102.476 27.884 101.3 27.884C99.5 27.884 99.392 27.62 99.368 26.444C99.344 25.928 99.356 24.824 99.368 23.72C100.388 23.612 101.564 23.504 102.632 23.42C102.62 23.996 102.584 24.548 102.536 24.872C102.512 25.1 102.404 25.148 102.164 25.148C101.924 25.148 101.432 25.076 101.06 24.992L101.024 26.324C101.444 26.384 102.404 26.504 102.836 26.504C103.448 26.504 103.748 26.348 103.88 25.712C103.976 25.208 104.024 24.224 104.06 23.312C104.408 23.288 104.72 23.276 104.984 23.264C105.296 23.252 105.932 23.24 106.136 23.252V21.776C105.788 21.812 105.32 21.836 104.984 21.86C104.708 21.872 104.408 21.896 104.084 21.92C104.096 21.524 104.096 21.092 104.108 20.624C104.12 20.3 104.156 19.772 104.18 19.58Z" fill="white"/>
<path d="M29.352 31.6377H10.6673C10.4903 31.6377 10.3206 31.5677 10.1955 31.4429C10.0703 31.3182 10 31.1491 10 30.9727V17.6717C10.0013 17.5996 10.0126 17.528 10.0334 17.4589C10.06 17.3792 10.1006 17.3049 10.1535 17.2394C10.2106 17.1707 10.2809 17.1142 10.3603 17.0732C10.4413 17.0258 10.5334 17.0006 10.6273 17H29.3921C29.485 17.0015 29.5763 17.0243 29.659 17.0665C29.7421 17.1107 29.8149 17.1719 29.8725 17.2461C29.9265 17.3082 29.9674 17.3806 29.9927 17.4589C30.0024 17.5295 30.0024 17.6011 29.9927 17.6717V30.9727C29.9928 31.1445 29.9262 31.3098 29.8067 31.4338C29.6873 31.5578 29.5244 31.6308 29.352 31.6377ZM11.3346 30.3076H28.6847V19.0018L20.3967 24.8675C20.2837 24.9477 20.1484 24.9908 20.0097 24.9908C19.8709 24.9908 19.7357 24.9477 19.6226 24.8675L11.3346 18.9685V30.3076ZM12.7493 18.3367L20.0097 23.5108L27.2901 18.3367H12.7493Z" fill="white"/>
</svg>
