<svg width="555" height="61" viewBox="0 0 555 61" fill="none" xmlns="http://www.w3.org/2000/svg">
<path d="M67.08 21.8C68.16 18.96 69.16 15.8 70.08 12.12L69.88 11.76L64.88 10.68L64.52 10.88C63.28 17.92 60.84 24.16 57.72 29.56L59.2 35.08C59.28 35.36 59.44 35.52 59.64 35.52C59.8 35.52 60 35.4 60.16 35.12C60.76 34.12 61.16 33.4 61.68 32.2V36.64L61.48 49H67.08V38.12L69.56 41.24C69.72 41.44 69.88 41.56 70.08 41.56C70.24 41.56 70.44 41.48 70.68 41.24C71.64 40.28 72.52 39.24 73.4 38.12V41.56L73.68 41.8L78.24 41.68H78.6L78.44 49H84.24L84.08 41.68H84.52L88.92 41.8L89.12 41.6V37.84C89.88 38.84 90.68 39.84 91.52 40.84C91.76 41.12 92 41.28 92.24 41.28C92.44 41.28 92.6 41.16 92.76 40.96L96.28 36.24C91.6 32.56 88.36 28.36 85.88 23.44H88.52L95 23.56L95.24 23.28V18.68L95 18.4L88.52 18.52H84.08V10.96L83.8 10.68H78.92L78.64 10.96V18.52H75.2L68.76 18.4L68.48 18.68V23.28L68.76 23.56L75.2 23.44H77.08C75.76 25.84 74.36 28.24 72.68 30.44C71.04 32.64 69.16 34.72 67.08 36.52V21.8ZM84.52 37.2H84L83.84 28.24C84.96 31.4 86.64 34.32 88.56 37.08L84.52 37.2ZM74.2 37.08C76.04 34.64 77.6 31.92 78.88 29.08L78.68 37.2H78.24L74.2 37.08ZM128.2 25.28L131.28 25.36L131.52 25.16V23.72C131.84 23.96 132.16 24.24 132.48 24.48C132.72 24.68 132.88 24.76 133.04 24.76C133.2 24.76 133.32 24.64 133.52 24.4L136.68 20.32C132.68 18.16 129.88 15.76 128.04 13C128.2 12.68 128.32 12.36 128.48 12.04L128.36 11.68L123.56 10.52L123.2 10.64C121.44 15 118.16 18.72 114.36 21.28V18.92L114 18.68L110.68 18.8V16.72L115.2 16.84L115.52 16.6V12.52L115.16 12.28L110.68 12.4H103.36L99.44 12.28L99.16 12.6L99.28 18.4V30.08L99.16 35.16L99.44 35.44L102.96 35.32H110.64C110.64 36.4 110.64 37.32 110.6 38.12C110.4 37.48 110.16 36.88 109.88 36.32L109.56 36.16L107.92 36.76L107.76 37.08C108.2 38.04 108.72 39.64 109.08 41.16L109.44 41.28L110.48 40.76C110.4 42.2 110.24 42.84 110 43.16C109.68 43.6 109.16 43.76 108.16 43.76C107.8 43.76 106.52 43.72 105.4 43.64L107.2 48.16C107.36 48.56 107.52 48.68 108 48.68H108.92C111.92 48.68 113 48.08 113.76 47.24C114.08 46.88 114.32 46.36 114.56 45.56L117.92 48.64C118.08 48.8 118.2 48.92 118.32 48.92C118.44 48.92 118.6 48.84 118.84 48.68C121.76 46.8 124.56 44.36 126.2 41C127.72 43.92 130.24 46.68 132.8 48.6C133 48.76 133.16 48.84 133.32 48.84C133.44 48.84 133.6 48.72 133.76 48.48L136.68 44.12C133.44 42.28 131.32 40.28 129.64 37.76H130L134.56 37.88L134.88 37.52L134.76 34V30.68L134.88 27.32L134.6 27.04L129.88 27.16H128.2V25.28ZM123.08 25.28V27.16H121.56L116.84 27.04L116.56 27.32L116.68 30.68V33.88L116.48 37.56L116.76 37.88L121.4 37.76H122.08L121.96 38.04C120.8 40.92 117.6 43.36 114.76 44.84C115.36 42.36 115.68 38.12 115.76 31.16L115.52 30.92L111.88 31H110.68V28.72L114.04 28.84L114.36 28.6V24.96L114 24.72L110.68 24.84V22.68L114.04 22.8L114.36 22.56V21.76L117.12 24.68C117.32 24.88 117.48 24.96 117.68 24.96C117.88 24.96 118.12 24.84 118.48 24.6C118.84 24.32 119.24 24.04 119.64 23.72V25.12L119.92 25.36L123.08 25.28ZM123 30.76C122.96 31.88 122.92 33.04 122.84 34.16H121.2V30.76H123ZM129.92 30.76V34.16H127.96C128.04 33.04 128.12 31.88 128.16 30.76H129.92ZM126.8 21.44H124.36L122.2 21.4C123.4 20.16 124.48 18.84 125.44 17.44C126.44 18.88 127.56 20.16 128.84 21.4L126.8 21.44ZM104.04 28.72H106.12V31H104.04V28.72ZM104.04 24.84V22.68H106.12V24.84H104.04ZM104.04 18.8V16.72H106.12V18.8H104.04ZM101.68 37.48L101.52 37.16L98.68 36.68L98.36 36.92C98.16 39.52 97.76 41.88 97.24 44.28L97.36 44.6L100.24 45.28L100.56 45.08C100.96 43.56 101.32 41.48 101.56 38.76C101.88 40.36 102.08 42.04 102.24 43.64L102.52 43.88L104.84 43.36L105 43.04C104.76 40.88 104.44 39.16 103.92 37.32L103.6 37.12L101.68 37.48ZM104.8 37.2L104.68 37.56C105.16 38.92 105.52 40.44 105.88 42.4L106.2 42.6L108.28 41.88L108.44 41.56C108.04 39.8 107.48 38 106.96 36.88L106.64 36.68L104.8 37.2ZM167.8 12.36L164.12 12.48H147.44L141.8 12.36L141.52 12.64V16.92L141.8 17.2L147.44 17.08H161.04C159.88 17.96 158.32 18.92 156.32 19.96C154.72 18.92 153.08 18 151.52 17.16H151.04L147.92 20.2V20.52C150.4 22.04 152.96 23.8 155.24 25.6H145.16L138.52 25.48L138.24 25.76V30.24L138.52 30.52L145.16 30.4H154.16V42.04C154.16 42.96 153.92 43.16 153.08 43.24C151.68 43.36 150.36 43.4 147.84 43.4L150.08 48.52C150.24 48.88 150.32 48.96 151.12 48.96C157.64 48.96 160.16 48.12 160.16 43.64L160 35.92V30.4H167.24C165.88 31.68 164.28 32.88 162.2 34.16L165.48 37.84C165.64 38.04 165.84 38.12 166.04 38.12C166.16 38.12 166.32 38.08 166.48 37.96C170.64 34.72 173.44 32.12 175.68 29.76C175.8 29.64 175.88 29.44 175.88 29.28C175.88 29 175.76 28.72 175.52 28.48L172.84 25.48L169.16 25.6H160.96L161.96 24.6V24.16C161.52 23.76 161.08 23.4 160.6 23C164.68 20.76 167.6 18.92 170.64 16.64C170.8 16.52 170.84 16.36 170.84 16.2C170.84 15.92 170.72 15.6 170.48 15.36L167.8 12.36ZM194.52 17.92L190.36 15.76L190 15.92C189 17.84 187.96 19.64 186.88 21.4C186.36 21 185.84 20.64 185.32 20.28C186.84 18.2 188.64 15.48 190.24 12.68L190.08 12.32L185.6 10.56L185.24 10.72C184.16 13.44 183.12 15.64 181.76 17.88C181.28 17.64 180.88 17.36 180.44 17.12L180.08 17.16L177.76 20.48L177.8 20.8C180.12 22.28 182.2 23.76 184.2 25.4C183.44 26.52 182.64 27.6 181.84 28.68C180.56 28.76 179.28 28.8 178 28.8L177.72 29.08L178.6 33.28L178.96 33.48C180.8 33.28 182.8 33.08 184.76 32.84V39.16L184.56 49H189.92L189.72 39.16V32.16C190.48 32.04 191.24 31.96 191.96 31.8C192.16 32.44 192.36 33.08 192.52 33.72L192.92 33.92L196.28 32.44L196.4 32.08C195.92 30.32 195.16 28.4 194.36 26.76L196.88 28.24C197.08 28.36 197.28 28.4 197.48 28.4C197.72 28.4 197.96 28.32 198.12 28.04C199.4 26.24 200.52 24.28 201.48 22.16H209.36C209.32 29.28 209.16 35.04 208.84 39.52C208.6 42.84 207.64 43.44 205.24 43.44C203.68 43.44 202.88 43.44 201.52 43.36L203.68 48.24C203.92 48.76 204.16 49 204.84 49H206.96C211.56 49 213.76 46.84 214.32 41.64C214.96 35.56 215.08 27.68 215.08 17.52L214.76 17.24L208.6 17.36H203.4C203.96 15.76 204.48 14.04 204.96 12.28L204.84 11.84L199.72 10.68L199.4 10.8C198.28 15.96 196.08 21.36 193.52 25.12L193.4 24.92L193.04 24.84L190.04 26.16L189.88 26.48C190.12 27 190.36 27.52 190.6 28.08C189.6 28.2 188.56 28.28 187.52 28.36C189.92 25.56 192.56 21.92 194.68 18.28L194.52 17.92ZM180.04 34.44L179.8 34.64C179.52 38.6 178.84 41.92 177.84 44.84L181.36 46.44C181.56 46.52 181.68 46.56 181.8 46.56C182.04 46.56 182.16 46.4 182.32 45.96C183.2 43.36 183.84 39.8 184.28 35.52L184.04 35.24L180.04 34.44ZM190.36 35.12L190.16 35.4C190.92 37.28 191.72 40.84 192.16 44.12L192.44 44.32L196.36 42.88L196.52 42.52C195.92 39.52 194.88 36.2 194.04 34.24L193.68 34.08L190.36 35.12ZM198.04 29.52L197.84 29.92C199.28 31.96 200.76 34.76 201.72 37.32L202 37.52L206.44 35.28L206.64 34.96C205.48 32.16 204.04 29.64 202.4 27.72L201.92 27.56L198.04 29.52Z" fill="#FFF500"/>
<path d="M252.16 45.08L255.28 40.92L255.32 40.48C253.36 38.56 251.12 36.84 247.96 35.52C247.76 32.52 247.6 29.12 247.56 25.52C249.68 25.32 251.64 25.04 253.28 24.76L253.52 24.44L252.8 19.6L252.4 19.4C250.84 19.64 249.16 19.88 247.52 20.08C247.52 18.16 247.56 16.16 247.56 14.12L247.24 13.8H241.96L241.64 14.16C241.64 16.4 241.64 18.6 241.72 20.6C239 20.76 236.24 20.84 233.32 20.84L233.04 21.08L233.16 25.96L233.44 26.28C236.16 26.24 239.08 26.16 241.84 25.96C241.92 28.92 242 31.6 242.12 34.12C241.16 34 240.76 33.92 239.6 33.96C235.96 33.96 231.96 35.92 231.96 40.32C231.96 44.76 235.8 46.56 239.96 46.56C244.2 46.56 246.96 45 247.68 41.24C248.92 42.16 250.32 43.52 251.72 45.16L252.16 45.08ZM242.04 38.88C242.16 40.6 241.72 41.36 239.56 41.36C237.64 41.36 237.04 40.68 237.04 40C237.04 39.16 237.88 38.52 239.48 38.52C240.72 38.48 241.32 38.64 242.04 38.88ZM223.4 14C223.36 16.44 222.88 19.2 222.24 22.16C221.24 26.68 220.8 32.32 220.8 36.2C220.8 40.76 221.8 43.92 223.08 45.68C223.8 46.6 224.96 47.44 226.24 47.44C227.72 47.4 228.8 46.52 228.88 44.76C229.08 42.04 229.4 40.4 230.96 35.96L229.76 35.32C229.16 36.24 228.56 37.04 227.76 37.84C227 38.6 226.76 38.52 226.56 37.72C226.36 36.84 226.32 36.04 226.32 35.24C226.32 32.08 226.88 27.56 227.8 23.96C228.84 19.8 229.28 17.28 229.36 14.92L229.12 14.56L223.68 13.8L223.4 14ZM266.72 16.4L266.52 22.08L266.84 22.36C269.24 22.6 271.84 22.72 274.08 22.72C278.56 22.72 282.8 22.4 286.6 21.72L286.92 21.44L286.76 15.8L286.48 15.56C282.28 16.16 277.96 16.56 274.12 16.56C271.76 16.56 269.4 16.44 267 16.2L266.72 16.4ZM262.12 35.88C262.6 40.36 264.76 45.2 276.72 45.2C281.16 45.2 286 45.08 290.68 44.56L290.92 44.2L290.36 38.2L290 37.92C285.72 38.56 281.32 38.92 277.12 38.92C270.44 38.92 268.28 38.28 267.6 34.12L267.28 33.96L262.32 35.6L262.12 35.88ZM301.56 19.44L301.88 24.48L302.12 24.76C304.32 24.72 306.52 24.6 308.68 24.44C307.6 29.08 306.04 33.2 303.72 37.8L303.8 38.16L308.68 40.56L309.08 40.44C311.96 35.08 316.32 32.96 320.6 33C323.48 33.04 325.6 34.08 325.6 36.36C325.6 39.68 321.44 42.44 310.76 42.48L313.6 47.36C313.88 47.88 314.16 48.04 314.68 48C327.28 47.24 332.24 42.64 332.24 36.84C332.24 30.8 326.92 28.08 322 28.08C318.48 28.08 315.24 28.88 312.68 30.4C313.48 28.28 314.16 26.12 314.72 23.84C318.44 23.4 322.04 22.8 325.44 22.04L325.64 21.68L325.08 16.52L324.8 16.32C321.88 17.12 318.96 17.68 316 18.16C316.36 16.4 316.64 14.52 316.96 12.52L316.76 12.24L311.12 11.84L310.84 12.08C310.52 14.44 310.24 16.68 309.84 18.84C307.2 19.04 304.56 19.12 301.84 19.12L301.56 19.44ZM349.52 16.88C353 17.88 355.68 19.08 358.92 20.88L359.32 20.8L362.04 16.12L361.96 15.72C358.36 13.84 355.4 12.84 352.28 12L351.88 12.2L349.4 16.56L349.52 16.88ZM346 21.88C344.8 27.6 344.08 33.36 344.16 38.88L344.44 39.24L349.32 39.68L349.72 39.48C352.96 33.8 357.4 31.8 361 31.8C364.32 31.8 365.16 33.56 365.16 35.96C365.16 39.8 359.2 41.92 348.48 42.24L351.8 47.12C352.12 47.6 352.36 47.64 353.08 47.64C364.24 47.04 371.8 43.68 371.8 35.88C371.8 30.84 368.16 26.68 361.48 26.68C357.12 26.68 353.08 28.4 350.04 31.56C350.4 28.56 350.84 25.96 351.64 23.04L351.4 22.68L346.4 21.72L346 21.88ZM380.2 45.92L385.48 47.24L385.92 47.12C388.12 39.36 390.12 33.16 392.8 25.56C393.8 25.48 394.72 25.4 395.44 25.4C397.2 25.4 397.48 25.88 397.48 28.28C397.48 31.76 396.68 36.68 396.04 38.72C395.44 40.6 394.88 40.84 393.6 40.84C392.64 40.84 390.88 40.44 389.6 39.96L390.08 45.64C390.12 46.2 390.24 46.28 390.52 46.36C392.28 46.84 393.96 47.08 395.44 47.08C397.56 47.08 400.2 46.12 401.64 41.6C402.72 38.48 403.44 33.2 403.48 27.92C403.52 22.08 400.4 20.04 397.08 20.04C396.32 20.04 395.56 20.08 394.76 20.12C395.44 18.16 396.2 16.04 397.04 13.76L396.92 13.32L391.52 12L391.12 12.2C390.08 15.28 389.16 18.12 388.2 20.88C385.44 21.28 382.48 21.64 379.32 21.88L379.08 22.16L379.96 27L380.28 27.24C382.28 27 384.44 26.72 386.28 26.44C384.24 32.56 382.24 38.64 380.08 45.6L380.2 45.92ZM403.84 21.96C406.88 25.36 409.16 30.08 410.72 34.68L411.08 34.76L416.08 31.88L416.24 31.48C414.52 26.96 411.96 22.6 408.56 18.88H408.16L403.92 21.56L403.84 21.96ZM429.52 16.88C433 17.88 435.68 19.08 438.92 20.88L439.32 20.8L442.04 16.12L441.96 15.72C438.36 13.84 435.4 12.84 432.28 12L431.88 12.2L429.4 16.56L429.52 16.88ZM426 21.88C424.8 27.6 424.08 33.36 424.16 38.88L424.44 39.24L429.32 39.68L429.72 39.48C432.96 33.8 437.4 31.8 441 31.8C444.32 31.8 445.16 33.56 445.16 35.96C445.16 39.8 439.2 41.92 428.48 42.24L431.8 47.12C432.12 47.6 432.36 47.64 433.08 47.64C444.24 47.04 451.8 43.68 451.8 35.88C451.8 30.84 448.16 26.68 441.48 26.68C437.12 26.68 433.08 28.4 430.04 31.56C430.4 28.56 430.84 25.96 431.64 23.04L431.4 22.68L426.4 21.72L426 21.88ZM480.12 13.84H473.84V35.24H480.12V13.84ZM477 38.48C474.88 38.48 473.12 40.24 473.12 42.36C473.12 44.48 474.88 46.2 477 46.2C479.08 46.2 480.84 44.48 480.84 42.36C480.84 40.24 479.08 38.48 477 38.48Z" fill="white"/>
<path d="M531.093 0L539.101 1.73417L521.005 57.5776L517.668 56.8551L531.093 0Z" fill="white"/>
<path d="M546.937 22.8608L554.274 26.1551L532.224 59.7645L529.167 58.3919L546.937 22.8608Z" fill="white"/>
<path d="M23.1812 0L15.1734 1.73417L33.2695 57.5776L36.6061 56.8551L23.1812 0Z" fill="white"/>
<path d="M7.33789 22.8613L4.01694e-05 26.1556L22.0505 59.765L25.1079 58.3924L7.33789 22.8613Z" fill="white"/>
</svg>
