<svg width="334" height="60" viewBox="0 0 334 60" fill="none" xmlns="http://www.w3.org/2000/svg">
<rect width="334" height="60" fill="#483b19"/>
<path d="M92.5339 24.068C93.8479 26.534 95.9179 29.378 97.6099 31.196C98.0239 30.602 98.8519 29.774 99.4099 29.324C97.7719 27.812 95.7199 25.292 94.6759 23.186L92.5339 24.068ZM87.4759 23.15C86.5399 25.652 84.8479 28.118 82.9939 29.576C83.5519 29.918 84.6139 30.728 85.0459 31.178C86.8819 29.468 88.7719 26.678 89.9239 23.852L87.4759 23.15ZM92.8399 33.248C93.5059 34.13 94.2259 35.156 94.8739 36.164C92.7859 36.272 90.6799 36.38 88.7359 36.47C89.8339 34.526 91.0039 32.114 91.9399 29.9L89.3659 29.306C88.6819 31.556 87.4399 34.436 86.2879 36.578L83.7859 36.668L84.0739 38.918C87.2419 38.774 91.7779 38.504 96.0979 38.216C96.4039 38.738 96.6559 39.224 96.8359 39.656L99.0679 38.486C98.1859 36.758 96.4939 34.22 94.9279 32.276L92.8399 33.248ZM108.446 32.024H111.326V29.954H103.604V32.024H106.322V36.362C105.026 36.578 103.838 36.758 102.92 36.902L103.514 39.062C105.836 38.558 109.004 37.91 111.956 37.262L111.794 35.354C110.696 35.57 109.544 35.786 108.446 35.984V32.024ZM119.012 27.902V25.814H117.32L118.544 24.752C118.058 24.158 116.996 23.312 116.186 22.754L114.764 23.924C115.484 24.464 116.384 25.202 116.87 25.814H114.026C113.99 24.842 113.99 23.834 114.008 22.844H111.704C111.704 23.834 111.722 24.842 111.758 25.814H102.92V27.902H111.866C112.298 34.238 113.648 39.566 116.726 39.566C118.436 39.566 119.156 38.738 119.48 35.336C118.886 35.102 118.094 34.58 117.608 34.076C117.518 36.362 117.302 37.316 116.924 37.316C115.61 37.316 114.512 33.158 114.134 27.902H119.012ZM123.386 38H131.468V35.768H126.05V24.662H123.386V38ZM135.592 38H138.256V24.662H135.592V38ZM143.334 38H145.854V32.654C145.854 31.124 145.656 29.45 145.53 28.01H145.62L146.97 30.872L150.822 38H153.522V24.662H151.002V29.99C151.002 31.502 151.218 33.266 151.344 34.652H151.254L149.922 31.772L146.052 24.662H143.334V38ZM158.616 38H166.986V35.768H161.28V32.204H165.96V29.972H161.28V26.894H166.788V24.662H158.616V38ZM178.384 35.66C178.384 34.976 179.068 34.544 180.094 34.544C180.58 34.544 181.066 34.616 181.534 34.742C181.534 34.868 181.534 34.976 181.534 35.066C181.534 36.128 181.156 36.704 180.058 36.704C179.104 36.704 178.384 36.398 178.384 35.66ZM183.73 23.906H181.156C181.228 24.266 181.282 24.824 181.282 25.094C181.282 25.472 181.3 26.21 181.3 27.092C180.886 27.11 180.454 27.11 180.04 27.11C178.96 27.11 177.916 27.056 176.89 26.948V29.09C177.952 29.162 178.978 29.198 180.04 29.198C180.454 29.198 180.886 29.198 181.318 29.18C181.336 30.458 181.408 31.772 181.444 32.888C181.084 32.834 180.688 32.816 180.274 32.816C177.826 32.816 176.278 34.076 176.278 35.894C176.278 37.784 177.826 38.828 180.31 38.828C182.74 38.828 183.712 37.604 183.82 35.876C184.54 36.362 185.26 36.992 186.016 37.694L187.258 35.804C186.394 35.012 185.26 34.094 183.766 33.482C183.694 32.258 183.604 30.818 183.568 29.072C184.558 29 185.494 28.892 186.358 28.766V26.516C185.494 26.696 184.558 26.84 183.568 26.93C183.586 26.138 183.604 25.472 183.622 25.076C183.64 24.68 183.676 24.248 183.73 23.906ZM174.946 24.104L172.462 23.888C172.444 24.464 172.354 25.148 172.282 25.652C172.084 27.038 171.544 30.44 171.544 33.158C171.544 35.606 171.886 37.658 172.264 38.918L174.298 38.756C174.28 38.504 174.262 38.198 174.262 38.018C174.262 37.82 174.298 37.424 174.352 37.172C174.568 36.2 175.144 34.364 175.648 32.888L174.55 31.988C174.28 32.6 173.974 33.212 173.74 33.842C173.686 33.482 173.668 33.032 173.668 32.672C173.668 30.872 174.262 26.912 174.532 25.706C174.586 25.382 174.802 24.464 174.946 24.104ZM193.576 24.914V27.29C195.034 27.416 196.6 27.488 198.49 27.488C200.2 27.488 202.432 27.38 203.692 27.272V24.878C202.306 25.022 200.254 25.13 198.472 25.13C196.582 25.13 194.908 25.058 193.576 24.914ZM195.088 32.546L192.73 32.33C192.586 32.996 192.37 33.878 192.37 34.922C192.37 37.388 194.44 38.774 198.562 38.774C201.082 38.774 203.242 38.54 204.808 38.162L204.79 35.624C203.206 36.074 200.902 36.344 198.472 36.344C195.88 36.344 194.782 35.516 194.782 34.364C194.782 33.752 194.908 33.194 195.088 32.546ZM217.606 23.654L215.05 23.546C215.086 24.14 215.068 24.59 214.96 25.364C214.924 25.58 214.888 25.832 214.852 26.102C213.754 26.084 212.404 25.94 211.324 25.76V27.992C212.242 28.082 213.304 28.136 214.438 28.154C213.97 30.134 213.25 32.528 212.386 34.202L214.51 34.958C214.69 34.652 214.816 34.418 215.014 34.166C216.094 32.798 217.93 32.06 220 32.06C221.764 32.06 222.682 32.96 222.682 34.04C222.682 36.686 218.704 37.172 214.762 36.524L215.392 38.846C221.206 39.476 225.112 38.018 225.112 33.968C225.112 31.664 223.186 30.116 220.27 30.116C218.668 30.116 217.264 30.44 215.806 31.25C216.076 30.368 216.364 29.216 216.616 28.118C219.028 27.992 221.89 27.65 223.762 27.344L223.726 25.202C221.548 25.67 219.118 25.94 217.066 26.048C217.102 25.85 217.138 25.652 217.174 25.49C217.3 24.896 217.408 24.284 217.606 23.654ZM235.264 23.51L234.688 25.67C236.092 26.03 240.106 26.876 241.924 27.11L242.464 24.914C240.898 24.734 236.974 24.05 235.264 23.51ZM235.372 27.128L232.96 26.786C232.834 29.018 232.42 32.546 232.06 34.31L234.13 34.832C234.292 34.472 234.472 34.184 234.796 33.788C235.93 32.42 237.766 31.664 239.8 31.664C241.366 31.664 242.482 32.528 242.482 33.698C242.482 35.984 239.62 37.298 234.22 36.56L234.904 38.918C242.392 39.548 244.984 37.028 244.984 33.752C244.984 31.574 243.148 29.63 239.998 29.63C238.108 29.63 236.326 30.152 234.688 31.34C234.814 30.314 235.138 28.118 235.372 27.128ZM257.368 23.78L254.686 23.51C254.704 24.644 254.56 25.958 254.308 27.326C253.39 27.398 252.544 27.452 251.986 27.47C251.32 27.488 250.708 27.524 250.06 27.47L250.276 29.918C250.816 29.828 251.77 29.702 252.274 29.612C252.616 29.576 253.174 29.504 253.822 29.432C253.174 31.898 251.932 35.534 250.186 37.892L252.526 38.828C254.182 36.182 255.514 31.916 256.198 29.18C256.702 29.144 257.152 29.108 257.44 29.108C258.574 29.108 259.186 29.306 259.186 30.746C259.186 32.528 258.952 34.706 258.466 35.732C258.178 36.326 257.71 36.506 257.116 36.506C256.63 36.506 255.604 36.326 254.902 36.128L255.298 38.504C255.91 38.63 256.756 38.756 257.458 38.756C258.808 38.756 259.816 38.36 260.41 37.1C261.184 35.534 261.436 32.618 261.436 30.494C261.436 27.902 260.086 27.056 258.178 27.056C257.8 27.056 257.26 27.092 256.666 27.128C256.792 26.48 256.918 25.814 257.044 25.274C257.134 24.824 257.26 24.248 257.368 23.78ZM263.56 25.472L261.418 26.39C262.696 27.974 263.974 31.232 264.442 33.23L266.728 32.168C266.188 30.458 264.676 27.02 263.56 25.472ZM274.864 23.51L274.288 25.67C275.692 26.03 279.706 26.876 281.524 27.11L282.064 24.914C280.498 24.734 276.574 24.05 274.864 23.51ZM274.972 27.128L272.56 26.786C272.434 29.018 272.02 32.546 271.66 34.31L273.73 34.832C273.892 34.472 274.072 34.184 274.396 33.788C275.53 32.42 277.366 31.664 279.4 31.664C280.966 31.664 282.082 32.528 282.082 33.698C282.082 35.984 279.22 37.298 273.82 36.56L274.504 38.918C281.992 39.548 284.584 37.028 284.584 33.752C284.584 31.574 282.748 29.63 279.598 29.63C277.708 29.63 275.926 30.152 274.288 31.34C274.414 30.314 274.738 28.118 274.972 27.128Z" fill="white"/>
<path fill-rule="evenodd" clip-rule="evenodd" d="M59.5 19C66.3922 19 72 23.55 72 29.1438C72 31.3828 71.1328 33.3984 69.3203 35.3844C66.6984 38.4031 60.8344 42.0797 59.5 42.6422C58.2031 43.1891 58.3531 42.3344 58.4125 41.9969L58.4172 41.9688L58.5953 40.8984C58.6375 40.5797 58.6812 40.0844 58.5547 39.7687C58.4141 39.4203 57.8609 39.2391 57.4547 39.1516C51.4469 38.3594 47 34.1578 47 29.1438C47 23.55 52.6094 19 59.5 19ZM54.8469 31.0094H52.4641V26.6844C52.4641 26.62 52.4386 26.5582 52.3932 26.5126C52.3478 26.4669 52.2863 26.441 52.2219 26.4406H51.3438C51.3117 26.4406 51.28 26.4469 51.2505 26.4592C51.2209 26.4714 51.194 26.4894 51.1714 26.512C51.1488 26.5347 51.1308 26.5615 51.1186 26.5911C51.1063 26.6207 51.1 26.6524 51.1 26.6844V32.1313C51.1 32.1953 51.1266 32.2562 51.1687 32.2984V32.3L51.1719 32.3031L51.175 32.3062C51.2203 32.3498 51.2809 32.3739 51.3438 32.3734H54.8469C54.9812 32.3734 55.0891 32.2641 55.0891 32.1297V31.2547C55.0893 31.2227 55.0832 31.1909 55.0711 31.1613C55.059 31.1316 55.0413 31.1047 55.0188 31.0819C54.9963 31.0591 54.9695 31.041 54.94 31.0285C54.9105 31.0161 54.8789 31.0096 54.8469 31.0094ZM56.0828 26.4406H56.9609C57.0953 26.4406 57.2031 26.55 57.2031 26.6844V32.1313C57.2031 32.2656 57.0938 32.3734 56.9609 32.3734H56.0828C56.0184 32.3734 55.9567 32.348 55.911 32.3026C55.8653 32.2572 55.8395 32.1956 55.8391 32.1313V26.6844C55.8391 26.55 55.9484 26.4406 56.0828 26.4406ZM62.1187 26.4406H62.9937C63.1297 26.4406 63.2391 26.55 63.2391 26.6844V32.1313C63.2391 32.2656 63.1297 32.3734 62.9953 32.3734H62.1187C62.0977 32.3736 62.0767 32.3709 62.0562 32.3656H62.0531C62.0473 32.3637 62.0416 32.3617 62.0359 32.3594L62.0281 32.3563L62.0172 32.3516C62.0129 32.3498 62.0087 32.3477 62.0047 32.3453L62 32.3438L61.9844 32.3344L61.9828 32.3328C61.9584 32.3165 61.9373 32.2958 61.9203 32.2719L59.4203 28.8969V32.1313C59.4205 32.1632 59.4144 32.1948 59.4023 32.2244C59.3902 32.254 59.3724 32.2809 59.3499 32.3035C59.3274 32.3262 59.3007 32.3441 59.2712 32.3564C59.2417 32.3687 59.2101 32.375 59.1781 32.375H58.3016C58.2372 32.375 58.1754 32.3495 58.1298 32.3042C58.0841 32.2588 58.0582 32.1972 58.0578 32.1328V26.6844C58.0578 26.55 58.1672 26.4406 58.3016 26.4406H59.1875L59.1953 26.4422H59.2047L59.2094 26.4437H59.2188L59.2344 26.4484H59.2375L59.2406 26.45L59.2562 26.4547L59.2641 26.4578C59.2689 26.4596 59.2736 26.4617 59.2781 26.4641L59.2828 26.4656L59.2859 26.4672C59.293 26.4709 59.2998 26.4751 59.3062 26.4797L59.3109 26.4828L59.3187 26.4875V26.4891C59.3219 26.4891 59.3234 26.4922 59.325 26.4938C59.3293 26.4966 59.3335 26.4998 59.3375 26.5031L59.3422 26.5078C59.3555 26.5201 59.3676 26.5337 59.3781 26.5484L61.875 29.9219V26.6844C61.875 26.55 61.9844 26.4406 62.1187 26.4406ZM68.0797 27.5609C68.0797 27.6953 67.9703 27.8047 67.8375 27.8047H65.4531V28.7266H67.8359C67.9703 28.7266 68.0781 28.8359 68.0781 28.9688V29.8453C68.0781 29.9797 67.9688 30.0891 67.8359 30.0891H65.4531V31.0109H67.8359C67.9703 31.0109 68.0781 31.1203 68.0781 31.2531V32.1297C68.0781 32.2641 67.9688 32.3734 67.8359 32.3734H64.3328C64.3009 32.3736 64.2694 32.3675 64.2399 32.3554C64.2104 32.3433 64.1836 32.3256 64.1609 32.3031L64.1578 32.2984C64.1142 32.2537 64.0895 32.1938 64.0891 32.1313V26.6844C64.0891 26.6188 64.1156 26.5594 64.1562 26.5172L64.1609 26.5125L64.1625 26.5109C64.2078 26.466 64.269 26.4407 64.3328 26.4406H67.8359C67.9703 26.4406 68.0781 26.55 68.0781 26.6844V27.5609H68.0797Z" fill="white"/>
</svg>
