<svg width="334" height="60" viewBox="0 0 334 60" fill="none" xmlns="http://www.w3.org/2000/svg">
<rect width="334" height="60" fill="#483B19"/>
<path d="M103.252 23.616C104.42 25.808 106.26 28.336 107.764 29.952C108.132 29.424 108.868 28.688 109.364 28.288C107.908 26.944 106.084 24.704 105.156 22.832L103.252 23.616ZM98.7563 22.8C97.9243 25.024 96.4203 27.216 94.7723 28.512C95.2683 28.816 96.2123 29.536 96.5963 29.936C98.2283 28.416 99.9083 25.936 100.932 23.424L98.7563 22.8ZM103.524 31.776C104.116 32.56 104.756 33.472 105.332 34.368C103.476 34.464 101.604 34.56 99.8763 34.64C100.852 32.912 101.892 30.768 102.724 28.8L100.436 28.272C99.8283 30.272 98.7243 32.832 97.7003 34.736L95.4763 34.816L95.7323 36.816C98.5483 36.688 102.58 36.448 106.42 36.192C106.692 36.656 106.916 37.088 107.076 37.472L109.06 36.432C108.276 34.896 106.772 32.64 105.38 30.912L103.524 31.776ZM117.396 30.688H119.956V28.848H113.092V30.688H115.508V34.544C114.356 34.736 113.3 34.896 112.484 35.024L113.012 36.944C115.076 36.496 117.892 35.92 120.516 35.344L120.372 33.648C119.396 33.84 118.372 34.032 117.396 34.208V30.688ZM126.788 27.024V25.168H125.284L126.372 24.224C125.94 23.696 124.996 22.944 124.276 22.448L123.012 23.488C123.652 23.968 124.452 24.624 124.884 25.168H122.356C122.324 24.304 122.324 23.408 122.34 22.528H120.292C120.292 23.408 120.308 24.304 120.34 25.168H112.484V27.024H120.436C120.82 32.656 122.02 37.392 124.756 37.392C126.276 37.392 126.916 36.656 127.204 33.632C126.676 33.424 125.972 32.96 125.54 32.512C125.46 34.544 125.268 35.392 124.932 35.392C123.764 35.392 122.788 31.696 122.452 27.024H126.788ZM130.676 36H137.86V34.016H133.044V24.144H130.676V36ZM141.526 36H143.894V24.144H141.526V36ZM148.408 36H150.648V31.248C150.648 29.888 150.472 28.4 150.36 27.12H150.44L151.64 29.664L155.064 36H157.464V24.144H155.224V28.88C155.224 30.224 155.416 31.792 155.528 33.024H155.448L154.264 30.464L150.824 24.144H148.408V36ZM161.992 36H169.432V34.016H164.36V30.848H168.52V28.864H164.36V26.128H169.256V24.144H161.992V36ZM179.564 33.92C179.564 33.312 180.172 32.928 181.084 32.928C181.516 32.928 181.948 32.992 182.364 33.104C182.364 33.216 182.364 33.312 182.364 33.392C182.364 34.336 182.028 34.848 181.052 34.848C180.204 34.848 179.564 34.576 179.564 33.92ZM184.316 23.472H182.028C182.092 23.792 182.14 24.288 182.14 24.528C182.14 24.864 182.156 25.52 182.156 26.304C181.788 26.32 181.404 26.32 181.036 26.32C180.076 26.32 179.148 26.272 178.236 26.176V28.08C179.18 28.144 180.092 28.176 181.036 28.176C181.404 28.176 181.788 28.176 182.172 28.16C182.188 29.296 182.252 30.464 182.284 31.456C181.964 31.408 181.612 31.392 181.244 31.392C179.068 31.392 177.692 32.512 177.692 34.128C177.692 35.808 179.068 36.736 181.276 36.736C183.436 36.736 184.3 35.648 184.396 34.112C185.036 34.544 185.676 35.104 186.348 35.728L187.452 34.048C186.684 33.344 185.676 32.528 184.348 31.984C184.284 30.896 184.204 29.616 184.172 28.064C185.052 28 185.884 27.904 186.652 27.792V25.792C185.884 25.952 185.052 26.08 184.172 26.16C184.188 25.456 184.204 24.864 184.22 24.512C184.236 24.16 184.268 23.776 184.316 23.472ZM176.508 23.648L174.3 23.456C174.284 23.968 174.204 24.576 174.14 25.024C173.964 26.256 173.484 29.28 173.484 31.696C173.484 33.872 173.788 35.696 174.124 36.816L175.932 36.672C175.916 36.448 175.9 36.176 175.9 36.016C175.9 35.84 175.932 35.488 175.98 35.264C176.172 34.4 176.684 32.768 177.132 31.456L176.156 30.656C175.916 31.2 175.644 31.744 175.436 32.304C175.388 31.984 175.372 31.584 175.372 31.264C175.372 29.664 175.9 26.144 176.14 25.072C176.188 24.784 176.38 23.968 176.508 23.648ZM193.068 24.368V26.48C194.364 26.592 195.756 26.656 197.436 26.656C198.956 26.656 200.94 26.56 202.06 26.464V24.336C200.828 24.464 199.004 24.56 197.42 24.56C195.74 24.56 194.252 24.496 193.068 24.368ZM194.412 31.152L192.316 30.96C192.188 31.552 191.996 32.336 191.996 33.264C191.996 35.456 193.836 36.688 197.5 36.688C199.74 36.688 201.66 36.48 203.052 36.144L203.036 33.888C201.628 34.288 199.58 34.528 197.42 34.528C195.116 34.528 194.14 33.792 194.14 32.768C194.14 32.224 194.252 31.728 194.412 31.152ZM214.428 23.248L212.156 23.152C212.188 23.68 212.172 24.08 212.076 24.768C212.044 24.96 212.012 25.184 211.98 25.424C211.004 25.408 209.804 25.28 208.844 25.12V27.104C209.66 27.184 210.604 27.232 211.612 27.248C211.196 29.008 210.556 31.136 209.788 32.624L211.676 33.296C211.836 33.024 211.948 32.816 212.124 32.592C213.084 31.376 214.716 30.72 216.556 30.72C218.124 30.72 218.94 31.52 218.94 32.48C218.94 34.832 215.404 35.264 211.9 34.688L212.46 36.752C217.628 37.312 221.1 36.016 221.1 32.416C221.1 30.368 219.388 28.992 216.796 28.992C215.372 28.992 214.124 29.28 212.828 30C213.068 29.216 213.324 28.192 213.548 27.216C215.692 27.104 218.236 26.8 219.9 26.528L219.868 24.624C217.932 25.04 215.772 25.28 213.948 25.376C213.98 25.2 214.012 25.024 214.044 24.88C214.156 24.352 214.252 23.808 214.428 23.248ZM230.124 23.12L229.612 25.04C230.86 25.36 234.428 26.112 236.044 26.32L236.524 24.368C235.132 24.208 231.644 23.6 230.124 23.12ZM230.22 26.336L228.076 26.032C227.964 28.016 227.596 31.152 227.276 32.72L229.116 33.184C229.26 32.864 229.42 32.608 229.708 32.256C230.716 31.04 232.348 30.368 234.156 30.368C235.548 30.368 236.54 31.136 236.54 32.176C236.54 34.208 233.996 35.376 229.196 34.72L229.804 36.816C236.46 37.376 238.764 35.136 238.764 32.224C238.764 30.288 237.132 28.56 234.332 28.56C232.652 28.56 231.068 29.024 229.612 30.08C229.724 29.168 230.012 27.216 230.22 26.336ZM249.772 23.36L247.388 23.12C247.404 24.128 247.276 25.296 247.052 26.512C246.236 26.576 245.484 26.624 244.988 26.64C244.396 26.656 243.852 26.688 243.276 26.64L243.468 28.816C243.948 28.736 244.796 28.624 245.244 28.544C245.548 28.512 246.044 28.448 246.62 28.384C246.044 30.576 244.94 33.808 243.388 35.904L245.468 36.736C246.94 34.384 248.124 30.592 248.732 28.16C249.18 28.128 249.58 28.096 249.836 28.096C250.844 28.096 251.388 28.272 251.388 29.552C251.388 31.136 251.18 33.072 250.748 33.984C250.492 34.512 250.076 34.672 249.548 34.672C249.116 34.672 248.204 34.512 247.58 34.336L247.932 36.448C248.476 36.56 249.228 36.672 249.852 36.672C251.052 36.672 251.948 36.32 252.476 35.2C253.164 33.808 253.388 31.216 253.388 29.328C253.388 27.024 252.188 26.272 250.492 26.272C250.156 26.272 249.676 26.304 249.148 26.336C249.26 25.76 249.372 25.168 249.484 24.688C249.564 24.288 249.676 23.776 249.772 23.36ZM255.276 24.864L253.372 25.68C254.508 27.088 255.644 29.984 256.06 31.76L258.092 30.816C257.612 29.296 256.268 26.24 255.276 24.864ZM265.324 23.12L264.812 25.04C266.06 25.36 269.628 26.112 271.244 26.32L271.724 24.368C270.332 24.208 266.844 23.6 265.324 23.12ZM265.42 26.336L263.276 26.032C263.164 28.016 262.796 31.152 262.476 32.72L264.316 33.184C264.46 32.864 264.62 32.608 264.908 32.256C265.916 31.04 267.548 30.368 269.356 30.368C270.748 30.368 271.74 31.136 271.74 32.176C271.74 34.208 269.196 35.376 264.396 34.72L265.004 36.816C271.66 37.376 273.964 35.136 273.964 32.224C273.964 30.288 272.332 28.56 269.532 28.56C267.852 28.56 266.268 29.024 264.812 30.08C264.924 29.168 265.212 27.216 265.42 26.336Z" fill="white"/>
<path fill-rule="evenodd" clip-rule="evenodd" d="M71.5 18C78.3922 18 84 22.55 84 28.1438C84 30.3828 83.1328 32.3984 81.3203 34.3844C78.6984 37.4031 72.8344 41.0797 71.5 41.6422C70.2031 42.1891 70.3531 41.3344 70.4125 40.9969L70.4172 40.9688L70.5953 39.8984C70.6375 39.5797 70.6812 39.0844 70.5547 38.7687C70.4141 38.4203 69.8609 38.2391 69.4547 38.1516C63.4469 37.3594 59 33.1578 59 28.1438C59 22.55 64.6094 18 71.5 18ZM66.8469 30.0094H64.4641V25.6844C64.4641 25.62 64.4386 25.5582 64.3932 25.5126C64.3478 25.4669 64.2863 25.441 64.2219 25.4406H63.3438C63.3117 25.4406 63.28 25.4469 63.2505 25.4592C63.2209 25.4714 63.194 25.4894 63.1714 25.512C63.1488 25.5347 63.1308 25.5615 63.1186 25.5911C63.1063 25.6207 63.1 25.6524 63.1 25.6844V31.1313C63.1 31.1953 63.1266 31.2562 63.1687 31.2984V31.3L63.1719 31.3031L63.175 31.3062C63.2203 31.3498 63.2809 31.3739 63.3438 31.3734H66.8469C66.9812 31.3734 67.0891 31.2641 67.0891 31.1297V30.2547C67.0893 30.2227 67.0832 30.1909 67.0711 30.1613C67.059 30.1316 67.0413 30.1047 67.0188 30.0819C66.9963 30.0591 66.9695 30.041 66.94 30.0285C66.9105 30.0161 66.8789 30.0096 66.8469 30.0094ZM68.0828 25.4406H68.9609C69.0953 25.4406 69.2031 25.55 69.2031 25.6844V31.1313C69.2031 31.2656 69.0938 31.3734 68.9609 31.3734H68.0828C68.0184 31.3734 67.9567 31.348 67.911 31.3026C67.8653 31.2572 67.8395 31.1956 67.8391 31.1313V25.6844C67.8391 25.55 67.9484 25.4406 68.0828 25.4406ZM74.1187 25.4406H74.9937C75.1297 25.4406 75.2391 25.55 75.2391 25.6844V31.1313C75.2391 31.2656 75.1297 31.3734 74.9953 31.3734H74.1187C74.0977 31.3736 74.0767 31.3709 74.0562 31.3656H74.0531C74.0473 31.3637 74.0416 31.3617 74.0359 31.3594L74.0281 31.3563L74.0172 31.3516C74.0129 31.3498 74.0087 31.3477 74.0047 31.3453L74 31.3438L73.9844 31.3344L73.9828 31.3328C73.9584 31.3165 73.9373 31.2958 73.9203 31.2719L71.4203 27.8969V31.1313C71.4205 31.1632 71.4144 31.1948 71.4023 31.2244C71.3902 31.254 71.3724 31.2809 71.3499 31.3035C71.3274 31.3262 71.3007 31.3441 71.2712 31.3564C71.2417 31.3687 71.2101 31.375 71.1781 31.375H70.3016C70.2372 31.375 70.1754 31.3495 70.1298 31.3042C70.0841 31.2588 70.0582 31.1972 70.0578 31.1328V25.6844C70.0578 25.55 70.1672 25.4406 70.3016 25.4406H71.1875L71.1953 25.4422H71.2047L71.2094 25.4437H71.2188L71.2344 25.4484H71.2375L71.2406 25.45L71.2562 25.4547L71.2641 25.4578C71.2689 25.4596 71.2736 25.4617 71.2781 25.4641L71.2828 25.4656L71.2859 25.4672C71.293 25.4709 71.2998 25.4751 71.3062 25.4797L71.3109 25.4828L71.3187 25.4875V25.4891C71.3219 25.4891 71.3234 25.4922 71.325 25.4938C71.3293 25.4966 71.3335 25.4998 71.3375 25.5031L71.3422 25.5078C71.3555 25.5201 71.3676 25.5337 71.3781 25.5484L73.875 28.9219V25.6844C73.875 25.55 73.9844 25.4406 74.1187 25.4406ZM80.0797 26.5609C80.0797 26.6953 79.9703 26.8047 79.8375 26.8047H77.4531V27.7266H79.8359C79.9703 27.7266 80.0781 27.8359 80.0781 27.9688V28.8453C80.0781 28.9797 79.9688 29.0891 79.8359 29.0891H77.4531V30.0109H79.8359C79.9703 30.0109 80.0781 30.1203 80.0781 30.2531V31.1297C80.0781 31.2641 79.9688 31.3734 79.8359 31.3734H76.3328C76.3009 31.3736 76.2694 31.3675 76.2399 31.3554C76.2104 31.3433 76.1836 31.3256 76.1609 31.3031L76.1578 31.2984C76.1142 31.2537 76.0895 31.1938 76.0891 31.1313V25.6844C76.0891 25.6188 76.1156 25.5594 76.1562 25.5172L76.1609 25.5125L76.1625 25.5109C76.2078 25.466 76.269 25.4407 76.3328 25.4406H79.8359C79.9703 25.4406 80.0781 25.55 80.0781 25.6844V26.5609H80.0797Z" fill="white"/>
</svg>
