<svg width="116" height="25" viewBox="0 0 116 25" fill="none" xmlns="http://www.w3.org/2000/svg">
<rect x="0.5" y="0.5" width="115" height="24" rx="12" fill="white" stroke="#483B19"/>
<path d="M19.84 14.12V12.296H21.916V14.12H19.84ZM27.496 14.12H23.392V12.296H26.56V10.964H23.392V9.536H26.836V8.156H20.056C20.212 7.832 20.344 7.508 20.452 7.172L19 6.8C18.484 8.348 17.56 9.884 16.48 10.796C16.828 11 17.44 11.48 17.716 11.72C18.28 11.156 18.856 10.388 19.348 9.536H21.916V10.964H18.412V14.12H16.516V15.488H21.916V18.056H23.392V15.488H27.496V14.12ZM32.236 8.324V8.96H30.388V8.324H32.236ZM30.388 10.604V9.92H32.236V10.604H30.388ZM33.568 11.624V7.292H28.972V18.044H30.388V11.624H33.568ZM35.752 10.628V9.92H37.66V10.628H35.752ZM37.66 8.324V8.96H35.752V8.324H37.66ZM32.98 15.884V15.14H34.96V15.884H32.98ZM34.96 14.12H32.98V13.4H34.96V14.12ZM39.1 7.292H34.396V11.648H37.66V16.34C37.66 16.532 37.588 16.604 37.372 16.604C37.216 16.616 36.772 16.616 36.304 16.604V12.356L32.272 12.344V12.356H31.684V17.54H32.98V16.928H35.956C36.1 17.3 36.232 17.744 36.268 18.044C37.3 18.044 37.996 18.008 38.464 17.768C38.944 17.54 39.1 17.12 39.1 16.352V7.292ZM40.648 12.896C42.004 12.74 43.864 12.524 45.628 12.296V12.128C45.868 12.38 46.108 12.716 46.228 12.956C47.968 12.02 48.412 10.532 48.556 8.504H49.864C49.78 10.436 49.684 11.204 49.516 11.408C49.408 11.528 49.312 11.552 49.144 11.552C48.964 11.552 48.58 11.552 48.148 11.516C48.352 11.84 48.508 12.392 48.52 12.788C49.048 12.788 49.552 12.788 49.852 12.74C50.2 12.692 50.452 12.584 50.692 12.272C51.004 11.876 51.124 10.724 51.232 7.844C51.244 7.688 51.244 7.304 51.244 7.304H45.856V8.504H47.224C47.128 10.016 46.84 11.12 45.616 11.84L45.604 11.204C45.04 11.264 44.464 11.324 43.9 11.384V10.532H45.424V9.464H43.9V8.72H45.58V7.652H43.9V6.836H42.58V7.652H40.732V8.72H42.58V9.464H40.936V10.532H42.58V11.528C41.812 11.6 41.116 11.672 40.54 11.72L40.648 12.896ZM51.34 14.948V13.748H46.624V13.04H45.184V13.748H40.684V14.948H45.004C44.608 15.704 43.456 16.448 40.384 16.868C40.66 17.192 41.02 17.72 41.2 18.068C44.26 17.636 45.64 16.748 46.228 15.776C47.14 17.108 48.508 17.78 50.8 18.056C50.992 17.636 51.352 17.024 51.664 16.688C49.42 16.556 48.028 16.052 47.248 14.948H51.34ZM52.852 13.856C52.756 14.864 52.564 15.932 52.216 16.64C52.528 16.748 53.056 17 53.308 17.156C53.656 16.388 53.908 15.188 54.028 14.06L52.852 13.856ZM55.528 14.12C55.828 14.852 56.14 15.824 56.236 16.436L57.364 16.04C57.22 15.428 56.908 14.492 56.584 13.784L55.528 14.12ZM59.272 8.864C59.5 8.312 59.704 7.736 59.86 7.148L58.396 6.836C58.012 8.348 57.304 9.884 56.416 10.832L56.332 10.688L55.324 11.132C55.468 11.384 55.612 11.672 55.744 11.96L54.532 12.008C55.312 11.036 56.152 9.812 56.824 8.756L55.612 8.252C55.324 8.852 54.94 9.548 54.508 10.22C54.388 10.064 54.244 9.884 54.088 9.716C54.52 9.044 55.012 8.12 55.444 7.292L54.184 6.848C53.98 7.472 53.644 8.276 53.308 8.936C53.212 8.852 53.116 8.768 53.02 8.684L52.348 9.668C52.852 10.148 53.44 10.796 53.788 11.312C53.608 11.576 53.416 11.828 53.236 12.056L52.348 12.092L52.468 13.34L54.244 13.22V18.056H55.504V13.124L56.188 13.076C56.26 13.316 56.32 13.532 56.356 13.724L57.436 13.22C57.304 12.62 56.92 11.732 56.5 10.976C56.86 11.192 57.388 11.552 57.628 11.768C57.988 11.336 58.324 10.808 58.648 10.22H61.96C61.828 14.312 61.648 16.064 61.288 16.436C61.144 16.592 61.012 16.64 60.784 16.64C60.46 16.64 59.776 16.64 59.02 16.568C59.284 16.976 59.476 17.6 59.5 18.008C60.196 18.032 60.94 18.044 61.372 17.972C61.876 17.9 62.188 17.768 62.524 17.312C63.028 16.676 63.196 14.78 63.352 9.524C63.364 9.344 63.364 8.864 63.364 8.864H59.272ZM60.628 14.348C60.376 13.592 59.692 12.488 59.068 11.66L57.928 12.236C58.54 13.1 59.164 14.252 59.392 15.008L60.628 14.348ZM64.828 8.768L64.984 10.412C66.376 10.112 68.824 9.848 69.952 9.728C69.136 10.34 68.164 11.708 68.164 13.436C68.164 16.04 70.54 17.384 73.06 17.552L73.624 15.908C71.584 15.8 69.736 15.092 69.736 13.112C69.736 11.684 70.828 10.136 72.28 9.752C72.916 9.596 73.948 9.596 74.596 9.584L74.584 8.048C73.732 8.084 72.424 8.156 71.188 8.264C68.992 8.444 67.012 8.624 66.004 8.708C65.776 8.732 65.308 8.756 64.828 8.768ZM72.88 10.76L71.992 11.132C72.376 11.672 72.628 12.14 72.928 12.8L73.84 12.392C73.612 11.924 73.18 11.192 72.88 10.76ZM74.224 10.208L73.348 10.616C73.732 11.144 74.008 11.588 74.332 12.236L75.232 11.804C74.98 11.336 74.524 10.628 74.224 10.208ZM82.672 9.608C82.636 9.356 82.528 9.044 82.384 8.768H84.58C84.484 9.044 84.376 9.356 84.268 9.608H82.672ZM85.816 14.732C85.816 14.876 85.768 14.912 85.636 14.924C85.552 14.924 85.372 14.924 85.156 14.924V12.836H84.028V12.176H85.444V11.312H84.028V10.688H85.816V14.732ZM84.172 14.3H82.876V13.64H84.172V14.3ZM81.076 8.816C81.196 9.056 81.304 9.344 81.376 9.608H80.008V16.016H81.292V10.688H83.008V11.312H81.604V12.176H83.008V12.836H81.904V15.476H82.876V15.104H84.748C84.868 15.404 84.988 15.788 85.024 16.064C85.744 16.064 86.248 16.052 86.644 15.86C87.028 15.644 87.124 15.332 87.124 14.756V9.608H85.564C85.696 9.356 85.84 9.08 85.996 8.768H87.376V7.664H84.136V6.836H82.756V7.664H79.696V8.768H81.28L81.076 8.816ZM79.516 9.044C79.132 8.468 78.304 7.676 77.632 7.136L76.54 7.952C77.212 8.528 78.004 9.356 78.34 9.944L79.516 9.044ZM79.192 11.492H76.492V12.8H77.836V15.416C77.356 15.824 76.816 16.22 76.348 16.52L77.02 17.936C77.632 17.42 78.124 16.964 78.604 16.496C79.324 17.42 80.284 17.768 81.712 17.828C83.176 17.888 85.72 17.864 87.208 17.792C87.28 17.396 87.484 16.736 87.652 16.4C85.996 16.532 83.164 16.568 81.724 16.508C80.5 16.46 79.66 16.124 79.192 15.32V11.492ZM94.84 13.196V11.72H97.372V13.196H94.84ZM91.108 13.196C91.132 12.752 91.144 12.32 91.144 11.936V11.72H93.4V13.196H91.108ZM93.4 8.996V10.388H91.144V8.996H93.4ZM97.372 10.388H94.84V8.996H97.372V10.388ZM98.788 7.64H89.728V11.924C89.728 13.604 89.62 15.74 88.312 17.18C88.636 17.348 89.212 17.84 89.44 18.104C90.304 17.168 90.736 15.848 90.952 14.54H93.4V17.888H94.84V14.54H97.372V16.34C97.372 16.556 97.288 16.628 97.06 16.628C96.844 16.628 96.052 16.64 95.38 16.604C95.56 16.976 95.788 17.588 95.836 17.972C96.916 17.984 97.648 17.96 98.14 17.72C98.62 17.504 98.788 17.12 98.788 16.352V7.64Z" fill="#555555"/>
</svg>
