<svg width="158" height="38" viewBox="0 0 158 38" fill="none" xmlns="http://www.w3.org/2000/svg">
<rect width="158" height="38" fill="#333333"/>
<path d="M39.3643 24.136H33.6843V21.96H39.3643V24.136ZM37.2683 15.352H35.3323V20.28H31.8283V26.392H33.6843V25.8H39.3643V26.376H41.3163V20.28H37.2683V18.536H42.2603V16.856H37.2683V15.352ZM36.6443 13.304V11.464H34.6603V13.304H28.9643V17.336C28.9643 19.64 28.8523 23 27.5403 25.288C27.9883 25.496 28.8363 26.04 29.1883 26.36C30.6283 23.864 30.8683 19.912 30.8683 17.336V15.112H42.4683V13.304H36.6443ZM49.9243 22.552V23.992H47.7163V22.552H49.9243ZM46.0683 26.36H47.7163V25.544H49.9243V26.04H51.6363V21.016H46.0683V26.36ZM58.1963 17.832V18.856H56.8683V17.832H58.1963ZM56.8683 21.432V20.392H58.1963V21.432H56.8683ZM53.9403 21.432V20.392H55.1723V21.432H53.9403ZM55.1723 17.832V18.856H53.9403V17.832H55.1723ZM60.0683 15.176V13.544H59.1243L59.9563 12.856C59.5883 12.424 58.8043 11.832 58.1963 11.464L57.0763 12.296C57.5883 12.648 58.1803 13.128 58.5803 13.544H56.8683V11.448H55.1723V13.544H52.0043V14.184C51.4123 13.336 50.3083 12.232 49.3803 11.464H47.7643C47.2363 12.648 46.3243 14.104 45.0123 15.208C45.3803 15.448 45.8923 16.024 46.1803 16.408V17.672H47.9723V18.76H45.6523V20.296H51.8923V18.76H49.7003V17.672H51.5403V16.216H49.7003V14.856H47.9723V16.216H46.5003C47.5403 15.208 48.2923 14.12 48.8683 13.176C49.6683 13.96 50.5003 15.064 50.9323 15.784L52.0043 14.44V15.176H55.1723V16.232H52.2923V26.328H53.9403V22.952H55.1723V26.248H56.8683V22.952H58.1963V24.536C58.1963 24.68 58.1483 24.728 58.0043 24.728C57.8763 24.744 57.4763 24.744 57.0923 24.728C57.3163 25.16 57.5243 25.88 57.5723 26.344C58.3403 26.344 58.8843 26.296 59.3163 26.024C59.7643 25.736 59.8603 25.304 59.8603 24.568V16.232H56.8683V15.176H60.0683ZM73.9243 15.208C73.9243 14.648 74.3723 14.184 74.9323 14.184C75.4923 14.184 75.9563 14.648 75.9563 15.208C75.9563 15.768 75.4923 16.216 74.9323 16.216C74.3723 16.216 73.9243 15.768 73.9243 15.208ZM72.8683 15.208C72.8683 16.36 73.7803 17.272 74.9323 17.272C76.0843 17.272 77.0123 16.36 77.0123 15.208C77.0123 14.056 76.0843 13.128 74.9323 13.128C73.7803 13.128 72.8683 14.056 72.8683 15.208ZM62.9163 20.44L64.8363 22.424C65.1243 22.008 65.5083 21.448 65.8763 20.936C66.5163 20.072 67.6523 18.488 68.2763 17.688C68.7403 17.112 69.0763 17.08 69.5883 17.592C70.1643 18.184 71.5883 19.736 72.5163 20.84C73.4603 21.944 74.8203 23.592 75.8923 24.92L77.6523 23.032C76.4203 21.72 74.7883 19.944 73.7163 18.808C72.7563 17.768 71.5243 16.488 70.4523 15.48C69.2043 14.312 68.2603 14.488 67.3163 15.608C66.2123 16.92 64.9643 18.488 64.2443 19.224C63.7483 19.704 63.3963 20.056 62.9163 20.44ZM81.4282 17.592V20.104C82.0202 20.056 83.0922 20.024 84.0042 20.024H92.5962C93.2682 20.024 94.0842 20.088 94.4683 20.104V17.592C94.0522 17.624 93.3482 17.688 92.5962 17.688H84.0042C83.1722 17.688 82.0042 17.64 81.4282 17.592ZM108.924 12.712L107.58 13.272C108.156 14.088 108.524 14.776 108.988 15.784L110.38 15.192C110.012 14.456 109.372 13.384 108.924 12.712ZM111.116 11.944L109.756 12.504C110.348 13.304 110.748 13.928 111.26 14.936L112.62 14.328C112.236 13.624 111.612 12.584 111.116 11.944ZM101.964 12.408L100.812 14.168C101.868 14.76 103.532 15.832 104.428 16.456L105.612 14.696C104.78 14.104 103.02 12.984 101.964 12.408ZM99.0038 23.768L100.204 25.864C101.612 25.608 103.916 24.808 105.548 23.896C108.156 22.376 110.428 20.36 111.9 18.136L110.668 15.96C109.404 18.248 107.164 20.44 104.444 21.96C102.716 22.92 100.796 23.464 99.0038 23.768ZM99.4998 16.056L98.3478 17.816C99.4198 18.392 101.084 19.464 101.996 20.104L103.164 18.312C102.348 17.736 100.588 16.632 99.4998 16.056ZM115.436 20.232L117.388 22.232C117.66 21.816 118.028 21.24 118.396 20.712C119.084 19.8 120.22 18.216 120.86 17.416C121.324 16.824 121.628 16.744 122.188 17.368C122.94 18.216 124.14 19.736 125.132 20.92C126.14 22.104 127.5 23.656 128.652 24.744L130.3 22.824C128.78 21.464 127.42 20.024 126.396 18.904C125.452 17.88 124.172 16.232 123.084 15.176C121.916 14.04 120.876 14.152 119.756 15.416C118.764 16.568 117.532 18.216 116.796 18.984C116.316 19.496 115.916 19.864 115.436 20.232Z" fill="white"/>
</svg>
