<svg width="498" height="37" viewBox="0 0 498 37" fill="none" xmlns="http://www.w3.org/2000/svg">
<path d="M7.93 0.737999C6.258 4.272 3.218 7.768 0.026 9.896C1.09 10.58 2.914 12.024 3.75 12.86C6.942 10.352 10.324 6.248 12.414 2.03L7.93 0.737999ZM7.626 4.728L6.524 8.756H33.808V4.728H7.626ZM0.824 13.582V17.648H35.176V13.582H0.824ZM1.47 22.512V26.578H34.644V22.512H1.47ZM12.718 6.172V24.64H16.556V6.172H12.718ZM5.992 6.172V24.678H10.02V6.172H5.992ZM19.33 6.172V24.678H23.13V6.172H19.33ZM26.018 6.172V24.678H30.198V6.172H26.018ZM11.578 28.706C12.034 31.062 12.3 34.178 12.3 36.04L16.784 35.394C16.746 33.532 16.29 30.53 15.796 28.212L11.578 28.706ZM19.14 28.782C20.014 31.138 20.85 34.216 21.116 36.078L25.676 35.166C25.334 33.304 24.384 30.302 23.434 28.06L19.14 28.782ZM26.702 28.592C28.412 31.024 30.426 34.368 31.262 36.458L35.898 34.9C34.948 32.772 32.782 29.542 31.072 27.224L26.702 28.592ZM4.738 27.376C3.864 30.15 2.192 33.114 0.444 34.71L4.852 36.458C6.676 34.482 8.31 31.366 9.184 28.44L4.738 27.376ZM60.902 0.927998V36.344H65.12V0.927998H60.902ZM55.164 13.392V17.648H70.744V13.392H55.164ZM60.104 15.672C59.04 19.434 56.722 24.716 54.442 27.528C55.126 28.82 56.114 30.834 56.532 32.24C59.04 28.592 61.396 21.98 62.612 16.888L60.104 15.672ZM65.044 17.876L62.954 19.662C64.322 21.524 66.868 25.742 67.856 27.908L70.668 24.336C69.832 23.272 66.146 18.864 65.044 17.876ZM55.088 3.854C56 6.628 56.722 10.314 56.798 12.708L60.218 11.796C60.028 9.402 59.268 5.792 58.28 3.018L55.088 3.854ZM67.628 2.828C67.21 5.526 66.298 9.364 65.538 11.796L68.388 12.594C69.338 10.352 70.478 6.742 71.466 3.664L67.628 2.828ZM81.992 0.699999V36.382H86.286V0.699999H81.992ZM70.63 24.488L71.352 28.744L90.846 25.21L90.162 20.992L70.63 24.488ZM72.796 5.906C74.924 7.274 77.584 9.364 78.724 10.846L81.118 7.388C79.864 5.982 77.166 4.082 75.038 2.79L72.796 5.906ZM71.086 15.482C73.29 16.774 76.064 18.826 77.356 20.232L79.636 16.622C78.268 15.216 75.418 13.392 73.214 12.214L71.086 15.482ZM119.498 0.889999C117.75 6.286 114.786 11.682 111.594 15.178C112.392 16.28 113.646 18.826 114.064 19.89C117.94 15.52 121.55 8.642 123.792 2.182L119.498 0.889999ZM116.42 11.378V36.382H120.752V7.084L120.714 7.046L116.42 11.378ZM132.608 0.927998V36.154H137.054V0.927998H132.608ZM122.956 7.502V11.834H147.58V7.502H122.956ZM127.592 25.932V29.998H142.146V25.932H127.592ZM138.65 9.934L135.42 10.884C137.51 18.37 141.044 26.16 145.224 30.72C146.022 29.504 147.542 27.946 148.606 27.148C144.502 23.272 140.664 16.394 138.65 9.934ZM131.202 9.592C129.188 16.356 125.274 23.5 120.942 27.376C121.93 28.136 123.45 29.732 124.172 30.834C128.694 26.198 132.304 18.37 134.47 10.504L131.202 9.592ZM189.456 18.94H199.146V22.474H189.456V18.94ZM185.732 15.672V25.742H203.06V15.672H185.732ZM194.016 4.728C195.878 7.768 199.26 11.34 202.49 13.316C203.06 12.062 204.01 10.428 204.808 9.364C201.426 7.768 198.082 4.272 195.84 0.737999H191.888C190.292 4.006 186.834 8.072 183.3 10.086C184.022 11.036 184.934 12.632 185.39 13.734C188.962 11.53 192.268 7.768 194.016 4.728ZM192.23 11.682V19.054C192.23 23.994 191.28 29.656 183.3 33.304C184.212 34.064 185.504 35.546 186.074 36.496C195.118 32.126 196.258 25.21 196.258 19.092V11.682H192.23ZM196.638 23.766L193.18 24.64C194.738 29.808 197.474 34.14 201.73 36.382C202.338 35.28 203.668 33.608 204.618 32.81C200.742 31.176 197.968 27.756 196.638 23.766ZM188.354 10.124V13.62H200.058V10.124H188.354ZM172.432 7.92V11.34H183.566V7.92H172.432ZM172.432 13.658V17.116H183.566V13.658H172.432ZM170.304 19.434V22.968H183.3V19.434H170.304ZM176.612 4.272V21.41H180.222V4.272H176.612ZM177.904 24.716C178.626 26.236 179.348 28.288 179.576 29.656L181.476 28.934C181.172 27.642 180.45 25.628 179.652 24.108L177.904 24.716ZM175.434 25.21C176.004 27.186 176.498 29.77 176.574 31.442L178.626 30.986C178.512 29.352 177.98 26.844 177.372 24.868L175.434 25.21ZM172.812 25.438C173.116 27.718 173.23 30.568 173.116 32.506L175.168 32.24C175.282 30.378 175.13 27.452 174.75 25.21L172.812 25.438ZM170 24.64C169.848 27.87 169.392 31.1 168.062 33.038L170.342 34.292C171.9 32.164 172.318 28.63 172.508 25.096L170 24.64ZM170.304 2.144V21.866H174.028V5.83H184.326V2.144H170.304ZM181.324 19.434V20.08C181.02 28.706 180.678 31.746 180.146 32.506C179.842 32.848 179.576 32.962 179.12 32.962C178.664 32.962 177.828 32.962 176.802 32.848C177.334 33.798 177.676 35.28 177.752 36.382C179.082 36.42 180.336 36.382 181.134 36.23C182.046 36.116 182.73 35.774 183.376 34.938C184.288 33.76 184.668 30.188 185.048 20.954C185.086 20.46 185.086 19.434 185.086 19.434H181.324ZM236.272 18.712V31.328C236.272 31.898 236.044 32.012 235.322 32.05C234.562 32.088 231.712 32.088 229.47 31.974C230.116 33.19 230.876 35.09 231.142 36.382C234.41 36.382 236.88 36.306 238.666 35.66C240.452 35.052 241.022 33.836 241.022 31.48V18.712H236.272ZM224.834 2.866V7.046H248.166V2.866H224.834ZM246.456 2.866V3.854C244.746 6.02 240.756 9.326 237.45 11.188C238.21 11.91 239.578 13.316 240.186 14.228C244.252 11.986 248.736 8.376 251.966 5.184L248.698 2.6L247.672 2.866H246.456ZM221.148 15.254V19.586H252.194V15.254H221.148ZM230.154 11.91C234.524 13.544 240.908 16.166 243.986 17.686L246.418 13.772C243.112 12.29 236.576 9.896 232.434 8.49L230.154 11.91ZM250.674 15.254V16.014C249.61 18.788 247.672 22.132 246.076 24.26L249.952 26.502C252.118 23.956 254.398 20.118 256.07 16.546L252.346 14.95L251.548 15.254H250.674ZM290.194 17.952C292.132 20.688 294.146 24.374 294.83 26.73L298.82 24.678C297.984 22.246 295.818 18.712 293.842 16.09L290.194 17.952ZM291.448 7.198V11.492H305.09V7.198H291.448ZM303.152 7.198V8.11C302.696 23.576 302.164 29.998 300.91 31.29C300.492 31.822 300.036 31.936 299.276 31.936C298.288 31.936 296.084 31.936 293.69 31.746C294.526 33.038 295.134 35.014 295.21 36.306C297.452 36.42 299.77 36.42 301.176 36.23C302.772 35.964 303.798 35.546 304.862 34.102C306.458 32.088 306.952 26.046 307.522 9.288C307.56 8.718 307.56 7.198 307.56 7.198H303.152ZM291.676 0.699999C290.422 5.678 288.104 10.656 285.216 13.658C286.356 14.304 288.37 15.672 289.282 16.432C292.17 12.974 294.792 7.388 296.388 1.726L291.676 0.699999ZM278.3 0.775998C277.426 3.436 275.792 7.084 274.424 9.364L277.502 10.618C278.984 8.528 280.77 5.146 282.328 2.182L278.3 0.775998ZM282.86 5.26C280.846 9.326 277.388 14.912 274.462 18.332L277.236 19.738C280.162 16.508 283.886 11.226 286.698 6.856L282.86 5.26ZM272.448 9.782C274.386 11.606 276.704 14.228 277.654 16.052L279.972 12.48C278.984 10.808 276.628 8.376 274.576 6.628L272.448 9.782ZM281.91 14.418C283.354 17.04 284.76 20.498 285.216 22.664L288.674 21.068C288.18 18.864 286.66 15.558 285.14 13.012L281.91 14.418ZM272.41 17.496L272.79 21.448C276.552 21.22 281.492 20.878 286.28 20.498V16.888C281.188 17.154 275.944 17.382 272.41 17.496ZM282.594 23.956C283.506 26.274 284.494 29.352 284.836 31.328L288.408 30.036C287.952 28.098 286.926 25.134 285.938 22.854L282.594 23.956ZM274.044 23.082C273.74 26.312 273.132 29.694 272.03 31.936C272.98 32.316 274.69 33.114 275.488 33.608C276.59 31.176 277.426 27.376 277.806 23.728L274.044 23.082ZM278.452 19.51V36.458H282.518V19.51H278.452ZM325.876 11.644V19.966H330.132V15.596H354.718V19.966H359.202V11.644H325.876ZM331.386 18.522V22.702H351.412V18.522H331.386ZM354.718 0.509999C347.726 1.878 336.288 2.79 326.218 3.132C326.636 4.12 327.168 5.868 327.244 7.008C337.352 6.704 349.208 5.868 357.796 4.196L354.718 0.509999ZM329.562 7.73C330.36 9.174 331.234 11.074 331.538 12.328L335.718 11.074C335.376 9.82 334.426 7.996 333.552 6.628L329.562 7.73ZM339.594 6.932C340.316 8.528 340.962 10.656 341.114 11.986L345.37 10.96C345.18 9.592 344.42 7.54 343.622 6.02L339.594 6.932ZM351.678 5.944C351.032 7.92 349.816 10.618 348.79 12.442L352.514 13.544C353.654 11.91 355.174 9.44 356.504 7.084L351.678 5.944ZM349.74 18.522V19.244C346.32 27.338 336.706 30.796 325.002 31.974C325.914 32.924 327.206 34.938 327.662 36.078C339.632 34.368 350.044 30.15 354.566 20.194L351.488 18.37L350.69 18.522H349.74ZM335.87 21.6L331.88 23.234C337.2 30.53 345.674 34.52 357.112 36.002C357.682 34.71 358.936 32.734 359.886 31.708C348.828 30.682 340.126 27.376 335.87 21.6ZM388.88 8.946V13.582H412.364V8.946H388.88ZM403.434 1.156V30.872C403.434 31.746 403.054 32.012 402.104 32.05C401.192 32.088 397.886 32.088 394.922 31.936C395.606 33.152 396.442 35.204 396.67 36.458C400.888 36.496 403.776 36.42 405.638 35.698C407.462 35.014 408.146 33.798 408.146 30.91V1.156H403.434ZM390.59 18.18C392.3 21.106 394.542 25.02 395.53 27.338L399.862 25.134C398.722 22.816 396.328 19.054 394.618 16.28L390.59 18.18ZM381.888 11.91V36.344H386.524V7.388L386.486 7.312L381.888 11.91ZM385.688 0.927998C383.636 6.514 380.178 12.062 376.53 15.52C377.366 16.66 378.734 19.168 379.228 20.308C383.522 15.938 387.626 8.984 390.172 2.372L385.688 0.927998ZM430.946 7.35V26.616H435.544V11.834H457.584V26.426H462.372V7.35H430.946ZM433.34 20.004V24.488H460.244V20.004H433.34ZM444.132 0.737999V36.42H448.958V0.737999H444.132ZM492.544 23.234H496.458L497.446 10.238L497.636 4.576H491.366L491.556 10.238L492.544 23.234ZM494.52 33.38C496.42 33.38 497.864 31.974 497.864 29.998C497.864 28.022 496.42 26.654 494.52 26.654C492.582 26.654 491.138 28.022 491.138 29.998C491.138 31.974 492.544 33.38 494.52 33.38Z" fill="white"/>
</svg>
